<svg viewBox="0 0 73 80" xmlns="http://www.w3.org/2000/svg" xmlns:xlink="http://www.w3.org/1999/xlink" id="73c86ebc-1963-475c-85c0-2257aa88fca3" overflow="hidden"><style>
.MsftOfcResponsive_Fill_000000 {
 fill:#000000; 
}
</style>
<g id="head_Pomp_1_" transform="translate(4194 1408)"><path d="M-4138.78-1379.93C-4139.36-1383.43-4137.64-1382.8-4138.96-1386.13-4141.9-1392.31-4149.9-1392.04-4155.78-1392.51-4162.33-1392.76-4168.96-1391.9-4175-1389.27-4176.44-1388.65-4177.83-1387.91-4179.16-1387.07-4180.31-1386.34-4180.15-1384.97-4179.43-1384.22-4184.66-1376.81-4181.81-1368.12-4185.98-1360.33-4186.75-1358.94-4188.51-1357.11-4189.18-1355.66-4190.2-1353.46-4189.38-1349.62-4187.07-1348.16-4183.82-1346.41-4181.88-1349.96-4180.28-1344.95-4178.04-1340.04-4175.29-1336.43-4171.98-1334.06-4168.67-1331.69-4164.91-1330.47-4160.92-1330.2-4154.67-1329.77-4148.12-1332.2-4141.18-1335.66-4139.87-1336.4-4138.48-1337.07-4137.48-1338.22-4135.22-1340.77-4134.23-1343.35-4134.18-1346.53-4134.16-1348.39-4134.68-1350.96-4135.05-1353.13-4136.15-1360.96-4137.81-1372.45-4138.78-1379.93Z" id="_Skin-38_1_" fill="#FFFFFF"/><path d="M-4159.05-1329.33C-4161.18-1329.32-4163.93-1329.97-4164.77-1332.07-4164.93-1332.63-4165.07-1333.45-4164.59-1333.88-4164.22-1334.13-4163.67-1334.02-4163.43-1333.65-4161.13-1329.74-4155.35-1332.01-4151.79-1332.69-4145.57-1334.54-4137.64-1337.37-4135.94-1343.23-4135.4-1345.63-4135.89-1348.21-4136.14-1350.67-4136.85-1358.73-4138.7-1370.06-4139.38-1379.02-4139.97-1380.26-4139.52-1381.79-4139.57-1383.1-4151.06-1380.88-4162.91-1381.71-4174.33-1384.55-4175.38-1383.05-4175.9-1381.24-4175.81-1379.41-4175.68-1377.35-4174.31-1375.47-4174.7-1373.37-4175-1371.23-4177.35-1370.57-4179.13-1370.09-4180.73-1369.81-4180.15-1367.83-4180.15-1366.63-4180.02-1364.75-4179.97-1362.91-4179.92-1361.02-4179.94-1360.14-4179.73-1359.17-4180.15-1358.35-4180.27-1358.13-4180.65-1357.78-4180.65-1357.78-4181.44-1357.03-4182.58-1357.95-4182.77-1358.86L-4182.77-1358.86C-4182.77-1358.88-4182.77-1358.91-4182.78-1358.93-4184.86-1359.01-4186.79-1357.6-4187.63-1355.73-4187.64-1355.7-4187.77-1355.38-4187.79-1355.35-4189.21-1351.83-4186.96-1347.18-4182.59-1348.48L-4182.59-1348.48C-4182.17-1348.61-4181.7-1348.65-4181.32-1348.43-4181.31-1348.42-4181.29-1348.4-4181.21-1348.39-4180.63-1348.31-4180.3-1347.63-4180.66-1347.1-4180.66-1347.09-4180.68-1346.95-4180.68-1346.94L-4180.68-1346.94C-4180.68-1346.92-4180.69-1346.9-4180.7-1346.88-4177.9-1342.69-4175.04-1337.92-4170.4-1335.52-4169.86-1335.19-4169.7-1334.35-4170.19-1333.9-4174.8-1330.43-4180.55-1342.59-4181.09-1346.28-4188.25-1342.88-4193.44-1351.93-4189.18-1357.74-4191.1-1364.48-4192.49-1372.26-4188.26-1378.2-4188.02-1379.33-4189.57-1380.33-4190.15-1381.31-4190.81-1382.39-4190.75-1383.95-4189.7-1384.77-4191.65-1388.07-4188.16-1391.82-4184.67-1390.64-4173.34-1401.34-4157.08-1405.83-4141.74-1404.24-4136.64-1403.74-4131.62-1402.55-4126.84-1400.7-4125.37-1400.14-4123.71-1399.54-4122.96-1398.04-4121.81-1395.89-4123.56-1393.53-4125.67-1392.89-4121.85-1390.34-4126.33-1387.79-4128.97-1387.06-4128.12-1382.83-4132.56-1381.05-4136.21-1381.55-4136.3-1380.36-4136.24-1378.43-4137.87-1378.34-4135.55-1369.59-4134.73-1361.79-4133.49-1352.71L-4133.49-1352.71C-4132.98-1348.18-4131.65-1342.89-4134.73-1338.96-4139.63-1333.04-4151.48-1329.8-4159.05-1329.33ZM-4179.91-1351.49C-4181.18-1351.78-4181.74-1353.14-4183.08-1353.46-4184.42-1353.98-4185.42-1353.76-4186.49-1353.9-4185.15-1355.59-4182.48-1355.6-4180.61-1354.74-4178.93-1354.12-4177.57-1352.06-4179.91-1351.49Z" id="_Ink-38_1_" class="MsftOfcResponsive_Fill_000000"/></g></svg>