<svg viewBox="0 0 59 81" xmlns="http://www.w3.org/2000/svg" xmlns:xlink="http://www.w3.org/1999/xlink" id="1d1bbfb8-3d45-4b8a-a396-aa841ab0258b" overflow="hidden"><style>
.MsftOfcResponsive_Fill_000000 {
 fill:#000000; 
}
</style>
<g id="head_Flat_Top_Long_1_" transform="translate(1228 2782)"><path d="M-1197.78-2768.31C-1189.26-2768.31-1177.2-2763.28-1176.26-2757.81-1176.13-2757.02-1175.74-2755.28-1175.41-2754.07-1172.96-2745.24-1172.46-2725.49-1173.64-2718.52-1174.97-2710.58-1183.33-2704.67-1191.7-2704.72-1199.51-2704.76-1205.97-2707.63-1209.95-2710.15-1211.83-2711.35-1212.53-2712.81-1213.16-2713.51-1215.14-2715.66-1217.96-2721.84-1217.96-2721.84-1217.96-2721.84-1224.06-2719.21-1224.73-2727.81-1225.12-2732.82-1221.33-2734.71-1221.33-2734.71-1221.33-2734.71-1223.05-2755.56-1219.43-2760.73-1215.8-2765.9-1206.3-2768.31-1197.78-2768.31Z" id="_Skin-15_3_" fill="#FFFFFF"/><path d="M-1195.67-2703.84C-1196.89-2703.97-1198.15-2703.96-1199.04-2704.88-1199.29-2705.13-1199.28-2705.65-1198.92-2705.82-1198.23-2706.13-1197.77-2706.17-1197.01-2706.06-1196.39-2705.98-1195.76-2705.91-1195.13-2705.86-1193.78-2705.77-1192.42-2705.77-1191.07-2705.87-1188.55-2706.08-1186.09-2706.74-1183.8-2707.82-1180.27-2709.49-1177.23-2712.22-1175.59-2715.81-1173.69-2719.97-1173.81-2724.79-1173.9-2729.27-1174-2734.17-1174.18-2739.06-1174.61-2743.95-1174.81-2746.32-1175.13-2748.68-1175.42-2751.03-1175.57-2752.29-1175.77-2753.54-1176.02-2754.78-1176.15-2755.43-1176.31-2756.08-1176.45-2756.73-1176.55-2756.71-1176.66-2756.7-1176.76-2756.7-1177.39-2756.68-1178.07-2756.83-1178.54-2757.28-1178.74-2757.14-1178.97-2757.07-1179.21-2757.06-1181.79-2756.94-1184.41-2757.09-1187-2757.1-1189.59-2757.1-1192.18-2757.09-1194.78-2757.09-1197.36-2757.08-1199.96-2757.06-1202.55-2757.13-1204.96-2757.19-1207.45-2757.14-1209.83-2757.58-1210.63-2754.74-1210.6-2751.62-1208.94-2749.08-1208.47-2748.36-1208.85-2747.52-1209.46-2747.07-1210.09-2746.62-1211.22-2745.92-1212.18-2745.84-1212.27-2745.64-1212.37-2745.43-1212.46-2745.22-1212.94-2744.18-1213.32-2743.1-1213.63-2742-1213.78-2741.43-1213.9-2740.85-1214.01-2740.26-1214-2740.16-1213.99-2740.06-1213.98-2739.96-1213.98-2739.95-1213.98-2739.94-1213.98-2739.92-1213.97-2739.88-1213.97-2739.83-1213.96-2739.81-1213.91-2739.51-1213.85-2739.22-1213.8-2738.93-1213.66-2738.21-1213.55-2737.5-1213.47-2736.77-1213.33-2735.45-1213.34-2733.74-1214.63-2732.96-1215.32-2732.54-1216.15-2732.58-1216.87-2732.86-1217.34-2733.06-1217.8-2733.3-1218.23-2733.58-1218.49-2733.74-1218.77-2733.86-1219.03-2734.03-1219.11-2734.07-1219.18-2734.12-1219.24-2734.18-1219.66-2734.09-1220.08-2733.94-1220.47-2733.75-1221.18-2733.39-1221.82-2732.89-1222.35-2732.29-1223.48-2731.03-1223.82-2729.26-1223.66-2727.61-1223.52-2726.08-1222.91-2724.32-1221.7-2723.3-1221.18-2722.85-1220.52-2722.61-1219.83-2722.61-1219.49-2722.62-1219.16-2722.68-1218.84-2722.77-1218.51-2722.86-1218.11-2722.83-1217.81-2722.95-1217.37-2723.13-1216.82-2722.58-1217-2722.14-1217.14-2721.8-1217.21-2721.5-1217.39-2721.24-1216.14-2719.21-1214.79-2717.25-1213.33-2715.36-1212.03-2713.67-1210.49-2712.24-1209.04-2710.68-1208.4-2709.99-1208.13-2708.64-1209.29-2708.35-1210.45-2708.05-1211.31-2709.29-1211.98-2710.05-1214.73-2713.18-1216.81-2716.77-1217.79-2720.83-1218.22-2720.53-1218.73-2720.34-1219.26-2720.27-1220.32-2720.13-1221.39-2720.34-1222.31-2720.87-1225.82-2722.9-1226.67-2728.38-1225.03-2731.81-1224.63-2732.64-1224.05-2733.37-1223.33-2733.95-1223.4-2734.06-1223.41-2734.19-1223.38-2734.32-1223.31-2734.55-1223.24-2734.79-1223.17-2735.02-1223.26-2735.06-1223.31-2735.15-1223.3-2735.24-1223.23-2735.91-1223.17-2736.59-1223.1-2737.26-1223.13-2738.28-1223.18-2739.3-1223.16-2740.33-1223.15-2741.96-1223.05-2743.6-1223.04-2745.23-1223.02-2750.94-1222.79-2756.63-1222.77-2762.33-1222.76-2765.12-1222.76-2767.92-1222.83-2770.7-1222.83-2770.74-1222.83-2770.78-1222.83-2770.81-1222.89-2773.04-1223.48-2776.03-1221.3-2777.47-1220.94-2777.69-1220.5-2777.73-1220.11-2777.56-1218.99-2778.34-1217.58-2778.72-1216.23-2778.94-1213.67-2779.35-1211.08-2779.55-1208.5-2779.81-1207.13-2779.95-1205.76-2780-1204.38-2779.97-1203.68-2779.95-1202.96-2779.98-1202.25-2780-1201.58-2780.03-1200.91-2780.05-1200.24-2780.04-1198.68-2780.02-1197.1-2779.96-1195.53-2779.83-1195.45-2779.84-1195.38-2779.84-1195.3-2779.85-1192.35-2780.14-1189.39-2779.88-1186.44-2779.75-1183.62-2779.64-1180.65-2779.34-1178.12-2778-1177.81-2777.84-1177.53-2777.64-1177.28-2777.41-1176.96-2777.37-1176.64-2777.27-1176.35-2777.11-1175.54-2777.28-1174.63-2776.91-1174.44-2775.97-1174.14-2774.59-1174.07-2773.18-1174.22-2771.78-1174.22-2771.75-1174.23-2771.71-1174.23-2771.68-1173.91-2770.36-1173.9-2768.99-1174.2-2767.67-1174.08-2766.04-1174.01-2764.42-1174-2762.79-1173.99-2761.67-1173.94-2760.52-1174.05-2759.4-1174.14-2758.42-1174.55-2757.64-1175.18-2756.89-1175.31-2756.76-1175.5-2756.71-1175.68-2756.76-1175.71-2756.77-1175.75-2756.78-1175.79-2756.79-1175.41-2755.97-1175.1-2755.09-1174.79-2754.26-1174.28-2752.93-1173.84-2751.58-1173.48-2750.2-1172.79-2747.42-1172.32-2744.6-1172.07-2741.75-1171.6-2736.68-1171.43-2731.57-1171.33-2726.48-1171.25-2721.66-1171.67-2716.63-1174.42-2712.51-1176.82-2708.9-1180.48-2706.28-1184.55-2704.87-1186.87-2704.06-1189.43-2703.77-1191.88-2703.69-1192.15-2703.69-1192.41-2703.68-1192.67-2703.68-1193.67-2703.69-1194.67-2703.74-1195.67-2703.84ZM-1216.65-2725.96C-1217.48-2726.51-1217.89-2727.51-1218.61-2728.2-1218.96-2728.53-1219.34-2728.83-1219.74-2729.1-1219.92-2729.23-1220.11-2729.35-1220.31-2729.45-1220.33-2729.46-1221.15-2729.73-1220.99-2729.38-1220.94-2729.26-1221.08-2729.13-1221.18-2729.23-1221.46-2729.52-1221.3-2729.87-1221.03-2730.13-1220.54-2730.6-1219.81-2730.49-1219.21-2730.38-1218.36-2730.21-1217.56-2729.87-1216.85-2729.39-1216.09-2728.88-1215.16-2728.18-1215.01-2727.22-1214.9-2726.53-1215.42-2725.78-1216.08-2725.78-1216.29-2725.78-1216.48-2725.85-1216.65-2725.96Z" id="_Ink-15_3_" class="MsftOfcResponsive_Fill_000000"/></g></svg>