<svg viewBox="0 0 82 85" xmlns="http://www.w3.org/2000/svg" xmlns:xlink="http://www.w3.org/1999/xlink" id="0a63f0b0-abdc-4051-aa82-21f2d1f8c9f0" overflow="hidden"><style>
.MsftOfcResponsive_Fill_000000 {
 fill:#000000; 
}
</style>
<path d="M37.194 16.068C59.929 14.95 70.189 30.958 70.853 38.107 71.314 43.07 68.381 48.791 68.381 53.226 68.381 55.49 68.941 58.39 68.808 63.324 68.008 69.991 60.91 79.144 53.161 79.144 45.412 79.144 35.327 81.287 26.765 69.027 25.962 67.877 15.8 61.339 14.813 55.126 12.352 39.651 20.971 16.866 37.194 16.068Z" id="_Skin_8_" fill="#FFFFFF"/><path d="M52.584 80.207C49.859 80.169 46.811 79.726 44.127 79.012 42.539 78.653 40.765 77.901 40.527 76.09 40.398 75.291 41.021 75.022 41.717 75.077 41.722 75.076 41.727 75.075 41.732 75.075 42.342 74.932 42.981 75.032 43.562 75.246 45.46 75.93 47.342 76.343 49.375 76.614 49.378 76.614 49.381 76.614 49.384 76.616 49.7 76.656 50.045 76.694 50.356 76.727L50.358 76.727C60.464 78.241 68.822 67.624 67.306 57.264 67.195 56.967 67.196 56.633 67.22 56.325 66.372 49.612 65.177 42.803 66.311 36.048 65.431 35.877 64.616 35.463 63.958 34.853 62.556 35.669 60.711 35.744 59.313 34.88 57.725 35.859 55.597 35.96 53.982 34.991 52.583 36.024 50.518 36.1 49.14 34.991 48.819 35.048 48.492 35.07 48.166 35.053 46.847 35.839 45.197 35.899 43.783 35.334 42.2 36.331 40.05 36.418 38.478 35.354 36.812 36.303 34.744 36.457 32.943 35.813 32.568 36.44 32.063 36.98 31.463 37.396 31.731 38.377 31.515 39.437 31.079 40.337 31.84 41.961 30.96 43.865 29.693 44.967 29.617 46.703 28.613 48.324 27.047 49.099 26.122 50.197 24.482 50.16 23.255 49.635 22.897 49.674 22.534 49.546 22.32 49.248 17.718 49.305 15.983 55.359 19.251 58.253 20.424 59.396 22.044 59.322 23.541 59.455 24.937 59.842 24.349 61.412 23.138 61.503 26.33 65.359 30.966 68.237 32.378 73.312L32.378 73.313C32.624 74.052 33.012 74.75 33.157 75.52 33.327 76.367 32.722 77.447 31.778 77.389 29.353 76.966 29.634 73.996 28.669 72.249 27.93 72.454 27.121 72.284 26.482 71.874 24.918 72.572 23.018 72.459 21.573 71.528 21.567 71.526 21.533 71.518 21.528 71.516L21.526 71.516C21.48 71.504 21.433 71.492 21.386 71.478 19.429 72.297 16.982 71.305 16.266 69.281 14.51 69.31 12.959 67.904 12.777 66.164 11.271 65.897 10.006 64.631 9.832 63.098 8.027 62.654 6.734 60.707 7.279 58.88L7.224 58.801C5.915 58.19 5.091 56.674 5.534 55.258 5.497 54.9 5.525 54.539 5.616 54.19 4.309 52.927 3.826 50.854 4.54 49.168 3.268 47.801 2.913 45.607 3.859 43.968 2.244 42.086 2.994 39.384 4.341 37.575 2.921 36.031 3.572 33.676 4.959 32.341 4.278 30.351 5.042 28.036 6.699 26.764 5.641 25.033 6.849 23.032 8.433 22.136 7.87 20.378 9.243 18.8 10.728 18.052 10.914 16.055 13.244 14.243 15.153 15.314 14.677 13.742 16.083 12.144 17.622 11.974 18.383 9.642 21.063 8.162 23.443 8.744 24.64 7.086 26.97 6.425 28.874 7.148 30.899 5.55 33.718 5.27 36.118 6.105 39.29 2.909 42.58 7.557 46.303 6.391L46.77 6.256C48.873 5.902 51.606 5.718 53.069 7.494 55.556 6.76 58.376 7.758 59.93 9.814 61.929 9.516 64.042 10.8 64.67 12.726 67.191 12.807 69.553 14.821 69.841 17.359 72.171 18.058 73.134 20.217 72.868 22.711 74.081 23.326 74.67 24.693 74.811 25.988 75.912 26.811 76.362 28.287 76.141 29.616 78.054 30.731 76.973 33.012 77.485 34.716 77.865 35.576 77.873 36.521 77.636 37.42 78.727 38.428 78.737 40.145 78.237 41.452 78.419 42.126 78.382 42.84 78.132 43.492 79.221 44.988 78.922 47.189 77.576 48.426 77.753 49.797 77.212 51.215 76.223 52.169 76.489 53.57 75.828 55.103 74.578 55.811 74.62 56.945 74.148 58.068 73.363 58.879 73.686 60.806 72.3 62.998 70.277 63.158 69.41 72.027 61.754 80.229 52.584 80.207ZM23.439 55.732C22.549 55.708 22.509 54.547 21.956 54.036 21.86 54.175 21.758 54.347 21.675 54.503 20.804 56.825 18.452 54.256 20.706 53.282 20.087 53.161 19.531 53.453 19.094 53.853 18.762 53.525 19.295 52.736 19.622 52.504 20.62 51.706 22.076 51.907 23.008 52.712 23.997 53.504 25.642 55.343 23.439 55.732Z" id="_Ink_7_" class="MsftOfcResponsive_Fill_000000"/></svg>