<svg viewBox="0 0 61 74" xmlns="http://www.w3.org/2000/svg" xmlns:xlink="http://www.w3.org/1999/xlink" id="3ad6f818-e1b7-48fd-8ac5-495694d0d431" overflow="hidden"><style>
.MsftOfcResponsive_Fill_000000 {
 fill:#000000; 
}
</style>
<g id="head_Flat_Top_1_" transform="translate(1228 2095)"><path d="M-1197.14-2087.65C-1190.27-2087.65-1181.71-2085.54-1178.19-2081.33-1177.34-2080.32-1177.17-2077.78-1176.99-2076.72-1175.88-2070.27-1169.67-2045.64-1171-2037.71-1172.34-2029.77-1179.54-2024.06-1191.06-2024.06-1202.58-2024.06-1211.18-2030.34-1213.15-2032.5-1215.12-2034.66-1219.05-2042.47-1219.05-2042.47-1219.05-2042.47-1220.57-2041.59-1221.77-2042.1-1223.44-2042.81-1224.96-2045.28-1224.98-2048.21-1225.01-2053.24-1220.97-2055.06-1220.97-2055.06-1220.97-2055.06-1222.41-2074.91-1218.78-2080.07-1215.16-2085.24-1205.66-2087.65-1197.14-2087.65Z" id="_Skin-14_3_" fill="#FFFFFF"/><path d="M-1190.57-2023.03C-1192.34-2023.03-1194.1-2023.23-1195.83-2023.6-1198.13-2023.79-1200.43-2026.53-1196.66-2026.39-1188.66-2024.57-1179.72-2025.92-1173.94-2033.66-1171.22-2037.81-1172.33-2042.78-1173.05-2047.45-1174.24-2055.02-1174.95-2059.9-1175.94-2066.4L-1175.94-2066.4C-1176.39-2069.47-1176.86-2072.24-1177.08-2075.43-1177.13-2076.19-1177.34-2077.75-1177.16-2077.77-1176.97-2077.78-1176.46-2075.81-1176.16-2074.85-1174.69-2070.26-1173.98-2065.97-1172.85-2060.72-1171.81-2055.26-1170.72-2049.75-1169.81-2044.21-1169.17-2040.44-1168.92-2036.3-1170.9-2032.88-1174.87-2026.21-1183.09-2023.13-1190.57-2023.03ZM-1209.71-2029.66C-1214.5-2031.16-1218.04-2037.13-1218.92-2041.9-1219.3-2040.94-1220.46-2040.72-1221.37-2040.91-1226.44-2041.77-1226.77-2051.75-1223.06-2054.18-1225.3-2059.44-1223.83-2065.34-1223.19-2070.79-1223.19-2070.79-1222.02-2079.48-1222.02-2079.48-1221.56-2084.52-1219.61-2090.89-1213.84-2091.87-1212.57-2092.13-1211.28-2092.22-1209.99-2092.19-1206.48-2092.13-1191.76-2091.78-1186.13-2091.66-1184.49-2091.63-1181.38-2091.6-1179.71-2091.57-1178.35-2091.39-1175.39-2092.11-1175.35-2090.09L-1174.17-2089.99C-1173.43-2089.97-1172.92-2089.14-1173.26-2088.47-1173.67-2087.63-1173.98-2085.75-1174.25-2084.21-1174.71-2082.33-1174.75-2080.31-1175.31-2078.77-1175.94-2077.66-1178.01-2077.86-1177.83-2079.34-1189.34-2079.72-1201.18-2079.48-1212.1-2075.95-1212.98-2075.42-1212.95-2074.44-1212.86-2073.57-1212.8-2072.72-1212.47-2072.88-1212.35-2072.24-1212.07-2071.16-1211.72-2070.09-1211.22-2069.09-1210.19-2067.66-1211.82-2066.3-1213.23-2066.22-1216.04-2066-1215.84-2062.48-1215.99-2060.32-1216.13-2058.38-1215.97-2056.45-1215.81-2054.52-1215.67-2053.37-1216.55-2052.25-1217.38-2053.04-1217.49-2053.14-1217.55-2053.01-1217.66-2053.14-1218.62-2054.25-1220.32-2054.1-1221.44-2053.28-1224.01-2051.67-1223.69-2044.69-1221.19-2043.51-1220.47-2043.22-1218.41-2043.61-1218.73-2042.36-1216.75-2038.7-1213.2-2033.62-1208.9-2031.84-1207.5-2031.43-1208.49-2029.5-1209.71-2029.66ZM-1217.99-2045.96C-1218.5-2045.94-1218.97-2046.33-1219.06-2046.83-1219.35-2048.04-1220.55-2049.12-1221.8-2049.28-1221.9-2049.29-1221.97-2049.46-1221.86-2049.51-1220.72-2050.07-1219.37-2050-1218.3-2049.32-1216.9-2048.53-1215.62-2046.24-1217.99-2045.96Z" id="_Ink-14_3_" class="MsftOfcResponsive_Fill_000000"/></g></svg>