<svg viewBox="0 0 80 79" xmlns="http://www.w3.org/2000/svg" xmlns:xlink="http://www.w3.org/1999/xlink" id="7e3e0da2-8336-4145-8d28-38a32fafe1e3" overflow="hidden"><style>
.MsftOfcResponsive_Fill_000000 {
 fill:#000000; 
}
</style>
<g id="Ponytail"><path d="M64.229 18.705 74.189 29.205C74.189 29.205 77.688 49.384 75.544 56.119 74.419 59.654 70.995 68.133 64.049 71.445 57.759 74.445 48.128 72.659 43.013 69.214 32.249 61.965 29.649 55.987 29.649 55.987 29.649 55.987 14.271 55.762 17.722 37.951 21.173 20.14 54.329 15.525 64.229 18.705Z" fill="#FFFFFF"/><path d="M36.109 7.925C36.459 8.59 35.669 9.225 33.149 11.025 30.629 12.825 27.929 18.105 25.109 17.925 22.289 17.745 21.629 16.185 22.349 13.125 23.069 10.065 25.589 7.185 29.149 6.465 32.678 5.751 35.509 6.785 36.109 7.925Z" fill="#FFFFFF"/><g><path d="M27.214 44.35 27.114 44.321C25.956 43.742 24.863 43.488 23.558 43.501L23.541 43.501C23.385 43.502 23.316 43.736 23.456 43.813 24.445 44.357 25.436 45.164 26.235 45.963 27.028 46.754 27.666 48.024 28.891 48.099 29.338 48.126 29.644 47.694 29.705 47.288 29.922 45.859 28.236 44.878 27.214 44.35Z" class="MsftOfcResponsive_Fill_000000"/><path d="M77.629 29.906C77.468 24.909 75.836 20.078 72.76 16.119 69.875 12.406 65.888 9.524 61.385 8.138 60.887 7.985 60.389 7.851 59.888 7.736 56.919 6.494 53.703 5.799 50.513 5.602 45.859 5.314 40.998 5.991 36.603 7.717 35.647 6.421 33.853 5.733 32.307 5.632 31.975 5.61 32.1 5.596 31.769 5.62 31.624 5.305 31.413 5.241 31.206 5.097 28.738 3.384 25.799 2.457 22.781 2.639 19.704 2.824 16.75 3.929 14.082 5.429 11.675 6.782 9.373 8.394 7.608 10.54 6.062 12.419 4.908 14.566 4.072 16.847 0.06 27.788 3.071 40.047 5.797 50.898 7.617 58.142 9.544 65.412 9.986 72.897 8.63 73.76 7.246 74.592 6.082 75.712 5.57 76.205 5.972 77.057 6.647 77.076 11.931 77.221 16.685 74.147 19.004 69.531 20.723 71.935 23.546 73.343 26.586 72.981 27.099 72.92 27.544 72.396 27.217 71.882 26.515 70.778 25.667 69.721 25.229 68.497 28.952 69.952 33.191 67.817 36.07 65.311 36.388 65.551 36.708 65.688 37.182 65.809 37.569 65.908 37.978 65.546 37.85 65.141 37.636 64.465 37.426 64.108 36.919 63.586 36.513 63.169 36.117 62.743 35.732 62.306 34.869 61.327 34.069 60.297 33.322 59.227 32.596 58.187 31.905 57.118 31.269 56.02 30.949 55.468 30.652 54.904 30.332 54.353 30.041 53.853 29.768 53.216 29.249 52.93 28.977 52.78 28.587 52.905 28.513 53.229 28.503 53.275 27.373 53.321 26.864 53.352 26.401 53.38 25.929 53.378 25.469 53.315 24.684 53.206 23.919 52.93 23.268 52.474 21.764 51.42 21.16 49.55 21.077 47.788 20.982 45.758 21.679 43.8 23.343 42.547 24.368 41.775 25.585 41.578 26.774 41.781 26.895 41.809 27.015 41.841 27.134 41.876 30.216 43.162 31.598 47.225 34.132 49.282 34.786 49.813 35.604 49.309 35.485 48.494 34.57 42.259 30.911 34.695 34.433 28.787 34.775 30.464 34.804 32.233 35.211 33.882 35.342 34.412 35.979 34.639 36.435 34.38 41.209 31.676 46.537 30.56 51.982 30.385 57.273 30.214 62.547 30.785 67.829 30.98 69.732 31.05 71.636 31.07 73.537 30.986 73.503 31.957 73.546 32.927 73.682 33.928 73.868 35.299 74.175 36.647 74.44 38.003 75.139 41.593 75.453 45.192 75.257 48.849 74.869 56.065 72.69 63.894 66.689 68.445 64.876 69.82 62.802 71.043 60.591 71.639 57.977 72.345 55.276 72.098 52.613 72.206 52.054 72.229 51.925 73.029 52.48 73.19 54.852 73.881 57.602 73.768 60.031 73.429 62.023 73.151 63.948 72.218 65.658 71.197 69.064 69.163 71.834 66.33 73.649 62.793 77.169 55.933 77.837 47.529 76.661 39.995 76.373 38.153 75.952 36.338 75.635 34.502 75.428 33.303 75.305 32.092 75.171 30.883 75.717 30.84 76.264 30.791 76.809 30.727 77.237 30.676 77.644 30.392 77.629 29.906ZM33.91 7.316C34.49 7.521 34.984 7.853 35.483 8.183 34.396 8.664 33.342 9.212 32.332 9.829 29.315 11.673 26.731 14.115 24.67 16.95 24.607 17.009 24.549 17.063 24.495 17.113 24.214 16.67 23.768 16.367 23.538 15.868 23.327 15.41 23.261 14.911 23.284 14.41 23.338 13.216 23.93 12.08 24.608 11.124 26.171 8.923 28.852 7.075 31.613 6.971 32.392 6.943 33.173 7.056 33.91 7.316Z" class="MsftOfcResponsive_Fill_000000"/><g><path d="M25.529 15.507C24.137 16.791 23.273 18.567 22.581 20.303 21.859 22.112 21.427 24.029 21.176 25.957 20.924 27.894 20.878 29.858 21.09 31.801 21.29 33.636 21.579 35.67 22.648 37.218 22.96 37.669 23.611 37.386 23.515 36.852 23.205 35.113 22.613 33.461 22.428 31.691 22.237 29.863 22.266 28.006 22.497 26.183 22.726 24.368 23.18 22.591 23.767 20.86 24.357 19.119 25.224 17.515 25.961 15.839 26.08 15.564 25.771 15.284 25.529 15.507L25.529 15.507Z" fill="#FFFFFF"/><path d="M47.865 15.697C48.959 17.297 49.63 19.095 49.96 21.001 50.308 23.01 50.058 25.031 50.308 27.036 50.354 27.407 50.906 27.558 51.012 27.131 51.516 25.114 51.233 22.779 50.82 20.764 50.415 18.792 49.632 16.889 48.238 15.41 48.056 15.217 47.711 15.472 47.865 15.697L47.865 15.697Z" fill="#FFFFFF"/><path d="M56.607 16.784C57.785 18.158 58.378 19.875 58.692 21.633 58.854 22.539 58.927 23.46 58.949 24.38 58.969 25.23 58.882 26.132 59.123 26.959 59.248 27.388 59.775 27.317 59.926 26.959 60.313 26.041 60.215 24.92 60.152 23.951 60.088 22.964 59.964 21.974 59.748 21.008 59.341 19.184 58.541 17.392 57.033 16.23 56.7 15.97 56.364 16.5 56.607 16.784L56.607 16.784Z" fill="#FFFFFF"/><path d="M65.967 18.938C66.484 20.269 67.01 21.622 67.257 23.034 67.53 24.599 67.365 26.146 66.996 27.682 66.858 28.257 67.648 28.442 67.86 27.92 69.098 24.883 68.082 21.418 66.448 18.734 66.3 18.49 65.855 18.649 65.967 18.938L65.967 18.938Z" fill="#FFFFFF"/></g></g></g></svg>