<svg viewBox="0 0 74 97" xmlns="http://www.w3.org/2000/svg" xmlns:xlink="http://www.w3.org/1999/xlink" id="f4b2cbfb-0cda-4e18-b322-8680a3605ab6" overflow="hidden"><style>
.MsftOfcResponsive_Fill_000000 {
 fill:#000000; 
}
</style>
<g id="TwoPlaits"><path d="M16.533 36.597C16.533 36.597 4.91 38.033 6.033 45.147 7.113 51.987 15.393 52.407 15.393 52.407L19.407 56.378C19.407 56.378 29.733 70.697 46.487 69.757 46.487 69.757 58.953 68.487 62.613 55.287 66.077 42.792 59.853 26.067 59.853 26.067 59.853 26.067 56.925 14.011 39.459 16.589 21.993 19.167 15.333 30.687 16.533 36.597Z" fill="#FFFFFF"/><g><path d="M7.353 78.447C7.353 78.447 5.963 78.589 6.753 82.327 7.543 86.065 13.463 85.427 13.113 80.327 12.763 75.227 7.353 78.447 7.353 78.447Z" fill="#FFFFFF"/><path d="M60.199 79.597C59.982 80.397 59.588 84.19 62.673 84.287 66.473 84.407 68.391 80.317 65.793 78.167 63.195 76.017 60.199 79.597 60.199 79.597Z" fill="#FFFFFF"/></g><g><path d="M71.091 86.653C70.97 84.532 69.349 81.902 67.109 82.22 67.442 81.648 67.651 81.023 67.673 80.383 67.707 79.407 67.141 78.695 66.304 78.397 67.209 76.64 67.212 74.299 66.117 72.642 65.595 71.853 64.873 71.167 63.973 70.846 65.852 69.321 67.097 66.863 66.172 64.558 65.816 63.672 65.213 62.941 64.464 62.377 64.427 62.329 64.39 62.281 64.351 62.233 64.117 61.956 63.85 61.721 63.56 61.522 63.902 61.231 64.222 60.918 64.506 60.576 66.079 58.682 66.493 56.005 64.847 54.021 64.484 53.584 64.062 53.216 63.602 52.903 63.867 51.626 64.061 50.334 64.198 49.042 64.607 45.169 64.498 41.165 63.679 37.349 63.26 35.396 62.713 33.475 62.269 31.528 62.153 31.018 62.05 30.505 61.955 29.991 64.07 29.797 65.883 28.583 66.699 26.418 67.611 24 67.254 21.132 66.635 18.69 65.997 16.173 64.866 13.995 63.207 11.998 59.385 7.398 53.653 4.643 47.899 3.371 42.13 2.096 35.926 2.1 30.245 3.811 27.344 4.685 24.478 5.777 21.807 7.216 19.789 8.302 17.497 9.738 16.222 11.759 15.857 11.257 15.348 10.883 14.664 10.767 13.539 10.577 12.566 11.261 12.154 12.275 11.456 13.99 11.828 15.941 11.934 17.764 10.895 17.694 9.821 17.426 8.826 17.75 7.341 18.233 7.241 20.038 7.61 21.324 7.844 22.139 8.492 22.806 8.953 23.53 9.094 23.864 9.242 24.178 9.383 24.459 9.424 24.616 9.449 24.778 9.452 24.947 9.474 26.03 9.055 27.216 8.771 28.25 8.485 29.294 8.167 30.331 7.935 31.389 7.44 33.651 7.228 36.242 8.595 38.247 8.6 38.255 8.719 38.478 8.724 38.485 7.162 39.169 6.006 40.495 5.461 42.126 4.825 44.028 4.934 46.212 5.946 47.957 6.98 49.739 8.707 51.17 10.546 52.062 10.669 52.122 10.801 52.183 10.939 52.245 10.014 52.658 9.175 53.232 8.521 54.02 6.875 56.004 7.289 58.681 8.862 60.575 9.146 60.917 9.466 61.23 9.808 61.521 9.518 61.72 9.251 61.955 9.017 62.232 8.977 62.279 8.941 62.327 8.904 62.376 8.154 62.94 7.551 63.671 7.196 64.557 6.271 66.862 7.516 69.32 9.395 70.845 8.495 71.166 7.773 71.852 7.251 72.641 6.157 74.297 6.158 76.634 7.061 78.391 5.398 78.951 5.527 80.841 6.309 82.228 4.043 81.864 2.398 84.515 2.276 86.652 2.103 89.682 4.365 91.86 6.053 94.087 6.453 94.615 7.264 94.454 7.311 93.746 7.431 91.931 8.89 90.562 9.999 89.259 10.948 88.144 12.227 86.661 11.509 85.128 11.461 85.026 11.383 84.966 11.295 84.937 11.603 84.867 11.905 84.744 12.195 84.559 13.433 83.769 13.843 82.234 14.013 80.841 14.028 80.834 14.042 80.829 14.057 80.822 16.104 79.88 17.181 77.446 16.922 75.271 16.772 74.012 16.235 72.959 15.432 72.181 16.069 72.013 16.679 71.755 17.234 71.409 18.979 70.737 20.064 69.027 19.941 67.098 19.923 66.809 19.882 66.524 19.823 66.244 19.799 65.931 19.754 65.62 19.689 65.317 19.589 64.851 19.416 64.433 19.186 64.066 20.653 63.74 21.946 62.962 22.744 61.684 22.798 61.735 22.849 61.788 22.903 61.839 23.99 62.862 25.14 64.13 26.643 64.4 27.113 64.485 27.482 64.043 27.256 63.602 26.592 62.307 25.263 61.52 24.208 60.533 23.118 59.513 22.091 58.425 21.126 57.286 20.177 56.167 19.281 55 18.452 53.79 18.026 53.168 17.632 52.525 17.21 51.902 17.136 51.793 17.062 51.676 16.987 51.556 16.966 51.511 16.939 51.47 16.908 51.431 16.617 50.971 16.297 50.488 15.861 50.226 15.52 50.021 15.127 50.289 15.107 50.659 15.098 50.829 15.118 51.002 15.158 51.174 14.903 51.178 14.646 51.181 14.382 51.166 13.629 51.122 12.882 50.91 12.181 50.64 10.637 50.046 9.162 49.027 8.119 47.737 6.271 45.452 6.606 41.601 9.312 40.105 10.026 39.71 10.823 39.472 11.636 39.402 12.093 39.363 12.556 39.362 13.012 39.417 13.532 39.48 14.084 39.427 14.594 39.514 14.914 40.518 15.336 41.498 15.819 42.429 16.513 43.768 17.444 45.015 18.79 45.751 19.172 45.96 19.793 45.88 19.991 45.436 20.717 43.811 20.341 41.943 19.742 40.334 19.422 39.476 19.03 38.64 18.56 37.854 21.448 37.933 24.057 36.568 26.332 34.728 29.337 32.298 31.761 29.155 33.843 25.922 33.973 25.72 34.102 25.516 34.23 25.312 34.887 24.416 35.407 23.647 35.768 23.093 36.217 24.081 36.869 24.962 37.826 25.297 39.186 25.772 40.075 24.822 40.633 23.686 40.661 23.661 40.688 23.637 40.714 23.612 41.99 24.919 43.732 25.927 45.259 26.679 47.199 27.634 50.16 28.853 52.219 27.54 52.777 27.184 53.151 26.68 53.38 26.109 55.258 27.9 57.576 29.455 60.067 29.9 60.076 29.902 60.084 29.903 60.093 29.904 60.143 30.287 60.201 30.672 60.276 31.059 60.553 32.494 60.957 33.9 61.308 35.317 62.229 39.039 62.701 42.732 62.538 46.572 62.376 50.39 61.688 54.257 60.215 57.798 58.72 61.39 56.328 64.331 53.035 66.419 50.965 67.732 48.822 68.585 46.375 68.814 44.936 68.949 43.504 68.988 42.06 68.947 40.674 68.907 39.313 68.694 37.93 68.621 37.329 68.589 37.301 69.417 37.797 69.605 40.142 70.496 42.899 70.61 45.386 70.524 47.73 70.443 49.884 69.987 51.998 68.963 52.505 68.717 53.001 68.45 53.485 68.166 53.742 69.636 54.719 70.861 56.132 71.405 56.687 71.751 57.298 72.009 57.934 72.177 57.131 72.954 56.594 74.008 56.444 75.267 56.185 77.442 57.261 79.876 59.309 80.818 59.323 80.825 59.338 80.83 59.352 80.837 59.502 82.083 59.834 83.421 60.799 84.272 61.185 84.612 61.634 84.824 62.108 84.923 62.004 84.945 61.91 85.009 61.856 85.124 61.138 86.657 62.417 88.139 63.366 89.255 64.475 90.559 65.934 91.928 66.054 93.742 66.101 94.448 66.911 94.611 67.312 94.083 69.003 91.861 71.264 89.683 71.091 86.653ZM11.168 83.569C10.337 83.865 9.392 83.398 8.73 82.915 7.513 82.028 6.184 80.173 7.332 78.868 7.341 78.882 7.349 78.898 7.359 78.912 8.477 80.586 10.616 81.478 12.603 81.231 12.439 82.187 12.078 83.245 11.168 83.569ZM60.762 81.23C62.748 81.477 64.888 80.585 66.006 78.911 66.015 78.897 66.023 78.881 66.033 78.867 67.18 80.172 65.852 82.027 64.635 82.914 63.973 83.397 63.028 83.864 62.197 83.568 61.286 83.245 60.926 82.187 60.762 81.23Z" class="MsftOfcResponsive_Fill_000000"/><path d="M10.072 41.015C9.591 41.229 9.723 42.042 10.219 42.143 10.671 42.235 11.074 42.197 11.494 42.424 11.935 42.663 12.321 43.045 12.637 43.431 12.924 43.781 13.165 44.184 13.329 44.606 13.513 45.08 13.558 45.423 13.955 45.775 14.296 46.077 14.761 46.011 15.015 45.638 15.775 44.521 14.465 42.875 13.663 42.11 12.796 41.282 11.268 40.483 10.072 41.015Z" class="MsftOfcResponsive_Fill_000000"/></g></g></svg>