<svg viewBox="0 0 76 80" xmlns="http://www.w3.org/2000/svg" xmlns:xlink="http://www.w3.org/1999/xlink" id="0a958705-4345-45cd-a44b-ae179971881d" overflow="hidden"><style>
.MsftOfcResponsive_Fill_000000 {
 fill:#000000; 
}
</style>
<g id="head_Medium_Straight_1_" transform="translate(3601 721)"><path d="M-3534.77-681.171C-3535.02-692.958-3539.14-703.242-3549.21-710.526-3549.85-710.991-3550.81-710.766-3551.34-710.235-3551.82-710.14-3552.23-709.832-3552.45-709.399-3558.4-698.534-3564.67-687.848-3571.25-677.342-3575.47-670.554-3580.6-663.757-3581.28-655.528-3581.39-655.372-3578.31-653.604-3577.86-654.927-3576.32-654.882-3574.8-654.489-3573.33-654.033-3569.74-652.907-3566.08-651.794-3562.41-650.934-3550.31-647.724-3537.32-651.808-3536.35-665.908-3535.06-667.737-3534.31-675.853-3534.5-678.371L-3534.77-681.171Z" id="_Skin-32_1_" fill="#FFFFFF"/><path d="M-3527.15-649.435C-3528.86-657.469-3529.96-665.607-3530.95-673.755-3531.42-677.701-3531.8-681.658-3532.24-685.608-3532.65-689.288-3533.13-692.979-3534.09-696.561-3534.98-699.89-3536.29-703.185-3538.21-706.059-3540.02-708.736-3542.28-711.08-3544.88-712.989-3550.02-716.798-3556.6-718.824-3563-718.152-3563.96-718.049-3564.9-718.068-3565-718.059-3591.02-715.695-3597.14-670.442-3597.69-661.317-3597.74-660.607-3597.77-659.898-3597.8-659.19-3597.99-657.607-3598.14-656.02-3598.21-654.429-3598.29-652.59-3598.24-650.748-3598.08-648.915-3597.9-647.039-3597.71-645.116-3596.92-643.391-3596.44-642.329-3574.06-643.784-3573.83-645.038-3573.34-647.58-3573.15-650.172-3573.27-652.758-3573.33-653.991-3573.48-655.218-3573.73-656.427-3573.8-656.757-3573.88-657.377-3574.07-657.867-3572.03-661.746-3569.78-665.514-3567.47-669.239-3562.66-676.994-3557.55-684.605-3553.62-692.864-3551.65-697.002-3549.7-701.397-3548.77-705.932L-3548.62-705.902C-3548.64-705.844-3548.62-705.779-3548.57-705.743-3544.3-702.79-3541.45-698.313-3539.59-693.521-3537.44-687.916-3536.4-681.941-3536.54-675.937-3536.78-666.436-3540.38-654.694-3550.57-651.691-3552.9-651.006-3555.41-650.812-3557.79-651.313-3558.92-651.54-3560.01-651.924-3561.03-652.455-3562.16-653.053-3563.08-653.901-3564.13-654.598-3565.1-655.236-3566.24-653.992-3565.68-653.049-3564.46-650.964-3561.82-649.689-3559.55-649.062-3557.14-648.391-3554.59-648.36-3552.13-648.786-3551.94-648.818-3551.75-648.854-3551.57-648.893-3551.51-648.251-3551.26-647.643-3550.83-647.16-3550.63-646.931-3550.39-646.734-3550.13-646.577-3550.09-645.974-3549.71-645.368-3549.07-645.236-3545.7-644.534-3531.69-646.375-3528.32-647.378-3527.42-647.646-3526.96-648.532-3527.15-649.435" id="_Ink-32_1_" class="MsftOfcResponsive_Fill_000000"/></g></svg>