<svg viewBox="0 0 81 73" xmlns="http://www.w3.org/2000/svg" xmlns:xlink="http://www.w3.org/1999/xlink" id="94a49037-8cd9-4e63-82b4-36ba858bb87f" overflow="hidden"><style>
.MsftOfcResponsive_Fill_000000 {
 fill:#000000; 
}
</style>
<g id="head_Bangs_1_" transform="translate(42 0)"><path d="M30.515 57.549C29.92 56.67 28.182 49.295 27.268 48.313 28.468 43.846 28.178 31.213 25.201 25.346 25.827 24.713 27.851 22.096 27.401 18.496 26.578 12.621 20.529 7.848 17.101 5.996 9.631 1.99 0.027 1.893-8.218 4.596-11.426 5.648-14.622 6.88-17.449 8.696-22.855 12.169-27.2 17.147-29.727 22.667-34.081 32.199-34.162 42.361-34.654 52.618-34.712 54.813-34.914 57.026-34.912 59.218-34.597 61.145-33.069 63.107-34.228 64.709-35.507 65.594-38.093 67.75-36.942 68.972-36.267 69.534-35.19 69.208-34.457 69.748-34.084 69.957-33.902 69.976-33.466 70.045-29.484 69.894-26.594 69.673-22.599 69.512-20.85 69.455-18.139 70.318-16.132 68.845-9.732 71.845-11.95 69.206-10.532 65.178-6.215 66.638 2.133 69.361 6.735 69.511 10.474 69.973 13.792 67.349 17.468 67.844 21.801 70.511 27.634 70.699 31.818 67.828 32.862 67.076 34.023 67.947 35.339 67.135 36.52 66.571 35.118 64.75 33.935 62.844 32.555 60.625 31.209 58.279 30.515 57.549Z" id="_Skin_3_" fill="#FFFFFF"/><path d="M-12.714 70.681C-13.482 70.681-14.626 70.252-16.212 69.37-16.701 69.726-17.257 69.979-17.846 70.114-18.415 70.243-18.997 70.304-19.58 70.296-20.078 70.296-20.553 70.265-21.078 70.226L-21.153 70.221C-21.606 70.188-22.034 70.157-22.423 70.157-22.495 70.157-26.512 70.289-28.25 70.332-29.853 70.372-31.511 70.413-33.416 70.485-33.679 70.443-34.311 69.841-34.457 69.75-34.817 69.484-35.299 68.902-35.733 68.847-36.195 68.789-36.599 69.259-36.942 68.974-37.159 68.751-37.263 68.441-37.223 68.132-37.167 67.602-36.776 66.963-36.06 66.235-35.496 65.674-34.882 65.164-34.228 64.712-33.44 63.622-33.89 62.38-34.366 61.066-34.604 60.469-34.555 50.445-34.528 49.833L-34.528 49.826C-34.323 45.184-34.111 40.384-33.458 35.725-33.143 33.398-31.175 26.664-30.2 24.515-28.817 21.545-26.456 16.875-24.191 14.508-21.861 12.056-19.206 9.579-16.3 7.848-13.356 6.081-10.196 5.057-6.9 4.098-3.642 3.139-0.266 2.645 3.13 2.631 5.462 2.624 7.788 2.886 10.06 3.411 12.327 3.937 14.486 4.35 16.54 5.446 17.711 6.107 18.836 6.845 19.908 7.656 21.305 8.69 22.628 9.819 23.868 11.036 25.98 13.131 26.1 14.398 27.573 18.474 27.756 19.362 27.541 20.784 27.328 21.822 27.078 23.044 26.716 25.025 26.306 25.417 25.996 25.736 25.508 25.916 25.069 26.084 24.535 26.29 23.984 26.449 23.422 26.561 22.193 26.814 20.671 26.942 18.898 26.942 16.389 26.942 13.292 26.685 9.694 26.179 6.096 25.673 1.894 24.902-2.796 23.889L-3.8 23.516-9 27.449-10.733 33.916C-11.266 37.049-14.54 39.668-15.4 41.716-15.814 41.293-16.229 40.558-16.733 40.249-17.827 39.548-19.101 39.069-20.4 39.049-20.597 39.049-21.4 38.982-22.4 39.382-24.533 40.649-26.064 43.255-26.074 44.456-26.084 45.657-25.926 48.31-25.066 49.582-23.533 51.849-19.933 50.849-19.933 50.849L-17.933 50.449C-17.933 50.449-14.126 55.214-12.733 58.716-11.34 62.218-11.159 66.095-11.159 66.095-11.185 66.53-11.195 66.955-11.204 67.367-11.226 68.307-11.245 69.118-11.438 69.717-11.651 70.373-12.056 70.681-12.714 70.681ZM24.57 69.947C23.4 69.942 22.234 69.823 21.087 69.591 19.939 69.36 18.333 68.647 17.6 67.647 17.224 67.597 23 60.847 23 60.847L26.229 52.847C26.229 52.847 27.577 49.057 27.572 49.308 28.1 49.875 28.798 52.231 29.413 54.31 29.869 55.849 30.262 57.178 30.513 57.55L32.066 61.448C33.245 62.734 34.538 63.79 35.133 64.648 35.539 65.521 36.025 65.872 35.931 66.369 35.875 66.71 35.652 67 35.337 67.141 34.891 67.409 34.376 67.54 33.856 67.519 33.714 67.519 33.17 67.498 33.04 67.498 32.606 67.471 32.175 67.589 31.816 67.834 30.75 68.562 29.572 69.11 28.328 69.454 27.104 69.788 25.84 69.954 24.57 69.947Z" id="_Hair_4_" fill="#FFFFFF"/><path d="M23.811 70.846C21.432 70.794 19.048 69.868 17.292 68.257 10.655 71.726-0.974 70.678-4.141 63.051-4.091 62.96-3.955 62.93-3.891 63.021-1.468 66.139 4.016 68.046 9.085 67.966 25.505 68.757 29.225 41.096 25.962 29.238L25.962 29.237C24.354 23.192 26.437 26.013 27.27 29.698 28.659 35.686 29.389 41.975 28.303 48.076 29.64 52.521 30.827 57.174 33.475 61.098 34 62.157 38.185 65.668 35.707 66.189 35.272 66.43 34.609 66.238 34.144 66.236 33.887 66.233 33.886 65.831 34.144 65.828 34.382 65.806 34.563 65.791 34.732 65.781 30.354 62.272 28.848 56.026 27.791 50.589 26.127 56.922 23.717 63.709 18.235 67.67 20.62 69.171 23.462 69.198 26.18 69.19 26.462 69.212 26.694 69.421 26.746 69.699 26.806 69.929 26.69 70.169 26.471 70.264 25.645 70.661 24.726 70.849 23.811 70.846ZM-33.954 70.842C-34.364 70.844-34.725 70.571-34.84 70.179-34.983 69.717-35.536 69.619-35.975 69.619-37.164 69.588-40.881 71.085-40.454 68.758-38.534 67.377-36.474 66.194-34.669 64.558-34.952 63.812-35.181 63.046-35.355 62.267L-35.355 62.265C-38.832 42.407-34.514 16.873-15.063 6.763-14.89 6.661-14.731 6.934-14.899 7.042-29.752 18.588-34.776 38.23-33.044 56.898-32.874 59.625-32.633 62.509-33.082 65.212-33.315 65.912-34.255 65.759-34.433 65.08-35.11 66.152-35.935 67.123-36.884 67.964-35.756 67.682-34.464 67.875-33.634 68.739-30.034 67.368-31.89 70.466-33.954 70.842L-33.954 70.842ZM-11.297 70.16C-11.582 70.175-11.84 69.951-11.859 69.665-12.328 66.277-12.394 62.916-13.43 59.586-14.252 56.652-16.126 53.667-18.203 50.41-18.16 50.321-18.038 50.269-17.952 50.327-13.362 53.399-10.669 58.787-9.93 64.167-9.788 65.794-9.68 69.91-11.297 70.16L-11.297 70.16ZM-22.195 68.999C-24.214 68.82-21.934 65.922-21.747 64.904-21.257 63.82-20.956 62.598-20.519 61.531-20.437 63.013-20.693 64.719-20.897 66.252L-20.897 66.253C-21.127 67.193-20.867 68.912-22.195 68.999L-22.195 68.999ZM-28.248 68.824C-29.86 68.425-28.239 66.448-27.996 65.491-27.126 63.305-26.656 60.718-25.999 58.344-25.841 60.777-26.457 63.191-26.945 65.727-27.171 66.634-27.266 67.683-27.716 68.485-27.816 68.688-28.021 68.819-28.248 68.824L-28.248 68.824ZM-16.192 67.883C-18.126 67.546-16.41 64.615-16.088 63.481-16.289 63.47-16.585 63.712-16.73 63.58-16.536 63.363-16.059 63.372-15.831 63.1-15.78 63.042-15.716 62.986-15.634 62.988-14.914 63.337-15.32 64.765-15.266 65.454-15.33 66.248-15.164 67.7-16.192 67.883L-16.192 67.883ZM29.71 67.616C27.899 67.475 26.153 66.647 25.068 65.433 24.993 65.362 25.054 65.228 25.156 65.232 26.58 65.873 28.082 66.397 29.653 66.517 30.281 66.535 30.393 67.607 29.71 67.616L29.71 67.616ZM-21.615 52.34C-26.325 52.166-28.171 46.145-26.335 42.379-25.212 39.947-22.295 37.708-19.543 38.742-19.083 38.967-18.469 39.247-18.237 39.696-18.248 39.732-18.291 39.755-18.326 39.739-20.037 39.066-21.979 39.852-23.276 41.21-25.148 43.149-25.514 46.778-23.748 48.775-22.441 50.407-21.281 49.935-19.726 49.308-19.227 49.175-18.731 49.574-18.711 50.081-18.604 51.585-20.316 52.378-21.615 52.34ZM-20.404 47.145C-21.526 46.872-20.83 45.373-20.239 44.837-21.228 44.004-22.993 43.85-23.648 45.077-24.072 43.849-22.288 42.854-21.179 42.817-19.869 42.727-18.769 43.381-17.655 43.88-17.219 41.862-15.119 40.411-14.061 38.644-11.873 35.464-10.356 31.842-9.527 28.076-10.098 28.037-9.669 27.199-9.325 27.08-8.911 25.334-9.004 23.377-8.766 21.696-8.306 23.11-8.591 25.003-8.61 26.568-4.141 22.989-1.068 18.339 2.547 14.022 2.872 13.69 3.457 13.76 3.729 14.126 4.195 15.705 2.328 17.81 1.448 19.078-1.365 22.6-4.669 25.68-8.725 27.759-9.329 33.021-12.392 41.442-17.107 44.192-15.905 44.88-15.794 46.379-17.407 46.469-18.117 46.469-18.815 45.963-19.412 45.489-19.696 46.052-19.675 46.959-20.404 47.145L-20.404 47.145ZM26.705 24.553C26.21 24.534 25.823 24.025 25.905 23.543 26.833 18.746 24.897 14.569 23.109 11.909 19.385 5.62 8.034 2.705-0.168 3.171-2.151 3.155-4.564 3.585-6.665 4.121-5.553 3.506-4.082 3.293-2.798 3.037 7.534 1.594 20.921 2.785 26.529 12.877 28.359 16.184 30.255 21.857 26.705 24.553L26.705 24.553ZM1.775 23.826C1.652 23.831 1.55 23.669 1.66 23.581 3.476 21.917 5.11 20.065 6.536 18.056 8.048 16.244 8.538 13.493 10.292 11.958 12.206 11.501 10.621 15.357 10.146 15.962 8.228 19.329 5.382 22.304 1.775 23.826L1.775 23.826ZM15.979 23.752C15.915 23.752 15.873 23.669 15.922 23.621 17.228 22.19 18.291 20.556 19.07 18.782 20.024 16.919 19.976 14.727 20.932 12.96 23.427 12.195 20.876 17.639 19.916 19.135 18.847 20.856 17.545 22.472 15.979 23.752L15.979 23.752ZM9.317 23.628C10.401 22.193 12.107 20.534 12.934 18.676 14.147 16.838 14.202 14.435 15.188 12.675 17.124 12.014 15.563 15.429 15.254 16.197 13.88 19.078 11.876 21.71 9.317 23.628L9.317 23.628Z" id="_Ink_4_" class="MsftOfcResponsive_Fill_000000"/></g></svg>