<svg viewBox="0 0 77 77" xmlns="http://www.w3.org/2000/svg" xmlns:xlink="http://www.w3.org/1999/xlink" id="036e592e-9b21-4967-ad5b-209a892fa482" overflow="hidden"><style>
.MsftOfcResponsive_Fill_000000 {
 fill:#000000; 
}
</style>
<g id="head_Medium_Bangs_2_1_" transform="translate(3008 2782)"><path d="M-2936.33-2766.31C-2937.05-2767.14-2937.62-2767.13-2937.97-2767.3-2938.73-2769.63-2940.95-2772.05-2942.66-2772.05-2945.8-2774.78-2949.23-2776.12-2952.4-2777.33-2958.44-2779.63-2964.1-2779-2970.77-2777.9-2976.14-2776.91-2980.92-2775.13-2984.92-2771.28-2989.72-2766.75-2991.95-2760.83-2988.32-2752.05-2993.3-2749.25-2991.31-2746.18-2989.92-2743.2-2994.4-2740.45-2989.42-2737.65-2989.05-2737.53-2989.98-2736.75-2992.72-2736.23-2993.55-2735.55-2996.84-2733.39-3004.99-2728.28-3004.9-2724.08-3004.94-2721.89-3002.92-2719.95-3000.95-2719.38-3002.12-2717.03-3003.32-2712.36-3002.2-2709.83-3001.89-2709.06-3000.6-2708.53-2999.55-2708.63-2997.69-2708.71-2996.34-2709.93-2994.96-2710.76-2994.64-2710.95-2994.26-2710.83-2994.15-2710.48-2993.68-2709.04-2991.36-2707.91-2989.7-2708.53-2988.1-2709.01-2987.15-2710.52-2986.16-2711.81-2986-2712.02-2985.67-2712.01-2985.54-2711.79-2983.93-2709.08-2980.2-2707.99-2977.5-2709.33-2974.94-2710.51-2972.73-2714.06-2971.65-2716.68-2965.89-2713.86-2960.6-2712.63-2954-2712.13-2952.45-2712.08-2949.79-2712.3-2949-2712.58-2945.35-2713.23-2943.01-2713.49-2940.2-2715.78-2934.32-2720-2935.35-2728.92-2935.76-2735.55-2936.12-2742.16-2936.4-2749.08-2936.67-2755.95-2936.15-2757.88-2935.42-2757.89-2934.62-2759.7-2933.75-2761.6-2934.16-2764.38-2936.33-2766.31Z" id="_Skin-30_2_" fill="#FFFFFF"/><path d="M-2962.69-2778.52C-2958.7-2778.54-2954.9-2777.82-2951-2776.85-2950.12-2776.65-2949.62-2776.29-2949-2776.18-2948.99-2776.16-2943.91-2773.54-2942.61-2772.09L-2942.03-2772.01C-2940.25-2771.58-2939.27-2769.24-2938.33-2767.76-2937.46-2767.27-2936.1-2766.44-2935.56-2765.56L-2935.03-2764.63C-2933.56-2762.16-2933.97-2760.09-2935.93-2757.91-2936.44-2757.11-2940.72-2756.78-2943.4-2756.69-2945.57-2756.58-2947.59-2757.53-2949.64-2758.06-2949.57-2755.73-2955.02-2755.91-2957.05-2756.32-2957.5-2756.42-2958.06-2756.71-2958.49-2756.41-2962.09-2753.3-2963.25-2753.43-2967.27-2755.59-2968.65-2754.24-2969.85-2751.31-2972.24-2751.31-2974.52-2751.91-2977.1-2751.32-2976.32-2748.35-2976.15-2747.31-2975.74-2746.04-2975.44-2745.02-2974.1-2742.29-2976.45-2738.43-2978.88-2738.54-2980.18-2738.51-2980.02-2738.65-2979.61-2739.83-2981.66-2743.72-2986.7-2740.04-2987.51-2736.81-2989.4-2732.26-2986.26-2726.03-2981.41-2728.05L-2980.46-2728.04C-2979.57-2723.63-2975.22-2718.42-2971.4-2716.05-2972.12-2714.12-2973.32-2712.4-2974.81-2710.98-2974.85-2711-2976.13-2711.19-2976.44-2710.86-2979.05-2707.92-2984.05-2708.77-2985.61-2712.43-2985.75-2712.68-2986.12-2712.46-2986.25-2712.3-2987.43-2710.63-2988.91-2709.02-2990.44-2708.81-2991.88-2708.56-2994.06-2709.47-2993.81-2711.17-2993.76-2711.59-2994.11-2711.81-2994.36-2711.59-2995.38-2710.62-2996.58-2709.87-2997.9-2709.39-3003.98-2706.75-3002.44-2715.3-3000.93-2718.73-3000.89-2718.93-3000.64-2719.45-3000.59-2719.65-3000.56-2719.74-3000.74-2720.01-3000.88-2719.95-3002.92-2719.74-3004.55-2721.71-3004.54-2723.79-3004.6-2725.75-3003.17-2727.81-3001.33-2729.63-2999.05-2731.96-2996.66-2733.86-2993.83-2735.56-2991.25-2737.11-2988.33-2737.66-2988.33-2737.66-2989.43-2738.14-2991.06-2738.73-2991.53-2739.91-2991.96-2741-2991.33-2742.69-2990.26-2743.11-2989.94-2742.79-2991.72-2745.46-2991.44-2747.95-2991.27-2749.57-2989.68-2750.98-2987.97-2751.92-2995.62-2768.44-2978.22-2779.01-2962.69-2778.52Z" id="_Hair-6_1_" fill="#FFFFFF"/><g><path d="M-2990.94-2707.31C-2992.46-2707.31-2994.02-2708.08-2994.77-2709.43-3003.66-2703.65-3005.28-2711.84-3002.34-2718.76-3010.19-2722.69-3002.86-2730.71-2997.58-2733.92-2996.29-2734.98-2989.52-2738.67-2990.41-2736.78-2992.28-2735.59-2994.18-2734.54-2996-2733.24-2998.95-2730.82-3003.41-2727.84-3003.77-2723.79-3003.8-2722.21-3002.51-2720.44-3000.79-2720.71-3000.16-2720.69-2999.68-2719.99-2999.87-2719.39-3000.94-2716.6-3002.08-2713.54-3001.24-2710.75-3000.76-2708.02-2995.97-2711.03-2994.89-2712.12-2994.14-2712.93-2992.88-2712.09-2993.06-2711.09-2993.19-2709.89-2991.51-2709.42-2990.57-2709.55-2988.99-2709.86-2987.85-2711.4-2986.94-2712.63-2986.68-2713.03-2986.25-2713.29-2985.77-2713.3-2985.41-2713.31-2985.07-2713.1-2984.92-2712.76-2983.52-2709.54-2979.24-2708.83-2976.97-2711.39-2976.43-2712.1-2974.79-2713.13-2974.58-2711.66-2974.52-2710.24-2975.79-2709.25-2976.9-2708.56-2979.83-2706.73-2983.9-2707.55-2985.99-2710.26-2987.45-2708.57-2988.79-2707.37-2990.94-2707.31Z" class="MsftOfcResponsive_Fill_000000"/><path d="M-2953.36-2710.87C-2955.12-2710.96-2963.5-2711.07-2962.21-2713.97-2961.71-2714.77-2960.7-2714.68-2959.92-2714.42-2953.11-2712.89-2946.49-2712.91-2940.27-2717.66-2935.08-2721.87-2937.33-2728.73-2936.9-2734.45-2936.91-2740.73-2937.07-2748.05-2936.79-2754.13-2936.75-2754.86-2936.83-2756.3-2936.66-2756.26-2936.5-2756.23-2936.46-2755.24-2936.37-2754.71-2935.56-2750-2935.42-2744.56-2935.05-2740.47-2934.84-2737.36-2934.59-2733.86-2934.28-2730.57-2933.93-2726.75-2933.43-2722.62-2935.46-2719.16-2938.97-2713.17-2946.22-2711.01-2953.36-2710.87Z" class="MsftOfcResponsive_Fill_000000"/><path d="M-2970.5-2715.11C-2974.83-2716.06-2979.8-2723.11-2980.72-2727.74-2981.67-2726.48-2983.65-2726.83-2984.95-2727.3-2988.72-2728.79-2989.47-2733.6-2988.2-2737.06-2991.11-2736.69-2994.12-2741.21-2990.92-2742.92-2993.4-2745.81-2992.81-2750.53-2989.55-2752.57-2991.77-2757.98-2991.57-2762.64-2989.76-2766.51-2987.24-2771.91-2981.58-2775.76-2975.05-2777.88-2968.07-2780.14-2960.08-2780.43-2953.84-2778.55-2952.42-2778.09-2950.79-2777.6-2949.46-2776.8-2948.91-2776.48-2947.95-2775.79-2948-2775.64-2948.04-2775.5-2949.11-2775.67-2949.67-2775.77-2951.38-2776.05-2953.14-2776.74-2954.84-2776.96-2963.35-2778.88-2973.8-2777.49-2980.89-2773.05-2986.65-2769.44-2990.18-2763.82-2988.66-2756.33-2988.41-2755.1-2988.07-2753.98-2987.53-2752.65-2987.44-2752.42-2987.2-2752.08-2987.19-2751.78-2987.18-2751.54-2987.42-2751.36-2987.64-2751.25-2990.13-2750.12-2991.16-2746.89-2989.54-2744.68-2989.08-2743.67-2987.15-2743.03-2987.65-2741.78-2987.18-2741.6-2985.9-2741.3-2986.64-2740.65-2987.48-2740.22-2988.42-2740.84-2988.84-2741.57-2989.42-2741.71-2989.96-2741.98-2990.4-2742.39-2991.31-2741.87-2991.31-2740.55-2990.64-2739.84-2990.07-2738.98-2988.47-2738.94-2987.75-2738.17-2986.56-2741.29-2981.94-2743.97-2979.65-2740.45-2979.53-2740.3-2978.97-2739.09-2979.44-2739.33-2981.88-2743.06-2986.27-2739.07-2986.65-2735.41-2987.39-2732.04-2985.57-2728.33-2982.06-2729.16-2981.82-2729.22-2981.55-2729.22-2981.3-2729.18-2981.3-2729.17-2981.17-2729.15-2981.17-2729.15-2980.79-2729.2-2980.49-2728.86-2980.48-2728.5-2978.6-2726.23-2977.26-2723.6-2975.2-2721.46-2973.75-2719.84-2972.19-2718.22-2970.27-2717.48-2968.73-2717.03-2968.79-2715.12-2970.5-2715.11Z" class="MsftOfcResponsive_Fill_000000"/><path d="M-2983.5-2716.53C-2983.57-2716.52-2983.65-2716.6-2983.62-2716.68-2983.23-2717.64-2983.35-2719.32-2982.05-2719.47-2981.18-2719.57-2980.92-2717.58-2979.98-2718.68-2979.33-2719.25-2979.5-2721.31-2978.25-2720.77-2977.16-2720.04-2978.23-2718.14-2978.97-2717.43-2979.94-2716.51-2981.93-2716.68-2982.3-2718.12-2982.71-2717.62-2983.09-2717-2983.5-2716.53L-2983.5-2716.53Z" class="MsftOfcResponsive_Fill_000000"/><path d="M-2993.13-2718.08C-2993.39-2718.08-2994.78-2718.17-2994.38-2718.47-2992.93-2718.64-2991.68-2719.58-2991.11-2720.92-2990.86-2721.54-2990.42-2722.15-2989.68-2722.14-2988-2722.14-2988.4-2719.24-2986.65-2721.85-2986.12-2722.68-2985.29-2723.73-2984.28-2723.75-2983.61-2723.8-2982.68-2723-2983.42-2722.45-2984.07-2722-2984.71-2721.54-2985.13-2720.86-2985.99-2719.13-2988.66-2718.08-2989.77-2720.11-2990.48-2718.94-2991.73-2718.06-2993.13-2718.08Z" class="MsftOfcResponsive_Fill_000000"/><path d="M-2996.12-2725.95C-2996.25-2725.95-2996.38-2726.09-2996.33-2726.22-2995.88-2727.4-2995.17-2729.44-2993.55-2728.94-2992.35-2728.22-2991.65-2727.89-2990.97-2729.42-2990.76-2729.79-2990.53-2730.39-2990.02-2730.45-2989.76-2730.45-2989.51-2730.27-2989.44-2730.02-2989.03-2728.57-2990.72-2726.68-2992.16-2726.73-2992.92-2726.67-2993.42-2727.25-2994.04-2727.54-2994.87-2727.44-2995.33-2726.25-2996.12-2725.95Z" class="MsftOfcResponsive_Fill_000000"/><path d="M-2980.11-2733.58C-2980.87-2733.56-2981.27-2734.28-2981.69-2734.8-2982.09-2735.26-2982.64-2735.58-2983.46-2735.84-2983.47-2735.84-2983.81-2735.95-2983.82-2735.96-2984.6-2736.45-2982.55-2737.27-2981.98-2737.15-2979.99-2737.44-2977.06-2734.25-2980.11-2733.58Z" class="MsftOfcResponsive_Fill_000000"/><path d="M-2978.11-2739.87C-2978.84-2739.83-2979.36-2740.66-2978.97-2741.29-2978.51-2742.17-2978.38-2743.19-2978.6-2744.16-2979.51-2746.46-2980.34-2748.65-2978.77-2751.06-2979.33-2751.2-2979.84-2751.52-2980.21-2751.96L-2980.21-2751.96C-2980.62-2752.7-2979.13-2752.22-2978.69-2752.3-2977.32-2752.11-2976.5-2753.31-2975.25-2753.32-2974.89-2753.32-2974.54-2752.99-2974.63-2752.62-2974.77-2751.12-2976.7-2750.88-2977.92-2750.91-2978.66-2748.51-2977.64-2746.71-2976.88-2744.53-2976.59-2743.2-2976.51-2740.31-2978.11-2739.87L-2978.11-2739.87Z" class="MsftOfcResponsive_Fill_000000"/><path d="M-2971.83-2752.75C-2973.36-2752.99-2972.3-2754.79-2971.67-2755.48-2970.75-2756.73-2969.89-2758.53-2969.94-2759.92-2969.95-2761.93-2971.26-2764.09-2973.37-2764.09-2973.54-2764.05-2973.59-2764.32-2973.41-2764.33-2968.92-2764.47-2967.62-2758.91-2969.34-2755.81-2969.88-2754.66-2970.39-2752.95-2971.83-2752.75L-2971.83-2752.75Z" class="MsftOfcResponsive_Fill_000000"/><path d="M-2962.18-2755C-2962.82-2754.99-2963.44-2755.43-2963.63-2756.05-2963.71-2756.35-2963.58-2756.66-2963.32-2756.81-2962.46-2757.39-2961.87-2758.06-2961.53-2758.88-2960.31-2761.88-2961.12-2765.6-2963.76-2767.5-2963.88-2767.57-2963.77-2767.8-2963.64-2767.71-2960.76-2765.83-2959-2762.29-2959.43-2758.86-2959.63-2757.29-2960.33-2755.14-2962.18-2755Z" class="MsftOfcResponsive_Fill_000000"/><path d="M-2935.72-2756.91C-2937.99-2757.32-2935.7-2759.09-2935.4-2760.22-2934.71-2762.36-2935.22-2764.82-2936.72-2766.49-2936.85-2767.14-2935.66-2766.09-2935.47-2765.94-2933.06-2763.9-2932.66-2758.32-2935.72-2756.91Z" class="MsftOfcResponsive_Fill_000000"/><path d="M-2954.82-2757.32C-2955.55-2757.24-2956.33-2757.98-2955.75-2758.66-2955.19-2759.32-2954.32-2759.62-2953.8-2760.33-2952.28-2762.38-2953.13-2768.16-2956.23-2768.46-2956.38-2768.41-2956.45-2768.64-2956.29-2768.66-2950.95-2768.57-2949.41-2758.42-2954.82-2757.32Z" class="MsftOfcResponsive_Fill_000000"/><path d="M-2945.1-2757.72C-2945.6-2757.72-2946.28-2758.13-2946.08-2758.74-2945.7-2759.59-2944.75-2759.8-2944.48-2760.72-2943.35-2763.27-2944.19-2768.82-2947.67-2769.01-2947.73-2769-2947.81-2769-2947.82-2769.08-2947.78-2769.26-2947.49-2769.17-2947.34-2769.2-2942.88-2769.1-2940.71-2759.17-2945.1-2757.72L-2945.1-2757.72Z" class="MsftOfcResponsive_Fill_000000"/><path d="M-2939.04-2758.91C-2940.52-2758.92-2939.69-2760.44-2938.99-2760.93-2936.92-2763.38-2937.87-2766.42-2939.52-2769.01-2940.27-2770.16-2941.18-2771.89-2942.65-2771.91-2943.46-2771.88-2942.59-2772.3-2942.22-2772.23-2941.13-2772.25-2940.06-2771.1-2939.37-2770.25-2938.49-2769.2-2937.4-2767.78-2936.81-2766.07-2935.95-2763.76-2936.35-2759.7-2939.04-2758.91L-2939.04-2758.91Z" class="MsftOfcResponsive_Fill_000000"/></g></g></svg>