<svg viewBox="0 0 88 101" xmlns="http://www.w3.org/2000/svg" xmlns:xlink="http://www.w3.org/1999/xlink" id="f5d34917-7ebe-4941-b409-2d3aa75e32e5" overflow="hidden"><style>
.MsftOfcResponsive_Fill_000000 {
 fill:#000000; 
}
</style>
<g id="Long_3"><path d="M52.384 11.581C42.932 12.331 28.468 24.47 23.66 31.04 18.852 37.61 16.372 51.931 17.892 57.691 19.412 63.451 36.692 65.051 36.692 65.051 36.692 65.051 41.817 70.898 51.819 71.25 56.027 71.398 62.772 71.131 66.772 67.451 70.772 63.771 74.45 55.492 74.738 51.685 75.026 47.878 75.289 20.911 71.75 16.981 68.211 13.051 61.835 10.831 52.384 11.581Z" fill="#FFFFFF"/><g><path d="M27.535 46.783C28.204 47.501 28.439 48.356 28.767 49.251 28.962 49.782 29.697 49.687 29.741 49.119 29.901 47.04 27.739 45.157 25.974 44.468 25.616 44.328 25.297 44.878 25.594 45.12 26.263 45.664 26.943 46.148 27.535 46.783Z" class="MsftOfcResponsive_Fill_000000"/><path d="M85.558 61.541C85.383 59.61 84.697 57.763 83.693 56.113 82.757 54.576 81.552 53.18 81.109 51.398 80.636 49.499 81.589 47.877 82.569 46.332 83.573 44.751 84.421 43.23 84.817 41.381 85.409 38.61 84.688 36.086 82.872 33.952 81.31 32.116 79.214 30.785 77.79 28.823 76.917 27.62 76.383 26.282 76.602 24.776 76.89 22.803 77.682 21.006 77.774 18.991 77.942 15.335 77.032 11.174 74.385 8.666 63.212-1.919 50.034 5.749 49.325 6.626 47.408 3.718 36.061 1.531 30.04 7.634 26.387 8.377 22.918 10.089 20.267 12.712 17.325 15.624 15.764 19.539 15.597 23.627 13.63 26.968 12.581 30.768 13.135 34.628 13.421 36.624 14.173 38.52 14.555 40.497 14.732 41.413 14.77 42.338 14.664 43.245 14.545 43.91 14.373 44.63 14.128 45.381 14.088 45.482 14.046 45.582 14.002 45.681 12.722 48.574 10.412 50.941 8.46 53.383 6.672 55.619 4.789 58.119 4.581 61.078 4.347 64.392 7.136 66.705 8.569 69.394 8.946 70.102 9.208 70.902 9.166 71.707 8.936 72.316 8.569 73.002 8.019 73.77 7.898 73.882 7.777 73.989 7.661 74.091 6.195 75.368 4.431 76.252 3.305 77.892 2.255 79.421 2.029 81.763 2.162 83.557 2.251 84.751 2.566 85.946 3.175 86.952 3.243 87.1 3.316 87.25 3.392 87.401 3.461 89.315 4.245 91.245 5.389 92.75 7.505 95.535 10.583 97.475 13.685 98.995 14.347 99.32 15.095 98.925 15.128 98.167 15.223 96.033 15.662 93.994 16.835 92.184 17.278 91.5 17.807 90.875 18.378 90.284 19.27 93.995 22.486 98.253 26.249 97.773 26.26 97.772 26.435 97.746 26.444 97.744 26.878 97.67 27.319 97.533 27.764 97.323 28.044 97.224 28.306 97.076 28.533 96.889 28.592 96.85 28.651 96.811 28.71 96.77 29.486 96.227 28.828 95.129 27.975 95.513 27.852 95.568 27.73 95.616 27.609 95.659 27.545 95.678 27.483 95.696 27.423 95.712 26.494 95.614 26.185 94.295 25.934 93.493 25.763 92.945 25.624 92.379 25.555 91.81 25.579 90.903 25.71 89.928 26.127 89.131 26.443 88.527 26.83 87.974 27.253 87.447 27.756 86.988 28.32 86.588 28.878 86.224 30.286 85.307 31.774 84.535 33.148 83.562 33.316 83.443 33.483 83.321 33.649 83.198 34.108 83.036 34.547 82.791 34.955 82.465 35.503 82.027 35.936 81.499 36.354 80.94 36.449 80.813 36.533 80.69 36.613 80.567 37.641 79.463 38.536 78.239 39.236 76.882 40.438 74.554 40.977 71.97 41.089 69.37 45.195 71.49 49.878 72.237 54.494 72.118 56.04 72.078 57.605 71.976 59.136 71.743 59.4 71.703 59.663 71.65 59.924 71.59 59.927 71.699 59.931 71.811 59.935 71.929 59.548 73.404 59.304 74.923 59.418 76.445 59.496 77.486 59.779 78.508 60.369 79.379 60.728 79.91 61.269 80.488 61.887 80.729 62.302 81.342 62.861 81.882 63.417 82.347 64.029 82.859 64.695 83.304 65.307 83.817 66.029 84.422 66.563 85.152 67.042 85.958 68.105 87.747 68.632 89.789 68.719 91.861 68.701 92.316 68.675 92.768 68.642 93.216 68.632 93.352 68.652 93.477 68.692 93.592 68.589 94.988 68.298 96.369 67.846 97.666 67.558 98.493 68.632 99.353 69.364 98.833 70.705 97.881 71.711 96.465 72.627 95.122 73.258 94.196 73.835 93.232 74.354 92.239 74.857 91.794 75.27 91.151 75.558 90.662 76.312 89.383 76.815 87.896 77.051 86.434 77.364 84.491 77.21 81.809 75.639 80.509 75.587 80.447 75.535 80.385 75.481 80.325 75.686 80.109 75.884 79.884 76.074 79.65 77.068 78.628 77.971 77.505 78.885 76.419 80.145 74.921 81.354 73.374 82.431 71.738 84.41 68.73 85.89 65.207 85.558 61.541ZM22.739 46.95C22.806 45.497 23.254 43.737 24.514 42.855 25.427 42.216 26.611 42.239 27.607 42.68 28.293 42.984 28.857 43.494 29.348 44.049 29.836 44.601 29.998 45.267 30.344 45.89 30.465 46.109 30.813 46.062 30.874 45.821 30.909 45.683 30.929 45.544 30.937 45.405L31.199 45.866C30.72 48.42 29.829 51.148 28.285 53.786 28.045 53.961 27.802 54.131 27.556 54.298 27.537 54.012 27.314 53.723 26.994 53.73 25.548 53.76 24.55 53.178 23.81 51.932 22.935 50.459 22.661 48.638 22.739 46.95ZM56.663 70.205C51.539 70.637 46.218 70.191 41.61 67.741 41.436 67.649 41.265 67.553 41.095 67.456 41.009 66.716 40.284 66.427 39.708 66.59 39.362 66.354 39.021 66.11 38.689 65.855 37.256 62.214 34.23 58.796 31.621 57.66 31.529 57.517 31.437 57.374 31.345 57.23 32.666 55.852 37.142 50.722 37.451 46.448 38.237 44.295 38.26 41.758 37.965 39.63 37.763 38.172 37.32 36.731 36.649 35.418 37.21 34.352 38.093 32.274 38.245 29.545 38.245 29.545 46.563 28.081 47.625 20.831 53.313 25.081 65.163 25.681 68.697 23.666 68.697 23.666 68.985 28.061 69.504 29.531 69.818 30.42 70.296 31.225 70.862 31.969 70.985 33.081 71.19 34.189 71.484 35.317 72.18 37.986 72.835 40.657 73.105 43.408 73.626 48.733 73.276 54.489 71.16 59.478 69.499 62.147 67.107 65.329 63.989 67.844 63.053 68.424 62.072 68.936 61.051 69.329 59.623 69.879 58.178 70.077 56.663 70.205Z" class="MsftOfcResponsive_Fill_000000"/></g></g></svg>