<svg viewBox="0 0 83 73" xmlns="http://www.w3.org/2000/svg" xmlns:xlink="http://www.w3.org/1999/xlink" id="7bd608f4-fa88-4ad0-a326-ce236f55546c" overflow="hidden"><style>
.MsftOfcResponsive_Fill_000000 {
 fill:#000000; 
}
</style>
<g id="head_Bangs_2_1_" transform="translate(42 1408)"><path d="M22.243-1387.79C13.223-1393.76-4.847-1393.11-14.776-1389.45-24.464-1386.38-27.856-1377.82-29.465-1368.57-31.42-1358.17-31.157-1343.19-17.097-1343.37-15.12-1342.41-12.93-1342-10.885-1341.2-8.086-1340.24-5.341-1339.11-2.5-1338.27 3.095-1336.46 9.163-1336.91 14.47-1339.55 17.246-1341.97 18.419-1343.86 20.337-1346.21 25.916-1353.05 27.255-1361.39 27.004-1370.08 26.562-1376.2 27.37-1383.76 22.243-1387.79Z" id="_Skin-3_4_" fill="#FFFFFF"/><path d="M33.657-1362.58C32.731-1368.33 32.475-1374.17 31.263-1379.87 30.123-1385.24 27.992-1390.31 24.267-1394.39 20.934-1398.05 16.624-1400.74 11.998-1402.44 2.986-1405.76-7.379-1405.01-16.097-1401.14-24.257-1397.51-30.765-1390.81-34.559-1382.77-37.024-1377.54-38.262-1371.99-38.813-1366.25-39.424-1359.88-39.489-1353.45-39.738-1347.05-39.768-1346.26-39.811-1345.47-39.822-1344.69-39.834-1343.82-39.484-1343.06-39.199-1342.26-39.179-1342.2-39.151-1342.15-39.116-1342.1-39.331-1342.07-39.545-1342.04-39.76-1342.01-40-1341.97-39.989-1341.58-39.76-1341.53-37.817-1341.14-35.821-1341.08-33.845-1340.98-31.798-1340.88-29.747-1340.82-27.697-1340.76L-21.698-1340.55C-20.648-1340.52-19.598-1340.48-18.548-1340.45-18.048-1340.43-17.549-1340.41-17.048-1340.4-16.799-1340.39-15.767-1340.23-15.746-1340.38-15.708-1340.36-15.667-1340.34-15.624-1340.33-15.575-1340.3-15.529-1340.27-15.485-1340.24-15.219-1340.08-14.888-1340.08-14.622-1340.24-14.6-1340.25-14.576-1340.27-14.551-1340.28-14.376-1340.39-14.241-1340.54-14.165-1340.73-13.139-1339.49-11.323-1340.88-12.373-1342.19-12.937-1342.9-18.547-1360.19-16.225-1373.35L-6.913-1374.58C-5.21-1374.76-2.042-1375.1-2.042-1375.1-2.042-1375.1-1.267-1377.63-1.044-1378.44-1.028-1378.51-1.011-1378.57-0.993-1378.63-0.771-1378.23-0.547-1377.84-0.322-1377.45L0.827-1375.12C0.827-1375.12 17.786-1375.4 21.944-1375.38 22.015-1375.38 22.349-1370.32 22.198-1368.09 21.892-1363.62 21.566-1359.16 21.113-1354.7 20.821-1351.86 20.14-1349.07 19.089-1346.42 17.449-1342.26 12.688-1338.31 8.045-1338.31 5.155-1338.31-1.375-1340.65-2.326-1341.12-3.277-1341.59-3.844-1340.31-2.977-1339.79-1.222-1338.74 3.618-1336.53 8.045-1336.53 14.474-1336.53 19.328-1342.63 19.923-1343.5 25.821-1343.82 31.735-1343.68 37.613-1343.09 38.104-1343.05 38.527-1343.64 38.369-1344.09 36.255-1350.1 34.679-1356.29 33.657-1362.58Z" id="_Ink-3_8_" class="MsftOfcResponsive_Fill_000000"/></g></svg>