<svg viewBox="0 0 185 226" xmlns="http://www.w3.org/2000/svg" xmlns:xlink="http://www.w3.org/1999/xlink" id="150cd9ee-0bc5-47a9-8d67-a4a1554e3dc2" overflow="hidden"><style>
.MsftOfcResponsive_Fill_000000 {
 fill:#000000; 
}
</style>
<g id="pose_sitting_one_leg_up-1_1_" transform="translate(1744 9127.28)"><path d="M-1640.6-8907.48C-1650.42-8907.33-1660.12-8912.48-1667.81-8916.99L-1667.81-8916.99C-1671.85-8919.16-1678.91-8923.33-1675.6-8928.66-1677.32-8931.47-1676.82-8934.29-1675-8936.47-1674.83-8936.67-1675.01-8936.99-1675.27-8936.96-1679.75-8936.5-1683.87-8935.68-1688.39-8935.26-1688.58-8934.71-1688.39-8934.18-1689.33-8934.21-1691.4-8934.32-1693.91-8935.44-1696.1-8934.8-1696.42-8934.35-1697-8934.37-1697.35-8934.77-1703.23-8934.14-1708.45-8933.01-1713.03-8931.28L-1713.03-8931.28C-1715.7-8930.1-1718.75-8928.82-1720.91-8931.28-1724.56-8931.08-1726.22-8935.32-1726.35-8938.16-1734.14-8943.97-1737.19-8954.25-1737.71-8964.56-1738.05-8971.03-1737.3-8977.46-1736.39-8982.95-1734.03-9002.22-1731.57-9019.39-1725.18-9035.8-1728.09-9036.73-1734.12-9039.32-1735.97-9045-1737.71-9050.38-1733.91-9055.74-1733.03-9059.15-1731.67-9063.15-1730.25-9067.29-1728.73-9071.3-1729.93-9072.16-1729.85-9072.67-1728.59-9074.73-1719.1-9092.68-1706.54-9105.75-1684.26-9105.28-1680.85-9107.26-1677.32-9111.12-1677.14-9116.39-1676.94-9122-1673.05-9123.24-1668.28-9122.84-1664.93-9122.89-1662.28-9122.32-1660.53-9121.01-1657.58-9119.21-1656.63-9114.37-1657.31-9110.95-1657.52-9109.86-1656.61-9108.6-1656.15-9107.58-1652.13-9109.23-1646.96-9107.35-1642.67-9107.44-1635.98-9107.46-1632.08-9105.65-1629.74-9099.37-1626.07-9087.73-1624.35-9076.22-1622.46-9064.8-1620.02-9050.07-1618.18-9036.36-1617.45-9021.35-1617.07-9012.04-1617.01-9001.54-1615.53-8992.15-1601.26-8992.98-1580.02-8998.74-1568-8989.99-1559.47-8981.92-1563.9-8967.87-1572.08-8960.64-1577.54-8954.72-1589.9-8949.71-1603.47-8945.85-1620.81-8940.91-1640.15-8937.83-1649.7-8937.06-1648.51-8936.2-1646.45-8933.89-1645.18-8933.09-1636.3-8927.46-1623.05-8922.48-1625.37-8915.31-1622.31-8908.86-1636.48-8907.51-1640.6-8907.48ZM-1638.55-9054.13C-1638.55-9054.13-1638.68-9055.22-1639.39-9055.18-1640.09-9055.15-1640.16-9054.07-1640.16-9054.07-1640.8-9043-1641.34-9032.76-1641.96-9021.66-1642.6-9013.41-1642.38-9006.74-1641.26-9000.66-1640.91-8997.14-1641.73-8993.14-1643.51-8990.35-1639.37-8988.54-1633.64-8989.19-1629.33-8989.84-1630.11-8991.01-1630.67-8993.07-1630.71-8994.56L-1630.71-8994.56C-1632.91-9014.71-1635.82-9034.2-1638.55-9054.13Z" id="_Skin-9_3_" fill="#FFFFFF"/><path d="M-1641.2-8907.63C-1644.02-8907.43-1655.86-8911.15-1658.27-8911.99-1658.27-8911.99-1669.97-8918.78-1669.97-8918.78-1672.87-8919.92-1677.8-8923.94-1676.17-8927.4-1675.21-8929.45-1676.82-8929.64-1676.63-8931.86-1676.33-8933.81-1675.68-8935.71-1674.73-8937.45-1671.61-8933.29-1665.44-8933.67-1663.56-8938.88-1662.59-8941.47-1659.12-8945.16-1656.09-8943.25-1656.02-8943.36-1652.4-8938.76-1652.36-8938.89-1648.01-8934.62-1642.36-8931.53-1635.55-8927.27L-1635.55-8927.27C-1630.11-8923.76-1623.62-8920.12-1624.45-8912.84-1629.48-8908.95-1635.11-8907.94-1641.2-8907.63ZM-1718.18-8929.76C-1719.61-8929.64-1720.25-8931.47-1721.54-8931.58-1724.3-8930.81-1725-8934.17-1725.83-8936.18-1729.21-8946.26-1720.05-8951.09-1709.82-8953.61-1703.26-8955.23-1696.27-8956.26-1691.86-8955.97-1690.78-8953.48-1688.69-8948.5-1687.45-8945.68-1687.36-8945.46-1687.28-8944.05-1687.48-8943.94-1687.86-8943.75-1688.06-8942.83-1687.87-8941.92-1687.62-8940.72-1687.83-8932.89-1689.99-8934.22-1699.24-8937.49-1709.06-8931.95-1718.18-8929.76Z" id="_Shoes-9_3_" fill="#FFFFFF"/><path d="M-1715.26-9032.19-1713.39-9033.22-1681.69-9024.3C-1681.41-9024.11-1680.76-9023.4-1680.18-9022.81-1679.82-9022.42-1679.64-9021.9-1679.74-9021.38-1680.21-9018.76-1679.8-9015.25-1679.55-9012.43-1679.31-9009.29-1679.42-9007.19-1679.91-9003.33-1680.34-8998.17-1681.39-8990.66-1679.51-8986.35-1679.19-8985.63-1678.24-8985.47-1677.72-8986.06-1676.61-8987.32-1675.05-8989.51-1674.56-8991.01-1674.38-8991.58-1673.53-8991.45-1673.53-8990.85L-1673.52-8987.8C-1673.64-8983.58-1669.65-8984.9-1669.18-8988.62-1669.18-8988.62-1669-8989.6-1668.46-8989.53-1667.91-8989.47-1667.9-8988.55-1667.9-8988.55-1668.07-8987.23-1667.31-8982.29-1665.07-8983.68-1663.89-8984.41-1663.46-8987.53-1663.21-8990.21-1663.17-8990.71-1662.43-8990.72-1662.37-8990.22-1662.17-8988.51-1661.95-8986.63-1661.75-8985.36-1661.67-8984.8-1660.96-8984.54-1660.57-8984.96-1660.3-8985.26-1658.86-8987.11-1658.59-8987.4-1652.12-8986.44-1647.45-8986.79-1644.29-8990.21-1643.96-8990.57-1643.44-8990.69-1642.99-8990.49-1636.54-8987.62-1631.5-8990-1624.73-8990.81-1607.33-8992.9-1586.68-8997.02-1574.24-8993.08-1566.11-8990.76-1562.42-8982.6-1563.94-8974.6-1565.94-8963.23-1576.17-8956.15-1589.06-8950.63-1608.46-8942.32-1634.34-8939.12-1650.38-8936.91-1650.38-8936.91-1653.38-8940-1653.46-8940.04-1653.46-8940.04-1654.28-8942.59-1655.81-8943.6-1657.65-8944.81-1659.04-8943.07-1660.34-8943.51-1661.27-8943.82-1662.64-8946.08-1663.37-8947.9-1663.65-8948.6-1664.52-8948.8-1665.08-8948.31-1665.51-8947.93-1666.02-8947.52-1666.54-8947.15-1667.79-8946.41-1678.59-8942.59-1683.4-8941.22-1684.21-8940.99-1685.06-8941.38-1685.41-8942.14-1687.41-8946.48-1691.72-8956.12-1691.72-8956.12-1699.1-8956.27-1708.66-8954.14-1715.64-8951.83-1721.9-8949.76-1726.52-8946.44-1726.4-8939.13-1726.4-8938.79-1726.8-8938.61-1727.04-8938.84-1734.32-8945.85-1737.08-8954.71-1737.73-8964.11-1739.32-8987.17-1725.5-9014.38-1715.26-9032.19Z" id="_Pants-4_3_" fill="#FFFFFF"/><path d="M-1640.74-8906.74C-1650.71-8906.68-1659.66-8911.3-1668.4-8916.38L-1668.4-8916.38C-1672.75-8918.7-1679.43-8922.71-1676.34-8928.4-1677.61-8930.72-1677.69-8934.02-1676.05-8936.09-1680.04-8935.67-1683.88-8934.96-1687.88-8934.57-1688.81-8931.86-1693.64-8935.04-1695.82-8934.13-1696.32-8933.63-1697.17-8933.56-1697.73-8933.99-1703.44-8933.36-1708.36-8932.26-1712.76-8930.63-1715.45-8929.41-1718.99-8928.03-1721.39-8930.54-1725.08-8930.57-1727.02-8934.58-1727.27-8937.82-1740.44-8948.87-1739.5-8967.47-1737.33-8983.1-1735.17-9000.82-1732.67-9018.92-1726.36-9035.36-1734.09-9037.75-1739.87-9044.69-1736.32-9052.57-1734.09-9058.74-1732.16-9064.9-1729.83-9071.08-1732.47-9072.88-1725.57-9080.88-1724.38-9083.12-1716.99-9097.8-1700.89-9106.53-1684.63-9106.1-1679.86-9109.02-1678.04-9114.46-1676.93-9119.73-1675.24-9112.8-1679.46-9104.57-1686.45-9102.55-1683.82-9098.07-1681.48-9093.74-1676.3-9091.4-1665.34-9086.11-1652.18-9089.33-1653.43-9103.71-1656.53-9101.28-1658.32-9109.93-1658.02-9112-1657.98-9112.53-1657.63-9115.52-1657.08-9115.08-1656.82-9112.77-1656.31-9110.49-1655.36-9108.36-1652.78-9109.24-1649.59-9108.58-1646.83-9108.45-1642-9107.89-1636.42-9108.82-1632.57-9105.21-1626.38-9097.88-1624.83-9083.21-1622.48-9073.46-1620.3-9060.84-1618.17-9047.05-1617.17-9033.62-1616.27-9020.14-1616.38-9006.28-1614.34-8992.97-1599.85-8993.81-1583.24-8999.13-1569.64-8991.95-1556.58-8983.78-1563.95-8964.35-1574.76-8957.3-1596.01-8943.4-1622.56-8940.09-1647.7-8936.55-1647.04-8936.08-1646.44-8935.66-1645.85-8935.26-1644.3-8935.88-1643.17-8936.4-1641.91-8935.62-1641.02-8934.9-1641.65-8933.35-1642.74-8933.26-1637.52-8929.15-1622.34-8924.05-1623.68-8915.67-1621.1-8908.16-1635.83-8906.95-1640.74-8906.74ZM-1675.73-8927.37C-1676.16-8921.18-1666.79-8918.72-1662.86-8915.84-1652.04-8910.04-1636.03-8904.9-1625.63-8913.52-1630.56-8911.05-1646.87-8909.05-1650.39-8913.76-1658.59-8918.17-1669.57-8920.16-1675.73-8927.37L-1675.73-8927.37ZM-1674.41-8936.3C-1679.38-8925.42-1660.44-8922.17-1653.77-8918.23-1650.82-8917.07-1648.09-8915.36-1644.98-8914.73-1638.88-8913.66-1632.08-8914-1626.41-8916.55-1626.74-8923.15-1642.05-8928.65-1646.41-8932.57-1650.57-8931.54-1654.64-8928.89-1648.32-8933.95-1649.64-8934.94-1650.88-8936.02-1652.05-8937.18-1653.68-8936.75-1655-8936.18-1656.57-8935.38-1657.52-8935.84-1653.38-8938.49-1653.25-8938.47-1654.42-8939.77-1656.33-8942.39-1656.4-8942.28-1657.31-8943.11-1658.73-8942.87-1659.67-8942.21-1662.33-8941.29-1662.76-8937.82-1664.37-8935.81-1666.83-8932.09-1671.97-8933.09-1674.41-8936.3L-1674.41-8936.3ZM-1696.31-8951.39C-1700.7-8951.39-1707.08-8950.92-1712.51-8948.66-1719.38-8945.82-1724.55-8939.4-1721.15-8932.81-1719.23-8929.27-1715.42-8931.32-1712.58-8932.45-1709.26-8933.61-1705.81-8934.47-1702.31-8935.05-1702.36-8937.55-1702.45-8940.39-1703.03-8942.9-1701.58-8944.81-1699.8-8936.51-1699.66-8935.42-1699.17-8935.49-1698.69-8935.54-1698.21-8935.59-1698.22-8938.64-1698.47-8940.96-1697.84-8943.67-1696.8-8941.62-1696.44-8939.16-1695.84-8936.93-1695.23-8935.58-1693.43-8935.6-1692.19-8935.28-1691.58-8935.06-1688.32-8934.5-1689.69-8935.83-1689.66-8935.93-1689.63-8936.02-1689.6-8936.12-1689.53-8936.12-1689.45-8936.13-1689.37-8936.13-1689.76-8937.8-1688.6-8939.39-1688.88-8941.06-1688.91-8945-1692.56-8947.5-1695.92-8948.28-1693.07-8949.48-1689.27-8946.79-1687.88-8944.16-1689-8946.64-1690.01-8948.94-1690.97-8951.16-1692.72-8951.31-1694.51-8951.39-1696.31-8951.39ZM-1692.87-8955.59C-1693.65-8954.72-1694.94-8954.98-1695.97-8954.89-1705.18-8953.93-1715.26-8952.45-1722.82-8946.73-1726.64-8941.78-1726.02-8935.89-1722.59-8932-1729.34-8949.44-1704.21-8954.34-1691.72-8952.9-1692.09-8953.74-1692.48-8954.66-1692.87-8955.59L-1692.87-8955.59ZM-1664-8947.65C-1667.59-8944.27-1672.77-8943.32-1677.21-8941.62-1674.05-8938.22-1668.77-8931.52-1665.47-8938.31-1664.5-8940.25-1663.81-8942.46-1661.83-8943.64-1662.72-8944.88-1663.45-8946.23-1664-8947.65L-1664-8947.65ZM-1686.79-8940.5-1686.79-8940.5C-1686.69-8939.49-1686.74-8938.47-1686.96-8937.48-1686.51-8937.34-1686.22-8936.86-1686.26-8936.4-1682.74-8936.79-1679.21-8937.45-1675.66-8937.77-1676.58-8938.96-1677.32-8940.27-1677.92-8941.39-1680.33-8941.1-1685.32-8937.87-1686.79-8940.5L-1686.79-8940.5ZM-1648.76-8939.8-1648.76-8939.8C-1647.84-8939.87-1646.71-8939.05-1647.47-8938.23-1623.95-8941.01-1582.75-8948.13-1570.12-8963.9-1558.96-8978.3-1564.07-8994.01-1583.62-8993.81-1596.8-8993.99-1610.26-8991.67-1623.39-8990.15-1629.83-8989.16-1637.16-8986.98-1643.39-8989.43-1647.17-8985.36-1653.27-8985.31-1658.4-8986.03-1658.61-8985.86-1658.85-8985.75-1659.11-8985.7-1661.33-8982.71-1662.58-8983.51-1662.89-8987-1663.76-8979.59-1669-8982.22-1668.56-8988.27-1669.1-8983.18-1674.75-8983.25-1674.41-8988.47-1674.59-8987.98-1674.82-8987.51-1675.08-8987.05-1671.07-8977.27-1665.77-8967.8-1662.7-8957.71-1657.11-8958.82-1652.02-8962.54-1647.07-8965.22-1637.76-8970.6-1630.12-8974.96-1619.83-8978.75-1615.42-8980.06-1607.84-8983.74-1605.1-8981.36-1604.83-8978.79-1609.09-8979.67-1610.75-8978.83-1615.31-8977.76-1619.87-8976.16-1624.19-8974.29-1636.77-8968.89-1649.31-8960.53-1662.22-8955.65-1661.8-8953.35-1661.91-8950.83-1663.14-8948.79-1662.05-8947.28-1660.89-8945.9-1659.76-8944.46-1658.27-8944.41-1656.56-8945.09-1655.26-8944.09-1654.39-8942.99-1652.67-8941.8-1652.52-8940.4-1652.1-8940.01-1651.66-8939.64-1651.24-8939.3-1650.45-8939.48-1649.59-8939.8-1648.76-8939.8ZM-1713.55-9031.67C-1727.39-9006.93-1750.28-8964.61-1727.28-8940.01-1727.5-8946.86-1721.6-8951.09-1715.49-8952.7-1708.4-8955.02-1700.76-8957.09-1693.28-8956.57-1699.36-8971.18-1704.17-8983.68-1708.24-8997.47-1711.17-8998.33-1714.31-8998.97-1717.27-8998.75-1715.22-9000.26-1711.51-9000.08-1708.84-8999.7-1709.92-9003.79-1710.91-9007.85-1712.07-9012.7-1712.01-9012.97-1711.85-9012.66-1711.83-9012.52-1711.39-9013.59-1710.09-9008.93-1710.05-9008.91-1702.66-8986.65-1693.94-8963.69-1684.13-8942.68-1679.96-8943.72-1675.77-8945.09-1671.54-8946.6-1660.31-8948.74-1665.64-8959.91-1668.53-8967.04-1671.05-8973.85-1673.25-8979.48-1675.74-8986.06-1676.08-8985.62-1676.48-8985.23-1676.94-8984.91-1677.6-8985.2-1678.34-8984.05-1679.1-8984.16-1683.66-8986.68-1680.96-8999.54-1680.87-9003.51-1679.52-9009.62-1681.41-9016.09-1680.47-9022.23-1680.96-9022.52-1681.42-9022.85-1681.9-9023.15-1692.58-9025.61-1702.99-9028.88-1713.55-9031.67L-1713.55-9031.67ZM-1687.33-8942.92-1687.33-8942.92C-1687.07-8942.21-1686.9-8941.48-1686.81-8940.74-1686.8-8940.95-1686.7-8941.14-1686.61-8941.32-1686.79-8941.74-1687.14-8942.5-1687.33-8942.92ZM-1667.28-9000.17-1667.28-9000.17C-1664.58-9000.06-1668.67-8986.03-1665.75-8984.18-1664.22-8985.64-1664.71-8988.07-1664.4-8990.03-1663.91-8993.11-1664.28-8996.58-1663.3-8999.47-1662.79-8999.92-1661.8-8999.61-1661.88-8998.85-1662.02-8994.86-1661.91-8991.43-1661.23-8987.76-1661.14-8987.27-1661.02-8986.83-1661.05-8987.05-1658.93-8987.81-1660.11-8991.91-1659.7-8993.74-1659.41-9000.29-1659.51-9007.07-1661.19-9012.99-1663.29-9021.92-1670.05-9028.1-1677.07-9033.46-1686.96-9041.74-1698.17-9049.31-1708.74-9056.82-1712.1-9057.52-1706.47-9061.97-1705.67-9063.34-1706.55-9063.14-1707.34-9063.64-1708.1-9064.13L-1708.1-9064.13C-1714.03-9067.6-1719.95-9069.94-1726.67-9072.02-1729.96-9064.14-1731.88-9055.81-1735.43-9048.13-1735.56-9041.04-1728.14-9038.11-1722.42-9036.62-1712.98-9034.07-1701.52-9030.89-1691.06-9028.02-1688.49-9027.37-1685.88-9026.55-1683.3-9025.81-1682.01-9025.48-1680.66-9025.14-1680.03-9023.9-1679.93-9024.09-1678.96-9027.32-1678.6-9026.2-1680.4-9020.87-1678.1-9015.61-1677.97-9010.25-1678.19-9002.49-1679.77-8994.56-1678.67-8986.85-1674.51-8990.65-1676.34-8996.99-1673.87-9001.83-1670.9-9003.37-1672.94-8995.38-1672.52-8993.83-1672.21-8991.98-1673.62-8986.67-1671.71-8986.17-1669.24-8986.33-1669.26-9000.11-1667.28-9000.17ZM-1639.36-9053.26-1639.36-9053.26C-1640-9038.87-1641.31-9024.79-1641.49-9010.4-1641.66-9003.76-1638.57-8996.88-1642.35-8990.81-1638.9-8989.55-1634.58-8990-1630.78-8990.54-1633.93-9010.16-1636.19-9032.94-1639.36-9053.26L-1639.36-9053.26ZM-1624.81-9070.86C-1629.72-9070-1634.5-9068.28-1638.73-9065.62-1639.59-9059.69-1637.91-9052.92-1636.69-9046.93-1633.65-9029.01-1630.17-9010.42-1628.75-8990.86-1625.6-8991.44-1621.44-8992.17-1617.2-8992.64-1619.28-9006.34-1618.9-9020.58-1619.77-9034.46-1620.55-9046.8-1622.62-9058.54-1624.81-9070.86ZM-1655.03-9107.65C-1654.74-9107.09-1654.47-9106.62-1654.11-9106.12L-1654.11-9106.12C-1653.85-9105.79-1653.64-9105.42-1653.46-9105.04-1653.46-9105.88-1653.51-9106.7-1653.49-9107.53-1654-9107.61-1654.51-9107.65-1655.03-9107.65Z" id="_Ink-9_3_" class="MsftOfcResponsive_Fill_000000"/></g></svg>