<svg viewBox="0 0 188 211" xmlns="http://www.w3.org/2000/svg" xmlns:xlink="http://www.w3.org/1999/xlink" id="c85e2c74-7d35-4f8c-98dd-4ea08c4da585" overflow="hidden"><style>
.MsftOfcResponsive_Fill_000000 {
 fill:#000000; 
}
</style>
<g id="pose_sitting_mid-2_1_" transform="translate(1744 7151.28)"><path d="M-1690.7-6945.58C-1696.29-6945.93-1706.33-6944.48-1709.1-6949.93-1710.43-6952.29-1711.26-6955.8-1709.24-6957.84-1709.91-6962.19-1705.33-6969.53-1705.33-6969.53-1701.2-6975.02-1700.84-6980.09-1703.93-6986.23-1709.55-6986.44-1720.83-6988.02-1721.65-6987.87-1722.03-6987.81-1722.88-6988.36-1722.95-6988.89-1726.46-7003.91-1729.35-7017.24-1732.75-7032.19-1736.22-7047.4-1743.33-7072.36-1725.56-7078.88L-1726.38-7080.9C-1727.34-7080.9-1727.63-7081.74-1728.07-7083.22-1730.03-7088.1-1726.71-7093.46-1723-7096.74-1718.12-7101.63-1713.36-7107.03-1709-7112.28-1696.02-7127.84-1684.17-7143-1664.35-7145.06-1664.35-7145.06-1660.93-7145.56-1659.87-7145.1-1653.58-7142.31-1649.06-7142.91-1643.68-7143.52-1633.8-7144.64-1622.7-7138.77-1616.62-7130.8L-1616.36-7132.56C-1616.28-7133.17-1615.21-7133.01-1614.65-7132.77-1605.43-7128.82-1601.59-7119.94-1597.74-7110.89-1596.34-7106.73-1593.97-7103.54-1593.34-7099.56-1593.24-7098.9-1593.47-7098.23-1593.97-7097.79L-1593.41-7097.11C-1586.58-7088.32-1581.94-7075.14-1578.67-7064.21-1577.86-7062.31-1577.54-7060.63-1578.85-7058.71-1579.1-7058.35-1579.15-7057.45-1578.8-7057.2-1571.43-7051.89-1556.71-7038.61-1562.51-7025.4-1571.22-7010.44-1596.46-6999.36-1612.2-6992.02-1612.2-6992.02-1620.33-6989.19-1623.93-6985.73-1624.22-6985.33-1624.71-6984.67-1625.21-6984.72-1628.4-6986.21-1631.35-6998.23-1631.19-7000.62-1633.88-6999.66-1636.27-6999.12-1639.05-6998.62-1638.77-6998.02-1638.06-6997.04-1638.66-6996.43-1638.62-6994.8-1640.8-6979.59-1641.17-6975.64-1638.33-6972.93-1633.96-6971.52-1631.34-6968.54-1629.52-6966.71-1630.05-6963.35-1631.98-6961.94-1632.28-6961.72-1632.33-6961.34-1632.14-6961.03-1631.52-6960.04-1631.79-6957.56-1632.67-6956.71-1635.78-6954.44-1639.37-6956.62-1642.78-6957.42-1647.79-6959.08-1653.09-6961.24-1658.87-6964.89-1661.18-6966.35-1662.79-6969.23-1663.57-6971.84-1669.44-6989.94-1671.23-7001.65-1668.46-7007.82-1666.34-7009.25-1663.34-7007.93-1662.27-7010.52-1662.09-7010.97-1662.36-7011.47-1662.84-7011.52-1670.73-7012.24-1681.33-7010.69-1686.96-7013.96-1687.23-7014.12-1687.45-7014.27-1687.65-7014.42-1688.25-7014.87-1689.11-7014.37-1689.04-7013.62-1688.24-7004.18-1687.86-6996.33-1687.57-6987.34-1686.46-6985.47-1685.28-6983.06-1684.23-6980.87-1683.82-6979.95-1682.93-6977.54-1682.72-6976.87-1682.52-6976.25-1676.42-6962.04-1674.54-6954.76-1672.31-6954.35-1672.74-6952.05-1672.7-6950.21-1672.97-6944.61-1684.62-6945.98-1689.21-6945.58L-1690.7-6945.58ZM-1691.24-7062.53-1691.22-7061.42C-1688.95-7059.04-1686.85-7056.63-1684.96-7054.25L-1683.36-7054.17C-1683.04-7054.16-1682.79-7054.46-1682.87-7054.77-1683.74-7058.03-1686.5-7061.83-1690.71-7062.96-1690.98-7063.03-1691.25-7062.81-1691.24-7062.53ZM-1617.83-7090.53C-1623.28-7080.94-1632.28-7071.25-1632-7059.62-1625.73-7062.28-1619.11-7063.79-1612.65-7065.8-1612.65-7065.8-1612.65-7065.8-1612.65-7065.8-1611.04-7066.32-1609.55-7066.76-1607.93-7066.79-1603.71-7073.21-1612.96-7083.03-1616.14-7089.98-1616.44-7090.63-1617.48-7091.16-1617.83-7090.53ZM-1693.19-7095.21-1693.19-7095.21C-1695.61-7093.76-1697.97-7092.72-1700.38-7092-1698.23-7091.01-1696.1-7089.7-1694.38-7088.06-1693.37-7090.2-1693.04-7092.7-1693.19-7095.21L-1693.19-7095.21Z" id="_Skin-7_5_" fill="#FFFFFF"/><path d="M-1691.84-6945.1C-1698.7-6945.11-1708.04-6945.65-1710.36-6952.56-1710.75-6954.45-1710.44-6956.33-1709.42-6957.75-1708.56-6958.96-1708.95-6961.41-1708.56-6962.94-1707.52-6968.6-1701.63-6974.4-1701.22-6978.87-1701.17-6979.49-1700.82-6980.04-1700.28-6980.34-1696.14-6982.68-1690.37-6983.08-1686.02-6980.97-1685.89-6980.48-1683.66-6979.01-1683.18-6977.97-1679.78-6970.77-1675.31-6960.56-1673.83-6953.03-1673.59-6952.5-1672.6-6952.11-1672.35-6951-1672.07-6950.11-1672.82-6948.14-1673.42-6947.7-1676.22-6945.68-1685.49-6945.19-1691.84-6945.1ZM-1636.11-6956.14C-1641.71-6956.02-1659.66-6963.66-1662.27-6968.61-1666.89-6980.7-1670.36-6994.55-1668.69-7007.62-1667.43-7008.62-1664.85-7008.34-1663.38-7009.18-1662.81-7009.5-1660.82-7011.1-1660.19-7011.22-1657.67-7011.71-1653.37-7011.53-1650.32-7011.37-1649.62-7011.33-1649.18-7010.62-1649.44-7009.96-1651.47-7004.91-1653.01-6997.08-1646.22-6995.98-1644.15-6995.3-1641.66-6995.87-1640.28-6997.19-1639.75-6997.7-1638.59-6997.42-1638.61-6996.18-1638.66-6993.49-1639.86-6987.08-1640.48-6983.81-1640.97-6981-1641.41-6977.52-1640.76-6975.8-1639.9-6973.53-1632.99-6970.96-1631.16-6968.69-1628.14-6964.94-1632.6-6962.02-1631.85-6960.11-1631.13-6958.27-1633.26-6955.98-1636.11-6956.14L-1636.11-6956.14Z" id="_Shoes-7_1_" fill="#FFFFFF"/><path d="M-1660.32-7145.13C-1660.06-7145.1-1659.03-7145.16-1658.78-7145.13-1659.74-7142.31-1659.98-7139.43-1660.13-7136.57-1660.84-7122.83-1652.9-7109.63-1642.04-7107.37-1636.68-7106.25-1630.61-7107.79-1624.51-7113.23-1619.75-7117.5-1615.7-7133.23-1615.7-7133.23-1603.9-7128.66-1598.04-7111.7-1594.33-7101.16-1601.49-7101-1610.41-7095.88-1615.66-7089.27L-1616.61-7090.75C-1617.52-7091.67-1618.79-7090.47-1618.88-7090.32-1624.17-7081.88-1631.81-7068.02-1632.27-7063.21-1632.63-7058.43-1631.55-7057.64-1633.49-7052.13-1636.13-7046.27-1642.05-7037.76-1647.74-7034.56-1653.76-7031.79-1660.26-7034.98-1665.47-7038.14-1668.11-7047.96-1664-7055.32-1672.37-7064.56-1674.27-7066.6-1678.95-7068.65-1680.93-7070.94-1687.5-7078.52-1692.71-7086.01-1693.93-7087.25-1693.3-7089.47-1692.83-7093.01-1693.51-7095.3-1693.67-7095.1-1674.3-7107.94-1678.73-7109.86-1678.76-7109.83-1680.21-7111.01-1680.25-7110.98-1686.89-7117.02-1694.66-7119.23-1702.62-7119.48-1692.29-7133.19-1678.31-7144.91-1660.32-7145.13Z" id="_Top-6_3_" fill="#FFFFFF"/><path d="M-1578.41-7057.72C-1573.84-7061.77-1589.08-7093.51-1592.92-7097.57-1591.6-7100.37-1594.43-7104.3-1594.99-7107.01-1599.16-7116.73-1603.93-7129.1-1614.66-7133.28-1615.18-7134.26-1616.89-7134.16-1617.01-7132.95-1621.68-7138.44-1628.29-7142.15-1635.34-7143.59-1640.61-7144.88-1645.92-7143.9-1651.21-7143.83-1651.71-7143.82-1652.21-7143.83-1652.71-7143.83-1653.07-7143.83-1653.18-7144.1-1653.28-7144.12-1666.67-7149.15-1681.33-7142.54-1691.36-7133.35-1700.57-7125.35-1708.46-7114.71-1716.58-7105.33-1721.89-7098.23-1731.71-7093.25-1729.39-7083.67-1728.97-7082.26-1728.47-7080.01-1726.67-7080.03-1744.78-7071.05-1737.42-7047.54-1733.86-7031.89-1730.48-7017.02-1727.37-7002.46-1723.89-6987.56-1723.72-6986.58-1722.46-6986.36-1721.78-6986.96-1716.3-6985.54-1710.23-6985.42-1704.56-6985.21-1701.64-6979.48-1702.48-6975.31-1706.18-6970.37-1706.11-6970.38-1706.03-6970.38-1705.96-6970.39-1706.06-6970.38-1706.15-6970.35-1706.24-6970.29-1706.22-6970.31-1706.2-6970.34-1706.18-6970.36-1706.38-6970.33-1706.5-6970.25-1706.4-6970.18-1709.12-6966.78-1710.51-6962.29-1709.93-6957.95-1711.94-6955.63-1711.69-6952.04-1710.25-6949.48-1706.1-6942.99-1696.58-6944.72-1689.9-6944.03-1684.44-6944.76-1672.45-6942.69-1671.1-6949.72-1671.09-6951.8-1671.52-6954.91-1673.73-6955.7-1675.58-6962.8-1677.89-6970.23-1682.18-6976.52-1680.91-6977.67-1682.2-6979.47-1683.16-6980.37-1684.14-6982.42-1685.03-6984.25-1686.06-6986.01-1686.54-6994.77-1686.92-7004.64-1687.75-7013.68-1680.62-7009.28-1671.1-7010.98-1663.15-7010.26-1664.28-7007.81-1667.73-7010.14-1669.25-7008.12-1673.23-6996.83-1667.72-6977.4-1662.72-6966.99-1658.84-6961.65-1628.05-6946.11-1630.84-6960.91-1624.3-6968.36-1635.18-6972.1-1640.12-6975.4-1639.79-6978.96-1639.62-6982.44-1639.17-6986.02-1634.55-6984.95-1634.31-6989.03-1638.94-6988.19-1638.88-6988.7-1638.83-6989.21-1638.77-6989.73-1635.69-6988.89-1635.29-6992.24-1638.53-6991.91-1638.23-6993.41-1638.07-6994.94-1638.07-6996.47-1637.77-6996.92-1637.76-6997.53-1638.04-6997.99-1635.96-6998.3-1633.79-6998.31-1631.78-6998.92-1631.44-6995.93-1628.36-6978.22-1623.53-6983.89-1618.51-6988.81-1609.56-6990.77-1603.98-6993.81-1590.28-7000.95-1569.17-7009.99-1561.7-7023.7-1555.43-7037.34-1567.07-7051.17-1578.41-7057.72ZM-1658.7-7143.86-1658.7-7143.86C-1653.45-7141.28-1647.44-7142.81-1641.87-7142.8-1632.48-7142.79-1623.27-7138.28-1617.48-7130.93-1626.08-7092.05-1664.79-7106.73-1658.7-7143.86ZM-1706.24-6970.29C-1706.24-6970.29-1706.24-6970.29-1706.24-6970.29-1706.24-6970.29-1706.24-6970.29-1706.24-6970.29-1706.26-6970.22-1706.32-6970.17-1706.4-6970.18-1706.35-6970.22-1706.3-6970.26-1706.24-6970.29ZM-1674.12-6951.86C-1671.56-6945.58-1686.5-6947.34-1690.06-6946.75-1697.38-6947.08-1710.33-6945.81-1709.7-6956.31-1709.47-6955.36-1709.26-6953.83-1708.05-6953.79-1698.2-6948.66-1685.96-6948.17-1675.78-6952.64-1675.43-6952.1-1674.79-6951.52-1674.12-6951.86ZM-1685.39-6979.24C-1685.26-6978.75-1684.85-6978.31-1684.32-6978.27-1683.88-6977.77-1683.71-6977.05-1683.11-6976.71-1680.91-6969.44-1677.72-6961.64-1676.3-6954.34-1686.25-6950.98-1697.07-6950.8-1707.04-6954.17-1706.79-6954.42-1706.66-6954.77-1706.66-6955.12L-1706.66-6955.12C-1706.66-6955.12-1706.65-6955.11-1706.64-6955.1-1708.22-6961.84-1706.85-6965.16-1703.63-6970.25-1698.5-6970.74-1692.61-6970.13-1687.43-6970.78-1682.19-6975.91-1700.33-6972.63-1702.09-6971.64-1701.72-6972.46-1701.61-6973.35-1701.31-6974.19-1696.84-6974.9-1692.32-6974.31-1687.89-6974.17-1683.5-6978.06-1699.52-6976.13-1700.74-6975.71-1700.22-6976.95-1699.66-6978.23-1699.9-6979.62-1695.76-6982.47-1689.5-6981.46-1685.39-6979.24ZM-1687.31-6985.02C-1687.07-6984.15-1686.8-6983.26-1686.49-6982.36-1691.18-6983.66-1696.73-6984.75-1700.64-6981.21-1701.25-6982.86-1701.9-6984.14-1702.69-6985.23-1698.13-6985.74-1693.65-6985.46-1689.08-6985.92L-1689.08-6985.92C-1688.75-6985.3-1688.01-6984.91-1687.31-6985.02ZM-1690.48-7062.25-1690.48-7062.25C-1687.11-7060.71-1684.85-7058.51-1684.18-7055.02-1686.2-7057.58-1688.34-7060.01-1690.48-7062.25ZM-1667.39-7040.84C-1668.7-7035.77-1670.32-7030.23-1674.16-7026.4-1674.27-7026.43-1674.39-7026.42-1674.49-7026.37-1674.25-7027.88-1673.98-7029.4-1673.73-7030.88-1673.54-7032.83-1669.68-7038.96-1672.21-7039.84L-1672.21-7039.84C-1672.67-7039.86-1673.06-7039.45-1673.05-7039-1674.27-7034.65-1675.79-7029.23-1680.2-7026.6-1679.34-7029.83-1678.48-7032.49-1677.12-7035.41-1676.62-7036.81-1674.34-7039.08-1676.53-7039.63-1679.55-7036.43-1680.64-7030.81-1685.08-7028.55-1684-7032.82-1681.69-7036.9-1680.74-7041.06-1681.62-7042.42-1682.51-7040.76-1682.72-7039.84-1683.53-7038.06-1684.35-7035.46-1686.26-7034.68-1686.77-7034.83-1686.46-7035.42-1686.11-7036.31-1684.73-7040.36-1683.82-7044.6-1681.83-7048.42-1680.57-7056.08-1684.44-7062.02-1692.18-7063.98-1698.2-7069.75-1706.51-7077.1-1715.14-7079.39-1716.57-7079.76-1717.93-7080.16-1719.38-7080.34-1720.46-7080.47-1723.08-7080.66-1725.01-7080.44-1724.95-7080.8-1725.66-7080.36-1725.85-7080.34-1725.28-7080.78-1725.37-7081.81-1726.06-7082.08-1730.78-7091.07-1719.97-7096.56-1715-7103.32-1710.51-7108.56-1706.44-7113.94-1701.86-7119.13-1693.58-7117.75-1685.58-7114.2-1679.4-7108.48-1685.76-7102.6-1692.33-7096.5-1700.29-7093.01-1700.95-7093.35-1702.02-7093.29-1702.26-7092.46-1703.11-7092.22-1704.37-7092.17-1705-7091.83-1697.71-7091.13-1692.97-7084.93-1689.05-7079.29-1684.34-7069.62-1670.91-7066.88-1669.21-7055.67-1666.12-7050.86-1668.04-7045.95-1667.39-7040.84ZM-1693.83-7094.11C-1693.81-7092.47-1694.05-7090.99-1694.56-7089.69-1695.66-7090.63-1696.85-7091.46-1698.13-7092.12-1696.57-7092.65-1695.33-7093.27-1693.83-7094.11ZM-1639.81-6991.68C-1643.19-6991.21-1645.47-6989.26-1640.33-6989.67-1640.48-6989.04-1640.63-6988.39-1640.77-6987.73-1641.61-6987.37-1643.73-6986.77-1643.76-6985.87-1642.88-6985.68-1642-6986.03-1641.12-6985.99-1641.24-6984.41-1644.49-6969.99-1640.29-6974.35-1639.3-6972.94-1637.83-6972.06-1636.4-6971.12-1633.51-6969.88-1628.87-6964.52-1633.55-6962.91-1634.3-6962.71-1635.11-6961.87-1634.69-6961.07L-1634.71-6961.06C-1634.62-6960.36-1633.85-6960.12-1633.3-6959.9-1632.25-6959.04-1633.35-6957.69-1634.4-6957.5-1643.28-6957.11-1649.57-6961.4-1658.1-6966.1-1661.52-6967.86-1662.63-6972.06-1663.54-6975.61-1665.06-6981.63-1673.65-7008.35-1664.17-7008.48L-1664.17-7008.48C-1666.06-7001.37-1662.91-6994.28-1661.65-6987.35-1659.63-6973.67-1653.63-6961.15-1638.33-6960.15-1636.17-6959.86-1634.82-6962.31-1637.27-6963.1-1649.87-6963.78-1656.46-6972.71-1657.88-6984.56-1658.98-6989.22-1660.11-6994.04-1661.45-6998.72-1662.82-7002.71-1664.5-7007.59-1660.21-7010.18-1657.07-7010.09-1654.01-7010.01-1650.91-7010-1651.68-7008.68-1652.5-7007.13-1652.08-7005.57-1655.28-6997.38-1646.4-6991.38-1639.11-6995.68-1639.15-6994.38-1639.45-6992.89-1639.81-6991.68ZM-1642.3-6998.96C-1643.13-6998.79-1644.45-6998.75-1644.17-6997.99-1644.17-6997.99-1644.17-6997.99-1644.18-6997.99-1643.61-6997.56-1642.88-6997.8-1642.23-6997.75-1650.01-6994.47-1652.38-7005.83-1647.51-7009.98L-1647.51-7009.98C-1647.42-7009.98-1647.36-7009.91-1647.33-7009.78-1647.43-7009.55-1646.9-7009.83-1647.04-7010.04-1642.49-7009.93-1637.98-7011.03-1633.73-7012.11-1632.8-7012.11-1632.76-7011.22-1632.62-7008.27-1632.55-7006.6-1632.44-7004.31-1632.14-7001.16-1635.53-7000.5-1638.9-6999.57-1642.3-6998.96ZM-1634.22-7059.47C-1634.22-7059.47-1634.23-7059.47-1634.23-7059.47-1633.99-7059.04-1634.08-7058.47-1633.72-7058.1-1637.21-7042.68-1649.49-7028.52-1665.17-7040.25-1665.33-7041.79-1665.51-7043.48-1665.73-7045.57-1663.57-7048.51-1665.42-7053.98-1667.16-7056.97-1668.07-7062.49-1672.12-7066.67-1676.61-7069.65L-1676.61-7069.65C-1683.8-7074.13-1687.35-7082.13-1692.96-7088.18-1692.37-7090.28-1692.26-7092.55-1692.88-7094.66-1688.83-7097.54-1668.39-7110.15-1674.72-7114.25-1676.37-7113.85-1676.09-7111.23-1677.56-7110.33-1683.99-7116.16-1692.53-7120.02-1701.3-7119.77-1690.48-7132.48-1676.57-7144.61-1659.46-7144.59-1659.57-7144.56-1659.6-7144.41-1659.53-7144.32-1669.42-7104.25-1623.1-7088.34-1614.67-7131.65-1614.59-7132.04-1614.14-7132.23-1613.82-7131.99-1604.53-7124.87-1599.62-7112.74-1595.94-7101.85-1603.88-7101.22-1610.94-7096.27-1615.58-7089.99-1616.08-7090.78-1615.98-7091.04-1615.96-7091.18-1614.04-7095.56-1611.21-7100.83-1610.5-7105.56-1612.5-7102.65-1614.36-7099.63-1616.26-7096.6-1622.45-7084.43-1634.67-7074.11-1634.22-7059.47ZM-1631.01-7061.1C-1630.65-7072.32-1621.89-7080.59-1616.83-7089.91L-1616.83-7089.91C-1614.4-7082.87-1605.16-7075.68-1608.26-7067.85-1615.77-7066.31-1623.92-7063.67-1631.01-7061.1ZM-1605.07-7046.06C-1605.09-7037.3-1601.69-7029.3-1603.38-7020.89-1605.79-7023.75-1606.25-7031.11-1606.48-7034.09-1610.11-7037.14-1609.18-7012.01-1609.29-7009.76-1613.31-7015.6-1613.33-7023.04-1613.55-7029.85-1617.12-7035.73-1614.03-7009.62-1615.25-7007.81-1618.08-7014.79-1619.14-7022.96-1618.31-7031.42-1619.73-7027.36-1619.7-7021.46-1619.22-7016.82-1620.85-7016.02-1619.56-7012.81-1620.11-7011.5-1632.46-7037.15-1606.62-7051.09-1605.73-7072.84-1608.26-7078.71-1612.26-7083.74-1615.28-7089.4-1609.65-7094.38-1604.02-7099.05-1596.34-7099.42-1587.52-7088.47-1582.97-7075.1-1578.69-7061.71-1582.44-7050.11-1598.22-7053.99-1605.07-7046.06Z" class="MsftOfcResponsive_Fill_000000"/></g></svg>