<svg viewBox="0 0 185 226" xmlns="http://www.w3.org/2000/svg" xmlns:xlink="http://www.w3.org/1999/xlink" id="cb0bc7c1-1d19-4944-a6a4-30b08cdb7e52" overflow="hidden"><style>
.MsftOfcResponsive_Fill_000000 {
 fill:#000000; 
}
</style>
<g id="pose_sitting_one_leg_up-2_1_" transform="translate(1744 11103.3)"><path d="M-1641.63-10883.5C-1651.44-10883.3-1661.15-10888.5-1668.83-10893L-1668.83-10893C-1672.87-10895.2-1679.94-10899.3-1676.62-10904.7-1678.35-10907.5-1677.85-10910.3-1676.03-10912.5-1675.86-10912.7-1676.03-10913-1676.3-10913-1680.78-10912.5-1684.9-10911.7-1689.42-10911.3-1689.61-10910.7-1689.42-10910.2-1690.36-10910.2-1692.43-10910.3-1694.94-10911.4-1697.13-10910.8-1697.44-10910.3-1698.03-10910.4-1698.38-10910.8-1704.26-10910.1-1709.47-10909-1714.05-10907.3L-1714.06-10907.3C-1716.72-10906.1-1719.78-10904.8-1721.94-10907.3-1725.58-10907.1-1727.24-10911.3-1727.38-10914.2-1735.17-10920-1737.25-10930.2-1737.78-10940.6-1738.11-10947-1737.86-10953.4-1736.94-10958.9-1734.58-10978.2-1733.08-10995.5-1726.69-11011.9-1729.59-11012.9-1735.15-11015.3-1736.99-11021-1738.74-11026.4-1734.94-11031.7-1734.06-11035.2-1732.69-11039.2-1731.28-11043.3-1729.76-11047.3-1730.95-11048.2-1730.88-11048.7-1729.62-11050.7-1720.12-11068.7-1707.56-11081.7-1685.29-11081.3-1681.87-11083.3-1678.34-11087.1-1678.16-11092.4-1677.97-11098-1674.07-11099.2-1669.3-11098.8-1665.95-11098.9-1663.3-11098.3-1661.56-11097-1658.61-11095.2-1657.66-11090.4-1658.33-11087-1658.55-11085.9-1657.64-11084.6-1657.18-11083.6-1653.15-11085.2-1647.98-11083.4-1643.7-11083.4-1637.01-11083.5-1633.1-11081.6-1630.77-11075.4-1627.1-11063.7-1625.38-11052.2-1623.49-11040.8-1621.05-11026.1-1619.2-11012.4-1618.48-10997.3-1618.09-10988-1618.04-10977.5-1616.56-10968.2-1602.29-10969-1581.05-10974.7-1569.03-10966-1560.49-10957.9-1564.93-10943.9-1573.11-10936.6-1578.57-10930.7-1590.92-10925.7-1604.5-10921.8-1621.84-10916.9-1641.18-10913.8-1650.73-10913.1-1649.54-10912.2-1647.47-10909.9-1646.2-10909.1-1637.32-10903.5-1624.08-10898.5-1626.4-10891.3-1623.33-10884.9-1637.51-10883.5-1641.63-10883.5ZM-1639.58-11030.1C-1639.58-11030.1-1639.71-11031.2-1640.41-11031.2-1641.12-11031.2-1641.19-11030.1-1641.19-11030.1-1641.82-11019-1642.37-11008.8-1642.98-10997.7-1643.62-10989.4-1643.4-10982.7-1642.29-10976.7-1641.93-10973.1-1642.76-10969.1-1644.54-10966.4-1640.4-10964.5-1634.66-10965.2-1630.35-10965.8-1631.14-10967-1631.69-10969.1-1631.74-10970.6L-1631.74-10970.6C-1633.94-10990.7-1636.85-11010.2-1639.58-11030.1Z" id="_Skin-9_4_" fill="#FFFFFF"/><path d="M-1642.22-10883.6C-1645.04-10883.4-1656.89-10887.2-1659.29-10888-1659.29-10888-1670.99-10894.8-1670.99-10894.8-1673.89-10895.9-1678.82-10899.9-1677.2-10903.4-1676.23-10905.5-1677.84-10905.6-1677.66-10907.9-1677.36-10909.8-1676.71-10911.7-1675.76-10913.4-1672.64-10909.3-1666.47-10909.7-1664.59-10914.9-1663.61-10917.5-1660.15-10921.2-1657.11-10919.2-1657.04-10919.4-1653.42-10914.8-1653.39-10914.9-1649.03-10910.6-1643.39-10907.5-1636.57-10903.3L-1636.57-10903.3C-1631.14-10899.8-1624.65-10896.1-1625.47-10888.8-1630.51-10885-1636.13-10883.9-1642.22-10883.6ZM-1719.2-10905.8C-1720.63-10905.6-1721.28-10907.5-1722.56-10907.6-1725.32-10906.8-1726.03-10910.2-1726.85-10912.2-1730.23-10922.3-1721.07-10927.1-1710.84-10929.6-1704.29-10931.2-1698.34-10932.7-1693.93-10932.5-1692.85-10930-1689.71-10924.5-1688.48-10921.7-1688.39-10921.5-1688.3-10920-1688.51-10919.9-1688.88-10919.7-1689.09-10918.8-1688.89-10917.9-1688.64-10916.7-1688.85-10908.9-1691.01-10910.2-1700.26-10913.5-1710.08-10907.9-1719.2-10905.8Z" id="_Shoes-9_1_" fill="#FFFFFF"/><path d="M-1654.83-10962.2C-1656.8-10962.2-1658.16-10962.6-1660.1-10963-1658.54-10979.2-1658.6-10993.9-1670.53-11004.6L-1673.35-11006.8C-1680.78-11013.2-1703.74-11029-1709.57-11033.5L-1705.37-11039.5C-1710.97-11042.3-1721.61-11047.2-1728.14-11048.4-1728.83-11048.5-1729.23-11049.2-1728.96-11049.9-1727.94-11052.3-1726.32-11054.3-1725.14-11056.5-1716.76-11072-1704.24-11080.4-1688.77-11081.6-1687.25-11074.6-1680.74-11066.4-1674.34-11064.7-1660.71-11060.5-1651.65-11067.2-1653.35-11082.1-1653.26-11082.3-1653.23-11082.9-1653.24-11083.4-1653.26-11083.9-1652.84-11084.3-1652.34-11084.3-1649.24-11084.3-1646.55-11084.2-1643.3-11083.6-1640.18-11083-1636.69-11082.9-1634.33-11080.8-1628.32-11075.1-1626.44-11056.6-1624.89-11049.3-1624.74-11048.6-1625.22-11048-1625.9-11047.9-1631.36-11047.5-1637.5-11045.3-1641.09-11041-1641.25-11039.2-1642.98-10999.4-1643.3-10990.9-1643.59-10984.2-1643.71-10980.9-1643.52-10979.6-1641.06-10970.8-1644.41-10961.7-1654.83-10962.2ZM-1734.87-10963-1736.84-10963.4C-1734.93-10979.1-1731.61-10996.8-1726.74-11012.1-1722.81-11010.6-1718.17-11009.4-1714.05-11008.2-1722.73-10994-1729.7-10978.8-1734.87-10963L-1734.87-10963Z" id="_Top-7_3_" fill="#FFFFFF"/><g><path d="M-1570.56-10968C-1584.16-10975.1-1600.77-10969.8-1615.26-10969-1617.3-10982.3-1617.19-10996.1-1618.09-11009.6-1619.63-11027.7-1622.21-11045.7-1626.23-11062.7-1631.59-11084.7-1633.56-11085.1-1656.29-11084.4-1657.36-11086.5-1657.57-11089-1658.13-11091.2-1660.09-11089.1-1658.19-11077.1-1654.35-11079.7-1653.05-11057.6-1681.63-11063-1687.37-11078.6-1680.38-11080.6-1676.16-11088.8-1677.85-11095.7-1678.96-11090.5-1680.78-11085-1685.55-11082.1-1701.81-11082.5-1717.91-11073.8-1725.3-11059.1-1726.54-11056.7-1733.33-11049.2-1730.75-11047.1-1733.08-11040.9-1735.01-11034.7-1737.24-11028.6-1740.79-11020.7-1735.01-11013.8-1727.28-11011.4-1733.59-10994.9-1736.09-10976.8-1738.25-10959.1-1740.42-10943.5-1741.36-10924.9-1728.19-10913.8-1727.94-10910.6-1726-10906.6-1722.31-10906.5-1719.9-10904-1716.36-10905.4-1713.68-10906.6-1709.28-10908.3-1704.36-10909.4-1698.65-10910-1698.09-10909.6-1697.23-10909.6-1696.74-10910.1-1694.52-10911.1-1689.8-10907.8-1688.8-10910.6-1684.8-10911-1680.95-10911.7-1676.97-10912.1-1678.61-10910-1678.53-10906.7-1677.26-10904.4-1680.34-10898.7-1673.67-10894.7-1669.32-10892.4L-1669.32-10892.4C-1660.57-10887.3-1651.63-10882.7-1641.66-10882.7-1636.6-10883-1622.2-10884-1624.6-10891.7-1623.48-10900.3-1638.27-10905-1643.66-10909.3-1642.57-10909.3-1641.94-10910.9-1642.83-10911.6-1644.09-10912.4-1645.22-10911.9-1646.77-10911.3-1647.35-10911.7-1647.96-10912.1-1648.62-10912.6-1623.48-10916.1-1596.93-10919.4-1575.68-10933.3-1564.88-10940.3-1557.51-10959.8-1570.56-10968ZM-1655.95-11083.7C-1655.43-11083.6-1654.92-11083.6-1654.41-11083.5-1654.43-11082.7-1654.38-11081.9-1654.37-11081-1654.83-11082-1655.52-11082.7-1655.95-11083.7ZM-1734.81-10968.1C-1733.17-10982.3-1729.28-10996.9-1726.68-11011.1-1723.16-11010-1719.65-11009.2-1716.12-11008.1-1723.72-10995.5-1729.96-10982-1734.81-10968.1ZM-1723.74-10922.7C-1715.96-10928.5-1705.61-10930.1-1696.15-10930.9-1695.33-10930.9-1694.37-10930.9-1693.79-10931.6-1693.43-10930.7-1693.08-10929.9-1692.65-10928.9-1705.13-10930.3-1730.26-10925.4-1723.51-10908-1726.98-10912.1-1727.57-10917.6-1723.74-10922.7ZM-1696.84-10924.3C-1693.47-10923.5-1689.83-10921-1689.8-10917.1-1689.52-10915.4-1690.68-10913.8-1690.29-10912.1-1690.37-10912.1-1690.45-10912.1-1690.52-10912.1-1690.55-10912-1690.58-10911.9-1690.61-10911.8-1689.24-10910.5-1692.48-10911.1-1693.11-10911.3-1698.3-10911.4-1696.82-10916.1-1698.67-10919.6-1699.55-10917.4-1699.06-10914.5-1699.13-10911.6-1699.61-10911.5-1700.09-10911.5-1700.58-10911.4-1700.76-10912.6-1702.42-10920.7-1703.95-10918.9-1703.36-10916.4-1703.28-10913.5-1703.22-10911-1707.35-10910.3-1711.42-10909.3-1715.27-10907.8-1717.64-10906.5-1720.63-10906.2-1722.07-10908.8-1728.1-10922.4-1706.74-10928.2-1697.23-10927.4-1695.43-10927.4-1693.64-10927.3-1691.89-10927.2-1690.93-10924.9-1689.92-10922.6-1688.8-10920.2-1690.19-10922.8-1693.99-10925.5-1696.84-10924.3ZM-1691.98-11004C-1702.44-11006.9-1713.9-11010.1-1723.34-11012.6-1729.06-11014.1-1736.48-11017-1736.35-11024.1-1732.8-11031.8-1730.88-11040.1-1727.59-11048-1721.08-11046-1715.4-11043.7-1709.61-11040.5-1708.68-11040-1707.69-11039.1-1706.59-11039.3-1707.42-11037.9-1712.98-11033.7-1709.66-11032.8-1699.09-11025.3-1687.88-11017.7-1677.99-11009.5-1670.97-11004.1-1664.21-10997.9-1662.1-10989-1660.87-10986.5-1659.11-10964.3-1661.83-10963.1-1661.87-10963.1-1661.98-10962.9-1662.04-10963.2-1662.82-10967.1-1662.94-10970.7-1662.8-10974.9-1662.74-10975.3-1663.16-10975.7-1663.61-10975.7-1666.16-10975-1664.09-10962.2-1666.66-10960.2-1669.65-10962.3-1665.43-10975.6-1668.19-10976.2-1670.32-10975.7-1670.02-10962.6-1672.63-10962.2-1674.56-10962.7-1673.11-10967.9-1673.43-10969.8-1673.91-10971.4-1671.73-10979.2-1674.79-10977.8-1677.26-10973-1675.43-10966.7-1679.59-10962.9-1680.68-10970.6-1679.11-10978.5-1678.89-10986.2-1679.02-10991.6-1681.32-10996.9-1679.52-11002.2-1679.93-11003.3-1680.82-11000.1-1680.95-10999.9-1683.39-11002.7-1688.59-11002.7-1691.98-11004ZM-1662.75-10919.6C-1664.73-10918.5-1665.42-10916.2-1666.39-10914.3-1669.57-10907.6-1675.08-10914.2-1678.13-10917.6-1673.69-10919.3-1668.51-10920.3-1664.92-10923.6-1664.37-10922.2-1663.64-10920.9-1662.75-10919.6ZM-1687.18-10912.4C-1687.14-10912.9-1687.43-10913.3-1687.88-10913.5-1687.66-10914.5-1687.61-10915.5-1687.71-10916.5L-1687.71-10916.5C-1685.99-10913.8-1681.4-10917.1-1678.84-10917.4-1678.24-10916.3-1677.49-10915-1676.58-10913.8-1680.14-10913.5-1683.65-10912.8-1687.18-10912.4ZM-1663.78-10891.8C-1667.84-10894.8-1676.89-10897-1676.65-10903.4-1670.3-10896.1-1659.62-10894.2-1651.31-10889.8-1646.83-10884.9-1632.26-10887-1626.55-10889.5-1636.95-10880.9-1652.95-10886-1663.78-10891.8ZM-1647.33-10908.6C-1646.26-10907.7-1644.03-10906.4-1641.45-10904.8L-1641.45-10904.8C-1636.98-10901.6-1627.89-10898.4-1627.33-10892.5-1634.31-10889.6-1643.14-10889-1650.15-10892.2-1657.09-10896.5-1681.01-10901.1-1675.33-10912.3-1675.33-10912.3-1675.33-10912.3-1675.33-10912.3L-1675.33-10912.3C-1675.33-10912.3-1675.33-10912.3-1675.33-10912.3-1672.89-10909.1-1667.75-10908.1-1665.29-10911.8-1663.54-10914.6-1661.54-10920.6-1657.32-10918.3-1657.25-10918.4-1657.2-10918.5-1657.17-10918.6-1656.18-10917.2-1655.34-10915.8-1654.17-10914.5-1654.35-10914.4-1658.38-10911.9-1657.48-10911.4-1655.92-10912.2-1654.6-10912.7-1652.97-10913.2-1651.8-10912-1650.56-10910.9-1649.24-10909.9-1655.45-10905-1651.51-10907.5-1647.33-10908.6ZM-1645.21-10984.1C-1642.83-10970.9-1643.93-10962.5-1659.07-10964.8-1657.59-10979.4-1658.7-10997.5-1671.61-11006.7-1671.79-11006.7-1671.97-11006.7-1672.13-11006.6-1682.19-11015.1-1692.73-11023-1703.92-11029.8-1703.84-11031.2-1707.34-11032.5-1708.38-11033.5-1703.8-11038.2-1700.64-11044-1697.75-11050-1697.29-11051.1-1696.86-11051.8-1697.31-11051.9-1699.84-11048.1-1702.92-11043.6-1705.79-11040.3-1707.8-11044.2-1722.71-11047.7-1727.36-11048.6-1721.61-11065-1707.62-11078.2-1689.84-11080.5-1689.35-11080.5-1689.27-11080.4-1688.95-11079.9-1688.66-11079.5-1688.35-11078.5-1688.32-11078.3-1685.26-11066.1-1671.03-11059.9-1659.58-11064.2-1652.75-11066.9-1650.36-11077.7-1652.22-11083.7-1652.32-11084-1652.04-11084.3-1651.72-11084.2-1646.21-11083-1639.98-11083.6-1635.12-11080.4-1628.94-11073.5-1628.42-11058.8-1626.26-11049.8-1630.89-11049.3-1636.1-11046.7-1639.6-11043.4-1639.99-11077-1643.93-11021.4-1643.88-11015.2-1644.24-11005-1645.51-10994.4-1645.21-10984.1ZM-1643.27-10966.8C-1639.49-10972.9-1642.58-10979.8-1642.41-10986.4-1642.23-11000.8-1640.92-11014.9-1640.28-11029.3L-1640.28-11029.3C-1637.11-11008.9-1634.85-10986.2-1631.7-10966.5-1635.5-10966-1639.82-10965.6-1643.27-10966.8ZM-1629.67-10966.9C-1631.09-10986.4-1634.57-11005-1637.6-11022.9-1638.83-11028.9-1640.51-11035.7-1639.65-11041.6-1635.42-11044.3-1630.64-11046-1625.73-11046.9-1623.59-11034.8-1621.47-11022.8-1620.69-11010.5-1619.82-10996.6-1620.19-10982.3-1618.12-10968.6-1622.35-10968.2-1626.52-10967.4-1629.67-10966.9Z" class="MsftOfcResponsive_Fill_000000"/><g><path d="M-1705.34-10975.9C-1702.47-10961.5-1696.62-10947.3-1693.63-10932.9-1693.42-10932-1693.24-10929.7-1692.02-10930.6-1692.26-10933.7-1693.6-10936.9-1694.33-10940-1696.85-10951.5-1701.82-10964.9-1704.31-10976.1-1703.69-10976.3-1703.87-10977-1704.5-10976.9-1708.19-10992.6-1709.28-10993.8-1705.59-10977-1707.34-10977.2-1710.59-10978.9-1711.54-10976.9-1709.5-10978.1-1707.39-10975.9-1705.34-10975.9L-1705.34-10975.9Z" fill="#FFFFFF"/><path d="M-1665.45-10953.8C-1665.09-10947.1-1663.66-10940.4-1661.58-10934.1-1661.48-10933.8-1660.96-10933.9-1661.05-10934.2-1662.64-10940.7-1664.07-10947.3-1665.45-10953.8Z" fill="#FFFFFF"/><path d="M-1622.37-10953.2C-1633.35-10951.2-1643.32-10948.6-1653.98-10945.7-1656.56-10944.9-1659.54-10944.5-1661.5-10942.5-1660.44-10942.3-1659.26-10943.3-1658.12-10943.6-1649.34-10946.1-1639.79-10948.1-1631-10950.2-1630.46-10950.6-1619.98-10952.1-1622.37-10953.2L-1622.37-10953.2Z" fill="#FFFFFF"/></g></g></g></svg>