<svg viewBox="0 0 228 299" xmlns="http://www.w3.org/2000/svg" xmlns:xlink="http://www.w3.org/1999/xlink" id="b9ce8c89-6ea4-4a51-9d5c-b8fffd2eef3b" overflow="hidden"><style>
.MsftOfcResponsive_Fill_000000 {
 fill:#000000; 
}
</style>
<g id="pose_sitting_crossed_legs" transform="matrix(1 0 0 1 0 30)"><path d="M220.083 91.666C214.217 90.033 208.508 92.596 202.792 94.023 200.846 94.504 198.786 95.07 196.704 95.492 194.856 95.743 192.945 95.931 191.024 96.051 189.471 96.097 187.664 95.979 187.134 97.611 184.415 98.138 181.368 98.065 178.66 97.697 178.058 97.615 177.739 96.938 178.072 96.429 178.355 95.996 178.233 94.565 178.233 94.565 173.01 92.474 167.644 90.684 162.394 88.518 155.541 86.048 145.001 82.224 137.083 78.965 137.632 76.056 137.744 72.068 137.533 69.115 137.533 69.115 137.939 67.582 138.233 67.065 138.967 63.444 139.49 59.526 138.783 55.515 138.537 51.987 135.847 49.947 133.283 47.765 130.135 44.651 126.906 41.349 123.833 38.115 114.302 28.398 110.042 17.655 103.233 8.715 97.89 1.701 91.89-4.617 80.183-7.535 80.183-7.535 76.769-7.965 76.033-8.535 74.757-9.683 74.348-11.651 73.758-13.263 73.291-16.351 73.621-21.11 70.917-23.085 67.912-24.885 51.949-26.166 50.572-22.232 49.718-21.43 49.329-20.411 49.062-19.163 48.173-17.481 47.611-15.616 46.715-13.907 45.032-9.786 42.382-10.936 40.332-9.786 39.967-10.6 38.739-10.699 37.931-10.581 28.152-9.203 16.228-5.452 12.04 3.741L11.583 5.016C7.915 11.909 7.714 18.381 8.183 26.316 8.638 34.016 10.512 41.851 11.149 48.939 12.195 61.731 10.999 74.586 8.157 86.519 4.669 99.179 4.469 113.34 11.39 124.798 12.093 126.11 12.95 127.963 14.465 127.14 15.295 127.768 19.228 129.135 19.26 129.125 20.392 130.74 82.519 136.136 88.966 136.974 94.646 137.659 101.855 138.763 106.484 134.666 110.309 133.573 114.677 130.991 117.734 128.166 118.349 137.082 119.545 149.376 119.734 161.266 120.116 185.255 119.077 209.309 120.184 209.566 120.908 209.812 123.264 210.831 124.084 211.066 124.089 212.999 124.873 215.839 124.721 217.739 124.467 219.885 124.076 222.86 123.784 225.116 122.532 225.032 121.911 225.848 121.765 226.701 120.684 233.75 121.256 239.318 121.334 247.066 134.045 254.553 146.932 258.077 161.234 262.916 162.604 263.945 167.152 263.044 168.734 262.766 174.226 261.685 179.946 259.063 178.97 253.117 178.034 247.416 173.694 246.16 170.106 243.563 163.148 238.71 156.231 233.309 150.962 226.57 149.891 225.138 148.749 222.786 147.308 221.731 146.034 221.166 144.999 221.612 143.834 221.716 143.156 218.534 143.06 215.397 142.04 212.308L143.584 210.616C146.83 207.585 147.108 194.733 147.334 190.416 148.961 162.272 148.761 129.218 142.234 105.516 147.192 108.569 153.775 111.77 158.706 114.79 161.815 116.611 164.969 119.14 168.454 120.023 168.681 120.675 172.334 114.666 172.334 114.666 174.252 115.446 175.137 116.216 177.184 116.366 177.632 117.861 179.041 119.014 179.563 120.025 183.86 128.355 190.544 121.357 197.534 116.566 202.265 113.26 207.455 109.94 212.434 106.416 216.658 103.056 225.027 99.822 220.984 93.166L220.083 91.666Z" id="_Skin_4_" fill="#FFFFFF"/><path d="M138.373 55.842C138.056 54.124 137.053 52.085 136.383 51.033 134.929 50.672 133.39 48.087 132.35 47.066 129.052 43.522 125.605 40.515 122.383 36.899 108.851 22.338 101.81-1.195 81.029-7.447 80.519-7.6 79.965-7.28 79.866-6.756 77.767 4.384 63.774 6.244 54.816 2.266 48.956 0.032 42.548-3.061 40.483-9.267 40.275-9.708 38.934-10.312 38.483-10.4 33.813-9.928 29.348-9.028 25.083-7.067 9.326-2.517 6.789 17.02 8.684 31 8.795 32.503 11.622 44.521 11.417 63.6 11.281 76.244 5.874 89.224 5.785 101.594 5.703 112.948 10.759 123.74 12.95 126.333 21.801 136.33 46.759 78.374 61.511 83.266 66.083 84.475 88.892 82.448 96.365 80.411 97.227 80.176 96.393 62.707 96.835 62.797 105.472 64.54 120.175 57.928 121.617 57.467 126.153 56.016 132.123 55.597 136.685 57.15 134.855 58.754 131.937 60.43 130.551 61.001 130.54 61.219 130.233 62.149 130.117 62.334 132.305 62.508 135.008 63.63 136.689 65.157 136.943 65.388 137.808 65.109 137.851 64.768 138.097 62.774 139.638 57.48 138.373 55.842Z" fill="#FFFFFF"/><path d="M163.836 263.295 163.836 263.295C161.642 261.842 158.323 261.436 155.815 260.371 144.329 256.503 132.99 252.025 121.923 247.003 121.48 239.144 119.916 229.8 122.683 224.966L123.369 225.848C123.199 227.792 124.877 229.648 126.834 229.645 127.193 229.645 127.551 229.581 127.889 229.458 128.822 229.252 130.326 228.108 131.379 227.43 136.204 224.346 141.777 222.596 147.489 222.246 155.53 233.599 164.097 241.512 172.952 245.5 177.93 248.202 181.758 255.387 175.778 259.305 172.225 261.624 168.078 263.053 163.836 263.295ZM184.658 123.441C183.545 123.449 182.315 123.055 181.408 122.416 181.361 122.377 180.101 120.791 179.538 120.064 178.773 119.08 178.38 118.14 177.575 117.229 177.354 116.979 177.472 116.597 177.787 116.489 181.824 115.099 184.449 111.187 185.838 105.854 186.426 104.333 185.508 99.966 186.951 97.797 187.111 97.556 187.222 97.295 187.507 97.249 194.452 96.142 201.209 94.811 208.5 92.833 211.683 91.944 214.346 91.013 217.507 91.367 217.679 91.372 218.807 91.317 218.807 91.317 220.712 93.324 222.551 95.973 221.632 98.642 219.953 102.135 214.254 104.494 211.232 107.017 205.344 111.109 199.144 115.616 193.482 119.617 190.814 121.386 188.037 123.378 184.658 123.441Z" id="_Shoes_1_" fill="#FFFFFF"/><g><path d="M220.445 91.062C212.278 88.89 204.474 93.431 196.514 94.792 194.532 95.06 192.423 95.295 190.32 95.385 188.896 95.384 186.919 95.529 186.313 97.017 183.762 97.479 181.486 97.75 178.962 97.404 179.125 96.696 179.128 95.961 178.971 95.252 179.547 94.707 179.554 93.272 178.475 93.528 164.942 89.181 152.297 83.952 138.153 77.632 138.604 75.001 138.751 72.327 138.592 69.663 138.967 69.354 138.917 68.816 139.036 68.38 139.719 67.107 139.803 65.571 139.945 64.127 140.267 61.569 140.424 59.429 140.128 56.974 140.124 51.63 136 47.968 132.382 44.641 124.433 37.336 117.487 28.864 112.019 19.438L112.019 19.437C104.665 7.283 95.49-5.978 80.423-8.187 80.179-8.937 79.038-9.412 78.533-8.655 74.934-9.709 73.577-14.535 73.502-17.934 70.908-14.089 73.988-7.392 78.265-6.317 75.707 5.333 60.386 4.102 51.989-0.093 47.919-1.699 42.026-5.435 41.203-8.997 40.87-10.83 44.023-9.657 44.882-10.755 46.587-11.723 47.566-13.504 48.414-15.203 48.835-16.599 51.092-18.86 49.704-20.071 47.23-21.245 46.265-11.37 42.617-10.89 41.944-10.894 41.157-10.836 40.719-10.254 39.251-12.63 33.566-10.39 31.188-9.943 23.068-8.032 13.248-3.8 10.893 4.788 5.821 15.617 7.383 27.953 8.993 39.394L8.993 39.395C11.423 54.011 11.095 68.881 7.671 83.292L7.671 83.293C4.721 96.97 2.454 112.129 10.152 124.645 10.987 126.227 12.117 128.823 14.166 128.152 15.003 128.732 15.96 129.107 16.929 129.403 17.476 129.832 18.139 130.674 18.848 130.248 20.733 132.256 23.098 134.578 26.033 134.547 42.096 141.86 59.925 139.886 77.106 137.843 81.305 137.485 84.645 137.394 88.627 137.873 94.503 138.61 102.054 140.285 106.974 136.118 110.602 134.96 113.838 132.815 116.701 130.339 118.634 159.479 118.513 182.925 115.799 209.27 115.747 209.593 115.936 209.93 116.251 210.031 118.24 211.623 121.356 211.392 123.675 212.409 123.818 216.735 123.701 220.309 122.883 224.388 118.903 225.965 120.38 243.804 120.08 247.514 120.079 247.949 120.321 248.348 120.707 248.548 126.087 251.076 131.655 253.488 137.261 255.715 145.598 258.913 154.2 262.254 162.914 264.457 163.454 264.707 164.043 264.83 164.638 264.818 169.023 264.168 173.759 262.884 177.27 260.026 184.451 253.932 177.347 245.554 170.836 242.647 166.864 239.929 162.499 236.925 159.021 233.636 155.111 230.181 152.54 225.514 148.663 222.05 149.629 220.132 146.765 219.82 145.493 220.14 145.494 219.476 144.759 219.933 144.584 219.443 144.117 217.351 143.542 215.285 142.86 213.253 146.291 211.09 148.126 207.323 148.025 203.306 148.534 195.25 149.018 187.361 149.353 179.408 150.347 154.323 150.002 131.833 144.342 107.961 148.903 110.575 153.513 112.848 158.023 115.585 161.168 117.432 164.085 119.793 167.644 120.816 168.099 121.608 169.335 121.845 170.006 121.196 171.075 121.285 171.871 120.595 172.216 119.631 172.894 118.361 173.662 116.922 173.355 115.496 174.648 116.045 175.859 116.977 177.267 117.147 181.162 130.757 190.727 123.384 198.381 117.743 205.065 113.069 211.687 108.38 217.897 103.977 223.165 101.132 224.949 95.511 220.445 91.062ZM14.668 125.816C14.566 125.889 14.484 125.945 14.412 125.994 14.255 125.863 14.082 125.754 13.898 125.667 5.629 113.387 7.084 98.104 9.99 84.279L9.99 84.278C11.68 75.324 13.279 65.68 12.092 56.561 12.679 55.853 13.095 55.019 13.307 54.123 21.044 66.478 29.963 77.569 43.871 82.507 36.878 98.492 22.928 110.575 14.668 125.816ZM40.608 31.901 40.608 31.901C39.249 28.348 38.273 24.523 37.336 20.99 37.204 24.674 38.481 29.003 39.498 32.616L39.498 32.617C40.301 35.26 41.13 38.007 40.959 40.804 40.882 43.217 39.095 45.618 38.771 47.997 38.538 48.83 39.111 52.067 40.39 51.191 40.974 49.217 40.935 47.043 41.973 44.716 42.24 44.728 42.497 44.901 42.758 45.245 43.811 46.862 44.127 48.587 44.765 50.637L44.765 50.638C45.523 52.846 45.735 55.117 47.327 56.758 50.147 57.694 47.526 52.16 47.112 51.202 48.71 50.258 50.63 51.934 52.168 52.395 56.319 54.062 61.41 55.88 65.59 57.699 66.579 58.086 67.743 58.888 68.743 58.187 73.119 59.366 77.689 60.276 82.108 61.156L82.11 61.156C86.631 62.056 91.306 62.987 95.735 64.202 95.674 68.218 95.825 72.086 95.636 76.134L95.444 76.115C95.351 76.739 95.035 77.308 94.553 77.717 94.632 77.776 94.719 77.822 94.811 77.853 93.904 78.73 92.278 78.257 91.301 78.929 68.493 82.023 40.532 85.803 23.912 66.245 18.969 60.401 14.768 53.802 12.42 46.476 7.495 29.419 4.408 0.495 25.557-6.085 29.815-8.035 34.39-9.298 39.052-9.761 39.509-9.668 39.771-9.082 39.981-8.637 42.167-2.374 48.325 0.669 54.195 2.993 63.363 7.272 79.037 5.416 80.479-6.645 98.204-2.108 105.851 16.196 115.297 30.057 119.066 35.727 123.562 40.294 128.119 45.135 129.526 46.633 130.982 48.138 132.382 49.68 133.152 50.553 133.947 51.456 135.023 51.722 135.893 53.085 136.517 54.637 136.627 56.261 129.838 53.302 122.274 56.526 115.804 58.849 110.403 54.119 105.422 50.318 99.408 46.927 96.671 38.193 95.777 28.314 94.91 19.287 94.017 18.174 94.203 15.172 94.157 13.593 93.949 13.5 93.729 13.435 93.504 13.401 92.093 14.786 93.19 18.316 92.979 20.085 93.4 28.436 93.661 37.152 96.155 45.162 81.964 36.485 73.975 44.611 64.95 55.22 61.354 54.264 50.229 48.63 47 50.914 45.679 48.48 45.613 44.171 42.269 43.767 43.478 39.767 42 35.663 40.608 31.901ZM137 64.566C135.437 62.949 133.12 62.376 130.944 62.21 131.049 62.044 131.109 61.855 131.118 61.659 132.792 60.969 134.381 60.09 135.854 59.038 137.674 60.263 137.256 62.712 137 64.566ZM97.898 76.386C97.98 72.262 97.769 68.147 97.619 64.062 110.704 65.8 122.112 54.361 135.23 57.412 133.314 58.843 131.163 59.927 128.874 60.615 128.643 60.7 128.445 60.858 128.311 61.065 127.834 62.132 129.463 63.308 130.411 62.765 133.516 63.303 137.043 65.324 136.753 68.921 136.761 72.209 136.463 81.372 133.322 84.478 124.993 85.098 117.254 82.889 113.356 80.652 109.595 78.872 105.708 77.032 97.898 76.386ZM121.374 104.341C121.176 100.432 122.428 98.737 122.424 94.285 122.371 93.139 122.79 90.549 121.753 90.038 121.531 90.038 121.253 90.263 120.93 90.706L117.667 98.535C116.814 100.377 116.314 102.713 114.58 103.895 115.857 99.157 116.949 94.24 117.137 89.314 117.167 87.33 115.581 85.662 114.054 87.15 112.272 89.597 110.312 92.756 107.294 93.419 108.591 89.586 110.679 86.069 111.526 82.072 118.008 86.005 125.626 86.987 133.128 86.804 133.496 92.742 132.893 99.476 128.844 104.145 128.218 104.43 128.286 103.55 128.321 103.074 128.406 99.318 128.439 95.534 128.525 91.78 128.701 91.163 127.944 90.673 127.432 91.03 126.786 91.776 126.683 92.936 126.269 93.819 124.826 97.438 124.078 101.238 121.374 104.341ZM147.197 222.895C152.813 230.646 158.039 236.513 165.304 241.779 168.881 244.685 173.708 245.637 176.5 249.433 182.891 257.685 170.437 262.305 163.993 262.669 161.598 261.206 158.624 260.876 156.035 259.796 144.681 255.973 133.463 251.55 122.515 246.597 122.093 238.951 121.977 233.031 122.756 225.803L122.757 225.803C122.507 228.549 125.445 231.075 128.098 230.036 129.471 229.617 130.518 228.691 131.704 227.952 136.345 224.998 141.709 223.24 147.197 222.895ZM142.922 220.555C139.577 221.168 136.322 222.293 133.34 223.933 131.541 224.566 128.996 227.527 126.908 227.656 124.947 227.439 125.491 224.55 125.745 223.129L125.745 223.128C126.254 220.838 125.73 218.232 125.25 216.043L125.25 216.041C124.97 214.756 124.727 213.645 124.82 212.76 130.086 213.907 137.008 215.246 141.887 213.267 142.103 215.228 141.639 217.371 142.508 219.208 142.716 219.611 142.911 219.99 142.922 220.555ZM174.612 114.794 174.611 114.794C173.85 114.51 173.064 114.216 172.255 113.994 173.625 108.741 175.279 102.664 177.73 97.738L177.73 97.738C180.062 98.614 183.272 98.643 185.923 98.334 184.741 101.234 185.597 104.559 184.224 107.442 183.092 110.353 181.183 113.058 178.682 114.945 177.254 116.056 176.008 115.29 174.612 114.794ZM214.09 103.634 214.09 103.634C206.767 108.63 199.597 113.762 192.983 118.39 189.863 120.506 185.645 124.336 181.903 121.746 180.35 120.35 179.285 118.536 177.783 117.097 182.428 115.369 185.201 110.617 186.428 106.032 187.21 103.847 186.333 101.365 187.416 99.257 187.578 99.044 187.592 98.754 187.453 98.525 187.58 98.364 187.717 98.21 187.86 98.063 194.896 96.945 201.563 95.362 208.962 93.343 211.362 92.682 213.563 92.093 216.017 92.08L216.017 92.081C216.814 92.048 217.632 92.319 218.408 92.056 223.744 97.486 218.998 100.554 214.09 103.634Z" class="MsftOfcResponsive_Fill_000000"/><g><path d="M12.037 107.719C11.391 107.589 12.051 106.525 12.345 105.854 15.567 100.187 19.98 94.679 23.881 89.915 25.654 87.99 26.504 86.547 27.277 87.134 27.429 87.704 25.569 89.785 24.33 91.171L24.33 91.171C20.091 96.049 16.261 101.333 12.382 106.674 12.313 106.797 11.639 107.707 12.11 107.641 12.152 107.626 12.172 107.69 12.138 107.709 12.105 107.715 12.071 107.719 12.037 107.719Z" class="MsftOfcResponsive_Fill_000000"/><path d="M12.117 96.969 12.117 96.969C10.79 97.328 24.795 78.585 24.324 83.622 22.536 85.738 20.581 87.765 18.69 89.726L18.69 89.726C16.463 92.035 14.161 94.422 12.117 96.969L12.117 96.969Z" class="MsftOfcResponsive_Fill_000000"/><path d="M39.491 71.631C34.606 68.389 39.288 61.303 42.45 58.277 42.466 58.259 42.5 58.283 42.485 58.304 34.992 67.552 42.74 70.926 39.491 71.631Z" class="MsftOfcResponsive_Fill_000000"/><path d="M24.545 59.499C23.22 59.448 23.042 57.665 23.194 56.641 24.072 52.886 28.682 50.67 30.985 48.019 32.15 46.777 33.933 45.898 34.338 44.141 34.338 44.141 34.355 44.06 34.355 44.06 34.358 43.975 34.512 43.959 34.503 44.06 34.451 45.265 33.579 46.118 32.833 46.979 31.367 48.661 30.003 50.273 28.534 51.932 26.897 53.728 25.051 55.865 25.583 58.453 25.622 59.027 25.113 59.521 24.545 59.499Z" class="MsftOfcResponsive_Fill_000000"/><path d="M113.433 45.677C113.14 45.677 113.015 45.257 113.273 45.107 114.577 44.186 115.88 43.229 117.143 42.301 117.857 42.459 113.981 45.081 113.645 45.59 113.588 45.644 113.512 45.675 113.433 45.677Z" class="MsftOfcResponsive_Fill_000000"/><path d="M102.788 37.845C102.512 37.767 102.882 37.556 102.963 37.483 103.899 36.859 109.192 32.042 109.732 33.894 109.809 34.147 109.693 34.418 109.458 34.538 107.208 35.627 104.884 36.421 102.788 37.845Z" class="MsftOfcResponsive_Fill_000000"/><path d="M25.44 29.246C24.617 29.296 22.027 27.311 21.052 26.851 17.936 24.922 12.132 24.517 11.927 19.878 12.416 22.674 16.055 23.862 18.521 24.547 21.085 25.521 23.809 26.503 25.687 28.597 25.801 28.966 25.783 29.243 25.44 29.246Z" class="MsftOfcResponsive_Fill_000000"/></g><path d="M84.387 83.916C84.178 83.91 83.991 84.045 83.931 84.245 83.773 84.721 83.25 86.295 83.101 86.744L83.101 86.745C81.116 93.275 78.021 101.009 76.026 107.06 76.261 107.368 76.773 107.301 76.919 106.942 78.107 104.012 79.319 100.775 80.624 97.046 82.097 92.832 83.449 88.699 84.847 84.497 84.972 84.202 84.687 83.897 84.387 83.916Z" fill="#FFFFFF"/></g></g></svg>