<svg viewBox="0 0 170 391" xmlns="http://www.w3.org/2000/svg" xmlns:xlink="http://www.w3.org/1999/xlink" id="17573b7f-28f9-4b36-8243-4eaabbfaebba" overflow="hidden"><style>
.MsftOfcResponsive_Fill_000000 {
 fill:#000000; 
}
</style>
<g id="pose_standing_walking-2_1_" transform="translate(7060 5357)"><path d="M-6896.84-4980.53C-6895.75-4985.59-6900.98-4987.09-6904.11-4988.22-6915.31-4993.6-6915.07-4994.5-6921.51-5000.73-6926.78-5005.83-6929.08-5012.77-6930.57-5013.4-6930.57-5013.4-6933.01-5014.1-6933.17-5014.76-6934.1-5018.64-6933.32-5022.26-6933.17-5024.61-6930.17-5025.4-6925.27-5027.83-6925.04-5028.6-6924.32-5034.09-6924.73-5039.18-6924.11-5044.93-6921.82-5065.86-6918.92-5089.21-6918.62-5112.2-6918.22-5141.81-6921.1-5170.82-6924.48-5193.26-6924.76-5195.11-6919.8-5195.21-6918.24-5199.6-6917.12-5204.43-6922.49-5209.61-6923.91-5213.6-6921.33-5238.82-6924.4-5262.63-6922.44-5287.86-6921.84-5291.46-6921.6-5295.46-6921.77-5298.13-6923.14-5315.31-6931.76-5332.05-6947.84-5337.66-6948.76-5337.85-6949.35-5338.43-6950.11-5337.73-6952.51-5338.46-6955.64-5339.66-6955.64-5339.66-6956.6-5340.99-6956.82-5343.23-6956.71-5342.79-6957.71-5350.46-6960.05-5352.35-6968.98-5352.72-6973-5352.77-6978.3-5352.65-6980.64-5348.81-6981.6-5347.03-6980.69-5343.93-6981.31-5342.06-6981.98-5340.06-6988.72-5339.38-6990.35-5339-7002.99-5334.79-7011.67-5330.07-7018.37-5322.92-7024.88-5315.98-7028.79-5307.12-7032.84-5295.9-7033.35-5294.49-7034.45-5293.19-7034.94-5291.71-7035.22-5291-7035.41-5289.71-7034.09-5289.13-7040.05-5261.28-7040.44-5237.81-7020.42-5219.24-7018.92-5211.26-7022.43-5201.14-7020.94-5193.4-7020.04-5191.4-7018.88-5191.14-7018.64-5190.9-7020.28-5166.62-7013.12-5132.97-7009.94-5120.1-7009.51-5112.33-7013.17-5105.09-7018.62-5100.86-7024.64-5097.15-7036.25-5081.23-7034.05-5063.65-7036.63-5063.15-7039.19-5062.87-7041.66-5061.9-7052.49-5063.81-7052.38-5042.94-7053.08-5035.59-7054.24-5023.3-7054.97-5005.49-7043.29-4997.62-7040.22-4995.39-7033.98-4992.77-7030.78-4996.35-7029.74-4997.6-7029.73-4999.31-7030.14-5000.6-7025.21-5007.57-7026.6-5016.01-7026.34-5024.3-7026.32-5024.88-7026.14-5032.15-7025.17-5035.8-7024.52-5039.34-7022.67-5043.41-7021.44-5046.73-7018.42-5045.48-7016.13-5045.29-7013.17-5045.66-7011.97-5045.48-7011.44-5046.73-7011.44-5046.73-7009.1-5060.73-7002.53-5074.53-6988.51-5089.66-6985.74-5092.77-6982.19-5095.98-6980.11-5100.06-6975.92-5108.56-6974.91-5117.91-6971.68-5126.73-6968.99-5134.64-6964.8-5143.64-6961.28-5151.53-6960.9-5152.38-6959.89-5152.44-6959.68-5151.53-6958.79-5147.67-6957.77-5142.72-6957.15-5139.4-6953.66-5124.43-6952.87-5108.45-6955.44-5093.4-6959.24-5072.32-6959.37-5026.94-6959.55-5025.67-6959.57-5025.57-6955.15-5024.32-6953-5023.6-6952.1-5022.88-6952.36-5021.75-6952.27-5020.87-6952.04-5017.08-6951.47-5014.18-6951.84-5010.27-6953.5-5007.09-6955.82-5006.83-6956.24-5002.36-6956.61-4997.25-6957.58-4993.54-6955.09-4989L-6956.19-4987.65C-6957.59-4984.72-6956.19-4982.5-6952.91-4981.27-6945.49-4978.36-6936.49-4975.9-6927.51-4974.2-6916.87-4972.18-6907.17-4970.73-6896.64-4974.13-6895.91-4973.54-6895.33-4975.09-6895.46-4975.64-6895.75-4977.19-6895.1-4980.24-6896.84-4980.53Z" id="_Skin-24_2_" fill="#FFFFFF"/><path d="M-6909.7-4972.44C-6917.17-4972.31-6925.29-4973.66-6933.3-4975.64-6940.91-4977.52-6948.36-4979.6-6955.17-4982.78-6957.33-4983.83-6956.69-4987.53-6955.48-4988.99-6955.29-4989.22-6955.2-4989.37-6955.23-4989.46-6956.43-4993.31-6956.73-4997.42-6956.24-5000.4L-6956.24-5000.4-6956.24-5000.4C-6956.12-5000.97-6956.05-5001.55-6956-5002.14-6956.01-5003.53-6954.28-5006.53-6953.22-5008.39-6952.96-5008.83-6952.29-5008.74-6952.17-5008.24-6951.32-5004.91-6951.76-4998.21-6946.1-5000.71-6944.61-5001.37-6939.19-5009.55-6935.13-5012.33-6932.65-5014.29-6930.76-5014.01-6929.56-5012.64-6928.03-5010.88-6926.9-5007.71-6925.56-5005.85-6922.63-5001.79-6918.58-4997.5-6914.37-4994.44-6910.32-4991.29-6906.88-4990.1-6900.56-4987.18-6898.74-4986.41-6896.83-4983.07-6897.34-4981.37-6897.35-4980.96-6895.94-4980.39-6895.9-4980.18-6895.63-4978.64-6894.33-4975.28-6896.04-4974.47-6899.49-4972.99-6905.2-4972.44-6909.7-4972.44ZM-7035.22-4995.25C-7042.26-4995.27-7047.94-5001.69-7050.75-5007.7-7053.18-5013.42-7053.23-5019.74-7053.61-5025.88-7053.9-5030.3-7053.72-5034.81-7053.06-5040.5-7052-5047.47-7051.19-5057.18-7045.64-5061.58-7045.58-5061.74-7041.24-5062.6-7040.98-5062.59-7038.97-5063.37-7036.8-5063.55-7034.67-5063.65L-7034.67-5063.65C-7034.44-5063.36-7033.54-5062.14-7033.59-5061.64-7033.67-5057.05-7034.84-5053.67-7035.04-5049.83-7034.41-5047.11-7032.97-5044.85-7029.88-5043.87-7027.87-5043.47-7023.58-5045.08-7022.15-5045.57-7023.45-5042.19-7025.86-5032.87-7026.02-5028.26-7026.96-5018.77-7024.55-5007.71-7030.96-4999.82-7031.46-4999.28-7029.44-4998.17-7029.88-4997.66-7031.2-4996.1-7033.17-4995.18-7035.22-4995.25Z" id="_Shoes-24_1_" fill="#FFFFFF"/><path d="M-6968.91-5200.47C-6961.48-5201.1-6946.44-5194.46-6942.28-5194.19-6936.65-5193.65-6930.42-5195.21-6924.49-5198.03-6924.12-5194.97-6924.12-5191.8-6923.78-5188.75-6917.87-5134.36-6918.32-5080.85-6926-5029.27-6933.83-5023.32-6943.91-5023.02-6954.63-5023.84-6955.02-5023.92-6959.77-5025.7-6960.07-5026.37-6958.86-5028.72-6958.15-5031.42-6957.92-5034.41-6957.76-5036.55-6958.57-5062.64-6958.05-5069.48-6957.73-5074.18-6957.28-5078.79-6956.58-5085.02-6956.24-5088.08-6955.75-5092.31-6955.42-5095.36-6954.14-5109.31-6952.85-5114.68-6954.81-5126.78-6956.01-5134.18-6958.67-5144.85-6959.88-5152-6960.31-5151.63-6961.16-5151.29-6961.48-5150.82-6965.21-5144.58-6968.38-5137.67-6971.33-5129.39-6973.57-5123.17-6975.55-5116.45-6978.33-5106.48-6979.63-5100.85-6982.19-5096.91-6986.54-5091.77-6999.59-5077.61-7010.19-5063.23-7012.76-5045.52-7021.14-5045.42-7026.84-5049.17-7030.41-5056.18-7031.08-5057.47-7035.92-5061.21-7034.11-5073.48-7032.48-5084.5-7024.54-5095.71-7019.68-5100.5-7015.94-5103.68-7012.85-5107.97-7011.61-5110.93-7008.08-5119.4-7014.23-5139.34-7014.86-5143.64-7017.54-5161.17-7019.1-5178.97-7018.72-5192.13-7014.43-5197.81-7006.17-5197.38-6999.63-5198.71-6997.9-5197.1-6995.64-5194.43-6993.96-5193.81-6991.16-5191.23-6988.56-5188.46-6987.05-5186.11-6984.88-5182.09-6982.29-5178.39-6979.08-5176.07-6976.13-5173.73-6973.73-5172.27-6971.22-5174.84-6970.35-5175.61-6968.84-5176.41-6967.91-5176.52-6965.18-5176.85-6965.21-5178.52-6963.83-5178.95-6960.83-5179.88-6961.53-5181.17-6961.53-5181.17-6961.71-5181.88-6961.52-5182.08-6960.83-5181.85-6960.25-5181.65-6959.59-5181.75-6959.51-5182.1-6959.43-5182.45-6960.83-5185.2-6960.98-5186.54-6960.73-5195.91-6966.59-5196.75-6974.17-5200.21L-6968.91-5200.47Z" id="_Pants-11" fill="#FFFFFF"/><path d="M-6909.36-4971.4C-6923.75-4971.58-6939.69-4976.02-6953.44-4981.05L-6953.44-4981.05C-6956.14-4981.92-6957.93-4983.59-6957.04-4986.7-6956.91-4987.29-6956.6-4988.31-6956.05-4988.43-6958.2-4992.95-6957.46-4998.11-6957.15-5002.94-6956.66-5007.46-6954.85-5007.37-6953.02-5010.15-6952.73-5013.01-6952.85-5015.69-6953.05-5018.6L-6953.05-5018.6C-6953.1-5019.5-6953.19-5020.4-6953.21-5021.32-6953.21-5021.85-6953.17-5022.49-6953.62-5022.86-6955.76-5023.39-6958.04-5023.81-6959.88-5025.01-6961.5-5025.26-6960.38-5027.42-6960.72-5028.52-6960.73-5032.28-6960.38-5035.84-6960.42-5040.35-6960.37-5051.19-6960.93-5062.36-6960.21-5073.15-6959.32-5086.4-6956.52-5099.38-6955.91-5112.58-6955.45-5121.49-6956.84-5130.21-6958.51-5138.95L-6958.51-5138.95C-6959.14-5142.35-6959.78-5145.87-6960.27-5149.34-6963.67-5142.06-6967.73-5133.31-6970.15-5126.04-6973.36-5117.27-6974.16-5107.62-6978.33-5099.26-6980.33-5095.29-6983.59-5091.41-6986.43-5088.25-6998.4-5075.05-7006.91-5063.25-7010.11-5046.49-7010.08-5046.46-7010.06-5046.42-7010.03-5046.39-7010.17-5045.35-7010.5-5044.05-7011.65-5043.76-7014.79-5043.84-7017.96-5043.2-7020.97-5044.56-7022.01-5041.74-7023.12-5038.87-7023.73-5035.89-7022.67-5035.6-7020.49-5035.9-7020.48-5034.4-7021.15-5033.02-7022.95-5034.2-7024.06-5034.26-7024.17-5033.66-7024.27-5033.05-7024.37-5032.39-7023.13-5032.34-7020.95-5032.19-7021.12-5030.54-7021.4-5028.75-7023.49-5029.47-7024.68-5029.8-7024.76-5028.99-7024.82-5028.17-7024.86-5027.38-7023.36-5027.24-7020.14-5027.97-7020.04-5025.75-7020.72-5023.77-7023.45-5025.22-7024.95-5025.15-7025.33-5016.59-7024.14-5007.25-7029.19-4999.84-7028.56-4997.43-7030.39-4994.99-7032.6-4994.16-7035.74-4993-7039.19-4994.19-7042.01-4995.69-7048.12-4999.03-7052-5005.39-7053.45-5012.08-7055.22-5019.96-7054.59-5027.02-7053.99-5035.52-7053.18-5043.44-7053.53-5064.17-7041.88-5062.58-7039.63-5063.44-7037.43-5063.72-7035.12-5064.15-7036.26-5074.11-7031.75-5087.29-7025.85-5095.27-7023.05-5099.49-7018.44-5101.9-7015.35-5105.82-7012.35-5109.92-7011.32-5114.47-7011.57-5119.84-7016.94-5142.58-7021.45-5166.45-7020.3-5189.48-7025.81-5192.91-7019.44-5212.27-7021.27-5218.71-7041.38-5236.44-7040.8-5264.04-7035.1-5288.65-7037.72-5290.65-7034-5295.44-7033.28-5297.87L-7033.28-5297.87C-7027.77-5318.08-7012.77-5333.39-6992.62-5339.23L-6992.62-5339.23-6992.62-5339.23C-6991.08-5339.78-6988.26-5341.8-6986.98-5340.45-6985.69-5340.74-6984.35-5341.01-6982.9-5341.29-6982-5342.98-6981.5-5344.9-6981.52-5346.82-6981.54-5347.44-6981.55-5348.08-6981.24-5348.58-6981.27-5348.66-6981.19-5348.77-6981.14-5348.65-6979.92-5348.96-6979.87-5347.69-6980.19-5346.72-6979.68-5343.48-6980.59-5339.76-6982.89-5337.38-6985.42-5335.77-6985.51-5338.31-6983.92-5339.75-6987.44-5339.41-6990.08-5337.11-6987.63-5333.55-6984.35-5323.12-6944.56-5321.96-6950.87-5337.49-6950.97-5337.55-6951.35-5337.67-6951.82-5337.82L-6951.82-5337.82C-6952.88-5338.17-6954.48-5338.68-6954.95-5339.07-6954.37-5337.76-6954.04-5335.64-6952.58-5335.22-6952.1-5335.19-6951.78-5334.43-6952.3-5334.21-6955.16-5333.06-6956.04-5337.17-6956.55-5339.1-6957.31-5341.65-6958.43-5344.36-6957.37-5346.99-6956.42-5347.14-6955.91-5340.74-6955.27-5340.04-6955.21-5340.02-6955.15-5340.02-6955.09-5340.02-6954.5-5339.02-6952.53-5339.15-6951.4-5338.64-6950.83-5339.64-6949.33-5339.29-6948.45-5338.84-6947.13-5338.34-6945.63-5338.03-6944.54-5337.12-6929.33-5330.79-6921.88-5313.67-6920.5-5298.04-6920.17-5294.93-6918.84-5288.65-6921.17-5287.31-6923.04-5263.04-6919.63-5237.88-6922.15-5213.65-6920.65-5209.59-6915.82-5204.76-6916.83-5199.69-6916.65-5199.3-6916.69-5198.79-6917.01-5198.49-6917.15-5196.17-6918.92-5195.36-6920.45-5194.1-6921.33-5193.5-6921.94-5192.48-6923.01-5192.19-6923.19-5190.71-6923.25-5189.22-6923.2-5187.74-6914.21-5146.2-6915.34-5102.62-6920.16-5060.29-6921.49-5049.44-6922.19-5038.73-6923.81-5027.88-6923.95-5026.9-6925.12-5026.49-6925.98-5026.79-6927.95-5025.38-6930.26-5024.54-6932.58-5023.89-6932.7-5021.81-6932.75-5020.13-6932.72-5018.6L-6932.68-5018.6C-6932.58-5017.24-6932.38-5015.89-6932.09-5014.57-6931.62-5014.73-6930.8-5014.82-6930.67-5014.19-6928.66-5013.34-6927.6-5011.35-6926.65-5009.5L-6926.65-5009.5C-6926.12-5008.48-6925.57-5007.42-6924.85-5006.55-6924.6-5006.59-6924.32-5006.66-6924.03-5006.72L-6924.03-5006.72C-6922.71-5007.04-6920.67-5007.49-6919.8-5006.26-6919.28-5004.38-6922.09-5004.63-6923.28-5004.51-6922.53-5003.57-6921.85-5002.74-6921.2-5001.99-6920.07-5002.27-6918.73-5002.87-6917.57-5002.87-6916.65-5002.91-6915.52-5002.26-6915.99-5001.31-6916.67-5000.14-6918.2-5000.21-6919.37-4999.99-6918.48-4999.11-6917.5-4998.23-6916.37-4997.3-6914.5-4998-6912.73-4999.04-6910.71-4999.25-6910.24-4999.23-6909.84-4998.88-6909.75-4998.42-6909.45-4996.56-6913.46-4996.34-6914.64-4995.96-6912.61-4994.33-6910.26-4993.11-6907.96-4991.92L-6907.96-4991.92C-6906.58-4991.21-6905.16-4990.48-6903.83-4989.67-6899.91-4988.54-6895.58-4985.43-6896.31-4980.87-6894.65-4980.33-6895.13-4978.38-6894.84-4977.05-6894.33-4975.48-6895.3-4972.58-6897.33-4973.32-6901.13-4971.79-6905.29-4971.41-6909.36-4971.4ZM-6955.73-4987.83C-6956.73-4984.27-6955.83-4982.96-6952.09-4981.87-6949.47-4980.96-6946.41-4979.98-6942.69-4978.84-6927.63-4974.75-6911.32-4969.63-6896.38-4975.23-6896.12-4976.58-6896.24-4978.38-6896.56-4979.7-6898.58-4974.64-6905.49-4975.59-6910-4975.17-6918.59-4975.15-6927.27-4977.48-6935.55-4979.73L-6935.55-4979.73C-6938.72-4980.58-6941.99-4981.47-6945.19-4982.2-6949.28-4982.96-6953.7-4983.9-6955.73-4987.83L-6955.73-4987.83ZM-6953.08-5007.25C-6955.9-5002.25-6956.69-4992.19-6952.69-4987.77-6950-4985.12-6945.31-4984.43-6941.33-4983.64-6936.26-4982.26-6931.24-4980.78-6926.04-4979.65-6920.01-4978.36-6904.03-4976.03-6899.44-4979.94-6898.16-4982.1-6899.79-4984.8-6901.75-4985.92-6907.46-4988.46-6913.37-4990.71-6917.82-4995.37-6919.52-4995.1-6921.64-4994.69-6922.75-4993.37-6922.34-4994.87-6920.19-4995.69-6918.79-4996.31-6919.82-4997.34-6920.74-4998.42-6921.77-4999.45-6924.09-4998.98-6926.28-4997.87-6928.61-4997.48-6927.76-4999.31-6925.05-5000.21-6923.33-5001.17-6924.14-5002.11-6924.92-5003.09-6925.63-5004.08-6927.91-5003.59-6929.86-5002.27-6932.04-5001.53-6931.33-5003.78-6928.81-5004.86-6926.86-5005.86-6927.4-5006.5-6927.87-5007.44-6928.37-5008.44L-6928.37-5008.44C-6929.25-5010.04-6929.96-5012.05-6931.85-5012.52-6936.18-5010.01-6939.96-5006.67-6942.98-5002.68-6943.9-5001.46-6944.67-5000-6946.06-4999.26-6950.78-4997.14-6953.3-5003.35-6953.08-5007.25L-6953.08-5007.25ZM-7044.5-5061.1C-7052.15-5055.08-7051.27-5043.35-7052.06-5034.65-7052.29-5029.03-7052.95-5024.21-7052.38-5018.8-7051.54-5010.32-7048.85-5002.01-7041.22-4997.77-7038.26-4996.19-7032.96-4994.36-7030.91-4998.06-7054.38-4987.19-7054.77-5051.49-7044.5-5061.1ZM-7034.73-5062.67C-7038-5062.55-7042.83-5061.85-7044.3-5058.24-7048.44-5046.16-7049.33-5032.02-7046.89-5017.36-7045.4-5010.57-7043.19-5000.23-7035.17-4999.11-7026.18-5001.21-7028.36-5018.21-7027.68-5025.31-7029.61-5025.5-7031.73-5025.17-7033.69-5025.42-7033.69-5026.24-7028.5-5027.11-7027.59-5027.2-7027.53-5028.32-7027.45-5029.34-7027.34-5030.32-7029.58-5030.76-7031.86-5030.45-7034.1-5030.8-7032.68-5032.23-7029.17-5032.22-7027.08-5032.44-7026.98-5033.14-7026.85-5033.88-7026.7-5034.71-7029.65-5035.32-7032.82-5034.96-7035.8-5035.47-7033.77-5036.77-7028.6-5036.21-7026.39-5036.19-7025.85-5038.61-7025.12-5040.98-7024.19-5043.27-7027.94-5040.34-7033.65-5042.34-7035.64-5046.42-7037.55-5051.05-7035.66-5057.29-7034.3-5060.86-7034.46-5061.45-7034.59-5062.03-7034.73-5062.67L-7034.73-5062.67ZM-6951.07-5018.91C-6950.86-5013.96-6951.06-5009.28-6950.65-5004.26-6950.34-5002.52-6948.52-4999.91-6946.6-5001.38-6943.34-5005.94-6939.01-5010.46-6934.17-5013.78-6935.04-5015.15-6934.79-5017.05-6934.57-5018.6L-6934.58-5018.6C-6934.42-5020.28-6934.14-5021.94-6933.75-5023.58-6939.48-5022.16-6945.47-5021.69-6951.33-5022.48-6951.22-5021.39-6951.14-5020.22-6951.08-5018.91L-6951.07-5018.91-6951.07-5018.91ZM-6952.85-5166.66C-6954.46-5161.25-6957.28-5156.24-6959.02-5152.06-6958.29-5148.05-6957.32-5144-6956.38-5140.08L-6956.38-5140.08C-6954.47-5132.2-6952.52-5124.01-6952.5-5115.9-6952.96-5101.13-6955.66-5085.1-6956.72-5070.11-6957.42-5060.96-6957.19-5052.61-6956.75-5043.71-6956.41-5037.91-6956.05-5031.77-6958.64-5026.4-6957.57-5025.77-6955.98-5025.52-6954.96-5025.12-6944.83-5024.4-6935.27-5024.17-6927.1-5029.96-6919.18-5083.39-6918.63-5139.33-6925.47-5196.23-6933.43-5192.64-6941.21-5191.84-6949.9-5194.34-6955.42-5195.6-6962.38-5199.52-6968.81-5199.25-6962.57-5196.88-6959.58-5193.46-6959.71-5186.67-6959.44-5184.97-6958.68-5183.45-6958.02-5181.89-6957.79-5181.21-6958.42-5180.5-6959.1-5180.5-6959.62-5180.55-6960.12-5180.81-6960.62-5180.95-6960.11-5179.25-6961.76-5178.34-6963.17-5178.12-6964.32-5176.27-6965.85-5175.97-6967.89-5175.58-6969.7-5174.96-6970.69-5173.14-6972.52-5172.54-6975.08-5171.65-6977.73-5173.76-6979.57-5175.21-6986-5179.63-6988.5-5188.13-6994.63-5192.79-6996.77-5193.84-6998.26-5195.77-6999.97-5197.38-7005.92-5196.18-7013.27-5196.67-7017.45-5191.67-7017.92-5174.23-7014.81-5147.79-7010.94-5129.11L-7010.94-5129.1C-7006.99-5110.93-7009.71-5108.71-7022.02-5096.38-7028-5089.37-7035.99-5072.67-7032.54-5063.54-7032.51-5063.57-7032.47-5063.6-7032.44-5063.63-7032.37-5063.36-7032.26-5063.09-7032.12-5062.85-7032.13-5062.81-7032.15-5062.78-7032.15-5062.75-7028.65-5054.33-7024.17-5046.77-7013.77-5046.8-7010.77-5064.84-6999.84-5079.06-6987.57-5092.42-6984.25-5096.33-6981-5100.63-6979.79-5105.69-6976.16-5118.75-6972.47-5131.84-6966.65-5143.76-6962.49-5152.02-6958.07-5158.78-6952.85-5166.66L-6952.85-5166.66ZM-7033.27-5057.6-7033.27-5057.6C-7033.48-5054.22-7034.64-5050.5-7033.11-5047.31-7031.59-5044.03-7026.86-5043.47-7024.65-5046.35-7028.78-5048.9-7031.62-5053.1-7033.27-5057.6L-7033.27-5057.6ZM-7032.24-5288.78C-7037.03-5265.01-7039.88-5240.49-7020.83-5222.4-7010.6-5210.96-6997.62-5200.11-6987.35-5188.41-6986.56-5187.27-6985.85-5186.04-6985.2-5184.89-6983.97-5182.57-6979.96-5178.68-6978.39-5176.64-6975.17-5173.96-6973.31-5173.41-6970.06-5176.8-6968.68-5177.92-6966.12-5177.55-6965.17-5179.1-6964.76-5179.64-6964.33-5180.2-6962.77-5180.52-6962.76-5180.92-6962.67-5181.33-6962.5-5181.7-6963.46-5182-6967.71-5185.4-6965.5-5185.99-6965.29-5185.99-6965.1-5185.87-6965.01-5185.69-6964.17-5184.18-6962.75-5182.9-6961.02-5182.55-6963.96-5188.81-6960.14-5193.13-6969.61-5196.77-6977.45-5199.5-6983.58-5205.31-6988.18-5212.13-6996.31-5223.94-7001.08-5238.82-7012.53-5247.97-7014.45-5247.38-7014.81-5250.03-7014.49-5251.34-7014.22-5254.28-7014.02-5257.15-7013.81-5259.94-7013.27-5267.71-7012.65-5275.44-7011.02-5282.94-7017.67-5286.17-7024.85-5287.88-7032.24-5288.78L-7032.24-5288.78ZM-6924.1-5287.66C-6926.61-5287.31-6929.21-5286.96-6931.64-5286.15-6930.49-5263.82-6932.96-5240.55-6924.77-5219.46-6923.9-5241.82-6925.75-5265.77-6924.1-5287.66L-6924.1-5287.66ZM-6955.06-5339.42C-6955.05-5339.39-6955.04-5339.37-6955.04-5339.35L-6955.04-5339.35C-6955.03-5339.36-6955.02-5339.37-6955-5339.38-6955.02-5339.39-6955.04-5339.41-6955.06-5339.42ZM-6983.07-5340.98-6983.07-5340.98C-6983.31-5340.91-6983.54-5340.84-6983.78-5340.77-6983.57-5340.79-6983.36-5340.81-6983.16-5340.83-6983.13-5340.88-6983.1-5340.94-6983.07-5340.98L-6983.07-5340.98Z" id="_Ink-25" class="MsftOfcResponsive_Fill_000000"/></g></svg>