<svg viewBox="0 0 170 391" xmlns="http://www.w3.org/2000/svg" xmlns:xlink="http://www.w3.org/1999/xlink" id="c79287fc-a822-4602-b699-ca831b18563d" overflow="hidden"><style>
.MsftOfcResponsive_Fill_000000 {
 fill:#000000; 
}
</style>
<g id="pose_standing_walking-1_1_" transform="translate(7060 2737)"><path d="M-6896.73-2361.08C-6895.64-2366.15-6900.86-2367.65-6904-2368.77-6915.19-2374.15-6914.95-2375.05-6921.39-2381.28-6926.66-2386.38-6928.97-2393.33-6930.46-2393.95-6930.46-2393.95-6932.9-2394.65-6933.06-2395.31-6933.99-2399.19-6933.21-2402.81-6933.06-2405.16-6930.06-2405.95-6925.16-2408.38-6924.93-2409.15-6924.21-2414.64-6924.62-2419.73-6923.99-2425.48-6918.76-2473.37-6915.47-2529.09-6925.53-2572.42-6925.62-2574.29-6919.69-2575.77-6918.13-2580.15-6917-2584.99-6922.37-2590.16-6923.79-2594.15-6921.21-2619.37-6924.28-2643.19-6922.33-2668.42-6921.73-2672.02-6921.49-2676.02-6921.66-2678.68-6923.03-2695.86-6931.64-2712.6-6947.73-2718.22-6948.64-2718.4-6949.23-2718.99-6949.99-2718.28-6952.39-2719.02-6955.52-2720.22-6955.52-2720.22-6956.48-2721.54-6956.7-2723.79-6956.59-2723.35-6957.59-2731.02-6959.93-2732.9-6968.86-2733.27-6972.88-2733.32-6978.18-2733.2-6980.53-2729.37-6981.49-2727.58-6980.57-2724.48-6981.19-2722.62-6981.86-2720.62-6988.46-2720.48-6990.09-2720.09-7002.73-2715.89-7011.55-2710.62-7018.25-2703.48-7024.77-2696.53-7028.67-2687.68-7032.73-2676.45-7033.23-2675.05-7034.33-2673.74-7034.83-2672.26-7035.11-2671.55-7035.3-2670.26-7033.97-2669.68-7039.93-2641.83-7040.33-2618.36-7020.31-2599.8-7018.81-2591.82-7022.31-2581.7-7020.83-2573.95-7019.93-2571.95-7018.76-2571.7-7018.53-2571.45-7020.16-2547.17-7013-2513.53-7009.83-2500.65-7009.39-2492.89-7012.27-2485.68-7017.73-2481.45-7023.75-2477.74-7036.14-2461.78-7033.93-2444.21-7036.51-2443.7-7039.07-2443.43-7041.55-2442.46-7052.38-2444.37-7052.27-2423.49-7052.96-2416.15-7054.13-2403.86-7054.85-2386.04-7043.18-2378.17-7040.1-2375.94-7033.86-2373.33-7030.67-2376.9-7029.62-2378.16-7029.61-2379.86-7030.02-2381.15-7025.09-2388.12-7026.48-2396.57-7026.23-2404.85-7026.21-2405.43-7026.02-2412.7-7025.06-2416.35-7024.41-2419.9-7022.56-2423.97-7021.33-2427.28-7018.3-2426.04-7016.01-2425.84-7013.06-2426.22-7011.85-2426.03-7011.33-2427.28-7011.33-2427.28-7008.98-2441.29-7002.42-2455.08-6988.39-2470.22-6985.62-2473.32-6982.08-2476.53-6979.99-2480.62-6975.8-2489.11-6975.62-2498.73-6972.39-2507.55-6969.7-2515.46-6964.24-2524.2-6960.72-2532.09-6960.34-2532.95-6959.1-2532.81-6958.89-2531.9-6958-2528.03-6956.48-2523.53-6955.86-2520.22-6952.37-2505.25-6952.76-2489-6955.32-2473.95-6959.12-2452.87-6958.48-2407.76-6958.66-2406.48-6958.68-2406.39-6955.03-2404.87-6952.89-2404.15-6951.99-2403.44-6952.24-2402.3-6952.16-2401.42-6951.92-2397.63-6951.35-2394.73-6951.72-2390.82-6953.38-2387.64-6955.71-2387.38-6956.13-2382.91-6956.49-2377.81-6957.46-2374.09-6954.97-2369.55L-6956.07-2368.2C-6957.47-2365.27-6956.07-2363.05-6952.79-2361.82-6945.37-2358.91-6936.37-2356.45-6927.39-2354.75-6916.76-2352.73-6907.06-2351.28-6896.52-2354.68-6895.79-2354.09-6895.21-2355.64-6895.34-2356.19-6895.64-2357.75-6894.99-2360.79-6896.73-2361.08Z" id="_Skin-24" fill="#FFFFFF"/><path d="M-7020.19-2572.28C-7020.75-2575.23-7020.54-2578.97-7020.46-2581.95-7020.62-2586.19-7020.44-2591.87-7020.25-2598.19-7020.23-2598.74-7019.55-2599.01-7019.17-2598.6-7014.06-2593.23-7005.01-2584.75-6999.73-2579.48-7006.52-2578.67-7015.38-2577.67-7019.33-2572.15L-7020.19-2572.28ZM-6940.48-2574.85C-6950.91-2574.88-6960.94-2580.58-6971.43-2579.85-6984.21-2585.92-6990.1-2597.88-6997.03-2610.1-7001.39-2617.62-7004.42-2622.9-7010.53-2628.35-7011.26-2628.98-7012.41-2630-7012.68-2630.7-7012.19-2635.62-7011.9-2641.67-7011.43-2648.35-7011.09-2653.2-7010.31-2658.72-7009.98-2664.25-7017.01-2666.96-7025.1-2670.14-7032.06-2669.95L-7033.33-2669.95C-7034.33-2670.06-7034.37-2671.1-7033.99-2672.02-7030.93-2683.96-7025.73-2694.72-7018.13-2703.15-7010.93-2711.13-7000.75-2716.89-6988.86-2720.22-6989.92-2715.44-6987.9-2711.62-6984.01-2709.13-6976.92-2704.61-6964.33-2703.88-6955.93-2707.06-6950.63-2709.06-6947-2712.6-6947.45-2717.72-6939.68-2714.58-6933.04-2708.99-6928.98-2701.95-6923.52-2692.49-6920.72-2680.3-6922.03-2669.65-6924.1-2670.24-6927.61-2669.32-6931.33-2667.75L-6932.58-2667.05C-6932.82-2653.52-6933.52-2637.75-6931.84-2623.02-6930.36-2610.11-6926.42-2597.86-6920.63-2587.4-6919.65-2585.85-6918.54-2583.69-6918.53-2581.8-6918.38-2581.54-6918.18-2580.7-6921.68-2579.55-6923.12-2579.07-6925.95-2578.05-6927.03-2577.45-6931.03-2575.31-6935.93-2574.82-6940.48-2574.85Z" id="_Top-12" fill="#FFFFFF"/><path d="M-6909.59-2352.75C-6917.06-2352.62-6925.19-2353.97-6933.19-2355.95-6940.81-2357.83-6948.25-2359.91-6955.06-2363.08-6957.22-2364.13-6956.59-2367.84-6955.37-2369.29-6955.19-2369.53-6955.09-2369.67-6955.12-2369.77-6956.33-2373.61-6956.62-2377.73-6956.13-2380.7L-6956.13-2380.7-6956.13-2380.7C-6956.02-2381.28-6955.94-2381.86-6955.9-2382.44-6955.9-2383.84-6954.17-2386.84-6953.11-2388.69-6952.86-2389.14-6952.19-2389.05-6952.06-2388.55-6951.22-2385.22-6951.66-2378.51-6945.99-2381.01-6944.51-2381.67-6939.09-2389.85-6935.02-2392.64-6932.54-2394.59-6930.65-2394.31-6929.46-2392.95-6927.92-2391.19-6926.79-2388.01-6925.45-2386.15-6922.52-2382.1-6918.47-2377.8-6914.26-2374.75-6910.21-2371.59-6906.78-2370.41-6900.46-2367.48-6898.63-2366.72-6896.73-2363.37-6897.23-2361.68-6897.25-2361.26-6895.83-2360.7-6895.79-2360.48-6895.53-2358.95-6894.23-2355.58-6895.93-2354.78-6899.39-2353.3-6905.09-2352.75-6909.59-2352.75ZM-7035.12-2375.55C-7042.15-2375.58-7047.84-2381.99-7050.64-2388.01-7053.07-2393.73-7053.12-2400.05-7053.5-2406.19-7053.79-2410.61-7053.62-2415.12-7052.96-2420.81-7051.89-2427.78-7051.08-2437.49-7045.53-2441.89-7045.48-2442.05-7041.13-2442.9-7040.87-2442.89-7038.87-2443.67-7036.69-2443.85-7034.56-2443.96L-7034.56-2443.95C-7034.33-2443.66-7033.44-2442.44-7033.48-2441.95-7033.56-2437.35-7034.74-2433.98-7034.93-2430.13-7034.31-2427.42-7032.86-2425.15-7029.77-2424.17-7027.77-2423.77-7023.47-2425.39-7022.05-2425.87-7023.34-2422.49-7025.76-2413.17-7025.91-2408.56-7026.86-2399.07-7024.44-2388.02-7030.85-2380.12-7031.35-2379.58-7029.33-2378.47-7029.77-2377.96-7031.09-2376.4-7033.07-2375.49-7035.12-2375.55Z" id="_Shoes-24" fill="#FFFFFF"/><path d="M-6909.18-2351.95C-6923.49-2352.13-6939.36-2356.54-6953.05-2361.52-6954.78-2362.19-6956.86-2363.02-6957.04-2365.11-6957.12-2365.85-6956.96-2368.55-6955.87-2368.99-6958.02-2373.51-6957.27-2378.66-6956.97-2383.49-6956.48-2388.02-6954.67-2387.93-6952.84-2390.71-6952.43-2394.75-6952.85-2398.02-6953.03-2401.88-6953.03-2402.41-6952.99-2403.04-6953.43-2403.42-6955.56-2403.94-6957.87-2404.36-6959.7-2405.57-6961.32-2405.82-6960.2-2407.97-6960.54-2409.07-6960.56-2412.6-6960.22-2415.89-6960.25-2420.17L-6960.33-2420.17C-6960.24-2431.26-6960.85-2442.67-6960.1-2453.7-6959.31-2464.9-6957.35-2475.55-6956.25-2486.66-6954.34-2501.38-6957.84-2515.47-6960.17-2529.9-6960.31-2529.59-6960.73-2528.68-6960.88-2528.36L-6960.88-2528.36C-6964.04-2521.59-6967.81-2513.31-6970.05-2506.59-6973.25-2497.83-6974.05-2488.18-6978.22-2479.81-6980.22-2475.85-6983.48-2471.97-6986.33-2468.81-6998.29-2455.61-7006.8-2443.8-7010-2427.04-7009.97-2427.01-7009.95-2426.98-7009.93-2426.94-7010.06-2425.9-7010.39-2424.6-7011.55-2424.31-7014.68-2424.4-7017.85-2423.75-7020.86-2425.11-7021.9-2422.29-7023.01-2419.43-7023.62-2416.44-7022.56-2416.16-7020.38-2416.46-7020.37-2414.95-7021.04-2413.57-7022.85-2414.76-7023.95-2414.82-7024.06-2414.21-7024.16-2413.6-7024.26-2412.95-7023.02-2412.89-7020.84-2412.74-7021.02-2411.09-7021.29-2409.3-7023.39-2410.03-7024.58-2410.35-7024.65-2409.54-7024.71-2408.73-7024.75-2407.93-7023.25-2407.8-7020.04-2408.52-7019.94-2406.31-7020.62-2404.32-7023.34-2405.77-7024.84-2405.7-7025.22-2397.14-7024.04-2387.81-7029.09-2380.4-7028.46-2377.98-7030.28-2375.55-7032.49-2374.71-7035.63-2373.55-7039.08-2374.74-7041.9-2376.25-7048.01-2379.58-7051.9-2385.94-7053.34-2392.63-7055.11-2400.52-7054.49-2407.57-7053.88-2416.07-7053.08-2423.99-7053.42-2444.72-7041.77-2443.14-7039.52-2443.99-7037.33-2444.27-7035.02-2444.7-7036.16-2454.66-7031.65-2467.84-7025.75-2475.83-7022.95-2480.05-7018.33-2482.46-7015.25-2486.38-7012.25-2490.47-7011.22-2495.02-7011.46-2500.39-7016.84-2523.13-7021.34-2547-7020.19-2570.03-7025.69-2573.39-7019.34-2592.86-7021.16-2599.27-7041.27-2617-7040.69-2644.6-7035-2669.2-7037.62-2671.21-7033.9-2675.99-7033.17-2678.42L-7033.17-2678.42C-7027.67-2698.64-7012.67-2713.94-6992.52-2719.78-6990.97-2720.34-6988.16-2722.35-6986.88-2721-6985.58-2721.29-6984.25-2721.57-6982.79-2721.85-6981.89-2723.53-6981.39-2725.46-6981.42-2727.37-6981.43-2727.99-6981.45-2728.64-6981.13-2729.14-6981.17-2729.21-6981.08-2729.32-6981.04-2729.2-6979.81-2729.51-6979.77-2728.24-6980.08-2727.27-6979.58-2724.03-6980.48-2720.31-6982.79-2717.93-6985.31-2716.32-6985.4-2718.86-6983.81-2720.3-6987.34-2719.96-6989.97-2717.66-6987.53-2714.1-6984.24-2703.67-6944.46-2702.51-6950.76-2718.05-6950.87-2718.1-6951.24-2718.22-6951.71-2718.37L-6951.71-2718.37C-6952.77-2718.72-6954.38-2719.24-6954.84-2719.62-6954.26-2718.31-6953.94-2716.19-6952.47-2715.77-6951.99-2715.74-6951.68-2714.98-6952.2-2714.76-6955.05-2713.61-6955.93-2717.73-6956.45-2719.65-6957.21-2722.21-6958.33-2724.91-6957.26-2727.54-6956.69-2727.69-6956.4-2725.65-6955.99-2723.78L-6955.99-2723.78C-6955.71-2722.34-6955.44-2720.98-6955.16-2720.59-6955.1-2720.58-6955.04-2720.57-6954.98-2720.57-6954.61-2719.84-6953.54-2719.82-6952.57-2719.54L-6952.57-2719.54C-6952.14-2719.46-6951.71-2719.34-6951.3-2719.19-6950.73-2720.19-6949.22-2719.84-6948.35-2719.39-6947.03-2718.89-6945.52-2718.59-6944.44-2717.67-6929.23-2711.35-6921.78-2694.22-6920.39-2678.59-6920.06-2675.48-6918.73-2669.2-6921.07-2667.87-6922.93-2643.6-6919.52-2618.43-6922.04-2594.2-6920.54-2590.14-6915.72-2585.31-6916.72-2580.24-6916.54-2579.85-6916.58-2579.35-6916.91-2579.04-6917.04-2576.72-6918.81-2575.92-6920.34-2574.66-6921.23-2574.05-6921.84-2573.03-6922.91-2572.74-6923.08-2571.26-6923.14-2569.78-6923.1-2568.29-6912.35-2519.89-6916.5-2469.22-6922.23-2420.17L-6922.37-2420.17C-6922.77-2416.36-6923.08-2412.12-6923.63-2408.43-6923.77-2407.44-6924.93-2407.05-6925.79-2407.34-6927.77-2405.93-6930.07-2405.09-6932.39-2404.45-6932.63-2400.94-6932.64-2398.35-6931.91-2395.12-6931.44-2395.28-6930.61-2395.38-6930.49-2394.74-6928.48-2393.9-6927.42-2391.9-6926.46-2390.05L-6926.46-2390.05C-6925.93-2389.03-6925.38-2387.97-6924.67-2387.1-6924.41-2387.15-6924.14-2387.21-6923.85-2387.28-6923.85-2387.28-6923.84-2387.28-6923.84-2387.28-6922.53-2387.59-6920.49-2388.04-6919.62-2386.82-6919.1-2384.93-6921.91-2385.18-6923.1-2385.06-6922.35-2384.12-6921.67-2383.29-6921.02-2382.54-6919.89-2382.82-6918.55-2383.42-6917.39-2383.42-6916.47-2383.46-6915.33-2382.82-6915.81-2381.86-6916.49-2380.7-6918.02-2380.76-6919.19-2380.54-6918.3-2379.66-6917.32-2378.78-6916.19-2377.86-6914.32-2378.55-6912.55-2379.59-6910.53-2379.8-6910.06-2379.78-6909.66-2379.44-6909.57-2378.97-6909.27-2377.12-6913.28-2376.9-6914.46-2376.51-6911.18-2373.88-6907.21-2372.39-6903.65-2370.22-6899.73-2369.09-6895.4-2365.98-6896.13-2361.42-6894.83-2361.02-6894.82-2359.61-6894.77-2358.49-6894.69-2357.43-6894.31-2356.33-6894.73-2355.3-6895.08-2354.4-6896.12-2353.33-6897.15-2353.88-6900.95-2352.34-6905.11-2351.96-6909.18-2351.95ZM-6955.55-2368.38-6955.55-2368.38C-6956.55-2364.82-6955.65-2363.51-6951.91-2362.42-6949.29-2361.51-6946.23-2360.53-6942.52-2359.4-6927.45-2355.3-6911.14-2350.18-6896.21-2355.79-6895.94-2357.14-6896.06-2358.94-6896.38-2360.25-6898.4-2355.19-6905.31-2356.14-6909.82-2355.72-6918.41-2355.7-6927.09-2358.03-6935.37-2360.28L-6935.37-2360.28C-6938.54-2361.14-6941.81-2362.02-6945.01-2362.75-6949.1-2363.52-6953.52-2364.46-6955.55-2368.38L-6955.55-2368.38ZM-6952.9-2387.8-6952.9-2387.8C-6955.72-2382.8-6956.51-2372.74-6952.51-2368.32-6949.82-2365.67-6945.13-2364.98-6941.15-2364.19-6936.08-2362.81-6931.06-2361.33-6925.86-2360.21-6919.83-2358.91-6903.85-2356.58-6899.25-2360.49-6897.98-2362.65-6899.61-2365.35-6901.57-2366.48-6907.28-2369.01-6913.19-2371.26-6917.64-2375.92-6919.34-2375.65-6921.46-2375.25-6922.56-2373.93-6922.16-2375.42-6920.01-2376.24-6918.61-2376.86-6919.64-2377.89-6920.56-2378.97-6921.59-2380-6923.91-2379.53-6926.1-2378.43-6928.43-2378.04-6927.58-2379.86-6924.87-2380.76-6923.15-2381.72-6923.96-2382.66-6924.73-2383.64-6925.45-2384.63-6926.78-2384.35-6928.03-2383.76-6929.25-2383.19L-6929.25-2383.19C-6930.1-2382.77-6930.97-2382.4-6931.86-2382.08-6931.15-2384.33-6928.64-2385.41-6926.68-2386.42-6928.36-2388.31-6928.88-2392.27-6931.67-2393.07-6936-2390.56-6939.78-2387.22-6942.81-2383.23-6943.72-2382.01-6944.49-2380.55-6945.88-2379.81-6950.6-2377.7-6953.12-2383.9-6952.9-2387.8L-6952.9-2387.8ZM-7044.4-2441.66C-7052.05-2435.63-7051.17-2423.91-7051.95-2415.2-7052.19-2409.59-7052.84-2404.76-7052.28-2399.35-7051.44-2390.87-7048.75-2382.56-7041.11-2378.32-7038.15-2376.74-7032.86-2374.92-7030.8-2378.61-7054.28-2367.75-7054.67-2432.04-7044.4-2441.66L-7044.4-2441.66ZM-7034.63-2443.23C-7037.9-2443.11-7042.72-2442.41-7044.2-2438.8-7048.33-2426.71-7049.23-2412.57-7046.79-2397.91-7045.3-2391.12-7043.09-2380.79-7035.06-2379.66-7026.07-2381.77-7028.26-2398.76-7027.57-2405.87-7029.51-2406.06-7031.63-2405.72-7033.59-2405.98-7033.59-2406.8-7028.39-2407.66-7027.49-2407.76-7027.42-2408.87-7027.34-2409.89-7027.24-2410.88-7029.48-2411.31-7031.75-2411-7034-2411.35-7032.58-2412.78-7029.06-2412.78-7026.98-2413-7026.88-2413.7-7026.75-2414.44-7026.59-2415.27-7029.55-2415.88-7032.72-2415.51-7035.7-2416.02-7033.67-2417.32-7028.5-2416.77-7026.29-2416.75-7025.75-2419.16-7025.02-2421.53-7024.09-2423.82-7027.83-2420.9-7033.55-2422.89-7035.53-2426.97-7037.44-2431.6-7035.55-2437.85-7034.2-2441.41-7034.35-2442-7034.48-2442.58-7034.63-2443.23L-7034.63-2443.23ZM-6951.15-2403.03C-6950.83-2399.7-6950.8-2396.55-6950.77-2393.51-6950.41-2390.11-6951.52-2385.62-6949.36-2382.49-6948.69-2381.58-6947.35-2381.11-6946.42-2381.94-6943.16-2386.5-6938.83-2391.02-6933.99-2394.33-6935.33-2397.33-6934.33-2400.6-6933.72-2403.55L-6933.72-2403.55C-6933.67-2403.74-6933.62-2403.93-6933.58-2404.14-6939.3-2402.71-6945.29-2402.24-6951.15-2403.03L-6951.15-2403.03-6951.15-2403.03ZM-7033.17-2438.15-7033.17-2438.15C-7033.38-2434.77-7034.54-2431.05-7033.01-2427.87-7031.49-2424.58-7026.76-2424.03-7024.55-2426.9-7028.67-2429.45-7031.52-2433.65-7033.17-2438.15L-7033.17-2438.15ZM-7032.13-2669.33-7032.13-2669.33C-7036.93-2645.56-7039.78-2621.04-7020.72-2602.95-7010.5-2591.51-6997.52-2580.66-6987.25-2568.96-6986.46-2567.82-6985.75-2566.59-6985.1-2565.44-6983.87-2563.13-6979.86-2559.23-6978.29-2557.2-6975.06-2554.51-6973.21-2553.96-6969.96-2557.35-6968.57-2558.47-6966.02-2558.1-6965.07-2559.66-6964.65-2560.2-6964.22-2560.75-6962.67-2561.07-6962.66-2561.48-6962.57-2561.88-6962.39-2562.25-6963.36-2562.55-6967.6-2565.96-6965.39-2566.54-6965.19-2566.54-6965-2566.43-6964.91-2566.24-6964.07-2564.73-6962.65-2563.46-6960.92-2563.1-6963.86-2569.36-6960.04-2573.69-6969.51-2577.32-6977.35-2580.05-6983.48-2585.86-6988.07-2592.68-6996.21-2604.49-7000.98-2619.38-7012.42-2628.53-7014.34-2627.93-7014.7-2630.58-7014.38-2631.89-7014.12-2634.83-7013.91-2637.7-7013.71-2640.48-7013.16-2648.25-7012.55-2655.99-7010.92-2663.49-7017.56-2666.73-7024.75-2668.44-7032.13-2669.33L-7032.13-2669.33ZM-7019.33-2597.33-7019.33-2597.33C-7019.56-2589.49-7019.77-2581.82-7019.41-2574.15-7015.25-2579.08-7008.35-2579.63-7002.37-2580.41-7008.04-2586.06-7013.73-2591.53-7019.33-2597.33L-7019.33-2597.33ZM-6969.27-2580.88C-6956.17-2580.89-6943.29-2572.58-6930.36-2577.75-6927.89-2578.72-6925.61-2580.15-6922.92-2580.44-6921.97-2580.68-6920.7-2580.65-6920.02-2581.39-6920.01-2581.39-6920-2581.39-6919.99-2581.39-6919.99-2581.4-6919.99-2581.41-6919.99-2581.43-6919.85-2581.56-6919.83-2581.81-6919.98-2581.95-6919.94-2583.69-6920.89-2585.2-6921.81-2586.67L-6921.81-2586.67C-6939.68-2617.97-6934.12-2656.14-6931.55-2690.59-6931.04-2683.93-6931.9-2675.11-6931.56-2668.16-6929.21-2669.36-6926.56-2670.75-6923.86-2670.51-6921.88-2688.49-6929.46-2709.46-6946.96-2717.01-6946.86-2699.45-6992.63-2700.89-6989.66-2719.37-7013.65-2712.51-7027.28-2694-7033.02-2671.22-7033.31-2670.58-7032.39-2670.5-7031.89-2670.52-7031.89-2670.51-7031.89-2670.5-7031.9-2670.49L-7031.9-2670.49C-7031.9-2670.48-7031.9-2670.47-7031.9-2670.45-7025.16-2670.59-7017.03-2667.92-7010.61-2665.34-7010.57-2665.32-7010.07-2665.16-7009.85-2665.25-7008.25-2669.64-7007.2-2674.21-7005.06-2678.39-7002.23-2680.43-7006.54-2670.31-7006.64-2669.38-7006.64-2669.38-7006.64-2669.37-7006.64-2669.37-7007.22-2667.49-7007.82-2665.55-7008.78-2663.81-7010.08-2652.86-7010.08-2641.74-7011.2-2630.49-7010.53-2628.99-7008.67-2627.9-7007.54-2626.61-7005.21-2624.27-7003.1-2621.59-7001.23-2618.84-6992.19-2605.51-6986.54-2588.09-6971.01-2580.83-6970.44-2580.86-6969.85-2580.88-6969.27-2580.88L-6969.27-2580.88ZM-6923.99-2668.21C-6926.51-2667.86-6929.11-2667.51-6931.54-2666.7-6930.39-2644.37-6932.86-2621.1-6924.67-2600.01-6923.8-2622.38-6925.65-2646.32-6923.99-2668.21L-6923.99-2668.21ZM-6954.96-2719.97C-6954.95-2719.95-6954.94-2719.93-6954.93-2719.9-6954.92-2719.91-6954.91-2719.92-6954.9-2719.93-6954.92-2719.94-6954.94-2719.96-6954.96-2719.97Z" id="_Ink-24" class="MsftOfcResponsive_Fill_000000"/></g></svg>