<svg viewBox="0 0 188 211" xmlns="http://www.w3.org/2000/svg" xmlns:xlink="http://www.w3.org/1999/xlink" id="464d0d83-ad2c-467f-839d-a1076a246e51" overflow="hidden"><style>
.MsftOfcResponsive_Fill_000000 {
 fill:#000000; 
}
</style>
<g id="pose_sitting_mid-1_1_" transform="translate(1744 5175.28)"><path d="M-1690.08-4969.4C-1695.67-4969.75-1705.7-4968.3-1708.47-4973.74-1709.8-4976.11-1710.64-4979.61-1708.62-4981.66-1709.29-4986-1704.71-4993.34-1704.71-4993.34-1700.58-4998.84-1700.21-5003.9-1703.31-5010.05-1708.93-5010.26-1720.2-5011.83-1721.03-5011.69-1721.4-5011.62-1722.26-5012.18-1722.33-5012.7-1725.84-5027.72-1728.73-5041.06-1732.13-5056.01-1735.59-5071.22-1743.19-5095.64-1725.42-5102.16L-1726.19-5104.39C-1727.16-5104.39-1727.01-5105.56-1727.45-5107.04-1729.4-5111.92-1726.09-5117.28-1722.38-5120.56-1717.49-5125.45-1712.73-5130.84-1708.38-5136.1-1695.4-5151.65-1684.75-5167.24-1663.38-5168.4-1663.38-5168.4-1660.3-5169.38-1659.25-5168.91-1652.95-5166.13-1648.43-5166.72-1643.06-5167.33-1633.17-5168.46-1622.07-5162.59-1616-5154.62L-1615.73-5156.38C-1615.65-5156.98-1614.83-5156.61-1614.74-5156.17-1605.48-5152.29-1600.96-5143.76-1597.11-5134.71-1595.72-5130.54-1593.34-5127.36-1592.72-5123.38-1592.61-5122.72-1592.85-5122.05-1593.34-5121.61L-1592.78-5120.92C-1585.95-5112.13-1581.31-5098.96-1578.04-5088.03-1577.23-5086.13-1576.92-5084.45-1578.23-5082.53-1578.47-5082.17-1578.39-5081.65-1578.04-5081.4-1570.67-5076.09-1556.08-5062.43-1561.89-5049.22-1570.6-5034.26-1595.84-5023.18-1611.58-5015.84-1611.58-5015.84-1619.71-5013.01-1623.3-5009.55-1623.59-5009.14-1624.08-5008.49-1624.58-5008.53-1627.77-5010.03-1630.73-5022.05-1630.57-5024.43-1633.25-5023.48-1635.64-5022.93-1638.42-5022.44-1638.14-5021.84-1637.44-5020.86-1638.04-5020.25-1638-5018.62-1640.17-5003.4-1640.55-4999.46-1637.71-4996.75-1633.33-4995.34-1630.72-4992.36-1628.9-4990.53-1629.43-4987.16-1631.36-4985.75-1631.66-4985.54-1631.71-4985.16-1631.52-4984.85-1630.9-4983.85-1631.16-4981.37-1632.05-4980.53-1635.16-4978.25-1638.75-4980.43-1642.16-4981.24-1647.16-4982.89-1652.47-4985.06-1658.25-4988.71-1660.56-4990.16-1662.16-4993.04-1662.95-4995.66-1668.81-5013.76-1670.61-5025.46-1667.84-5031.64-1665.71-5033.07-1662.72-5031.75-1661.65-5034.34-1661.47-5034.78-1661.74-5035.29-1662.21-5035.33-1670.11-5036.06-1680.71-5034.51-1686.34-5037.78-1686.6-5037.93-1686.83-5038.08-1687.02-5038.23-1687.62-5038.69-1688.48-5038.19-1688.42-5037.44-1687.62-5028-1687.24-5020.14-1686.94-5011.15-1685.83-5009.29-1684.66-5006.87-1683.61-5004.69-1683.2-5003.76-1682.31-5001.35-1682.09-5000.69-1681.89-5000.06-1675.8-4985.86-1673.92-4978.57-1671.69-4978.16-1672.12-4975.87-1672.07-4974.03-1672.35-4968.43-1684-4969.8-1688.58-4969.39L-1690.08-4969.39ZM-1690.61-5086.35-1690.59-5085.24C-1688.33-5082.86-1686.22-5080.45-1684.34-5078.06L-1682.74-5077.99C-1682.42-5077.98-1682.16-5078.27-1682.24-5078.58-1683.11-5081.85-1685.87-5085.65-1690.08-5086.78-1690.35-5086.85-1690.62-5086.63-1690.61-5086.35ZM-1617.2-5114.35C-1622.65-5104.76-1631.65-5095.07-1631.37-5083.43-1625.1-5086.1-1618.49-5087.61-1612.02-5089.62-1612.02-5089.62-1612.02-5089.62-1612.02-5089.62-1610.42-5090.13-1608.92-5090.58-1607.3-5090.61-1603.08-5097.03-1612.33-5106.85-1615.51-5113.8-1615.81-5114.45-1616.85-5114.98-1617.2-5114.35ZM-1692.56-5119.03-1692.56-5119.03C-1694.98-5117.58-1697.34-5116.54-1699.76-5115.82-1697.6-5114.83-1695.47-5113.52-1693.75-5111.88-1692.74-5114.02-1692.41-5116.52-1692.56-5119.03L-1692.56-5119.03Z" id="_Skin-7_3_" fill="#FFFFFF"/><path d="M-1691.22-4968.92C-1698.07-4968.93-1707.42-4969.47-1709.73-4976.38-1710.12-4978.26-1709.81-4980.15-1708.8-4981.56-1707.93-4982.77-1708.33-4985.23-1707.94-4986.76-1706.9-4992.41-1701-4998.22-1700.6-5002.69-1700.54-5003.31-1700.19-5003.85-1699.65-5004.16-1695.51-5006.5-1689.74-5006.9-1685.4-5004.79-1685.26-5004.3-1683.04-5002.83-1682.55-5001.79-1679.16-4994.58-1674.68-4984.37-1673.21-4976.85-1672.96-4976.32-1671.97-4975.93-1671.72-4974.82-1671.44-4973.93-1672.2-4971.96-1672.8-4971.52-1675.6-4969.5-1684.86-4969.01-1691.22-4968.92ZM-1635.48-4979.96C-1641.09-4979.84-1659.03-4987.48-1661.64-4992.43-1666.27-5004.52-1669.73-5018.37-1668.06-5031.44-1666.8-5032.44-1664.23-5032.16-1662.75-5033-1662.18-5033.32-1660.2-5034.92-1659.57-5035.04-1657.05-5035.53-1652.75-5035.35-1649.7-5035.18-1649-5035.15-1648.55-5034.44-1648.81-5033.78-1650.85-5028.73-1652.39-5020.89-1645.59-5019.8-1643.52-5019.12-1641.04-5019.69-1639.65-5021.01-1639.12-5021.52-1637.97-5021.24-1637.99-5020-1638.03-5017.31-1639.23-5010.9-1639.85-5007.63-1640.35-5004.82-1640.79-5001.34-1640.14-4999.62-1639.27-4997.35-1632.37-4994.77-1630.54-4992.51-1627.51-4988.76-1631.98-4985.84-1631.23-4983.93-1630.51-4982.09-1632.63-4979.8-1635.48-4979.96L-1635.48-4979.96Z" id="_Shoes-7_3_" fill="#FFFFFF"/><path d="M-1730.34-5099.72C-1713.8-5109.97-1695.16-5090.96-1684.67-5078.25-1684.59-5078.14-1682.48-5078.41-1682.35-5075.93-1682.29-5074.62-1682.42-5072.13-1682.8-5071.03-1684.01-5067.55-1685.04-5064.05-1686.12-5060.58-1686.57-5059.37-1687.01-5056.94-1684.8-5057.94-1684.74-5057.97-1683.19-5060.1-1682.77-5059.9-1682.36-5059.71-1683.93-5056.53-1684.63-5054.39-1685.42-5051.98-1685.2-5051.3-1684.49-5051.53-1682.87-5052.03-1678.75-5057.19-1678.44-5057.02-1678.01-5056.78-1681.32-5050.06-1680.26-5049.38-1678.56-5048.29-1675.36-5053.4-1674.99-5053.27-1674.61-5053.15-1674.76-5050.86-1674.76-5050.86-1675.07-5048.74-1673.84-5048.12-1672.35-5050.14-1672.14-5050.39-1671.86-5050.75-1671.65-5051.01-1668.72-5054.73-1666.59-5059.46-1666.14-5064.7L-1665.91-5065.7C-1655.09-5052.27-1642.17-5057.89-1635.02-5071.74-1633.58-5075.02-1629.91-5080.58-1631.6-5083.59-1624.57-5085.47-1615.16-5088.47-1608.19-5090.28-1607.65-5090.42-1607.17-5089.88-1607.39-5089.37-1615.45-5070.2-1633.22-5054.69-1619.56-5033.21-1619.35-5032.89-1618.85-5032.96-1618.75-5033.33-1618.58-5033.98-1618.43-5034.78-1618.31-5035.45-1618.25-5035.78-1617.8-5035.84-1617.65-5035.54-1616.96-5034.15-1615.48-5031.68-1615.09-5031.04-1614.81-5030.61-1614.1-5030.74-1613.83-5031.29-1613.3-5032.24-1613.36-5034.23-1613.38-5035.44-1613.36-5037.02-1613.3-5038.78-1613.3-5040.49-1613.3-5041.04-1612.48-5041.21-1612.34-5040.68-1611.61-5037.83-1609.24-5032.55-1608.49-5032.65-1607.75-5032.74-1607.75-5035.48-1607.69-5036.57-1607.53-5041-1607.2-5046.66-1606.95-5051.6-1606.92-5052.18-1606.09-5052.25-1605.96-5051.68-1605.33-5048.94-1603.5-5043.33-1602.7-5043.68-1601.81-5044.07-1601.37-5047.08-1601.31-5047.61-1601.3-5051.37-1602.66-5061.81-1603.6-5066.66-1604.35-5071.27-1602.11-5071.1-1598.48-5072.25-1591.34-5074.46-1583.52-5076.62-1578.53-5081.79-1577.45-5081.07-1576.58-5080.44-1575.61-5079.58-1571.83-5075.78-1566.65-5070.83-1564.56-5067.24-1557.12-5055.62-1561.19-5044.43-1572.6-5037.28-1585.25-5028.12-1600.09-5020.91-1615.12-5014.79-1618.98-5013.29-1621.95-5011.33-1624.27-5009.04-1624.68-5008.64-1625.37-5008.74-1625.67-5009.23-1629.21-5015.01-1630.67-5024.67-1631.15-5032.45-1631.37-5034.23-1631.41-5035.67-1632.28-5037.12-1632.51-5037.48-1632.83-5037.76-1633.24-5037.63-1638.48-5035.91-1644.29-5035.37-1649.76-5035.56-1656.26-5035.46-1665.7-5035.84-1671.98-5035.79-1675.44-5035.82-1679.53-5035.91-1682.65-5036.31-1684.16-5036.57-1687.83-5039.02-1688.24-5038.53-1688.66-5038.05-1687.13-5020.56-1687.18-5010.76-1697.41-5009.44-1709.37-5010.03-1722.1-5011.76-1725.19-5025.82-1728.96-5042.11-1732.07-5056.35-1735.03-5069.87-1741.82-5089.48-1730.34-5099.72Z" id="_Pants-3_3_" fill="#FFFFFF"/><g><path d="M-1559.65-5059.17C-1561.74-5069.01-1569.4-5076.51-1577.75-5081.54-1575.98-5083.46-1576.75-5086.52-1577.57-5088.59-1578.65-5092.06-1579.51-5094.71-1580.36-5097.17-1583.46-5106.07-1586.89-5113.98-1592.26-5121.39-1590.89-5123.77-1593.83-5128.41-1594.33-5130.83-1598.5-5140.55-1603.27-5152.92-1614-5157.1-1614.53-5158.08-1616.24-5157.98-1616.35-5156.77-1623.85-5165.62-1636.21-5169.6-1647.55-5167.67-1648.94-5167.42-1650.33-5167.45-1651.37-5167.55-1651.43-5167.55-1652.52-5167.92-1652.63-5167.94-1666.02-5172.97-1680.67-5166.36-1690.71-5157.17-1699.92-5149.17-1707.8-5138.53-1715.93-5129.15-1721.24-5122.05-1731.05-5117.07-1728.74-5107.49-1728.32-5106.08-1727.81-5103.83-1726.01-5103.85-1744.13-5094.86-1736.77-5071.37-1733.2-5055.71-1729.82-5040.85-1726.72-5026.27-1723.24-5011.39-1723.07-5010.42-1721.81-5010.15-1721.12-5010.78-1715.64-5009.37-1709.69-5009.24-1703.91-5009.04-1697.34-4996.58-1711.14-4994-1709.27-4981.77-1711.86-4978.69-1710.76-4973.67-1707.89-4971.14-1702.59-4967.46-1695.41-4968.3-1689.24-4967.85-1684.21-4968.39-1671.15-4966.88-1670.44-4973.55-1670.42-4975.63-1670.87-4978.74-1673.08-4979.52-1674.93-4986.62-1677.23-4994.06-1681.52-5000.35-1680.25-5001.46-1681.54-5003.31-1682.5-5004.2-1683.48-5006.24-1684.38-5008.08-1685.41-5009.84-1685.88-5018.59-1686.27-5028.46-1687.09-5037.51-1679.96-5033.1-1670.44-5034.81-1662.49-5034.09-1663.62-5031.63-1667.07-5033.97-1668.59-5031.94-1671.93-5022.59-1668.97-5013.29-1666.74-5003.71-1665.03-4998.5-1664.23-4990.83-1658.67-4987.75-1650.72-4983.2-1642.28-4977.77-1632.96-4978.81-1630.5-4979.38-1628.82-4982.47-1630.19-4984.73-1627.72-4986.84-1627.72-4990.86-1629.92-4993.15-1632.44-4996.11-1636.58-4996.73-1639.46-4999.22-1639.13-5002.78-1638.96-5006.27-1638.51-5009.84-1637.5-5009.89-1636.42-5009.45-1635.45-5009.93-1633.59-5011.65-1636.92-5012.55-1638.28-5012.01L-1638.12-5013.55C-1635.03-5012.71-1634.64-5016.06-1637.87-5015.73-1637.57-5017.23-1637.42-5018.76-1637.42-5020.3-1637.11-5020.74-1637.11-5021.35-1637.38-5021.81-1635.31-5022.12-1633.13-5022.13-1631.12-5022.74-1630.74-5018.74-1629.05-5012.1-1627.14-5008.68-1625.85-5006.23-1624.17-5005.7-1622.87-5007.71-1620.58-5010.14-1617.45-5011.58-1614.42-5012.81-1601.78-5018.01-1590.83-5023.35-1579.6-5030.52-1569.48-5036.79-1556.69-5045.58-1559.65-5059.17ZM-1613.41-5114.23C-1608.17-5119-1602.81-5122.82-1595.69-5123.24-1586.87-5112.3-1582.31-5098.88-1578.03-5085.53-1581.67-5074.67-1595.6-5077.3-1603.18-5071.17-1604.41-5070.71-1604.78-5069.22-1604.57-5068.03-1603.95-5064.54-1603.49-5061.66-1603.14-5058.95-1602.71-5053.88-1601.67-5049.49-1602.72-5044.71-1605.13-5047.55-1605.59-5054.91-1605.83-5057.87-1607.38-5060.75-1608.59-5050.54-1608.58-5049.59-1608.95-5044.26-1608.41-5038.9-1608.64-5033.58-1612.66-5039.45-1612.67-5046.75-1612.89-5053.67-1612.88-5054.41-1613.88-5054.77-1614.38-5054.25-1615.06-5051.23-1614.42-5047.73-1614.47-5044.55-1614.3-5040.25-1614.12-5035.91-1614.59-5031.62-1617.43-5038.61-1618.49-5046.78-1617.66-5055.24-1619.07-5051.17-1619.05-5045.22-1618.56-5040.64-1620.19-5039.84-1618.9-5036.62-1619.45-5035.32-1631.79-5062.19-1605.07-5076.13-1605.07-5096.66-1607.6-5102.51-1611.61-5107.57-1614.62-5113.22-1614.24-5113.52-1613.84-5113.85-1613.41-5114.23ZM-1616.18-5113.73-1616.18-5113.73C-1616.18-5113.73-1616.18-5113.73-1616.18-5113.73-1613.95-5107.42-1604.21-5098.33-1607.6-5091.66-1615.16-5090.11-1623.19-5087.51-1630.35-5084.92-1630.01-5096.09-1621.24-5104.41-1616.18-5113.73-1616.18-5113.73-1616.18-5113.73-1616.18-5113.73ZM-1658.05-5167.68C-1658.05-5167.68-1658.05-5167.68-1658.05-5167.68-1652.8-5165.1-1646.79-5166.63-1641.22-5166.62-1631.82-5166.6-1622.62-5162.1-1616.82-5154.75-1625.62-5115.76-1664.01-5130.52-1658.05-5167.68ZM-1724.36-5104.26C-1724.25-5104.56-1724.83-5104.28-1724.97-5104.24L-1724.97-5104.24C-1725.04-5104.21-1725.12-5104.18-1725.2-5104.16-1724.62-5104.6-1724.72-5105.63-1725.41-5105.9-1730.12-5114.9-1719.32-5120.37-1714.35-5127.14-1709.86-5132.38-1705.78-5137.76-1701.21-5142.95-1692.93-5141.57-1684.93-5138.02-1678.74-5132.3-1685.11-5126.42-1691.67-5120.32-1699.64-5116.83-1700.3-5117.17-1701.37-5117.11-1701.61-5116.28-1702.53-5116.09-1703.5-5115.93-1704.38-5115.7-1703.56-5115.28-1702.5-5115.18-1701.57-5115.2-1692.38-5112-1688.85-5102-1682.36-5095.6-1676.99-5090.89-1669.35-5087.47-1668.56-5079.48-1665.47-5074.68-1667.38-5069.77-1666.74-5064.66-1668.05-5059.59-1669.67-5054.05-1673.51-5050.22-1673.62-5050.25-1673.73-5050.24-1673.84-5050.19-1673.56-5051.92-1673.25-5053.68-1672.96-5055.36-1672.46-5056.54-1668.73-5064.85-1672.12-5063.45-1673.69-5058.99-1674.81-5053.19-1679.55-5050.42-1678.69-5053.65-1677.83-5056.31-1676.47-5059.23-1675.97-5060.63-1673.69-5062.9-1675.87-5063.45-1676.18-5063.44-1676.45-5063.27-1676.58-5062.99-1678.62-5059.11-1680.52-5054.72-1684.43-5052.37-1683.39-5055.8-1682.06-5059.22-1680.77-5062.52L-1680.77-5062.52C-1680.52-5063.4-1679.25-5065.16-1680.84-5065.39-1681.2-5065.39-1681.49-5065.1-1681.62-5064.79-1682.24-5063.33-1682.7-5061.71-1683.69-5060.48-1683.84-5059.89-1685.13-5058.17-1685.8-5058.6-1684.73-5062.97-1683.18-5068.04-1681.17-5072.24-1680.08-5080.26-1683.51-5085.57-1691.53-5087.81-1700.94-5096.84-1716.02-5109.76-1729.13-5101.01-1727.76-5102.38-1726.14-5103.49-1724.36-5104.26ZM-1693.17-5117.92C-1693.15-5116.29-1693.4-5114.81-1693.91-5113.51-1695-5114.45-1696.19-5115.28-1697.48-5115.94-1695.92-5116.47-1694.68-5117.08-1693.17-5117.92ZM-1683.52-5078.83C-1685.42-5081.24-1687.54-5083.67-1689.82-5086.07L-1689.82-5086.07C-1686.45-5084.53-1684.2-5082.33-1683.52-5078.83ZM-1674.41-4975.73C-1674.13-4975.53-1673.76-4975.54-1673.46-4975.67-1671.73-4971.65-1676.97-4971.39-1679.69-4971.09-1681.56-4970.88-1683.99-4970.75-1686.06-4970.63-1693.93-4971.03-1709.53-4968.43-1709.05-4980.12-1708.81-4979.18-1708.61-4977.65-1707.39-4977.61-1697.54-4972.48-1685.31-4971.99-1675.12-4976.46-1674.94-4976.17-1674.69-4975.92-1674.41-4975.73ZM-1684.74-5003.06C-1684.6-5002.57-1684.19-5002.13-1683.67-5002.08-1683.22-5001.59-1683.05-5000.87-1682.45-5000.53-1680.26-4993.27-1677.07-4985.46-1675.64-4978.15-1685.6-4974.8-1696.42-4974.62-1706.39-4977.99-1706.14-4978.24-1706-4978.58-1706.01-4978.94L-1706.01-4978.94C-1706-4978.93-1705.99-4978.93-1705.98-4978.92-1707.4-4985-1706.58-4988.52-1702.97-4994.07-1697.84-4994.56-1691.95-4993.95-1686.78-4994.6-1685.91-4994.95-1685.36-4995.73-1685.96-4996.49-1688.08-4998.81-1698.47-4996.39-1701.44-4995.46-1701.06-4996.28-1700.95-4997.17-1700.66-4998.01-1697.27-4998.4-1693.78-4998.49-1690.4-4998.21-1689.14-4998.09-1687.64-4997.47-1686.52-4998.36-1685.1-5002.02-1698.55-4999.77-1700.09-4999.53-1699.56-5000.77-1699-5002.05-1699.24-5003.44-1695.11-5006.29-1688.85-5005.28-1684.74-5003.06ZM-1686.89-5008.82C-1686.81-5008.82-1686.74-5008.82-1686.66-5008.83-1686.42-5007.97-1686.14-5007.08-1685.83-5006.17-1690.52-5007.48-1696.08-5008.57-1699.98-5005.03-1700.6-5006.68-1701.25-5007.96-1702.04-5009.04-1697.47-5009.56-1692.99-5009.27-1688.43-5009.74L-1688.43-5009.74C-1688.13-5009.18-1687.52-5008.82-1686.89-5008.82ZM-1670.75-5037.01C-1676.4-5037.15-1682.37-5035.82-1687.22-5039.21-1688.5-5049.27-1687.48-5059.94-1690.86-5069.61-1691.45-5069.71-1690.45-5066.75-1690.52-5066.22-1691.67-5068-1693.62-5069.05-1695.02-5070.6-1695.15-5069.67-1694.13-5068.64-1693.56-5067.85L-1693.56-5067.85C-1691.29-5065.37-1691.09-5061.94-1690.98-5058.59-1690.93-5055.24-1690.28-5052.69-1690.14-5049.13-1689.77-5036.6-1689.14-5024.25-1688.85-5011.71-1699.58-5010.47-1709.81-5011.15-1720.79-5012.58-1724.51-5029.02-1728.08-5044.56-1731.91-5061.04-1735.82-5075.1-1741.24-5101.57-1720.59-5101.73L-1720.59-5101.73C-1708.07-5101.28-1697.53-5090.58-1689.86-5082.69-1688.27-5080.95-1686.81-5079.19-1685.51-5077.46-1685.17-5076.96-1684.47-5076.73-1683.93-5077.04-1682.8-5075.28-1684.01-5073.21-1683.62-5071.3-1684.79-5067.7-1685.89-5064.18-1686.98-5060.72-1688.09-5058.49-1687.08-5055.81-1684.37-5057.29-1687.21-5052.1-1686.75-5047.32-1680.81-5053.08-1683.32-5046.53-1679.13-5047.4-1675.83-5051.17-1676.39-5047.37-1672.7-5047.26-1671.03-5050.08-1667.87-5053.97-1666.22-5058.88-1665.62-5063.81-1665.19-5063.52-1664.77-5063.2-1664.38-5062.85-1664.38-5062.89-1664.39-5062.93-1664.39-5062.96-1653.6-5051.08-1639.56-5059.45-1633.8-5071.68-1632.31-5075.13-1629.76-5079.38-1630.44-5083.16-1623.26-5085.08-1616.14-5087.02-1608.86-5088.85-1615.01-5074.04-1628.79-5060.3-1624.72-5043.1-1638.45-5034.14-1655.28-5037.24-1670.75-5037.01ZM-1638.82-5016.79C-1638.92-5016.34-1639.04-5015.86-1639.15-5015.5-1642.46-5015-1645.01-5013.11-1639.67-5013.48-1639.82-5012.86-1639.97-5012.21-1640.11-5011.55-1640.95-5011.19-1643.07-5010.59-1643.11-5009.69-1642.23-5009.5-1641.35-5009.85-1640.46-5009.81-1640.48-5007.76-1643.42-4997.36-1640.66-4997.35-1640.17-4997.34-1639.71-4997.69-1639.64-4998.17-1637.32-4994.81-1631.69-4994-1630.99-4989.58-1630.79-4988.29-1631.54-4986.73-1632.9-4986.73-1633.64-4986.53-1634.45-4985.69-1634.03-4984.89L-1634.05-4984.88C-1633.96-4983.78-1632.25-4984.07-1632.22-4982.96-1633.23-4979.14-1640.23-4982.15-1642.87-4982.74-1647.53-4984.75-1660.18-4988.96-1661.79-4995.62-1665-5007.06-1669.08-5018.92-1667.22-5030.74-1666.37-5031.91-1664.67-5031.68-1663.52-5032.29L-1663.52-5032.29-1663.52-5032.29C-1663.52-5032.29-1663.52-5032.29-1663.52-5032.29-1665.4-5025.19-1662.26-5018.1-1660.99-5011.17-1658.61-4996.97-1653.55-4985.42-1637.68-4983.97-1634.26-4983.9-1634.7-4987.2-1637.88-4987.09-1650.64-4988.63-1655.35-4996.58-1657.22-5008.38-1658.32-5013.04-1659.45-5017.86-1660.79-5022.54-1662.16-5026.52-1663.85-5031.42-1659.55-5034-1656.42-5033.91-1653.35-5033.83-1650.25-5033.81-1651.02-5032.5-1651.84-5030.95-1651.43-5029.39-1654.48-5020.99-1645.98-5015.3-1638.45-5019.5-1638.49-5018.59-1638.61-5017.68-1638.82-5016.79ZM-1633.63-5024.53C-1636.29-5023.83-1638.97-5023.34-1641.64-5022.78-1642.48-5022.6-1643.79-5022.57-1643.51-5021.81-1643.52-5021.81-1643.52-5021.81-1643.52-5021.8-1642.95-5021.38-1642.22-5021.62-1641.58-5021.56-1648.1-5018.84-1651.04-5026.48-1648.5-5031.53-1648.24-5031.92-1647.52-5033.49-1647.01-5033.73-1646.88-5033.79-1646.05-5033.86-1645.89-5033.87-1642.08-5033.94-1638.47-5034.41-1634.86-5035.52L-1634.86-5035.52C-1632.13-5036.33-1632.17-5036.28-1631.97-5032.09-1631.89-5030.42-1631.79-5028.13-1631.48-5024.97-1632.2-5024.92-1632.93-5024.72-1633.63-5024.53ZM-1562.23-5051.99C-1564.69-5041.71-1579.42-5034.82-1587.88-5029.26-1596.87-5024.06-1605.41-5020-1615.28-5015.92-1618.45-5014.68-1622.27-5012.9-1624.59-5010.55-1627.8-5015.95-1628.9-5020.81-1630.04-5027.38-1630.49-5030.35-1630.18-5033.75-1631.31-5036.56-1628.76-5037.48-1626.3-5038.63-1623.96-5040L-1623.96-5040C-1623.21-5037.52-1619.12-5025.81-1617.44-5033.76-1616.6-5031.92-1615.19-5027.86-1612.98-5030.98-1612-5033.62-1612.8-5036.58-1612.61-5039.35-1611.57-5036.83-1610.45-5034.43-1609.38-5031.93-1609.19-5031.54-1608.68-5031.69-1608.37-5031.84-1608.05-5031.68-1607.68-5031.98-1607.75-5032.32-1607.15-5033.07-1607.02-5034.07-1606.96-5035-1606.76-5040.12-1606.6-5045.09-1606.4-5050.21-1605.76-5047.55-1604.49-5045.11-1603.21-5042.82-1602.41-5041.75-1601.58-5043.24-1601.39-5044.04-1599.74-5047.29-1601.29-5051.63-1601.21-5055.19-1599.39-5054.62-1597.24-5055.25-1595.31-5055.36-1594.01-5055.41-1587.34-5056.14-1590.13-5058.27-1592.18-5058.71-1594.24-5057.98-1596.24-5057.54-1597.75-5057.07-1600.28-5056.92-1601.26-5055.79-1601.57-5059.13-1601.95-5062.53-1602.54-5065.88-1602.76-5067.08-1603.06-5068.32-1602.47-5069.42-1601.13-5071.15-1598.4-5071.09-1596.46-5071.96-1589.83-5074.01-1582.97-5076.13-1578.08-5081.12-1570.45-5073.18-1559.91-5064.21-1562.23-5051.99Z" class="MsftOfcResponsive_Fill_000000"/><path d="M-1639.74-5042.77C-1643.84-5042.9-1648.2-5046.45-1648.77-5050.41-1646.56-5046.66-1642.23-5044.93-1638.06-5044.38-1637.59-5044.29-1637.43-5043.7-1637.69-5043.33-1638.16-5042.78-1639.07-5042.83-1639.74-5042.77Z" class="MsftOfcResponsive_Fill_000000"/></g></g></svg>