<svg viewBox="0 0 178 400" xmlns="http://www.w3.org/2000/svg" xmlns:xlink="http://www.w3.org/1999/xlink" id="88b186eb-a0da-47b9-88eb-17546af1400c" overflow="hidden"><style>
.MsftOfcResponsive_Fill_000000 {
 fill:#000000; 
}
</style>
<g id="pose_standing_crossed_arms-1_1_" transform="translate(1765 117.002)"><path d="M-1595.35 265.098C-1594.4 261.259-1594.71 259.047-1598.72 256.786-1599.06 255.873-1606.82 252.911-1612.98 248.563-1618.51 244.657-1622.11 238.794-1622.28 238.497-1622.28 238.497-1623.94 236.103-1624.08 234.796-1624.76 228.528-1625.28 225.164-1624.79 222.47-1620.81 195.298-1617.61 41.098-1616.58 33.798-1614.74 33.393-1611.25 32.275-1611.25 32.198-1607.92 23.265-1614.05-6.269-1616.65-15.202-1613.28-15.29-1609.75-16.169-1607.21-18.502-1606.21-19.535-1604.21-23.432-1603.75-24.36-1601.51-29.02-1600.68-34.302-1600.87-39.329-1600.73-39.374-1600.9-41.81-1601.28-43.002-1605.13-56.431-1609.42-69.261-1615.55-81.902-1618.62-88.668-1624.66-91.095-1631.25-93.635-1634.42-94.88-1637.51-96.787-1640.81-97.602-1640.86-97.833-1641.85-95.185-1642.05-94.702-1647.92-98.802-1646.67-103.205-1646.78-106.135-1646.84-107.699-1647.47-108.852-1649.08-110.044-1653.85-112.52-1659.66-112.62-1664.92-112.084-1666.86-112.028-1668.41-111.153-1668.87-109.201-1669.78-107.001-1670.6-104.493-1672.58-103.202-1674.24-102.122-1676.94-102.117-1678.88-101.702-1679.18-102.135-1679.53-103.438-1680.52-103.269-1686.59-102.505-1695.59-99.994-1701.35-98.302-1707.13-96.824-1713.3-94.021-1714.81-87.735-1717.56-76.534-1712.95-34.335-1707.88-24.068L-1706.25-20.901C-1704.98-19.601-1703.51-19.673-1701.55-19.034-1701.59-14.89-1701.73-11.154-1702.38-7.101-1703.84 0.25-1704.79 7.342-1706.42 14.732-1706.42 15.555-1708.92 24.499-1707.61 26.632-1706.98 26.943-1705.49 27.742-1704.81 28.032-1708.06 35.437-1708.44 45.084-1708.21 54.232-1708.16 59.68-1707.59 64.853-1708.81 70.432-1717.85 117.699-1727.59 222.853-1727.78 224.265-1727.95 225.616-1727.31 232.981-1728.28 234.915-1728.48 235.899-1733.08 235.703-1733.78 236.365-1735.61 239.341-1734.51 241.152-1736.01 244.124-1736.78 244.812-1738.5 246.316-1739.06 247.374-1740.2 248.473-1758.88 259.351-1758.12 261.232-1758.12 261.232-1758.54 263.636-1758.57 263.832-1760.18 273.209-1757.5 273.502-1748.82 274.882-1736.13 277.119-1729.48 272.683-1718.77 266.932-1716.98 265.731-1710.52 264.158-1709.02 262.032-1707.51 259.906-1708.97 257.532-1708.84 254.298-1708.89 253.966-1709.87 248.252-1710.25 245.351-1710.25 245.351-1709.2 243.028-1713.27 243.317-1712.6 242.583-1712.32 233.982-1712.12 232.082-1711.82 228.382-1711.46 225.637-1711.61 222.302-1709.91 222.428-1680.01 80.662-1661.25 71.852-1659.21 71.432-1659.08 73.432-1659.21 74.765-1653.41 120.025-1640.36 221.377-1639.72 221.554-1640.69 226.723-1640.66 238.704-1640.67 243.835-1640.82 243.972-1641.5 244.574-1641.6 244.722-1641.63 244.684-1642.81 245.956-1642.81 245.956-1643.59 250.481-1646.36 253.965-1643.81 258.331-1645.7 258.193-1646.05 261.905-1646.13 263.578-1645.56 265.327-1636.72 269.839-1627.42 272.631-1619.31 275.063-1610.82 275.907-1607.64 276.102-1605.39 276.494-1596.48 273.364-1594.68 272.298-1592.21 268.765-1593.42 265.432-1595.35 265.098Z" id="_Skin-5_3_" fill="#FFFFFF"/><path d="M-1607.19 276.135C-1607.34 276.137-1608.37 276.188-1608.52 276.165-1615.69 275.284-1623.56 273.332-1630.85 271.198-1637.38 269.079-1639.46 267.657-1644.45 265.04-1645.43 264.464-1646 263.973-1646.13 263.579-1646.42 263.031-1646.41 262.023-1646.15 260.864-1646.08 260.483-1645.51 259.377-1645.28 259.064-1645.05 258.765-1643.82 258.162-1643.45 258.197-1645.69 254.436-1644.7 250.457-1642.99 246.83-1642.75 246.316-1642.88 245.87-1642.65 245.35L-1641.28 244.463C-1641.49 245.211-1641.61 246.213-1641.11 246.863-1640.42 247.713-1639.27 247.78-1638.24 247.788-1634.46 247.883-1632.32 242.417-1629.66 240.883-1627.74 240.187-1626.32 239.648-1622.96 238.382-1622.88 238.573-1622.17 238.679-1622.08 238.896-1620.46 241.315-1616.28 247.014-1613.25 248.996-1609.77 251.448-1606.21 253.468-1603.31 254.929-1601.12 256.038-1599.08 256.553-1598.72 256.784-1595.71 258.729-1594.98 261.529-1595.08 264.629-1595.09 264.963-1594.73 264.902-1594.28 265.462-1592.58 267.562-1592.56 272.51-1594.75 273.129-1598.25 274.027-1603.8 276.015-1607.19 276.135ZM-1749.55 275.232C-1757.72 274.003-1760.54 273.21-1758.75 263.865-1758.71 263.583-1758.42 261.445-1758.18 261.098-1754.03 256.554-1747.57 253.603-1742.9 250.141L-1742.9 250.141C-1740.84 248.7-1739.36 247.66-1739.06 247.374-1738.48 246.305-1736.9 244.922-1736.01 244.124-1735.31 242.743-1735.12 241.584-1734.93 240.462-1734.83 239.793-1734.69 239.131-1734.51 238.48-1734.28 237.706-1734.19 236.899-1733.77 236.213-1733 235.706-1730.81 235.667-1729.64 235.839-1727.01 236.226-1723.77 238.24-1722.42 240.529-1721.78 242.718-1721.32 245.125-1720.1 247.098-1719.78 247.557-1719.39 248.231-1719.08 248.231-1717.62 248.17-1716.47 246.784-1715.38 245.892-1714.12 244.716-1712.83 243.697-1712.02 243.294-1711.37 243.338-1710.48 244.197-1710.25 245.35-1709.94 247.681-1709.32 251.384-1709.02 253.22L-1709.02 253.221C-1708.92 253.82-1708.85 254.216-1708.84 254.298-1707.93 256.699-1707.85 260.2-1709.41 262.464-1710.94 264.669-1714.46 265.031-1716.21 266.097-1724.79 270.685-1734.33 275.85-1744.01 275.864-1744.02 275.865-1747.31 275.627-1749.55 275.232Z" id="_Shoes-5_3_" fill="#FFFFFF"/><path d="M-1707.92 26.682C-1708.54 26.366-1706.61 16.687-1706.42 14.832-1704.31 3.323-1702.75-6.793-1701.36-18.368-1703.19-18.964-1704.86-19.186-1706.21-20.568L-1707.17-22.368C-1713.31-38.318-1717.28-73.228-1714.81-87.768-1713.44-94.024-1707-97.159-1701.31-98.518-1695-100.351-1686.07-102.205-1680.67-103.217-1679.27-103.48-1678.99-101.993-1678.71-101.273-1676.2-94.841-1673.19-88.099-1667.42-84.101-1661.05-79.752-1650.73-78.656-1645.02-85.834-1642.42-89.101-1641.91-93.388-1641.28-96.301-1641.18-96.768-1641.05-97.978-1641.02-97.701-1637.35-96.791-1634-94.601-1630.48-93.268-1624.57-91.063-1618.02-87.698-1615.38-81.535-1610.83-72.135-1607.41-62.732-1604.15-52.635-1603.04-48.453-1600.61-39.38-1600.87-39.329-1600.21-34.751-1601.18-29.714-1603.75-24.36-1604.72-22.732-1605.02-20.467-1607.27-18.517-1609.96-16.185-1613.91-15.33-1616.86-15.267-1615.59-12.405-1615-8.449-1613.81-4.217-1610.62 7.218-1608.28 24.368-1611.36 32.383-1611.36 32.943-1617.69 34.161-1620.78 34.586-1620.76 34.694-1641.59 38.897-1661.67 37.083-1684.59 35.01-1707.92 26.682-1707.92 26.682ZM-1667.84-37.766-1667.21-36.569-1662.13-32.962-1663.96-24.384C-1661.29-24.495-1656.3-25.154-1653.18-25.935-1651.14-26.446-1649.96-26.57-1650.08-29.002-1652-33.732-1653.41-36.255-1654.13-40.271-1654.47-42.454-1653.71-46.719-1654.16-46.842-1657.76-47.842-1664.62-51.045-1672.02-51.919-1676.75-52.479-1681.98-51.492-1686.4-50.48L-1686.98-49.232-1686.15-42.183C-1682.15-42.735-1671.29-39.182-1667.84-37.766Z" id="_Top-3_3_" fill="#FFFFFF"/><path d="M-1607.63 277.652C-1617.81 277.056-1627.82 274.268-1637.18 270.27-1640.43 268.478-1644.96 267.444-1646.81 264.007-1647.71 261.982-1647.03 259.243-1644.85 258.396-1646.31 256.004-1645.62 253.364-1644.99 250.727-1644.62 249.082-1644.04 246.947-1642.87 245.016-1642.79 244.875-1642.54 244.886-1642.53 245.061-1642.38 247.167-1642.59 249.319-1642.74 251.421-1642.84 253.075-1643.2 253.974-1642.67 255.772-1641.39 259.703-1633.55 261.618-1629.52 262.967-1629.52 262.967-1629.51 262.967-1629.51 262.967-1623.94 264.801-1619.31 266.273-1613.73 267.528-1610.55 268.23-1607.3 269.272-1604 268.728-1602.21 267.452-1599.7 267.832-1598 266.393-1595.46 264.009-1597.53 259.251-1599.24 257.086-1600.97 257.633-1602.43 256.172-1603.77 255.338-1605.09 254.513-1606.36 255.092-1607.68 254.27-1611.35 254.945-1617.03 256.439-1608.83 253.548-1610.11 252.744-1611.37 251.955-1612.57 251.136-1613.74 251.278-1614.98 251.645-1616.17 252L-1616.18 252C-1617.58 252.417-1618.91 252.811-1620.15 252.875-1618.58 251.414-1616.45 250.608-1614.43 249.801-1615.6 248.926-1616.7 247.958-1617.72 246.906-1624.85 248.767-1626.43 248.793-1618.94 245.47-1620.5 243.738-1620.75 241.195-1622.46 239.573-1625.82 240.324-1629.71 242.071-1632.07 244.97-1634.8 249.026-1640.96 250.437-1642.26 245.061-1642.31 244.857-1642.37 244.664-1642.32 244.635-1642.27 244.606-1642.2 244.736-1642.1 244.881-1639.74 248.304-1636.09 246.988-1633.99 243.712-1631.79 240.618-1628.23 238.86-1624.73 237.619-1625.51 234.455-1625.6 230.903-1625.56 227.776-1630.3 227.997-1634.95 227.769-1639.56 226.881-1638.84 232.001-1639.31 238.848-1638.97 244.047-1638.65 245.067-1639.78 245.876-1640.71 245.869-1641.2 245.893-1641.71 245.57-1641.78 245.059-1641.97 239.848-1641.41 232.043-1640.66 226.601-1641.08 226.504-1641.52 226.403-1641.9 226.198-1644.62 226.031-1644.05 221.634-1644.32 219.563-1645.05 209.676-1645.82 200.427-1646.87 189.805-1650.5 152.982-1656.1 114.843-1660.85 78.001-1661.71 77.657-1661.83 76.624-1661.97 75.821-1667.57 79.614-1669.83 86.224-1672.01 92.617-1675.39 101.863-1678.55 110.748-1681.3 120.311-1691.21 153.767-1697.45 190.402-1705.79 224.851-1705.69 224.872-1705.69 224.887-1705.8 224.876L-1705.8 224.879C-1705.17 224.939-1704.67 225.678-1705.06 226.239-1706.27 228.582-1709.35 227.724-1711.47 227.588-1711.27 231.144-1712.03 238.87-1711.55 242.017-1709.08 241.994-1708.75 244.896-1708.44 246.767-1708 249.791-1706.43 254.628-1707.59 257.393-1702.95 264.624-1718.95 267.787-1723.23 270.806L-1723.23 270.806C-1731.06 274.853-1740 278.838-1748.97 276.461-1756.72 274.907-1761.65 274.083-1759.31 264.71-1761.34 260.506-1757.58 257.304-1754.17 255.531L-1754.17 255.531C-1751.5 253.863-1748.88 252.019-1746.19 250.422L-1746.19 250.422C-1744.06 249.106-1741.87 247.75-1739.78 246.302-1739.51 246.112-1738.84 245.615-1738.79 245.571-1735.95 243.41-1736.16 239.406-1734.18 236.658-1733.39 234.998-1731.08 234.963-1729.49 235.078-1729.75 232.984-1729.13 229.672-1728.58 227.551-1728.26 226.618-1728.22 226.083-1727.73 225.831-1727.07 226.395-1727.23 228.085-1727.14 228.972-1727.15 230.643-1726.88 234.165-1727.31 235.578-1722.27 236.93-1720.51 242.348-1719.41 246.864-1719 246.978-1718.46 247.037-1718.26 247.431-1717.37 246.867-1716.76 245.983-1716.2 245.117L-1716.2 245.116C-1715.66 244.304-1715.1 243.464-1714.26 242.881-1714.76 242.491-1714.77 241.76-1714.53 241.224-1713.62 237.7-1713.3 231.094-1712.03 227.52-1717.73 226.668-1723.5 226.236-1729.08 224.687-1729.8 225.423-1731.35 225.047-1731.22 223.865-1730.8 217.034-1730.29 209.999-1729.71 202.955-1727.98 182.17-1725.63 161.385-1722.81 140.446-1719.89 115.532-1714.27 88.416-1710.58 63.123-1710.47 51.099-1710.59 39.258-1706.2 28.122-1706.58 27.956-1706.92 27.8-1707.24 27.647-1711.24 28.963-1708.64 20.619-1708.41 18.811L-1708.41 18.81C-1706.14 6.639-1703.54-5.111-1701.8-17.402-1708.14-19.442-1709.72-25.379-1711.44-31.928-1714.32-43.258-1716.29-61.57-1716.55-73.922-1717.03-87.181-1716.29-95.769-1702.06-99.119-1695.61-100.97-1687.86-102.962-1680.83-103.353-1680.58-103.566-1679.9-103.529-1679.76-103.325-1679.39-103.098-1678.98-102.657-1678.57-102.015-1671.24-103.007-1671.55-105.909-1669.29-109.263-1668.69-110.258-1666.42-110.922-1666.74-109.112-1667.11-108.283-1667.96-108.117-1668.29-107.123-1669.72-103.156-1674.22-100.724-1678.33-101.624-1677.62-100.295-1677.01-98.967-1676.42-97.683L-1676.42-97.681C-1674.3-92.655-1671.31-87.665-1666.49-84.785-1656.78-78.316-1644.2-81.486-1642.9-94.224-1647.21-95.604-1649.28-103.392-1646.76-106.85-1646-103.254-1645.46-99.283-1642.72-96.596-1642.64-96.574-1642.56-96.563-1642.48-96.565-1642.25-97.331-1642.3-98.101-1641.69-98.585-1641.02-99.065-1639.91-98.575-1639.99-97.7-1615.46-89.378-1616.12-87.771-1606.91-64.173-1604.87-58.66-1602.87-52.653-1600.8-45.808-1600.44-43.328-1597.73-38.635-1600.01-37.355-1599.44-31.769-1601.09-26.164-1603.72-21.27L-1603.72-21.27C-1604.42-19.861-1605.24-18.248-1606.82-17.691-1609.2-14.948-1612.29-14.461-1616.01-14.16-1611.28-1.426-1605.98 19.135-1609.78 32.094-1609.91 33.989-1613.02 34.197-1614.36 34.692L-1614.36 34.692C-1614.72 34.781-1615.03 34.858-1615.24 34.922-1613.39 47.383-1615.81 59.672-1616.23 71.887-1617.81 97.329-1618.52 122.773-1618.16 148.15-1617.89 167.272-1617.01 186.345-1615.44 205.308-1615.16 208.916-1614.82 212.898-1614.47 216.688-1614.26 219.088-1614.06 221.651-1614.12 224.268-1614.11 225.057-1614.83 225.697-1615.6 225.726-1617.93 227.248-1621.43 227.332-1624.2 227.684-1623.64 230.639-1623.55 234.097-1622.54 237.005-1620.87 236.461-1619.48 238.27-1621.35 239.195-1619.13 240.426-1617.96 242.803-1616.16 244.497-1614.61 243.946-1613.52 243.533-1612.21 244.033-1610.93 245.139-1613.21 246.023-1614.34 246.171-1613.23 247.087-1612.07 247.942-1610.88 248.734-1609.83 248.581-1608.56 248.089-1607.5 248.094-1605.05 248.236-1605.77 250.454-1608.11 250.511-1607.21 251.08-1606.32 251.633-1605.42 252.197-1604.31 251.833-1603 250.565-1601.85 251.356-1600.96 252.402-1602.35 253.433-1603.49 253.407-1601.99 254.573-1599.71 253.88-1598.62 255.593-1594.91 257.094-1593.05 261.604-1593.94 265.389-1591.01 267.831-1590.38 273.287-1594.89 274.293-1598.67 275.338-1603.4 277.405-1607.63 277.652ZM-1644.6 258.807C-1647.15 265.366-1637.14 266.731-1633.16 268.875-1624.74 272.099-1616.24 274.324-1607.28 274.898-1605.46 274.458-1603.61 273.862-1601.83 273.286-1601.82 273.286-1601.82 273.286-1601.82 273.286-1599.66 272.432-1596.86 272.006-1594.79 271.148-1594.48 270.883-1594.37 270.473-1594.42 269.821-1594.31 268.68-1594.22 267.525-1594.29 266.379-1595.58 269.267-1598.86 270.544-1601.78 271.121-1608.22 273.71-1614.69 270.144-1621.15 268.767L-1621.15 268.767C-1628.64 266.384-1638.65 264.687-1644.6 258.807ZM-1758.52 266.2-1758.52 266.2C-1757.94 270.733-1757.94 272.297-1753.06 272.994-1744.64 275.74-1737.18 274.912-1728.74 270.349-1723.1 267.609-1717.15 265.479-1711.65 262.482-1710.54 261.698-1709.22 260.331-1709.83 258.871-1711.23 259.305-1712.73 259.859-1714.22 259.47-1720.05 261.448-1726.17 263.787-1734.06 267.055-1741.55 270.685-1752.61 274.109-1758.52 266.2ZM-1748.69 268.287C-1744.45 268.36-1740.38 266.693-1736.56 265.051-1732.85 263.403-1731.33 263.166-1726.75 261.148-1723.3 259.732-1716.96 256.84-1713.91 256.721-1713.41 256.721-1713.08 256.832-1712.93 257.051-1712.08 256.638-1710.91 256.5-1710.27 255.813-1710.18 252.455-1710.81 248.933-1711.53 245.582L-1711.53 245.581C-1711.65 245.214-1711.73 244.835-1711.77 244.45-1714.21 245.396-1715.25 248.972-1718.26 248.555-1719 249.456-1720.32 248.927-1721.07 248.342-1722.4 246.888-1722.09 244.713-1722.84 242.87-1723.95 238.164-1729.29 235.175-1733.88 236.654-1734.24 239.776-1733.31 243.307-1735.3 246.022-1733.42 246.352-1731.58 246.73-1730.03 247.056-1729.05 247.307-1725.72 247.567-1727.07 249.203-1727.76 249.531-1728.56 249.198-1729.24 249.018-1731.77 248.272-1733.89 247.628-1736.01 246.908-1737.21 248.229-1738.84 249.269-1740.3 250.206L-1740.3 250.206C-1737.87 250.486-1735.4 250.712-1732.98 251.208-1732.4 251.331-1732.13 252.115-1732.59 252.523-1733.32 253.003-1734.29 252.291-1735.06 252.207L-1735.06 252.207C-1737.05 251.674-1739.09 251.123-1741.14 250.746-1742.46 251.615-1743.74 252.473-1745.06 253.342-1742.46 253.717-1739.91 253.747-1737.31 253.968-1736.46 254.047-1736.04 254.688-1736.06 255.281-1736.25 257.918-1745.11 254.317-1746.2 254.092-1749.26 256.357-1753.33 258.245-1756.25 260.858-1758.64 265.058-1752.23 268.373-1748.69 268.287ZM-1705.48 26.737C-1705.37 26.74-1705.28 26.79-1705.22 26.873-1674.95 36.134-1646.55 38.472-1616.49 32.145-1616.54 31.764-1615.92 31.649-1615.82 32.021-1614.87 31.854-1613.88 31.666-1612.92 31.541-1613.12 29.874-1612.04 28.209-1612.03 26.489-1611.49 22.304-1611.94 17.987-1612.37 13.845-1613.07 4.916-1615.08-5.09-1616.68-14.143-1623.94-14.474-1631.04-15.648-1638.34-15.504-1639.15-13.465-1641.77-11.882-1643.86-12.99-1645.33-13.788-1645.77-15.514-1646.36-16.955-1647.54-19.806-1648.75-22.67-1649.92-25.44-1654.97-24.174-1658.69-23.613-1662.88-23.851-1663.72-20.93-1662.99-15.033-1666.18-13.526-1667.22-13.157-1668.66-13.422-1669.17-14.484-1675.33-14.596-1681.42-15.138-1687.54-15.502-1692.15-15.863-1696.87-15.845-1701.33-17.244-1699.28-2.962-1705.67 12.189-1706.54 26.415L-1706.57 26.396C-1706.57 26.418-1706.57 26.44-1706.57 26.462-1706.27 26.548-1705.96 26.643-1705.58 26.761-1705.55 26.744-1705.51 26.736-1705.48 26.737ZM-1680.53-103.086-1680.53-103.086C-1688.17-100.831-1695.82-99.263-1703.41-96.757-1709.28-95.464-1714.12-91.05-1714.18-84.595-1714.65-69.922-1713.27-56.948-1710.76-41.768-1709.41-34.84-1708.19-27.487-1705.66-20.926-1696.45-17.251-1686.44-18.736-1676.6-17.59-1676.6-17.591-1672.06-17.297-1672.06-17.297-1670.36-17.301-1668.83-17.277-1667.53-16.198-1666.93-15.466-1666.6-16.254-1666.48-16.897-1665.8-19.865-1665.13-22.84-1664.45-25.803L-1664.45-25.806C-1663.97-28.05-1663.47-30.37-1662.55-32.508-1664.78-33.933-1666.6-35.407-1668.09-37.012-1673.36-38.868-1678.72-40.786-1684.41-41.939-1684.48-41.296-1685.07-40.782-1685.71-40.775-1687.75-41.068-1687.68-48.378-1688.43-50.306-1689.92-59.13-1691.68-67.823-1692.73-76.784-1690.78-71.337-1689.58-65.657-1688.35-60.007-1688.35-60.006-1688.35-60.002-1688.35-60.001-1687.68-56.922-1686.99-53.739-1686.23-50.757-1686.14-50.821-1685.98-50.771-1685.99-50.643-1677.4-53.987-1667.95-53.142-1659.65-49.383-1658.3-48.915-1656.96-48.271-1655.59-47.826-1655-47.665-1654.39-47.497-1654.25-46.967-1654.04-47.5-1653.71-47.977-1653.29-48.359-1653.2-48.575-1651.77-49.136-1651.54-48.574-1648.36-48.137-1645.16-47.338-1642.06-46.566L-1642.06-46.566C-1636.71-45.226-1631.15-43.858-1625.62-44.266-1626.69-48.266-1626.59-52.526-1626.6-56.661-1626.44-60.258-1626.27-65.503-1624.96-68.614-1625.78-60.127-1625.27-53.341-1624.16-44.403-1618.3-45.268-1620.51-41.732-1624.72-41.759-1631.64-41.237-1638.35-43.659-1644.71-46.065L-1644.71-46.065C-1648.68-47.203-1654.33-51.41-1653.43-43.832-1653.42-38.59-1651.05-33.818-1648.9-29.165-1647-24.893-1645.16-20.758-1643.19-16.137-1636.23-18.412-1628.79-17.149-1621.65-16.744-1616.9-15.994-1611.8-16.473-1607.85-19.422-1603.98-25.302-1601.81-32.052-1601.6-39.086-1605.3-52.581-1608.82-63.996-1613.87-75.615-1615.67-79.805-1617.39-84.261-1621.02-87.2-1626.83-91.485-1633.91-93.348-1640.02-97.156-1641.12-82.305-1652.71-74.745-1665.99-82.108-1672.65-85.674-1677.14-93.201-1679.01-100.516L-1679.01-100.517C-1679.24-101.303-1679.71-103.027-1680.53-103.086L-1680.53-103.086ZM-1661.91-32.106C-1661.92-29.768-1662.37-27.502-1662.68-25.211-1659.12-25.915-1655.6-26.399-1652.06-27.357-1655.56-28.688-1658.75-30.186-1661.91-32.106ZM-1684.34-42.634C-1683.79-42.67-1665.96-40.263-1667.09-37.142-1661.98-34.255-1657.08-30.988-1651.47-29.114-1653.82-34.24-1656.3-40.789-1654.39-46.588-1656.52-45.823-1658.73-46.951-1660.68-47.743L-1660.68-47.743C-1668.85-51.524-1677.31-52.108-1686.15-50.4-1685.59-47.787-1684.96-45.256-1684.42-42.631-1684.4-42.633-1684.37-42.634-1684.34-42.634ZM-1697.29-59.196C-1699.06-59.805-1701.52-64.354-1702.8-65.585-1704.4-67.645-1706.31-69.389-1707.92-71.446-1707.59-72.245-1705.41-70.01-1704.93-69.698-1701.84-67.047-1698.52-63.663-1696.93-60.047-1696.94-59.566-1696.93-59.25-1697.29-59.196ZM-1624.92-63.127C-1625.24-63.622-1623.16-65.621-1622.56-65.432-1622.22-65.496-1621.92-64.964-1622.3-64.813-1623.22-64.407-1624.27-64.05-1624.83-63.146-1624.86-63.135-1624.89-63.129-1624.92-63.127Z" id="_Ink-5_3_" class="MsftOfcResponsive_Fill_000000"/></g></svg>