<svg viewBox="0 0 178 400" xmlns="http://www.w3.org/2000/svg" xmlns:xlink="http://www.w3.org/1999/xlink" id="ce6ade0f-40f3-4c1b-9939-032a61fa6695" overflow="hidden"><style>
.MsftOfcResponsive_Fill_000000 {
 fill:#000000; 
}
</style>
<g id="pose_standing_crossed_arms-2_1_" transform="translate(1765 2737)"><path d="M-1592.4-2348.19C-1592.03-2349.69-1592.63-2351.64-1592.98-2353.59-1593.52-2356.62-1594.8-2361.02-1597.24-2362.4-1597.68-2363.54-1612.3-2372.76-1618.56-2377.37-1621.77-2379.74-1621.79-2384.14-1622.44-2384.09-1623.68-2387.14-1623.73-2389.05-1624.49-2392.58-1621.66-2392.95-1617.57-2393.32-1615.34-2394.93-1614.94-2394.9-1615.45-2399.11-1615.39-2399.73-1615.94-2401.22-1617.2-2414.42-1618.24-2433.08-1619.31-2452.3-1619.03-2477.56-1619.09-2502.48-1619.15-2526.93-1617.31-2551.2-1615.94-2568.83-1615.5-2574.73-1614.62-2581.34-1615.74-2587.43-1613.9-2587.83-1612.54-2589.73-1612.54-2589.81-1608.13-2598.46-1614.89-2627.86-1619.12-2636-1615.76-2636.09-1607.99-2638.39-1605.34-2643.53-1603.1-2648.18-1601.59-2650.28-1601.85-2659.07-1601.78-2660.33-1602.01-2661.44-1602.39-2662.63-1606.24-2676.04-1610.87-2689.25-1616.99-2701.88-1620.06-2708.64-1626.01-2710.59-1632.59-2713.13-1635.76-2714.37-1643.44-2716.66-1643.64-2716.18-1647.31-2719.18-1645.95-2722.51-1646.29-2724.48-1646.66-2726.6-1648.53-2727.68-1650.92-2729.46-1655.68-2731.93-1658.51-2732.03-1663.76-2731.49-1665.7-2731.44-1667.25-2730.56-1667.71-2728.61-1669.37-2724.58-1670.09-2722.03-1678.19-2720.78-1678.55-2721.4-1679.85-2722.59-1680.39-2722.03-1686.54-2721.82-1697.43-2717.48-1703.19-2715.79-1708.97-2714.32-1708.89-2712.74-1710.4-2706.46-1713.15-2695.27-1712.63-2653.25-1705.47-2644.39-1705.47-2644.39-1701.58-2641.79-1699.63-2641.16-1699.67-2637.01-1698.98-2630.85-1699.63-2626.8-1701.09-2619.46-1702.87-2612.08-1704.5-2604.7-1704.51-2603.88-1705.87-2592.36-1705.19-2592.07-1708.44-2584.68-1708.39-2576.77-1708.79-2566.68-1708.74-2561.23-1708.32-2554.95-1709.54-2549.38-1718.57-2502.16-1725.56-2448.61-1728.91-2401.31-1729.05-2399.38-1729.14-2397.9-1729.2-2396.52-1729.27-2396.05-1728.18-2395.59-1727.94-2395.82-1727.94-2395.82-1726.83-2393.2-1727.05-2391.69-1727.22-2390.34-1729.42-2384.44-1728.91-2383.12-1730.58-2383.21-1733.72-2380.47-1735.22-2377.5-1735.99-2376.81-1735.7-2375.6-1736.27-2374.54-1737.41-2373.44-1749.31-2366.53-1749.31-2366.53-1752.23-2364.19-1760.81-2360.25-1760.04-2358.38-1760.04-2358.38-1760.21-2355.62-1760.24-2355.43-1761.85-2346.06-1758.57-2346.65-1749.89-2345.27-1737.22-2343.04-1725.31-2348.87-1714.61-2354.61-1711.05-2357.01-1707.58-2356.38-1707.97-2359.27-1708.67-2362.85-1708.8-2375.66-1712.86-2375.38-1712.19-2376.11-1711.74-2380.87-1712.24-2382.12-1712.56-2385.36-1711.49-2389.23-1710.54-2392.98-1708.84-2392.85-1707.04-2395.12-1707.04-2395.12-1699.96-2420.09-1681.58-2534.77-1662.84-2543.57-1662.01-2544.51-1661.34-2544.75-1660.09-2544.57-1654.3-2499.36-1646.62-2455.6-1643.08-2407.24-1642.73-2405.81-1641.91-2395.8-1641.56-2394.15-1641.56-2394.15-1640.48-2393.25-1639.84-2393.07-1639.65-2387.97-1640.3-2377.32-1640.32-2377.31L-1640.34-2376.48C-1642.32-2372.02-1644.58-2366.19-1642.04-2361.82-1643.93-2361.96-1644.66-2360.15-1644.74-2358.48-1645.85-2351.15-1615.37-2343.29-1608.54-2342.88-1606.3-2342.49-1591.01-2346.78-1592.4-2348.19Z" id="_Skin-6_2_" fill="#FFFFFF"/><path d="M-1705.24-2592.32C-1677.42-2581.07-1646.27-2578.92-1615.24-2585.48-1616.4-2572.3-1616.23-2559.33-1617.04-2546.68-1620.4-2494.26-1621.62-2445.71-1615.53-2395.16-1622.67-2392.34-1632.03-2393.15-1640.29-2393.27-1640.29-2393.27-1640.75-2393.58-1641.19-2393.82-1641.57-2394.03-1641.78-2394.45-1641.72-2394.89-1641.51-2396.55-1641.99-2398.93-1642.29-2400.38-1642.4-2401.98-1644.26-2428.97-1647.74-2457.73-1651.84-2491.53-1657.65-2527.75-1657.65-2527.76-1657.96-2530.01-1659.33-2542.98-1660.59-2544.63-1670.53-2542.78-1679.33-2509.17-1681.26-2504.72-1686.06-2485.8-1705.52-2405.67-1707.99-2393.11-1714.17-2393.36-1727.54-2394.98-1727.54-2394.98-1727.91-2395.04-1728.9-2395.75-1729.25-2395.9-1725.45-2449.12-1718.58-2501.85-1709.24-2552.23-1708.55-2563.2-1709.16-2581.87-1705.24-2592.32Z" id="_Pants-3_2_" fill="#FFFFFF"/><path d="M-1606.12-2343.2C-1613.46-2343.98-1619.86-2345.5-1627.29-2347.65-1631.92-2349.08-1636.54-2351.72-1639.48-2352.94-1641.14-2353.69-1644.15-2354.77-1644.99-2356.21-1644.78-2357.74-1645.35-2361.17-1643.17-2361.38-1645.76-2365.8-1640.85-2374.73-1640.85-2374.73-1640.74-2374.85-1639.12-2371.81-1637.11-2371.98-1633.4-2371.85-1631.18-2377.35-1628.54-2378.88-1628.54-2378.88-1620.44-2383.18-1620.44-2383.18-1619.84-2383.31-1619.46-2382.45-1618.63-2381.19-1617.39-2378.76-1613.89-2374.59-1610.32-2372.53L-1610.32-2372.53C-1608.06-2370.95-1605.44-2369.37-1603.37-2367.88-1603.2-2367.75-1603.13-2366.82-1602.97-2366.7-1599.96-2364.5-1598.57-2363.65-1597.63-2363-1594.25-2361.34-1592-2357.6-1593.17-2353.85-1592.09-2352.63-1590.9-2347.56-1593.69-2346.62-1597.19-2345.73-1602.73-2343.32-1606.12-2343.2ZM-1743.89-2344.66C-1747.96-2344.68-1753.32-2345.57-1757-2346.46-1762.21-2347.81-1760.68-2352.73-1760.22-2357.03-1759.42-2360.83-1753.85-2365.04-1748.18-2368.77-1745.34-2370.63-1742.23-2372.22-1739.92-2373.73-1738.61-2374.57-1739.18-2374.75-1738.17-2374.85-1736.96-2374.97-1734.72-2378.62-1733.83-2379.42-1733.37-2380.33-1733.01-2381.3-1732.77-2382.29-1732.51-2383.25-1732.16-2382.83-1731.34-2383.02-1728.72-2382.34-1725.74-2381.56-1724.35-2379.24-1723.91-2377.64-1723.46-2375.92-1722.86-2374.36-1722.53-2373.57-1721.98-2372.08-1721.08-2371.99-1720.01-2371.87-1718.52-2370.88-1717.33-2370.93-1716.79-2370.91-1716.26-2371.13-1715.88-2371.52-1714.57-2372.72-1713.5-2373.54-1712.7-2373.96-1711.52-2373.98-1710.16-2373.36-1710.93-2371.91-1710.52-2369.25-1710.72-2367.09-1710.78-2365.48-1710.22-2363.51-1707.52-2360.32-1708.45-2358.51-1709.42-2356.61-1712.54-2355.4-1714.63-2354.54L-1714.63-2354.54C-1724.37-2349.86-1732.97-2344.52-1743.89-2344.66Z" id="_Shoes-6_2_" fill="#FFFFFF"/><g><path d="M-1606.3-2341.75C-1616.59-2342.44-1626.69-2345.38-1636.12-2349.49-1638.96-2350.75-1641.71-2352.21-1644.33-2353.88-1646.79-2355.65-1646.99-2360.27-1643.84-2361.46-1645.73-2365.22-1644.21-2369.79-1643.06-2373.61-1642.6-2374.81-1642.08-2376.38-1641.49-2376.17L-1641.35-2376.22C-1641.41-2376.34-1641.59-2376.96-1641.26-2376.71-1640.63-2375.25-1638.97-2374.27-1637.41-2374.22-1635.35-2374.25-1634.02-2376.03-1632.8-2377.49-1630.59-2380.52-1627.02-2382.15-1623.57-2383.34-1624.63-2385.97-1625.26-2388.82-1625.06-2391.66-1629.8-2391.45-1634.44-2391.67-1639.05-2392.56-1638.31-2387.81-1637.98-2382.29-1637.91-2377.1-1637.39-2375.58-1640.33-2374.47-1640.73-2376.13-1641-2378.59-1640.6-2381.11-1640.56-2383.59-1640.58-2386.43-1640.73-2390.1-1640.13-2392.84-1640.56-2392.93-1640.98-2393.05-1641.37-2393.24-1644.58-2393.32-1643.4-2400.43-1644.01-2402.51-1647.67-2448.3-1653.66-2495.93-1660.79-2541.55L-1660.79-2541.55C-1660.79-2541.57-1660.81-2541.62-1660.81-2541.64-1661.21-2542.1-1661.32-2542.83-1661.42-2543.47-1667.02-2539.68-1669.28-2533.07-1671.46-2526.68-1673.49-2520.87-1675.58-2515.65-1677.42-2509.73-1685.34-2485.44-1690.98-2459.33-1696.48-2433.61L-1696.48-2433.61C-1699.22-2420.79-1702.06-2407.53-1705.2-2394.59-1705.07-2394.56-1705.12-2394.56-1705.2-2394.56-1705.2-2394.56-1705.2-2394.56-1705.2-2394.56-1703.95-2394.35-1704.28-2393.02-1705.04-2392.41-1706.47-2391.2-1708.53-2391.68-1710.22-2391.78-1710.46-2388.05-1711.46-2382.75-1711.18-2379.11-1710.95-2378.47-1710.96-2377.59-1711.61-2377.2-1709.28-2377.2-1708.84-2374.5-1708.56-2372.7-1708.16-2369.72-1706.53-2364.84-1707.76-2362.13-1704.71-2357.95-1710.42-2354.7-1713.86-2353.55L-1713.86-2353.55C-1723.84-2349.8-1733.37-2343.29-1744.35-2343.15-1746.82-2343.11-1749.26-2343.6-1751.64-2344.17-1760.19-2345.71-1762.98-2347.64-1760.97-2355.5-1762.48-2358.65-1760.6-2361.82-1757.6-2363.2L-1757.6-2363.2C-1754.44-2365.15-1751.22-2367.07-1748.06-2368.94-1745.81-2368.45-1743.19-2367.85-1740.71-2366.95-1737.67-2367.64-1747.54-2369.63-1747.04-2369.54-1745.93-2370.2-1744.87-2370.84-1743.73-2371.48-1741.13-2370.99-1738.61-2370.03-1736.28-2369.06-1733.93-2369.91-1742.55-2372.04-1742.66-2372.09-1741.7-2372.61-1740.78-2373.2-1739.9-2373.85-1739.95-2373.88-1739.97-2373.95-1739.93-2373.99-1738.86-2373.79-1737.75-2373.53-1736.43-2373.16L-1736.43-2373.16C-1735.15-2372.83-1733.94-2372.39-1732.67-2372.08-1732.48-2372.07-1732.3-2372.2-1732.25-2372.39-1732.21-2372.56-1732.3-2372.75-1732.46-2372.82-1734.25-2373.39-1736.61-2374.11-1739-2374.63-1737.8-2375.79-1737.21-2377.38-1736.69-2378.93L-1736.69-2378.93C-1736.24-2380.22-1735.79-2381.55-1734.9-2382.67-1734.03-2384.33-1731.64-2384.29-1730.01-2384.16-1730.31-2385.11-1729.65-2387.13-1729.07-2388.91-1728.27-2391.07-1728.18-2392.56-1728.15-2394.67-1728.25-2394.7-1728.36-2394.73-1728.46-2394.76-1729.18-2394.03-1730.74-2394.4-1730.61-2395.58-1730.19-2402.4-1729.68-2409.43-1729.09-2416.47-1727.37-2437.23-1725.02-2458-1722.2-2478.91-1719.29-2503.81-1713.68-2530.89-1709.99-2556.16-1709.94-2562.69-1709.9-2570.48-1709.11-2576.68-1709.02-2581.86-1708.89-2586.64-1706.3-2591.43-1706.41-2591.49-1706.53-2591.54-1706.65-2591.6-1710.61-2590.2-1708.07-2598.68-1707.82-2600.43L-1707.82-2600.43C-1705.55-2612.58-1702.96-2624.32-1701.21-2636.6-1707.55-2638.63-1709.12-2644.57-1710.84-2651.11-1713.73-2662.43-1715.69-2680.72-1715.95-2693.06-1715.85-2701.25-1717.03-2709.67-1709.98-2714.55-1707.44-2716.36-1704.48-2717.49-1701.47-2718.23-1695.06-2720.1-1686.79-2722.14-1680.27-2722.46-1679.25-2722.97-1678.67-2722.04-1678.01-2721.13-1672.09-2721.81-1670.8-2724.46-1669.76-2726.59-1669.17-2727.86-1668.49-2729.12-1667.05-2729.4-1666.41-2729.46-1665.99-2728.76-1666.19-2728.19-1666.59-2727.38-1667.41-2727.21-1667.73-2726.22-1669.17-2722.26-1673.66-2719.83-1677.76-2720.73-1674.72-2714.53-1672.24-2707.57-1665.94-2703.91-1656.24-2697.45-1643.67-2700.61-1642.37-2713.34-1646.59-2714.54-1648.77-2722.69-1646.22-2725.95-1645.58-2722.94-1645.13-2719.71-1643.38-2717.14-1642.77-2717.7-1641.87-2717.99-1641.06-2717.76L-1641.06-2717.76-1641.05-2717.76C-1640.37-2718.13-1639.39-2717.63-1639.47-2716.81-1614.55-2708.17-1615.95-2707.33-1606.42-2683.32-1604.39-2677.82-1602.39-2671.82-1600.32-2664.97-1599.95-2662.58-1597.26-2657.67-1599.53-2656.53-1598.98-2651.42-1600.38-2646.29-1602.57-2641.7-1603.58-2639.99-1604.27-2637.63-1606.33-2636.89-1608.7-2634.14-1611.79-2633.66-1615.51-2633.36-1610.85-2621.05-1605.46-2599.61-1609.29-2587.15-1609.36-2585.14-1613.34-2584.87-1614.74-2584.32-1612.89-2571.88-1615.31-2559.6-1615.73-2547.4-1617.31-2521.98-1618.02-2496.57-1617.66-2471.21-1617.39-2452.11-1616.51-2433.06-1614.94-2414.11-1614.67-2410.73-1614.38-2407.28-1614.07-2403.86-1613.82-2401.03-1613.56-2398.09-1613.62-2395.18-1613.61-2394.39-1614.33-2393.75-1615.1-2393.72-1617.43-2392.2-1620.92-2392.11-1623.69-2391.76-1623.3-2389.06-1622.57-2386.38-1621.35-2383.93-1620.71-2384.05-1619.87-2383.97-1619.46-2383.54-1618.84-2383.4-1618.6-2382.68-1618.68-2382.11-1618.25-2381.09-1617.12-2380.15-1617.27-2379.02-1616.69-2378.33-1616.1-2377.62-1615.47-2376.93-1617.5-2376.25-1619.64-2375.44-1622.2-2374.36-1622.42-2374.28-1622.55-2374.06-1622.51-2373.83-1622.48-2373.65-1622.33-2373.52-1622.15-2373.52-1620.5-2374.11-1618.99-2374.82-1617.64-2375.28L-1617.64-2375.28-1617.64-2375.28C-1615.49-2375.84-1613.4-2377.33-1611.1-2376.89-1609.55-2375.8-1612.04-2374.69-1613.12-2374.68-1612.05-2373.79-1610.94-2372.95-1609.79-2372.18-1610.51-2372.01-1617.61-2370.01-1615.31-2369.19-1612.23-2370.95-1608.6-2371.64-1605.14-2372.41-1603.81-2371.33-1605.72-2370.21-1606.86-2370.26-1606.11-2369.78-1605.38-2369.32-1604.63-2368.85-1605.14-2368.6-1605.67-2368.38-1606.21-2368.2L-1606.21-2368.2C-1607.45-2367.73-1608.85-2367.21-1609.12-2366.69-1609-2365.91-1608.22-2366.42-1607.73-2366.65-1605.33-2367.71-1602.99-2368.69-1600.65-2369.41-1599.51-2368.29-1601.16-2367.31-1602.21-2367.31-1600.59-2366.09-1598.45-2365.45-1597.32-2363.67-1593.62-2362.14-1591.72-2357.63-1592.63-2353.83-1589.69-2351.38-1589.04-2345.91-1593.59-2344.95-1597.4-2343.95-1602.01-2342.01-1606.3-2341.75ZM-1643.59-2361.04C-1646.2-2354.56-1636.02-2353-1632.08-2350.84-1623.6-2347.51-1615.05-2345.18-1606.07-2344.5-1604.23-2344.92-1602.37-2345.49-1600.57-2346.04L-1600.57-2346.04C-1598.78-2346.6-1596.93-2347.16-1595.09-2347.59-1593.82-2347.79-1592.98-2347.95-1593.12-2349.41-1593.02-2350.54-1592.9-2351.69-1592.98-2352.84-1594.09-2350.05-1598.13-2348.55-1600.53-2348.2-1607.03-2345.7-1613.5-2349.34-1619.98-2350.79-1627.52-2353.26-1637.6-2355.08-1643.59-2361.04ZM-1760.17-2354.03-1760.17-2354.03C-1759.77-2352.29-1759.95-2350.05-1758.89-2348.94-1756.38-2347.19-1752.57-2346.88-1749.59-2346.11-1737.03-2343.89-1727.37-2351.34-1715.61-2355.5L-1715.61-2355.5C-1713.31-2356.39-1709.38-2357.75-1710.08-2360.71-1711.59-2360.27-1713.09-2359.78-1714.6-2360.17-1722.26-2357.78-1729.55-2355.06-1735.05-2352.95-1742.67-2349.39-1754.63-2346.41-1760.17-2354.03L-1760.17-2354.03ZM-1726.59-2394.27C-1725.86-2392.37-1726.69-2388.85-1727.23-2386.65L-1727.23-2386.65C-1727.36-2386.07-1727.48-2385.58-1727.56-2385.17-1727.54-2384.66-1727.51-2384.08-1727.85-2383.66-1722.83-2382.39-1720.89-2377.06-1719.81-2372.55-1719.4-2372.43-1718.84-2372.37-1718.64-2371.98-1717.71-2372.55-1717.07-2373.42-1716.45-2374.27L-1716.45-2374.27C-1715.62-2375.46-1714.6-2376.68-1713.13-2377.03-1714.01-2377.21-1714.56-2378.25-1714.09-2379.04-1713.62-2380.7-1713.18-2382.91-1712.7-2385.25L-1712.7-2385.25C-1712.23-2387.58-1711.75-2389.99-1711.22-2391.9-1716.37-2392.65-1721.49-2393.11-1726.59-2394.27L-1726.59-2394.27ZM-1639.61-2393.96-1639.61-2393.96C-1639.49-2393.96-1639.39-2393.88-1639.34-2393.77-1631.71-2393.66-1624.12-2393.46-1616.79-2395.94-1624.33-2459.16-1621.52-2519.91-1615.94-2584.06-1645.43-2578.11-1676.83-2579.77-1704.91-2590.82-1708.85-2577.91-1707.22-2564.13-1708.27-2550.81-1717.82-2499.95-1724.25-2448.42-1727.99-2396.64-1727.48-2396.37-1727.15-2395.87-1726.92-2395.36-1720.86-2395.51-1714.93-2394.64-1708.91-2394.35-1700.37-2432.03-1693.35-2470.87-1681.63-2507.53L-1681.63-2507.53C-1678.49-2517.9-1675.27-2528.63-1669.69-2538.01-1667.16-2543.35-1660.6-2548.18-1654.74-2545-1654.6-2544.93-1654.68-2544.73-1654.82-2544.73-1655.86-2544.89-1656.93-2544.85-1657.97-2544.66-1658.41-2544.21-1658.97-2543.85-1659.13-2543.21-1658.8-2542.89-1658.7-2542.4-1658.85-2541.98-1658.19-2538.98-1657.58-2535.85-1657.56-2532.79-1656.81-2528.77-1656.21-2524.42-1655.28-2520.38L-1655.28-2520.38C-1655.06-2518.81-1654.29-2516.99-1654.5-2515.44-1648.77-2484.96-1643.78-2439.08-1641.18-2409.01-1640.82-2404.76-1640.55-2401.22-1640.31-2397.87-1640.09-2396.53-1640.18-2395.15-1640.58-2393.85-1640.33-2393.84-1640.1-2393.82-1639.87-2393.8-1639.82-2393.9-1639.72-2393.96-1639.61-2393.96L-1639.61-2393.96ZM-1661.36-2651.28C-1661.38-2648.95-1661.83-2646.68-1662.14-2644.39-1661.03-2644.61-1659.91-2644.81-1658.82-2645.01L-1658.82-2645.01C-1656.42-2645.44-1653.94-2645.88-1651.53-2646.54-1655.02-2647.86-1658.21-2649.36-1661.36-2651.28L-1661.36-2651.28-1661.36-2651.28ZM-1683.79-2661.8C-1683.33-2661.87-1665.3-2659.38-1666.54-2656.31-1665.44-2655.69-1664.32-2655.03-1663.24-2654.4L-1663.24-2654.4C-1659.35-2652.11-1655.19-2649.7-1650.94-2648.29-1653.31-2653.27-1655.75-2660.44-1653.86-2665.75-1655.98-2665-1658.17-2666.1-1660.11-2666.89-1663.07-2668.15-1665.96-2669.22-1669.12-2669.81-1674.57-2670.98-1680.18-2670.47-1685.58-2669.56-1685.02-2666.95-1684.4-2664.42-1683.85-2661.8-1683.83-2661.8-1683.81-2661.8-1683.79-2661.8Z" id="_Ink-6_2_" class="MsftOfcResponsive_Fill_000000"/><path d="M-1645.89-2666.85-1645.89-2666.85-1646.07-2666.5C-1638.77-2664.88-1631.79-2660.42-1624.06-2661.21-1622.94-2661.25-1620.72-2661.57-1620.69-2662.96-1622.25-2664.13-1624.57-2662.93-1626.4-2663.18-1630.34-2663.17-1634.32-2664.16-1638.16-2665.11L-1638.16-2665.11C-1640.67-2665.73-1643.26-2666.38-1645.81-2666.73-1645.82-2666.78-1645.85-2666.82-1645.89-2666.85L-1645.89-2666.85Z" id="_Ink-6_1_" fill="#FFFFFF"/></g></g></svg>