<svg viewBox="0 0 158 432" xmlns="http://www.w3.org/2000/svg" xmlns:xlink="http://www.w3.org/1999/xlink" id="26446405-a3b5-4d7a-a414-39bba7b0e4ed" overflow="hidden"><style>
.MsftOfcResponsive_Fill_000000 {
 fill:#000000; 
}
</style>
<g><path d="M69.158 15.076C69.158 15.076 90.424 19.414 93.65 26.988L99.073 31.589C100.501 32.632 100.439 33.568 100.045 35.292L99.334 38.696 107.865 43.735C107.865 43.735 123.261 52.476 125.548 59.324 127.584 65.422 128.231 82.796 128.583 90.428 129.069 100.972 131.083 113.506 131.666 115.935 132.249 118.364 135.456 128.298 135.456 128.298L138.231 138.467C138.318 138.787 138.04 139.088 137.714 139.027L136.769 138.769C136.546 138.708 136.432 138.834 136.517 139.05L137.048 140.4C137.827 142.197 137.983 143.91 138.196 145.856L138.832 155.207 142.568 187.388 143.657 207.609 145.31 214.11C145.31 214.11 149.641 231.121 129.256 238.866 128.624 239.106 127.396 238.011 127.723 237.419L130.24 234.559C130.24 234.559 125.704 233.39 131.538 229.751 131.538 229.751 130.378 227.058 133.184 226.31 133.184 226.31 131.725 223.393 137.149 222.831L137.486 221.26C137.611 219.261 137.052 217.124 135.99 215.425L134.71 213.868C134.373 213.329 133.57 213.389 133.317 213.972L129.539 222.69C129.539 222.69 128.328 225.597 126.43 225.599 125.436 225.6 124.739 224.609 125.019 223.655L126.62 218.204 127.611 213.179C127.814 211.729 127.586 210.118 127.467 208.659L126.863 203.379C126.863 201.777 127.724 200.32 128.92 199.253L131.241 197.302C132.996 195.887 133.316 193.463 132.474 191.373 132.474 191.373 122.916 167.277 121.739 164.405 119.168 158.127 117.475 151.837 117.475 151.837L115.044 154.754 116.552 165.518 117.344 175.283C117.4 178.842 116.638 180.418 116.69 180.862L120.05 204.714C120.05 204.714 121.126 219.316 120.741 229.245 120.356 239.174 118.868 248.665 116.904 263.813L115.53 286.321 115.957 336.584 115.291 364.252 118.318 365.737C118.701 365.992 119.456 366.684 119.346 367.131 119.346 367.131 119.047 370.123 118.336 372.929 117.625 375.734 116.634 376.785 116.728 377.455 116.822 378.125 122.6 383.851 122.6 383.851 122.6 383.851 130.548 391.126 135.878 391.406 141.208 391.687 148.109 391.817 150.404 395.739 151.819 398.157 151.857 403.424 151.999 406.159 152.054 407.225 150.544 408.719 149.493 408.911L135.392 411.23C130.006 412.128 124.706 411.633 122.493 411.232L94.655 406.195C94.655 406.195 84.45 405.44 89.274 396.044L91.556 376.258 90.958 376.146C89.542 375.526 89.511 374.843 89.13 373.345L87.928 368.61C87.662 367.562 88.047 366.457 88.907 365.802L90.435 364.638 90.435 364.638C90.994 360.445 91.058 356.2 90.626 351.992L89.497 341.002 87.805 326.3C87.035 321.575 86.756 316.783 86.974 312.001L87.489 300.679C87.489 300.679 88.265 291.241 86.769 279.496 85.6 270.318 82.159 247.66 82.159 247.66L79.445 235.252C79.243 234.328 77.964 234.232 77.625 235.114L68.539 258.796C68.309 259.45 64.408 273.526 64.252 274.201L58.886 297.517C58.682 298.402 55.938 309.373 53.63 314.205 51.236 319.217 49.057 330.554 49.057 330.554L43.007 369.637 43.893 370.568C44.353 370.64 44.664 371.075 44.582 371.534 44.582 371.534 44.354 375.921 43.755 377.866 43.156 379.811 41.913 380.84 40.606 381.224L37.732 382.067 40.501 393.672C40.501 393.672 42.324 401.948 39.239 404.472 39.239 404.472 44.279 411.379 44.569 416.815 44.685 418.989 45.102 427.687 27.317 426.914 27.097 426.984 10.952 427.876 13.01 415.132 13.01 415.132 13.846 410.087 13.833 407.04 13.827 405.591 15.928 395.969 16.152 394.323 17.073 387.572 17.779 382.03 17.779 382.03 17.779 382.03 13.609 381.905 13.711 373.193 13.711 373.193 13.599 368.692 17.386 369.674 17.386 369.674 19.761 360.099 19.78 354.039 19.799 347.98 20.023 335.244 20.64 329.016 21.257 322.788 24.736 305.059 26.475 299.505 27.732 295.492 33.825 272.793 34.947 267.75 36.069 262.707 36.434 250.464 36.434 250.464 36.434 250.464 35.003 236.095 34.891 225.778 34.779 215.461 36.494 200.135 36.494 200.135L41.203 168.971 42.914 160.982 45.719 152.454C45.719 152.454 43.755 149.705 43.419 148.246 43.082 146.787 43.082 145.16 43.082 145.16L37.247 141.457C35.483 140.157 34.606 137.802 34.386 135.622L32.219 115.36C32.151 114.724 31.287 114.585 31.023 115.168L28.937 119.771C28.707 120.203 28.336 120.808 27.879 120.979L21.034 123.56C21.034 123.56 10.598 126.87 7.344 110.375 7.344 110.375 3.95 102.436 9.7 94.161L11.495 86.98C11.495 86.98 13.683 81.931 15.039 78.063 19.077 66.542 25.185 52.532 25.185 52.532L31.076 41.704 32.535 40.919C32.535 40.919 31.693 37.384 29.954 34.691 28.213 32 22.776 18.41 26.81 18.535 27.376 18.552 28.463 19.114 28.83 19.545L29.584 20.87C29.886 21.283 30.54 21.05 30.512 20.539 30.349 17.554 30.162 11.601 31.1 9.434 31.335 8.892 32.124 8.788 32.627 9.091 33.805 9.802 33.861 10.282 34.123 10.269 34.385 10.256 34.032 8.332 34.721 6.921 35.126 6.092 36.679 6.051 37.077 6.884L37.283 7.146C37.93 8.5 38.316 9.901 38.424 11.391 38.577 13.502 38.61 16.557 38.761 18.685 38.87 20.229 39.237 23.322 39.752 24.782L40.871 26.819C41.073 27.263 42.036 27.461 41.903 25.627L41.903 25.627C41.903 25.627 41.4 21.817 41.361 17.844 41.329 14.662 41.327 11.438 41.791 9.746 42.078 8.702 43.111 8.859 43.699 9.559 44.24 10.203 44.348 11.356 44.348 11.356 44.348 11.356 46.056 20.499 46.336 23.997 46.616 27.495 47.813 31.125 47.813 31.125 48.281 33.572 48.639 32.944 50.413 32.637L56.809 31.029 57.707 30.393C58.754 26.166 61.076 27.138 61.076 27.138 63.34 21.489 65.913 19.719 68.768 19.719L69.158 15.076Z" fill="#FFFFFF"/><path d="M88.775 169.739C87.993 169.008 87.217 169.571 86.216 169.135 85.836 168.989 85.39 169.282 85.375 169.689 85.266 171.36 85.002 173.064 84.8 174.732 84.18 176.776 85.427 178.245 87.57 178.205 88.74 178.469 88.811 172.804 88.985 171.924 89.133 170.81 89.141 170.165 88.775 169.739Z" fill="#FFFFFF"/><g><path d="M43.272 415.161C37.224 421.899 26.555 423.281 18.221 419.267 16.68 418.552 15.139 417.692 14.303 416.257 12.037 414.403 12.886 421.89 15.388 423.37 20.399 428.434 39.773 428.217 43.105 421.802 43.664 420.724 44.399 415.729 43.272 415.161Z" fill="#FFFFFF"/><path d="M151.594 403.934C151.555 403.273 151.292 402.13 150.427 402.712 149.278 403.679 147.711 404.169 146.595 404.409 124.594 409.212 125.643 407.312 104.65 402.354 99.585 401.327 94.257 399.772 89.657 397.807 89.437 397.274 88.572 397.359 88.47 397.935 88.124 399.462 87.773 402.289 89.312 404.06 90.133 404.993 91.44 405.262 92.593 405.5 102.777 407.885 113.217 409.586 123.302 411.192 130.175 412.247 136.237 410.628 143.295 409.833 145.872 409.399 148.519 409.162 150.937 408.002 152.07 407.16 151.853 405.184 151.594 403.934Z" fill="#FFFFFF"/></g><g><path d="M39.518 404.313C41.005 401.732 41.145 399.656 41.145 397.973 41.145 396.52 40.095 393.631 39.411 390.246 38.778 387.814 38.079 385.32 37.935 382.8 37.922 382.441 37.568 382.151 37.213 382.212 36.205 382.415 35.068 382.389 34.049 382.671 29.808 383.074 19.232 382.398 18.247 382.083 17.897 382.007 17.532 382.272 17.498 382.629 16.834 388.256 16.813 393.957 15.174 399.448 14.821 401.045 14.762 402.717 14.292 404.252 14.216 404.502 13.654 411.926 13.432 413.816 13.722 415.763 14.995 417.328 16.731 418.266 21.651 421.103 29.036 421.947 34.723 420.301 38.698 419.07 42.177 416.791 43.333 413.365 42.903 411.574 42.428 409.807 41.511 408.241 41.342 407.953 39.257 404.767 39.518 404.313Z" fill="#FFFFFF"/><path d="M150.598 396.347C149.944 395.381 149.076 394.327 147.324 393.241 146.87 392.943 146.464 393.091 145.771 392.816 140.999 391.474 136.167 392.622 131.569 390.356 129.07 389.308 126.628 387.791 124.31 385.847 123.643 385.366 120.039 381.924 119.623 381.331 118.79 380.578 117.352 378.943 116.892 378.118 116.476 377.562 113.86 377.425 113.561 377.434 111.603 377.466 105.892 377.456 105.561 377.463 100.44 377.328 96.479 377.172 91.77 376.35 91.184 376.202 90.844 385.518 90.622 386.326 90.65 388.524 89.144 396.957 90.576 398.149 93.434 399.248 117.357 405.169 117.519 405.213 127.03 408.333 133.38 406.603 142.661 404.819 147.676 404.224 154.261 402.582 150.598 396.347Z" fill="#FFFFFF"/></g><path d="M120.394 232.407C121.284 219.071 120.81 205.597 118.124 190.753 117.925 187.149 116.74 182.261 116.654 180.791 116.631 180.264 116.973 179.047 117.098 178.078 117.705 170.624 115.865 163.672 115.275 156.301 115.247 155.95 115.165 155.476 114.84 155.431 114.618 155.401 114.493 155.558 114.35 155.731 111.866 158.753 109.475 161.337 107.043 163.63 101.789 166.508 95.712 165.782 89.468 163.85 89.175 163.763 88.837 163.923 88.72 164.205 87.257 164.482 82.994 163.164 81.331 162.854 74.427 161.25 67.587 159.695 60.647 158.071 57.791 157.426 54.96 156.705 52.092 156.107 49.895 155.666 47.624 155.209 46.163 153.671 44.956 152.833 44.861 155.214 44.653 155.937 44.556 156.377 47.847 157.247 48.232 157.489 47.655 159.919 47.077 162.395 46.27 164.624 46.13 165.01 45.665 165.157 45.323 164.93 44.546 164.413 43.721 164.012 42.916 163.621 42.551 163.428 42.059 163.691 42.015 164.101 38.409 189.674 33.357 215.752 35.912 241.864 37.125 252.947 35.842 263.686 33.567 274.299 28.546 297.717 18.694 320.518 20.161 345.036 20.259 353.255 19.689 361.605 17.544 369.504 16.899 369.44 16.358 369.396 16.278 369.399 13.764 369.696 14.325 372.425 14.352 373.819 14.39 377.516 13.558 381.315 19.298 381.766 24.454 382.562 29.738 382.659 34.946 382.08 42.825 381.229 43.428 380.904 44.352 372.954 44.276 372.103 45.087 370.385 43.868 370.089 43.195 369.977 42.912 369.625 42.969 369.178 45.922 349.968 47.834 330.023 54.809 311.628 60.027 298.219 61.067 284.443 64.796 271.345 68.581 258.046 73.103 245.42 78.093 234.091 78.134 233.999 78.616 232.417 78.969 233.915 81.628 245.2 84.577 259.757 86.285 274.375 87.42 284.094 88.157 293.984 87.575 303.383 87.326 307.677 87.07 312.118 87.213 316.509 87.519 325.935 89.495 340.174 90.493 350.902 91.266 359.211 91.038 365.053 90.717 364.816 90.505 364.695 89.724 365.25 89.524 365.39 87.558 366.764 87.993 368.21 88.454 369.741 88.764 370.842 89.134 372.189 89.433 373.304 89.74 375.788 91.274 375.983 93.528 376.213 98.45 376.921 103.378 377.075 108.693 377.093 111.035 377.093 113.488 377.047 116.072 376.956 117.051 376.821 117.37 375.607 117.586 374.782 118.094 372.933 119.898 366.318 118.309 365.929 117.198 365.153 115.066 364.817 115.123 363.358 115.392 356.366 116.116 349.178 116.133 342.038 116.165 329.002 115.294 315.998 115.273 303.724 114.932 294.377 115.191 285.744 115.834 277.367 117.039 261.607 119.416 247.047 120.394 232.407ZM79.888 176.51C79.875 176.522 79.856 176.536 79.841 176.544 69.099 175.268 58.406 171.858 49.383 166.366 50.102 163.971 50.485 161.168 51.632 158.996 55.994 160.388 61.05 162.398 65.703 163.342 68.61 164.131 78.17 165.354 80.081 167.097 80.56 167.325 80.545 167.437 80.876 167.799 80.625 170.653 80.293 173.584 79.888 176.51ZM103.792 179.585C99.434 180.105 95.052 180.101 90.757 179.574 88.815 179.445 89.825 178.299 88.705 178.103 88.505 178.094 88.322 178.215 88.189 178.351 85.961 178.355 84.969 177.694 84.625 176.642 84.343 175.779 85.365 169.013 85.588 168.734 85.835 168.935 87.966 168.988 88.65 169.314 89.136 169.577 89.284 169.996 89.236 170.975 89.183 171.635 90.147 171.892 90.429 171.292 90.518 171.118 90.609 170.676 90.809 170.093 90.964 169.641 91.603 169.057 92.081 169.046 96.04 168.953 105.732 169.543 105.716 169.997 105.654 172.227 104.284 179.515 103.792 179.585ZM114.865 171.498C114.865 173.046 114.068 174.147 112.681 174.955 111.712 175.592 110.552 176.279 109.315 176.554 108.759 174.361 108.964 171.812 109.569 169.816 109.638 169.636 109.602 169.318 109.5 169.042 109.356 168.65 109.311 168.231 109.659 167.999 110.717 167.296 112.839 166.075 114.419 165.503 115.676 166.956 115.08 169.507 114.865 171.498Z" fill="#FFFFFF"/><g><path d="M80.224 167.149C75.458 165.263 70.351 164.568 65.379 163.483 60.419 162.21 55.986 160.984 51.963 158.874 51.589 158.664 51.267 159.003 51.234 159.433 50.99 161.635 48.775 165.979 49.897 166.652 60.185 172.825 69.187 174.695 79.119 176.287 80.364 176.791 80.327 169.697 80.713 167.824 80.743 167.507 80.534 167.219 80.224 167.149Z" fill="#FFFFFF"/><path d="M114.574 166.624C114.109 165.212 110.89 167.801 109.759 168.477 109.412 168.71 109.412 169.267 109.755 169.501 109.79 169.726 109.755 169.92 109.848 170.155 109.536 171.782 109.391 173.463 109.514 175.184 109.906 176.809 112.812 174.246 113.462 173.79 114.697 173.081 114.916 168.046 114.574 166.624Z" fill="#FFFFFF"/><path d="M105.408 170.219C105.345 169.146 100.492 169.662 99.489 169.477 96.638 169.422 94.056 169.394 91.219 168.981 90.451 168.852 90.602 169.346 90.458 170.422 90.148 172.742 89.664 175.029 89.66 177.391 89.608 178.228 89.528 178.85 90.224 179.056 92.422 179.435 94.701 179.569 96.934 179.569 98.194 179.426 103.715 179.777 103.826 178.802 104.34 176.166 105.323 173.059 105.408 170.219Z" fill="#FFFFFF"/><path d="M47.46 157.419C46.848 157.245 45.989 156.958 45.601 156.476 45.296 156.071 44.6 156.225 44.496 156.722 43.901 159.165 43.428 161.034 42.963 162.78 42.661 163.138 42.804 163.739 43.287 163.842 44.011 163.754 45.688 165.572 46.179 164.361 46.816 162.233 47.394 160.154 47.898 158.183 47.984 157.851 47.789 157.512 47.46 157.419Z" fill="#FFFFFF"/></g><g><path d="M49.289 34.471C50.123 36.356 51.338 39.103 53.731 39.103 54.321 39.124 55.335 38.943 55.074 38.11 55.575 36.136 56.198 34.188 56.926 32.321 57.125 31.854 56.643 31.326 56.16 31.486 54.189 32.071 52.436 32.553 50.564 32.843 49.239 32.965 48.463 32.952 49.289 34.471Z" fill="#FFFFFF"/><path d="M137.756 137.831C136.764 134.07 133.762 122.799 133.15 120.977 132.994 120.634 132.329 118.944 132.258 118.684 127.985 100.604 128.871 82.206 126.509 63.924 125.584 53.557 115.572 49.005 108.004 44.056 105.557 42.573 103.028 41.04 100.679 39.387 100.513 39.27 99.332 38.642 99.634 37.78 99.794 37.216 100.083 35.76 100.083 34.863 100.019 34.831 100.108 33.389 100.195 32.899 100.118 31.99 96.283 29.482 95.671 28.494 95.785 28.218 95.69 27.899 95.443 27.731 95.128 27.558 94.626 27.017 94.219 27.239 92.874 28.912 93.863 32.998 94.64 35.312 95.041 36.21 95.294 37.733 95.93 38.566 94.745 39.783 94.077 41.054 93.844 42.749 93.78 43.984 90.003 47.347 88.893 48.232 88.994 48.046 87.479 46.732 87.303 46.476 79.568 26.133 85.077 35.811 67.71 24.035 67.976 24.005 67.547 23.492 67.595 23.228 67.612 22.244 68.78 20.61 68.268 19.769 66.006 19.192 63.258 22.355 62.114 24.783 61.842 25.379 61.769 26.217 61.418 26.711 61.219 26.979 61.263 27.356 61.519 27.571 65.6 31.14 61.275 36.791 61.163 37.015 59.435 40.482 59.291 42.966 59.163 45.158 59.412 54.744 47.168 59.921 44.786 72.945 42.406 81.062 40.106 89.068 37.79 97.179 36.542 101.727 35.252 106.43 32.336 110.216 32.193 110.393 31.173 111.528 31.083 111.62 24.971 118.787 12.04 111.921 10.335 103.924 9.522 100.37 10.412 96.488 12.907 92.699 13.045 92.489 17.902 86.255 18.174 85.906 25.832 77.703 31.995 67.928 36.714 57.794 36.812 57.603 36.805 57.375 36.697 57.19 34.84 54.006 34.214 50.284 33.609 46.684 33.281 45.621 33.068 41.292 32.103 41.109 25.883 48.837 22.748 59.75 18.848 68.944 17.2 73.014 16.296 77.434 14.278 81.293 13.386 82.751 9.403 92.366 9.867 94.167 9.521 94.824 8.561 96.896 8.128 97.309 3.942 104.837 8.615 118.987 14.551 122.485 17.036 123.848 19.877 123.737 22.671 122.829 24.417 122.289 26.05 121.55 27.707 120.777 29.07 120.269 29.195 119.599 29.284 118.553 29.545 116.96 32.09 113.447 31.902 113.831 32.463 118.232 33.298 122.825 33.617 127.26 34.194 131.102 34.021 135.213 35.297 138.921 37.586 142.888 43.501 145.179 43.362 145.223 42.041 145.64 45.255 150.952 45.543 151.598 46.987 154.784 49.943 154.936 52.69 155.57 56.77 156.553 82.643 163.222 92.145 164.394 92.896 164.483 97.512 165.577 98.344 165.702 101.443 165.691 104.168 164.923 106.311 163.514 109.679 160.399 112.423 157.51 115.063 154.257 118.764 150.366 119.897 146.926 119.776 143.092 119.74 141.961 120.995 142.438 121.179 142.307 122.392 141.434 123.881 141.439 125.338 140.935 129.158 140.085 133.157 138.079 137.022 138.618 137.463 138.715 137.888 138.267 137.756 137.831Z" fill="#FFFFFF"/></g><g><path d="M152.641 403.887C152.387 402.76 152.355 401.619 152.471 400.484 153.074 396.885 150.309 393.582 147.225 392.113 143.796 390.458 140.045 391.127 136.412 390.474 128.494 389.056 122.578 383.155 117.483 377.354 118.905 375.469 119.595 371.2 119.854 368.818 119.945 367.859 120.277 366.355 119.654 365.522 119.313 365.067 118.906 365.043 118.401 364.906 117.565 364.619 116.851 363.881 115.998 363.683 118.269 332.038 114.586 300.261 117.272 268.632 118.573 254.399 121.351 240.308 121.52 225.979 121.867 211.027 120.563 196.022 117.532 181.375 118.062 180.394 117.845 179.35 118.007 178.276 118.315 175.028 117.968 171.766 117.556 168.543 117.138 165.329 116.764 162.106 116.25 158.907 116.049 157.813 115.804 156.77 115.482 155.714 115.455 155.625 115.401 155.565 115.337 155.529 115.988 154.737 116.632 153.929 117.242 153.101 117.908 156.261 119.005 159.306 120.215 162.293 123.477 171.127 127.447 179.681 130.581 188.558 130.988 189.744 131.463 190.906 131.808 192.113 132.385 194.088 132.756 195.236 130.759 196.475 129.309 197.621 127.601 198.691 126.693 200.353 125.09 203.563 126.791 207.071 126.825 210.411 126.838 212.33 126.639 214.26 126.27 216.142 125.944 217.802 125.511 219.452 124.855 221.013 124.273 222.401 123.749 223.898 124.501 225.333 125.121 226.517 126.407 226.905 127.618 226.415 130.764 224.984 130.918 220.317 132.496 217.559 133.063 216.435 133.357 215.021 134.162 214.022 136.318 216.213 136.856 219.758 136.693 222.783 136.544 222.533 136.263 222.35 135.903 222.404 134.051 222.563 131.761 223.761 132.451 225.937 130.907 226.713 129.859 228.102 130.691 229.88 129.867 230.499 127.558 231.845 127.977 233.038 128.187 233.62 128.787 234.102 129.18 234.553 127.997 235.576 126.815 236.857 126.895 238.402 126.916 238.799 127.14 239.036 127.488 239.181 130.181 240.304 133.088 238.247 135.174 236.743 141.321 232.796 145.252 228.451 146.056 220.922 146.291 219.073 146.472 217.078 146.292 215.218 146.13 213.553 145.347 212.062 145.025 210.433 144.246 206.486 144.188 202.408 144.042 198.402 143.197 183.807 141.507 169.257 139.642 154.764 139.252 149.815 139.654 144.661 137.832 139.928 138.462 140.32 139.333 139.815 139.13 139.042 137.627 133.398 136.12 127.756 134.641 122.106 135.02 121.864 135.171 121.211 134.673 120.877 134.42 120.707 134.2 120.508 134.006 120.288 133.336 119.483 132.953 118.48 132.711 117.465 128.384 98.802 129.926 79.374 126.818 60.569 123.985 50.326 110.442 44.75 102.115 39.312 101.58 39.018 100.754 38.347 100.079 38.46 100.471 37.189 100.844 35.915 101.172 34.621 101.257 34.287 100.973 34.004 100.685 33.962 101.221 32.146 100.406 32.273 99.399 31.004 98.417 29.967 97.428 28.893 96.345 27.965 95.587 27.316 94.585 28.307 95.248 29.062 96.521 30.511 98.043 31.722 99.415 33.076 99.088 35.027 97.375 36.307 96.063 37.642 95.915 36.208 95.235 34.957 94.891 33.574 94.313 31.534 94.023 29.384 94.577 27.308 94.825 26.378 93.443 26.01 93.144 26.913 92.482 28.916 92.524 30.997 92.95 33.045 93.168 34.093 93.459 35.145 93.849 36.142 94.096 36.773 94.462 38.306 95.292 38.424 94.486 39.274 93.741 40.213 93.333 41.325 93.042 42.108 93.198 43.092 92.612 43.714 91.199 45.214 89.453 46.515 88.165 48.144 87.81 48.065 87.676 48.407 87.732 48.733 87.558 48.924 87.571 49.198 87.746 49.357 88.732 72.229 90.2 95.2 94.555 117.713 96.024 125.221 97.914 132.602 100.058 139.942 101.257 144.05 102.072 148.148 100.63 152.307 99.355 155.986 96.896 159.166 94.56 162.228 94.418 162.414 94.373 162.6 94.395 162.77 94.019 163.098 93.353 163.367 93.418 163.956 91.566 163.668 87.242 162.911 87.038 163.148 75.687 160.253 64.23 157.698 52.837 154.954 50.123 154.329 47.384 154.197 46.106 151.309 45.245 149.805 44.41 148.254 43.956 146.571 43.96 146.569 43.964 146.566 43.968 146.563 47.544 148.555 51.187 150.442 55.034 151.854 55.791 152.132 56.316 150.899 55.586 150.544 51.184 148.227 38.006 142.43 35.866 138.646 35.224 137.301 35.184 135.694 35.023 134.239 34.145 127.54 33.844 120.73 32.469 114.106 32.832 113.363 33.724 111.144 32.836 110.598 36.667 105.626 37.71 99.303 39.507 93.454 41.483 86.678 43.386 79.88 45.393 73.113 46.987 67.175 49.762 61.633 54.094 57.222 62.972 47.733 57.549 45.678 61.727 37.294 62.393 39.035 65.244 39.733 66.772 40.715 69.105 42.004 71.342 43.472 73.449 45.106 73.976 45.515 74.577 45.353 74.834 44.74 76.425 40.948 76.626 36.525 79.122 33.128 79.474 32.649 78.739 32.166 78.337 32.522 75.267 35.245 74.928 39.492 73.652 43.2 70.953 41.182 68.068 39.41 65.037 37.933 64.143 37.493 63.393 37 62.714 36.262 62.615 36.155 62.48 36.1 62.337 36.086 63.823 33.359 64.619 29.344 61.923 27.084 62.347 26.513 62.412 25.681 62.692 25.03 63.679 22.904 65.474 20.831 67.814 20.207 67.53 21.173 67.16 22.134 66.975 23.107 66.583 22.908 66.183 22.731 65.771 22.595 65.437 22.485 65.231 22.922 65.445 23.155 66.362 24.155 67.634 24.891 68.765 25.622 72.263 27.852 75.894 29.861 79.549 31.819 80.765 32.472 81.525 33.206 82.046 34.498 82.574 35.809 83.048 37.144 83.548 38.466 84.588 41.216 85.657 43.956 86.714 46.7 87.051 47.575 88.474 47.196 88.134 46.308 80.492 26.758 85.802 34.708 68.338 23.876 69.668 21.504 69.78 18.391 69.788 15.721 69.764 14.906 68.566 14.911 68.526 15.721 68.465 16.924 68.312 18.11 68.051 19.285 64.903 18.843 60.835 23.536 60.591 26.468 58.501 26.18 57.872 28.618 57.156 30.098 56.429 29.936 55.679 30.338 54.99 30.542 54.266 30.762 53.537 30.965 52.803 31.15 52.113 31.325 51.42 31.488 50.728 31.654 50.177 31.787 49.522 31.841 49.06 32.186 47.197 26.813 46.84 21.092 45.961 15.511 45.701 13.841 45.531 11.972 44.921 10.388 44.492 9.274 43.248 7.746 41.903 8.515 41.297 8.862 41.062 9.503 40.983 10.163 40.51 15.503 40.708 20.882 41.339 26.197 38.44 21.12 39.96 15.394 38.872 9.927 38.595 8.446 38.167 5.756 36.308 5.522 34.533 5.325 33.335 7.131 33.427 8.755 30.258 6.632 30.264 9.983 29.978 12.217 29.712 14.757 29.729 17.32 29.925 19.864 29.125 18.09 26.391 17.12 25.067 18.925 24.539 19.715 24.671 20.655 24.814 21.541 25.169 23.727 25.54 25.918 26.143 28.051 27.286 32.62 30.56 36.257 31.76 40.794 30.646 40.514 29.484 42.788 28.962 43.587 24.251 51.71 20.78 60.499 17.417 69.247 16.268 72.328 15.595 75.553 14.254 78.56 13.504 80.243 12.626 81.861 11.838 83.526 10.059 87.522 9.378 91.904 7.678 95.933 4.639 100.614 4.983 106.456 6.682 111.561 9.63 124.053 16.92 127.993 28.434 121.602 29.618 121.076 30.221 120.183 30.207 118.884 30.329 117.776 30.995 116.833 31.502 115.865 31.875 121.974 32.745 128.017 33.345 134.101 33.511 135.612 33.575 137.208 34.081 138.655 35.331 142.063 39.472 143.832 42.396 145.684 41.588 147.749 43.994 151.454 44.968 153.151 43.623 156.187 42.869 159.435 41.903 162.604 37.771 182.801 34.932 203.554 34.298 224.221 33.821 238.352 37.162 252.47 34.418 266.499 29.871 287.323 21.96 307.429 19.935 328.789 18.302 342.23 20.519 356.127 16.558 369.243 16.475 369.064 16.306 368.921 16.048 368.902 14.075 368.758 13.26 370.692 13.237 372.344 13.21 374.261 13.152 376.291 13.416 378.195 13.644 380.218 14.921 381.877 16.929 382.398 15.63 387.731 15.915 393.351 14.284 398.628 13.946 400.023 13.875 401.448 13.56 402.84 13.23 404.299 12.866 405.65 12.875 407.161 12.897 410.726 12.102 414.186 11.881 417.727 12.098 430.039 31.562 429.192 39.744 426.011 48.276 423.339 44.921 410.42 40.607 405.281 40.6 405.068 40.568 404.854 40.519 404.642 44.419 398.949 39.341 389.438 38.606 383.106 38.601 383.072 38.596 383.038 38.591 383.004 39.073 382.89 39.898 382.947 40.051 382.35 42.237 382.009 43.49 381.151 44.159 378.989 44.955 376.836 45.413 374.556 45.511 372.262 45.608 371.061 45.556 369.762 44.108 369.492 44.051 369.364 43.979 369.252 43.89 369.16 46.879 348.818 48.917 328.072 56.609 308.828 58.769 302.727 60.107 296.458 61.349 290.118 64.993 271.272 70.692 252.86 78.659 235.378 82.119 252.29 85.193 269.373 86.754 286.577 87.423 295.605 86.146 304.547 86.166 313.568 86.188 330.575 90.886 347.319 89.985 364.354 89.061 364.913 87.958 365.34 87.435 366.32 86.579 368.208 87.727 370.358 88.113 372.248 88.651 374.419 88.795 376.543 91.46 376.927 90.459 377.132 90.158 381.605 89.942 382.631 89.318 386.731 88.947 390.871 88.822 395.016 86.919 397.871 86.295 403.436 89.575 405.538 90.746 406.216 92.211 406.436 93.511 406.774 100.08 408.387 106.763 409.516 113.423 410.68 117.666 411.377 121.901 412.183 126.172 412.683 128.186 412.74 130.204 412.472 132.212 412.325 138.065 411.707 143.996 411.178 149.688 409.615 152.859 408.977 153.167 406.682 152.641 403.887ZM50.939 33.418C52.775 33.126 54.556 32.615 56.338 32.091 55.592 34.005 54.968 35.963 54.463 37.954 54.424 38.109 54.434 38.248 54.477 38.369 51.705 39.098 50.486 35.531 49.571 33.558 50.017 33.606 50.488 33.491 50.939 33.418ZM28.963 31.417C27.615 28.629 26.993 25.568 26.477 22.534 26.428 21.741 25.879 20.413 26.303 19.737 26.618 19.327 27.295 19.415 27.709 19.596 28.537 19.957 28.851 20.953 29.063 21.754 29.6 23.777 30.074 25.71 31.036 27.591 31.987 29.45 33.186 31.15 34.72 32.565 35.211 33.018 35.831 32.351 35.436 31.849 34.052 30.088 32.789 28.187 31.925 26.112 32.28 25.986 32.538 25.545 32.328 25.128 31.203 22.899 31.165 20.284 31.074 17.828 30.975 15.174 31.069 12.488 31.668 9.891 31.746 9.554 31.688 9.558 31.981 9.613 32.207 9.656 32.503 9.868 32.683 10.005 36.314 12.892 32.338 20.157 37.975 30.098 38.284 30.672 39.104 30.168 38.838 29.594 37.597 26.921 36.75 24.02 36.283 21.111 36.044 19.623 35.936 18.116 35.931 16.61 35.929 14.505 36.012 12.257 34.89 10.384 34.997 10.261 35.056 10.09 35.032 9.872 34.946 9.069 34.688 6.911 36.044 6.932 36.906 6.946 37.219 9.011 37.366 9.652 38.394 14.212 37.53 19.003 38.754 23.534 39.125 24.906 40.346 28.848 42.442 27.699 42.72 27.547 42.784 27.247 42.742 26.962 42.022 22.057 41.85 17.059 42.153 12.113 42.175 11.763 42.141 9.502 42.727 9.769 43.238 10.002 43.411 10.926 43.516 11.406 45.624 19.782 44.832 33.079 51.235 39.381 52.642 40.38 54.548 40.431 55.801 39.156 56.092 38.859 56.053 38.51 55.861 38.272 56.619 35.173 57.648 32.135 59.039 29.261 59.253 28.818 59.513 28.106 60.004 27.904 60.587 27.664 61.24 28.333 61.55 28.767 63.827 32.643 59.875 36.346 58.925 40.005 57.645 47.275 58.838 49.541 53.23 55.585 46.704 61.88 44.109 70.405 41.894 78.933 40.025 85.405 38.156 91.877 36.287 98.349 34.737 103.717 33.064 109.941 27.661 112.675 25.181 114.023 22.176 113.808 19.749 112.447 14.994 110.2 10.466 105.724 11.344 100.047 12.247 93.81 17.089 89.222 20.929 84.575 27.731 76.653 33.959 67.802 37.106 57.757 37.45 57.58 37.677 57.172 37.424 56.741 33.956 50.633 34.884 43.115 31.849 36.835 30.969 34.985 29.855 33.26 28.963 31.417ZM11.795 89.31C12.443 86.601 13.515 84.036 14.834 81.589 16.622 78.146 17.53 74.448 18.805 70.815 22.616 60.919 26.399 50.756 32.005 41.73 33.307 46.992 33.36 52.716 36.151 57.505 33.316 63.076 30.611 68.751 26.992 73.878 24.099 78.149 20.701 82.028 17.326 85.918 16.29 85.045 12.153 90.272 11.334 91.127 11.486 90.514 11.635 89.905 11.795 89.31ZM29.979 115.064C29.452 116.079 28.942 117.121 28.677 118.239 28.574 119.351 28.64 119.759 27.463 120.191 25.839 120.95 24.198 121.693 22.483 122.224 14.318 124.865 10.642 119.131 8.828 112.083 7.254 107.213 6.407 101.983 8.997 97.294 9.472 96.888 9.661 96.206 9.942 95.656 10.677 94.498 11.506 93.407 12.381 92.349 7.458 99.824 8.555 107.96 16.5 112.71 21.382 116.194 27.228 116.463 31.535 112.058 30.979 113.038 30.507 114.068 29.979 115.064ZM150.067 396.687C150.706 397.69 151.152 398.948 150.939 400.139 150.168 403.585 145.353 403.554 142.549 404.198 132.271 406.025 128.206 407.754 117.699 404.609 118.243 403.952 118.58 403.02 118.947 402.308 119.456 401.321 119.899 400.318 120.2 399.248 120.494 398.201 120.784 397.281 121.413 396.384 121.68 396.003 121.947 395.614 122.149 395.199 129.976 398.606 139.715 398.393 147.124 394.048 148.285 394.644 149.305 395.491 150.067 396.687ZM131.324 390.939C132.874 391.59 134.48 392.085 136.141 392.356 139.263 392.887 142.532 392.431 145.576 393.416 138.41 397.154 129.967 396.782 122.393 394.561 122.963 392.409 121.209 390.884 119.821 389.572 120.433 388.8 121.136 388.103 121.941 387.531 122.517 387.122 123.333 386.811 123.906 386.328 126.147 388.213 128.614 389.801 131.324 390.939ZM120.407 392.727C120.385 392.675 120.351 392.567 120.407 392.727L120.407 392.727ZM122.531 385.117C120.958 385.942 119.739 387.115 118.72 388.522 118.06 387.898 117.392 387.282 116.721 386.67 117.246 386.456 117.758 386.175 118.2 385.977 119.162 385.476 120.896 385.033 121.506 384.152 121.845 384.478 122.187 384.8 122.531 385.117ZM109.527 380.3C108.675 379.546 107.788 378.833 106.91 378.11 109.131 378.126 111.351 378.101 113.571 378.065 112.21 378.709 111.104 380.185 109.527 380.3ZM113.277 380.433C113.836 380.057 114.437 379.692 115.107 379.558 115.689 379.491 116.568 379.292 116.393 378.506 116.891 379.147 117.408 379.777 117.942 380.396 116.058 381.239 114.882 382.411 113.474 383.757 112.639 383.02 111.801 382.287 110.963 381.555 111.785 381.384 112.53 380.935 113.277 380.433ZM117.167 382.778C117.804 382.373 118.515 382.145 119.16 381.76 119.556 382.188 119.959 382.61 120.367 383.025 119.347 383.324 118.362 383.926 117.441 384.433 116.825 384.773 116.062 385.081 115.449 385.517 115.077 385.182 114.704 384.848 114.329 384.516 115.287 383.951 116.209 383.344 117.167 382.778ZM132.123 228.727C132.096 227.724 133.61 227.251 134.292 226.736 134.88 226.356 135.437 225.916 136.013 225.516 136.649 225.075 136.107 224.154 135.409 224.483 134.914 224.716 134.419 224.942 133.929 225.176 134.128 224.134 135.427 223.963 136.287 223.798 136.433 223.769 136.545 223.712 136.628 223.636 136.467 225.295 135.932 226.808 135.153 228.184 135.066 228.039 134.902 227.95 134.683 228.023 133.849 228.301 133.03 228.625 132.242 229.009 132.186 228.925 132.141 228.834 132.123 228.727ZM129.976 232.262C130.579 231.659 131.23 231.093 131.911 230.583 132.186 230.537 132.525 230.4 132.614 230.089 133.258 229.665 133.936 229.297 134.656 228.997 133.51 230.734 131.982 232.25 130.349 233.589 130.184 233.392 129.717 232.832 129.556 232.7 129.695 232.552 129.835 232.405 129.976 232.262ZM139.9 170.389C140.653 178.299 141.637 186.193 142.253 194.113 142.623 199.771 142.443 205.507 143.564 211.092 143.927 212.75 144.723 214.238 144.771 215.963 145.107 223.44 142.537 230.219 135.97 234.227 133.828 235.596 131.297 238.168 128.591 237.852 129.22 236.415 130.648 235.522 131.792 234.521 133.499 233.137 134.984 231.488 136.191 229.648 139.352 224.687 139.264 216.433 134.709 212.331 133.319 211.217 131.949 214.661 131.567 215.653 130.985 217.133 130.25 218.522 129.736 220.035 129.26 221.433 128.877 223.273 127.801 224.351 127.203 224.95 126.248 225.384 125.862 224.363 125.379 223.087 126.472 221.543 126.871 220.369 127.978 216.943 128.608 213.285 128.457 209.679 128.338 207.937 127.833 206.252 127.666 204.518 127.234 201.17 128.778 199.894 131.246 198.049 133.853 196.328 134.196 194.943 133.374 191.98 130.062 181.688 125.429 171.881 121.575 161.785 120.26 158.517 118.798 155.296 118.149 151.812 120.137 149.147 120.988 145.909 120.643 142.689 121.934 143 123.712 142.225 125.037 141.974 126.574 141.561 128.113 141.153 129.653 140.751 131.641 140.26 133.617 139.539 135.682 139.486 137.74 143.607 137.596 148.394 137.809 152.878 138.229 158.745 139.357 164.53 139.9 170.389ZM135.168 130.658C135.828 133.104 136.489 135.549 137.146 137.995 134.797 137.523 132.291 138.34 130.011 138.968 128.389 139.415 126.768 139.868 125.149 140.327 123.623 140.851 121.916 141.071 120.591 142.022 119.97 135.943 118.917 129.911 117.691 123.927 122.671 123.919 125.622 118.912 131.137 120.582 131.575 120.69 132.276 120.776 132.55 121.176 133.587 124.259 134.242 127.523 135.168 130.658ZM95.525 163.579C95.691 163.409 95.987 163.222 96.071 163.11 100.469 157.634 104.305 150.923 102.594 143.67 100.836 136.155 98.25 128.827 96.819 121.221 91.698 97.563 90.367 73.347 88.564 49.278 90.396 47.942 91.992 46.289 93.644 44.744 94.361 44.019 94.361 43.322 94.558 42.383 95.179 39.873 97.639 38.493 99.229 36.591 98.123 39.522 96.48 42.858 97.966 45.945 98.169 46.359 98.849 46.453 99.15 46.097 99.555 45.619 99.554 45.132 99.231 44.912 98.682 43.207 99.084 41.412 99.672 39.767 99.871 39.924 100.121 39.996 100.317 39.901 107.646 45.06 116.221 48.756 122.253 55.562 124.413 57.881 125.431 60.949 125.731 64.058 128.085 82.273 127.375 100.882 131.644 118.827 124.742 116.895 122.81 121.606 117.245 121.81 116.472 118.214 115.627 114.632 114.732 111.066 113.929 107.862 112.965 104.566 113.56 101.239 114.14 98.002 115.556 94.901 116.716 91.841 119.318 84.632 122.485 77.613 124.887 70.338 125.097 69.642 124.035 69.171 123.697 69.836 119.543 79.017 116.064 88.536 112.55 97.979 110.135 104.331 112.935 110.894 114.303 117.153 115.831 123.642 117.185 130.178 118.131 136.779 118.471 139.958 119.282 143.208 118.746 146.402 117.941 149.747 115.367 152.271 113.282 154.884 110.972 157.589 108.479 160.122 105.866 162.535 102.669 164.546 98.767 164.69 95.122 164.193 95.216 164.077 95.409 163.697 95.525 163.579ZM43.573 162.942C44.11 160.924 44.614 158.899 45.109 156.871 45.589 157.469 46.482 157.797 47.287 158.026 46.759 160.088 46.184 162.14 45.574 164.18 44.921 163.774 44.175 163.401 43.429 163.227 43.493 163.146 43.544 163.053 43.573 162.942ZM14.932 372.097C14.971 371.141 15.131 370.074 16.301 370.03 15.921 371.242 15.379 372.397 14.937 373.583 14.922 373.087 14.914 372.591 14.932 372.097ZM15.778 399.628C17.43 394.126 17.459 388.365 18.124 382.701 18.996 382.875 19.895 382.969 20.768 383.061 20.614 386.937 20.66 390.817 20.707 394.696 21.191 400.047 19.233 401.82 14.895 404.436 15.374 402.865 15.439 401.226 15.778 399.628ZM38.791 405.148C40.055 413.654 26.577 413.812 21.211 411.538 19.033 410.713 16.165 409.48 16.536 406.686 16.589 406.286 15.993 406.186 15.813 406.49 14.663 408.435 16.522 410.458 18.09 411.434 21.98 413.824 26.745 414.663 31.244 414.012 34.945 413.532 39.3 411.843 40.25 407.811 41.397 409.547 42.23 411.481 42.717 413.51 38.289 421.954 24.435 421.988 17.034 417.712 15.495 416.897 14.465 415.609 14.056 413.888 14.298 411.83 14.536 409.773 14.556 407.696 14.682 407.594 14.781 407.442 14.832 407.233 15.055 406.315 15.93 405.857 16.683 405.401 19.249 403.879 21.648 401.559 22.117 398.487 24.492 398.667 26.882 398.175 29.265 398.338 30.372 398.388 31.436 398.536 32.515 398.783 33.149 398.936 34.807 399.374 34.724 398.199 36.124 400.392 38.016 402.364 38.751 404.91 38.748 404.999 38.762 405.078 38.791 405.148ZM32.145 396.821C28.861 396.29 25.408 396.535 22.221 397.474 22.276 396.273 22.194 395.068 22.172 393.866 22.323 394.256 22.963 394.285 23.207 393.918 24.416 394.109 26.208 394.328 27.606 394.553 28.446 394.684 29.279 394.843 30.115 394.992 30.978 395.098 32.648 395.732 33.091 394.674 33.329 395.636 33.762 396.618 34.288 397.49 33.699 397.06 32.668 396.911 32.145 396.821ZM33.554 383.687C33.221 385.845 32.97 388.007 32.842 390.189 31.213 389.531 29.37 389.382 27.639 389.216 26.034 389.17 23.516 388.593 22.258 389.761 21.892 390.119 22.263 390.805 22.77 390.64 23.487 390.407 24.386 390.656 25.121 390.721 27.699 390.849 30.202 391.613 32.762 391.829 32.757 392.613 32.821 393.372 32.967 394.116 32.266 393.372 30.909 393.261 29.944 393.095 28.851 392.911 27.751 392.744 26.649 392.62 25.485 392.489 22.478 391.778 22.161 393.486 22.052 390.038 21.919 386.594 21.655 383.155 25.692 383.606 29.775 383.637 33.819 383.255 33.685 383.345 33.58 383.489 33.554 383.687ZM42.532 421.536C41.263 424.282 37.877 424.768 35.248 425.485 28.472 427.215 12.124 426.919 13.757 416.575 14.688 418.171 16.336 419.088 17.955 419.84 25.889 423.451 37.458 423.265 43.094 415.767 43.241 417.68 43.282 419.733 42.532 421.536ZM38.8 390.405C39.655 394.172 41.187 398.639 39.561 402.358 37.359 398.462 33.895 395.736 34.456 390.796 34.623 388.427 34.736 386.061 34.671 383.687 34.672 383.433 34.551 383.274 34.389 383.2 35.361 383.099 36.334 382.979 37.304 382.835 37.452 385.415 38.152 387.916 38.8 390.405ZM43.723 372.901C43.537 375.1 43.102 377.911 41.915 379.792 41.099 380.854 36.386 381.203 34.877 381.453 29.725 382.024 24.496 381.931 19.372 381.139 14.364 380.733 15.055 377.989 14.951 374.014 15.018 374.272 15.196 374.49 15.506 374.558 23.056 376.206 30.922 376.284 38.494 374.728 40.737 374.365 42.994 373.69 43.523 371.169 43.694 371.194 43.751 371.181 43.761 371.495 43.775 371.961 43.751 372.435 43.723 372.901ZM87.84 316.488C87.547 307.503 88.925 298.559 88.532 289.575 86.911 270.767 84.235 251.801 79.519 233.505 82.087 227.969 84.867 222.533 87.856 217.23 88.388 216.285 86.935 215.436 86.403 216.38 71.184 242.49 62.755 271.553 57.256 301.092 55.675 307.19 53.149 312.967 51.296 318.978 46.463 335.28 44.891 352.326 42.346 369.084 42.125 369.345 42.05 369.724 42.179 370.021 41.8 372.736 39.53 372.929 37.273 373.284 30.545 374.558 23.592 374.487 16.882 373.153 21.803 361.227 20.352 348.054 21.044 335.449 21.633 306.476 37.002 280.04 37.154 251.177 36.879 244.105 35.976 237.084 35.864 230.002 35.481 207.865 39.577 186.023 42.643 164.189 43.695 164.701 44.713 165.196 45.624 165.929 46.013 166.224 46.544 165.893 46.672 165.503 47.513 162.935 48.23 160.341 48.847 157.71 49.049 156.632 47.612 156.787 46.992 156.336 46.486 156.106 45.954 155.574 45.371 155.728 45.476 155.18 45.598 154.7 45.708 154.107 47.785 156.294 51.188 156.447 53.971 157.166 56.15 157.673 58.329 158.18 60.508 158.688 67.406 160.302 74.315 161.873 81.215 163.476 82.4 163.654 89.117 165.739 89.303 164.46 94.82 166 101.338 167.584 106.559 164.388 106.863 164.44 107.192 164.364 107.48 164.092 110.119 161.605 112.557 158.916 114.858 156.115 114.772 163.446 117.075 170.678 116.473 178.028 115.96 177.836 115.223 178.259 115.37 178.976 115.995 182.02 116.563 185.071 117.07 188.13 117.078 188.179 117.055 188.216 117.036 188.186 115.692 186.081 114.917 183.639 114.939 181.136 114.939 180.406 113.839 180.411 113.808 181.136 113.661 184.63 114.804 188.514 117.504 190.852 120.083 207.375 120.624 224.273 118.931 240.935 116.034 261.756 113.985 282.673 114.643 303.725 114.679 325.476 116.362 347.515 113.756 369.117 113.325 369.753 112.305 369.698 111.635 369.732 104.86 370.068 98.044 369.701 91.366 368.496 93.073 351.028 88.407 333.886 87.84 316.488ZM90.04 373.136C89.753 372.08 89.466 371.025 89.178 369.969 88.672 368.233 88.15 367.117 89.882 365.906 89.797 367.009 89.688 368.11 89.549 369.211 89.505 369.562 89.849 369.982 90.187 370.049 97.141 371.438 104.369 371.898 111.444 371.475 115.819 371.445 115.74 369.165 115.869 365.556 116.64 365.972 117.368 366.493 118.261 366.556 118.328 369.143 117.82 371.783 117.07 374.265 116.899 374.813 116.685 376.115 116.047 376.323 110.42 376.522 104.739 376.533 99.108 376.167 97.272 376.036 95.437 375.853 93.615 375.587 92.83 375.472 91.972 375.407 91.214 375.159 90.317 374.865 90.26 373.945 90.04 373.136ZM97.199 377.67C99.976 377.932 102.762 378.051 105.551 378.095 110.367 383.135 115.837 387.593 120.438 392.816 120.774 393.504 120.739 394.248 120.247 394.854 119.634 395.79 119.051 396.619 118.704 397.701 118.34 398.838 118.041 399.934 117.492 401.003 117.019 402.059 116.221 403.033 115.985 404.168 111.034 402.931 106.07 401.758 101.114 400.545 99.759 394.062 96.123 387.925 91.535 383.169 91.565 381.907 92.41 377.767 91.638 376.967 93.449 377.359 95.374 377.498 97.199 377.67ZM90.641 396.08C90.68 392.146 91.098 388.231 91.434 384.315 95.069 389.022 97.802 394.375 99.342 400.113 96.45 399.398 93.585 398.631 90.802 397.561 90.609 397.098 90.592 396.579 90.641 396.08ZM151.156 406.193C151.091 406.639 150.956 407.101 150.663 407.434 148.346 408.55 145.696 408.79 143.19 409.212 140.159 409.674 137.123 410.083 134.072 410.399 130.543 410.781 126.932 411.317 123.418 410.572 113.438 408.973 103.436 407.366 93.589 405.076 92.376 404.76 90.662 404.638 89.786 403.643 88.53 402.198 88.693 399.808 89.086 398.075 89.293 398.52 89.803 398.832 90.295 398.645 96.894 401.799 104.341 402.68 111.347 404.625 117.191 405.906 122.993 408.105 129.04 407.991 134.981 407.419 140.857 406.123 146.72 405.03 148.201 404.711 149.717 404.136 150.833 403.196 150.965 404.183 151.258 405.188 151.156 406.193Z" class="MsftOfcResponsive_Fill_000000"/><path d="M47.238 52.938C47.48 54.037 47.61 55.158 47.612 56.284 47.614 57.396 47.284 58.434 47.305 59.526 47.311 59.829 47.656 60.056 47.928 59.884 49.013 59.299 49.101 57.971 49.163 56.867 49.206 53.007 47.836 49.158 45.52 46.087 45.05 45.466 43.985 46.054 44.453 46.711 45.789 48.587 46.742 50.686 47.238 52.938Z" class="MsftOfcResponsive_Fill_000000"/><g id="buttons_5_"><path d="M92.575 57.164C93.604 56.099 92.043 54.531 90.976 55.565 89.947 56.63 91.508 58.198 92.575 57.164Z" class="MsftOfcResponsive_Fill_000000"/><path d="M94.325 76.196C95.13 74.669 93.18 73.62 92.242 74.978 91.451 76.389 93.483 77.553 94.325 76.196Z" class="MsftOfcResponsive_Fill_000000"/><path d="M95.424 94.19C93.757 94.19 93.754 96.78 95.424 96.78 97.091 96.78 97.094 94.19 95.424 94.19Z" class="MsftOfcResponsive_Fill_000000"/><path d="M100.004 112.158C99.871 112.01 99.697 111.939 99.512 111.883 98.756 111.258 97.741 112.034 97.608 112.875 97.565 113.147 97.587 113.308 97.607 113.414 97.767 114.26 98.828 114.764 99.603 114.288 100.328 113.88 100.608 112.789 100.004 112.158Z" class="MsftOfcResponsive_Fill_000000"/><path d="M103.634 131.338C104.43 131.129 104.776 130.096 104.269 129.45 104.062 128.02 102.074 128.014 101.439 129.132 100.674 130.673 102.113 131.868 103.634 131.338Z" class="MsftOfcResponsive_Fill_000000"/><path d="M104.283 147.192C103.932 148.369 105.294 149.413 106.368 148.857 107.989 148.112 106.873 145.734 105.259 146.216 105.261 146.219 105.263 146.223 105.265 146.226 104.781 146.329 104.427 146.732 104.283 147.192Z" class="MsftOfcResponsive_Fill_000000"/><path d="M100.811 161.043C102.023 162.198 103.754 160.452 102.606 159.248 101.393 158.094 99.662 159.84 100.811 161.043Z" class="MsftOfcResponsive_Fill_000000"/></g><g><path d="M80.706 166.974C80.281 165.007 67.791 163.339 65.869 162.733 62.132 161.869 58.45 160.761 54.859 159.412 54.286 159.245 50.381 157.458 51.006 158.926 50.31 159.887 50.083 161.318 49.766 162.453 49.421 163.7 49.104 164.955 48.773 166.205 48.695 166.501 48.825 166.828 49.09 166.984 58.455 172.486 69.029 175.942 79.813 177.175 80.09 177.207 80.468 176.93 80.507 176.647 80.911 173.724 81.247 170.793 81.505 167.853 81.541 167.449 81.283 167.224 80.977 167.176 80.889 167.162 80.721 167.042 80.706 166.974ZM79.199 175.66C69.007 174.378 59.196 171.048 50.235 166.044 50.747 163.858 51.425 161.663 51.671 159.433 55.893 161.648 60.62 162.913 65.222 164.094 68.885 164.967 72.638 165.428 76.265 166.455 77.572 166.796 78.778 167.468 80.084 167.764 79.837 170.401 79.558 173.035 79.199 175.66Z" class="MsftOfcResponsive_Fill_000000"/><path d="M103.867 180.211C104.21 180.17 104.564 179.99 104.646 179.618 105.267 176.415 106.276 173.188 106.347 169.923 106.134 169.015 105.332 168.752 104.493 168.704 102.2 168.573 99.892 168.562 97.596 168.491 95.316 168.421 92.966 168.213 90.699 168.513 90.17 168.583 89.918 169.418 90.559 169.546 95.185 170.248 99.927 169.988 104.587 170.278 104.814 170.324 104.765 170.279 104.81 170.426 104.918 170.784 104.661 171.518 104.601 171.889 104.234 174.164 103.737 176.415 103.211 178.658 98.958 178.984 94.513 179.156 90.331 178.434 90.183 178.257 90.302 177.42 90.305 177.189 90.31 176.752 90.328 176.315 90.358 175.879 90.509 174.02 90.934 172.208 91.098 170.349 91.166 169.938 90.605 169.621 90.377 170.045 90.224 170.328 90.074 170.603 89.931 170.878 89.909 170.92 89.87 170.91 89.871 170.863 89.899 170.008 89.788 169.212 88.949 168.759 88.22 168.365 87.342 168.573 86.616 168.225 86.368 168.106 86.129 168.116 85.927 168.203 84.827 166.655 84.425 171.592 84.322 172.169 84.146 173.476 83.781 174.91 83.859 176.231 83.99 178.461 86.354 178.938 88.173 178.983 88.367 178.988 88.57 178.887 88.704 178.734 88.874 179.774 89.761 180.103 90.691 180.201 95.064 180.739 99.493 180.732 103.867 180.211ZM88.355 171.861C88.236 173.782 87.981 175.687 87.608 177.574 85.657 177.45 84.984 176.809 85.422 174.838 85.626 173.146 85.894 171.423 86.003 169.729 87.959 170.425 88.732 169.076 88.355 171.861Z" class="MsftOfcResponsive_Fill_000000"/><path d="M108.974 169.606C108.223 171.746 108.355 174.108 108.53 176.33 108.587 176.85 109.038 177.353 109.62 177.16 110.832 176.758 111.994 176.204 113.042 175.472 114.004 174.8 115.09 174.035 115.319 172.811 115.622 170.364 116.319 167.602 115.17 165.291 115.007 164.979 114.556 164.789 114.219 164.904 112.117 165.62 110.093 166.67 108.538 168.278 108.093 168.737 108.456 169.517 108.974 169.606ZM114.076 168.896C113.992 169.962 113.853 171.032 113.712 172.092 113.634 172.677 113.488 172.929 113.048 173.314 112.185 174.065 111.189 174.67 110.144 175.123 109.995 173.553 110.39 169.97 110.412 169.801 110.397 169.511 110.4 169.13 110.128 168.989 111.337 168.125 112.588 167.346 113.966 166.788 114.15 167.467 114.132 168.187 114.076 168.896Z" class="MsftOfcResponsive_Fill_000000"/></g><path d="M23.086 385.452C22.233 385.335 21.828 386.603 22.719 386.783 24.293 387.103 25.867 387.422 27.441 387.742 28.927 388.044 30.543 388.53 32.056 388.265 32.614 388.167 32.665 387.343 32.21 387.087 30.898 386.35 29.224 386.295 27.753 386.093 26.197 385.88 24.642 385.666 23.086 385.452Z" class="MsftOfcResponsive_Fill_000000"/><path d="M65.334 177.723C64.59 178.232 64.082 179.007 63.501 179.686 62.889 180.402 62.266 181.113 61.609 181.788 57.683 186.006 53.363 189.878 48.479 192.96 47.768 193.413 48.409 194.528 49.143 194.095 54.196 191.092 58.914 187.393 62.691 182.87 63.269 182.146 63.85 181.424 64.408 180.683 64.987 179.915 65.681 179.139 65.961 178.205 66.064 177.864 65.646 177.51 65.334 177.723Z" class="MsftOfcResponsive_Fill_000000"/><g><path d="M20.659 42.671C20.963 43.01 21.522 42.652 21.406 42.236 20.814 40.101 19.813 38.074 19.087 35.976 16.519 28.645 15.404 16.286 19.963 9.621 20.344 9.124 19.511 8.488 19.096 8.952 12.611 16.505 14.737 35.191 20.659 42.671Z" class="MsftOfcResponsive_Fill_000000"/><path d="M8.861 34.465C9.62 36.343 10.36 38.4 11.76 39.905 12.025 40.155 12.626 40.004 12.568 39.57 12.44 38.615 11.951 37.742 11.643 36.839 8.857 30.933 7.042 23.709 10.206 17.582 10.529 16.959 9.64 16.435 9.263 17.031 5.93 22.283 6.644 28.92 8.861 34.465Z" class="MsftOfcResponsive_Fill_000000"/></g></g></g></svg>