<svg viewBox="0 0 177 400" xmlns="http://www.w3.org/2000/svg" xmlns:xlink="http://www.w3.org/1999/xlink" id="a56ab12d-8d26-4d77-bc1c-05e00ac4a4d0" overflow="hidden"><style>
.MsftOfcResponsive_Fill_000000 {
 fill:#000000; 
}
</style>
<g id="pose_standing_easing-1_1_" transform="translate(1765 5357)"><path d="M-1596.43-5190.19C-1592.33-5190.1-1594.24-5225.79-1596.34-5235.14-1596.72-5236.58-1596.64-5238.54-1596.74-5240.44-1593.35-5240.1-1594.44-5242.6-1594.61-5245.4-1594.56-5247.62-1594.14-5251.33-1597.54-5249.54-1606.16-5266.84-1600.64-5307.99-1613.89-5323.64-1616.28-5326.48-1619.67-5327.83-1623.77-5328.59-1627-5329.37-1630.32-5330.92-1633.04-5333.17-1635.59-5337.79-1638.87-5339.25-1643.64-5339.59-1643.6-5340.49-1643.75-5341.51-1643.66-5342.47-1643.38-5345.42-1645.79-5349.13-1649.61-5350.58-1654.11-5352.35-1659.35-5352.49-1664.05-5351.54-1667.93-5350.27-1668.47-5343.11-1669.34-5339.54-1674.57-5340.94-1681.22-5344.07-1684.04-5337.44-1685.4-5337.85-1686.84-5336.79-1687.66-5336.85-1699.29-5334.97-1711.13-5329.94-1715.44-5318.94-1718.1-5312.35-1716.08-5304.92-1715.09-5298.09-1714.16-5290.66-1716.65-5283.75-1717.79-5276.59-1719.48-5266.74-1719.79-5258.97-1718.69-5251.64-1721.61-5250.98-1721.34-5248.21-1720.16-5245.42-1719.81-5244.48-1719.46-5243.48-1718.69-5242.95-1717.13-5241.96-1716.04-5243.22-1714.34-5243.39-1713.98-5239.46-1713.27-5237.03-1712.14-5232.64-1712.46-5231.33-1713.19-5227.54-1713.19-5227.54-1716.84-5211.04-1727.81-5195.04-1724.22-5177.75-1724.14-5176.29-1720.03-5176.71-1718.24-5176.64-1713.98-5176.64-1709.95-5176.12-1706.14-5175.64-1705.44-5171.08-1703.63-5163.73-1699.59-5161.99-1699.52-5161.97-1697.79-5161.14-1697.69-5161.14-1702.65-5140.97-1708.73-5122.4-1715.49-5102.74-1723.36-5079.81-1731.71-5057.05-1735.85-5033.04-1735.9-5032.5-1734.2-5030.58-1733.09-5030.14-1734.53-5027.13-1735.09-5025.38-1736.52-5022.35-1737.19-5020.86-1738.22-5017.94-1738.42-5016.34-1740.01-5015.33-1742.18-5013.46-1742.15-5011.61-1746.43-5009.8-1744.38-5000.91-1745.35-4996.48-1746.34-4989.87-1750-4986.02-1753.22-4980.61-1753.88-4979.52-1755.46-4977.44-1755.49-4976.08-1757.48-4975.14-1758.69-4973.19-1758.55-4969.74-1758.56-4965.71-1757.35-4963.77-1754.29-4963.68-1745.97-4962.84-1735.72-4963.46-1727.35-4964.41-1721.1-4965.21-1716.82-4964.48-1718.22-4972.01-1718.51-4973.83-1718.41-4977.33-1719.49-4978.81-1720.15-4983.23-1718.44-4988.71-1717.02-4992.94-1716.15-4996.6-1714.08-5003.1-1714.69-5008.01-1714.97-5010.28-1720.47-5011.83-1721.29-5011.94-1721.95-5013.41-1721.57-5015.27-1721.22-5017.14-1720.38-5020.18-1718.96-5025.59-1716.89-5028.14-1713.16-5028.09-1700.26-5031.08-1698.18-5031.84-1697.72-5031.62-1696.49-5035.54-1696.49-5035.54-1689.88-5056.63-1683.57-5078.27-1676.49-5099.34-1668.04-5124.49-1658.41-5149.57-1649.89-5174.54-1649.21-5176.19-1647.92-5177.9-1646.98-5179.49-1646.68-5180-1645.75-5179.49-1645.74-5178.89-1645.03-5151.45-1639.56-5124.34-1639.06-5096.91-1638.38-5077.6-1638.56-5058.49-1636.74-5039.11-1636.28-5035.01-1635.7-5034.14-1635.09-5034.39-1634.84-5034.35-1633.84-5034.7-1633.59-5034.64-1634-5030.57-1635.04-5024.51-1636.79-5020.34-1640.64-5019.75-1639.01-5012.21-1638.74-5011.19-1642.37-5011.19-1643.97-5007.71-1643.72-5005.84-1643.37-5002.72-1643.04-4998.63-1641.69-4994.99-1640.46-4991.6-1638.27-4988.6-1637.5-4984.93-1637.01-4982.24-1636.56-4977.42-1636.09-4974.74-1637.27-4974.19-1637.39-4973.49-1637.59-4972.54-1638.61-4964.92-1634.98-4965.12-1628.59-4964.59-1624.76-4963.75-1596.44-4961.29-1597.34-4966.54-1597.44-4968.89-1597.64-4971.23-1598.05-4973.26-1598.23-4973.8-1602.17-4979.73-1604.34-4982.09-1611.61-4988.94-1610.98-4998.44-1610.75-5009.02-1611.18-5011.89-1613.38-5014.64-1616.19-5014.33-1615.39-5017.4-1616.88-5020.06-1620.01-5020.94-1619.69-5024.41-1619.37-5029.13-1618.22-5032.13-1618.22-5032.13-1610-5032.29-1609.94-5032.49-1607.7-5032.96-1606.47-5036.09-1606.87-5038.93-1606.35-5085.02-1606.57-5130.67-1607.28-5176.85-1603.79-5176.69-1600.38-5177.97-1596.94-5178.82-1595.44-5179.24-1595.38-5180.79-1595.52-5181.38-1595.71-5184.43-1596.09-5187.41-1596.43-5190.19Z" id="_Skin-7_4_" fill="#FFFFFF"/><g><path d="M-1722.22-5179C-1723.24-5178.27-1724.67-5178.95-1724.72-5180.2-1725.04-5189.21-1723.12-5197.45-1720.44-5205.24-1718.04-5212.21-1714.72-5218.81-1713.7-5225.95-1713.5-5227.39-1713.08-5230.77-1712.8-5233.01-1712.74-5233.46-1712.09-5233.51-1711.97-5233.06-1708.35-5219.42-1702.5-5197.34-1705.19-5187.89-1705.36-5187.28-1705.86-5186.77-1706.48-5186.61-1711.05-5185.42-1718.48-5181.68-1722.22-5179Z" fill="#FFFFFF"/><path d="M-1596.36-5183.25-1596.36-5183.25C-1605.42-5186.08-1614.49-5191.39-1624.04-5192.91-1630.02-5226.25-1632.5-5257.07-1633.88-5290.23-1634.64-5299.08-1636.95-5309.74-1636.35-5320.01-1636.26-5321.61-1636.76-5324.81-1636.87-5326.76-1636.79-5329.8-1636.39-5337.36-1640.47-5334.92-1641.13-5334.53-1641.99-5334.74-1642.32-5335.43-1642.45-5335.7-1642.59-5336-1642.73-5336.33-1643.22-5337.77-1644.03-5339.63-1643.35-5339.54-1638.43-5338.6-1635.86-5338.14-1633.57-5333.5-1633.48-5333.31-1633.34-5333.13-1633.17-5332.99-1628.4-5329.32-1622.19-5328.74-1617.29-5326.14-1609.49-5322.01-1607.19-5310.35-1605.55-5301.54-1603.28-5289.33-1603.29-5275.85-1601.42-5263.41-1600.56-5260.79-1599.52-5248.86-1596.71-5249.95-1593.85-5250.3-1595.07-5245.16-1594.74-5242.31-1594.64-5241.46-1595.29-5240.63-1596.13-5240.48-1599.2-5239.95-1604.01-5239.83-1607.14-5239.37-1608.12-5239.22-1608.65-5238.32-1608.32-5237.38-1603.34-5223.24-1597.8-5199.51-1596.36-5183.25Z" fill="#FFFFFF"/><path d="M-1687.86-5189.7-1687.91-5189.7C-1689.98-5194.4-1691.57-5198.1-1692.55-5203.48-1693.96-5211.18-1693.75-5221.41-1693.23-5227.98-1692.66-5235.19-1691.8-5242.62-1691.8-5244.28-1691.8-5245.12-1692.9-5245.52-1695.15-5245.52-1699.35-5246.44-1719.09-5241.48-1719.89-5243.81-1720.29-5244.98-1721.29-5247.34-1720.82-5249.81-1720.68-5250.57-1718.58-5251.57-1718.89-5253.21-1719.82-5258.28-1719.2-5264.92-1718.99-5266.95-1717.69-5279.21-1715.42-5283.58-1714.89-5293.68-1714.8-5299.66-1716.94-5305.62-1716.82-5311.61-1716.55-5328.63-1698.24-5335.35-1684.09-5337.28-1683.02-5340.55-1679.8-5342.53-1675.95-5341.21-1675.02-5341.04-1668.96-5340.28-1669.24-5339.05-1669.62-5337.41-1676.54-5337.24-1676.89-5336.21-1677.64-5334.92-1678.22-5326.75-1677.85-5324.42-1673.95-5300-1668.88-5275.31-1673.25-5250.61-1674.98-5238.47-1675.32-5226.04-1674.91-5213.47-1675.27-5206.6-1673.61-5199.03-1675.7-5192.56-1677.04-5192.3-1678.47-5191.87-1680.08-5191.38-1682.44-5190.66-1685.64-5189.69-1687.86-5189.7Z" fill="#FFFFFF"/></g><g><path d="M-1613.95-4963.54C-1618.97-4963.57-1634.17-4964.24-1636.42-4965.54-1637.84-4967.17-1638.49-4969.29-1638.17-4971.67-1637.95-4972.9-1635.82-4973.28-1636.42-4980.28-1637.02-4987.28-1644.06-4995.14-1643.02-5006.88-1642.86-5008.71-1639.21-5011.83-1639.09-5012.28-1638.69-5013.32-1639.76-5018.36-1638.41-5018.98-1634.74-5021.64-1630.39-5021.51-1625.95-5021.33-1618.7-5021.05-1616.09-5018.54-1616.31-5014.92-1616.32-5014.68-1616.04-5014.52-1615.8-5014.46-1611.54-5013.44-1610.38-5009.62-1610.59-5005.14-1610.75-5001.18-1611.78-4995.52-1610.55-4991.74-1608.86-4984.95-1600.82-4979.74-1598.18-4971.21-1597.87-4970.22-1597.62-4968.79-1597.51-4967.96-1597.35-4966.71-1597.27-4965.88-1597.99-4965.25-1602.03-4963.59-1609.09-4963.53-1613.95-4963.54Z" fill="#FFFFFF"/><path d="M-1745.26-4963.8C-1749.66-4963.79-1752.84-4963.66-1756.35-4963.94-1758.58-4964.21-1758.41-4966.6-1758.55-4968.68-1758.61-4969.53-1758.49-4971.94-1758.22-4972.74-1757.42-4975.08-1748.4-4986.81-1746.51-4991.34-1744.62-4995.88-1744.75-5007.61-1744.29-5009.28-1743.82-5010.94-1741.58-5012.18-1741.58-5012.18-1740.15-5018.94-1730.22-5017.54-1723.35-5015.61-1720.45-5014.79-1721.89-5013.61-1721.22-5011.74-1720.5-5009.72-1714.84-5011.81-1714.75-5007.28-1714.55-4997.21-1718.83-4989.72-1719.31-4986.87-1720.51-4982.02-1716.51-4967.21-1720.09-4965.28-1727.7-4963.83-1737.03-4963.93-1745.26-4963.8Z" fill="#FFFFFF"/></g><path d="M-1678.29-5326.64C-1678.29-5326.64-1672.14-5285.03-1671.59-5278.94-1670.49-5266.81-1674.13-5251.96-1674.22-5239.77-1674.24-5236.62-1674.32-5214.15-1674.99-5212.74-1675.18-5212.32-1675.37-5207.7-1670.19-5209.04-1658.48-5212.08-1629.2-5223.95-1629.31-5224.84-1629.42-5225.69-1631.49-5245.08-1632.35-5265.28-1632.88-5277.82-1634.8-5295.42-1635.89-5308.64-1636.72-5318.86-1636.82-5326.54-1636.87-5326.76-1639.04-5325.61-1641.09-5310.46-1651.59-5310.74-1662.89-5311.04-1674.99-5325.14-1676.71-5331.27-1678.02-5333.38-1677.8-5326.42-1678.29-5326.64Z" id="_Top-4_2_" fill="#FFFFFF"/><g><path d="M-1592.77-5209.09C-1592.64-5219.38-1594.69-5229.39-1596.32-5239.37-1593.24-5239.2-1593.15-5242.33-1593.44-5244.85-1593.34-5247.31-1593.33-5252.13-1597.03-5251.08-1605.54-5272.58-1598.81-5307.34-1613.9-5325.12-1618.91-5330.14-1627.18-5328.63-1632.52-5333.1-1635.19-5338.7-1637.45-5339.14-1643.12-5339.92-1643.46-5341.03-1643.36-5342.2-1643.64-5343.32-1645.23-5340.86-1643.55-5332.29-1640.52-5331.77-1639.61-5331.87-1640.03-5333.18-1640.33-5333.68-1639.85-5333.77-1639.35-5333.83-1638.86-5333.82-1639.56-5332.93-1639.38-5331.55-1639.39-5330.43-1639.41-5329.08-1639.54-5327.74-1639.76-5326.41-1640.9-5315.31-1651.69-5307.68-1661.42-5315.55-1667.88-5320.14-1676.23-5327.35-1675.81-5335.7-1674.47-5336.19-1673-5336.75-1671.17-5337.46-1672.09-5336.11-1671.18-5333.85-1669.46-5335.07-1667.79-5337.02-1666.99-5343.68-1668.23-5345.9-1668.43-5345.84-1668.58-5345.66-1668.69-5345.36-1669.01-5343.7-1669.36-5342.26-1669.95-5340.52-1674.86-5342.11-1681.82-5344.15-1684.48-5338.14-1697.01-5337.26-1711.38-5331.54-1716.3-5318.99-1719.07-5312.21-1717.15-5304.81-1716.12-5297.86-1715.19-5290.61-1717.68-5283.58-1718.8-5276.5-1720.23-5268.35-1720.96-5259.9-1719.81-5251.7-1723.99-5250.26-1722.35-5244.21-1719.86-5241.85-1718.33-5240.78-1716.45-5241.56-1714.8-5241.88-1713.95-5234.09-1712.29-5228.38-1709.66-5220.43-1708.15-5213.47-1707.02-5206.44-1706.27-5199.35-1705.82-5195.41-1705.19-5191.54-1706.57-5187.71-1712.66-5186.55-1718.38-5183.94-1723.24-5180.09-1724.9-5194.93-1716.64-5208.19-1714.05-5222.46-1713.69-5224.31-1713.37-5226.22-1713.36-5228.1-1713.41-5228.15-1713.51-5228.13-1713.53-5228.06-1716.88-5212.56-1727.49-5197.89-1726.37-5181.42-1725.93-5179.64-1726.75-5175.78-1724.17-5175.69-1722.28-5175.04-1720.69-5175.45-1718.81-5175.39-1715.26-5175.41-1710.77-5174.89-1707.22-5174.44-1706.42-5170.14-1704.03-5161.4-1699.17-5160.54-1707.94-5125.72-1722.54-5091.27-1731.69-5056.51-1733.3-5050.43-1734.63-5044.78-1735.79-5039.14-1735.79-5037.48-1738.52-5030.99-1735.78-5031-1735.67-5030.1-1734.69-5029.59-1734.27-5029.42-1736.07-5025.1-1738.51-5020.98-1740.09-5016.6-1741.62-5015.48-1742.65-5013.66-1742.78-5011.76-1747.51-5008.48-1745.75-5000.9-1746.92-4996.12-1747.82-4988.23-1755.39-4983.27-1757.27-4975.86-1759.71-4974.41-1760.02-4971.71-1759.94-4968.89-1760.09-4965.66-1758.94-4962.31-1754.94-4962.39-1748.51-4961.77-1742.36-4961.79-1735.74-4962.2-1730.88-4963.09-1718.65-4961.94-1717.13-4966.92-1716.62-4968.78-1717.05-4970.74-1717.1-4972.63-1717.24-4974.21-1716.93-4976.16-1717.88-4977.46-1721.02-4986.16-1706.57-5008.67-1717.47-5011.79-1718.15-5012.38-1719.17-5012.56-1720.01-5012.88-1719.93-5013.81-1719.98-5014.8-1720.51-5015.6-1719.42-5015.86-1719.18-5017.56-1719.01-5018.56-1718.23-5021.32-1718.08-5024.44-1716.35-5026.83-1712.62-5026.82-1709.08-5027.74-1705.4-5027.84-1705.11-5027.84-1704.85-5028.02-1704.74-5028.29-1702.7-5028.36-1700.68-5028.73-1698.75-5029.41-1697.95-5029.02-1696.86-5029.43-1696.63-5030.32-1690.27-5050.2-1683.79-5070.5-1677.05-5090.58-1666.74-5119.86-1657.98-5149.07-1646.67-5177.84-1646.1-5167.02-1645.59-5155.54-1644.39-5144.84-1641.97-5129-1640.32-5113.14-1639.95-5097.07-1639.29-5080.7-1639.37-5063.96-1638.33-5047.67-1637.77-5045.14-1638.5-5031.77-1635.09-5033.02-1635.04-5033.01-1635-5033-1634.95-5032.99-1635.36-5028.94-1635.75-5025.25-1637.23-5021.52-1640.96-5020.61-1640.91-5015.98-1639.96-5012.91-1640.34-5012.57-1640.72-5012.09-1640.58-5011.56-1643.38-5011.29-1644.88-5008.82-1644.58-5005.98-1644.13-5002.28-1644.58-4996.27-1642.12-4992.89-1641.05-4989.5-1638.98-4986.49-1638.29-4982.97-1637.83-4980.46-1637.98-4977.96-1637.6-4975.45-1638.79-4974.77-1639.04-4973.31-1639.19-4972.06-1639.93-4968.93-1638.61-4963.95-1634.58-4963.65-1627.47-4962.76-1618.1-4961.92-1610.8-4961.91-1606.28-4962.26-1597.45-4961.34-1595.76-4966.22-1595.52-4967.8-1596.12-4969.46-1596.47-4970.99-1596.79-4971.7-1596.98-4974.46-1597.89-4974.75-1598.76-4977.88-1601.02-4980.36-1603.17-4982.69-1615.94-4994.3-1603.81-5012.44-1615.09-5014.69-1614.54-5017.52-1616.31-5020.36-1619.01-5021.27-1618.73-5024.35-1618.38-5027.61-1617.22-5030.54-1617.19-5030.45-1616.84-5030.46-1616.97-5030.59-1615.52-5030.66-1607.83-5030.81-1607.96-5032.27-1605.55-5032.75-1605.43-5035.39-1605.81-5037.37-1605.28-5047.9-1605.41-5061.44-1605.58-5072.59-1606.04-5106.05-1605.22-5142.26-1606.21-5175.25-1602.93-5175.26-1599.82-5176.41-1596.68-5177.19-1592.46-5176.33-1595.29-5186.95-1595.22-5189.06-1591.94-5193.97-1593.08-5202.29-1592.77-5209.09ZM-1732.56-5015.86C-1730.15-5015.71-1725.75-5015.6-1722.73-5014.1-1722.51-5010.83-1723.81-5006.75-1724.1-5003.35-1729.17-5004.68-1734.68-5004.69-1739.57-5002.69-1740.33-5009.81-1742.55-5015.82-1732.56-5015.86ZM-1720.62-4966.74C-1728.11-4965.46-1736.56-4965.13-1743.9-4965-1748.08-4965.15-1752.37-4964.92-1756.16-4965.83-1757.78-4967.63-1757.44-4971.49-1756.93-4973.84-1755.96-4972.02-1753.91-4971.28-1752.08-4970.6L-1752.08-4970.6C-1741.99-4966.78-1729.24-4965.83-1719.8-4971.63-1719.87-4970.02-1718.78-4967.65-1720.62-4966.74ZM-1720.49-5009.64C-1720.4-5009.64-1720.31-5009.65-1720.22-5009.67-1719.52-5006.9-1716.15-5011.86-1715.96-5005.54-1716.08-4999.18-1719.02-4993.38-1720.37-4987.25-1721.7-4983.29-1720.38-4979.13-1720.89-4975.17-1721.99-4972.12-1727.05-4971.79-1729.95-4971.08-1737.88-4969.93-1747.2-4970.88-1753.83-4975.41-1753.54-4977.97-1751.1-4980.47-1749.96-4982.61-1746.66-4987.46-1743.83-4992.7-1744.03-4998.68-1743.62-5002.52-1744.58-5007.5-1742.79-5010.92-1742.49-5007.96-1741.43-5005.07-1739.74-5002.62-1740-5002.48-1740.27-5002.37-1740.54-5002.27L-1740.54-5002.27C-1741.27-5002.11-1743.38-5000.99-1742.06-5000.42-1741.87-5000.42-1741.63-5000.58-1741.86-5000.62-1741.98-5000.68-1742.04-5000.74-1742.03-5000.81-1736.89-5003.24-1730-5003.3-1724.53-5001.5-1725.55-4999.77-1722.03-4998.67-1721.94-5000.73-1720.11-5000.22-1720.39-5001.72-1721.68-5002.32-1721.29-5004.79-1720.89-5007.18-1720.49-5009.64ZM-1722.15-5016.92C-1725.69-5018.01-1728.93-5018.54-1732.06-5018.54L-1732.06-5018.54C-1733.51-5018.54-1734.96-5018.42-1736.4-5018.18-1734.91-5022.09-1733.17-5026.65-1732.24-5030.56-1731.98-5030.87-1731.7-5031.23-1731.78-5031.74-1726.81-5030.99-1721.95-5030.39-1717-5029.72-1719.18-5025.71-1721.32-5021.4-1722.15-5016.92ZM-1596.53-5248.66C-1596.49-5248.66-1596.45-5248.66-1596.42-5248.66-1596.27-5248.65-1596.24-5248.69-1596.17-5248.5-1595.91-5246.27-1596.02-5243.91-1595.89-5241.63-1599.48-5240.9-1603.27-5241.17-1606.79-5240.03-1607.25-5241.79-1607.68-5243.42-1608.09-5245.02-1604.94-5245.84-1600.85-5246.95-1597.37-5247.9-1596.99-5248.01-1596.68-5248.29-1596.53-5248.66ZM-1640.71-5336.28C-1641.06-5336.54-1641.53-5336.62-1641.95-5336.51-1642.32-5337.32-1642.64-5338.17-1642.89-5339.03-1641.43-5338.41-1639.93-5338.33-1638.41-5337.93-1634.22-5333.87-1632.89-5326.99-1630.96-5321.74-1631.7-5322.2-1633.13-5322.98-1634.42-5322.98-1634.71-5322.98-1635-5322.93-1635.27-5322.84-1635.93-5327.1-1633.3-5338.06-1640.71-5336.28ZM-1678.88-5341C-1676.03-5340.59-1673.26-5339.75-1670.4-5339.24-1670.5-5338.96-1670.59-5338.7-1670.71-5338.43-1671.44-5338.34-1672.26-5338.23-1673.07-5338.13-1674.03-5338.52-1675.16-5338.31-1676-5337.73-1679.33-5337.82-1678.69-5335.49-1678.45-5333.04-1678.72-5331.6-1678.83-5329.92-1678.8-5327.91-1681.82-5328.49-1684.16-5324.72-1685.79-5322.57-1686.01-5328.21-1685.18-5340.27-1678.88-5341ZM-1717.05-5244.39C-1717.4-5244.29-1717.78-5244.15-1718.14-5244.26-1719.37-5245.52-1720.56-5249.04-1719.52-5250.89-1715.04-5251.7-1709.6-5252.65-1704.62-5252.58L-1704.62-5252.58C-1700.49-5252.58-1696.06-5252.21-1690.67-5251.42-1687.35-5251.3-1687.06-5247.79-1688.11-5245.36-1690.7-5245.66-1693.25-5246.07-1695.87-5246.26L-1695.9-5246.28C-1699.9-5246.53-1704.44-5246.19-1708.09-5245.83-1708.23-5245.82-1708.36-5245.88-1708.44-5245.99-1711.38-5245.57-1714.27-5245.08-1717.05-5244.39ZM-1682.61-5170.62C-1683.09-5168.91-1684.22-5170.49-1683.95-5172.17-1683.77-5173.27-1685.12-5174.2-1685.55-5172.9-1685.88-5172.5-1685.75-5171.89-1685.59-5171.35-1685.29-5167.46-1685.18-5163.48-1685.15-5159.51-1687.22-5161.17-1687.29-5178.37-1689.69-5176.3-1692.28-5170.98-1689.64-5164.39-1690.73-5158.81-1692.78-5158.2-1694.34-5169.83-1694.58-5170.41-1694.88-5171.85-1694.71-5173.72-1695.34-5174.96L-1695.34-5174.96C-1695.9-5169.88-1694.74-5164.62-1693.38-5159.72L-1693.39-5159.72C-1693.54-5160.11-1693.94-5160.15-1694.32-5160.18-1700.67-5163.41-1699.72-5172.61-1701.84-5178.3-1702.71-5173.33-1701.92-5168.02-1699.78-5163.46-1704.91-5169.39-1705.97-5177.8-1704.84-5185.34-1704.62-5185.37-1703.67-5186.63-1703.52-5187.39-1703.49-5187.56-1703.45-5187.71-1703.49-5187.73-1702.95-5197.49-1704.69-5209-1707.32-5219.48-1708.76-5226.4-1712.26-5234.8-1712.96-5242.27-1707.63-5243.56-1701.92-5243.56-1696.53-5244.35-1695.16-5244.34-1693.8-5244.27-1692.44-5244.12-1693.77-5228.53-1696.33-5212.5-1691.84-5197.36-1690.14-5188.35-1679.91-5180.28-1682.61-5170.62ZM-1675.05-5250.48C-1676.74-5238.61-1677.13-5226.46-1676.54-5214.22-1676.35-5208.2-1676.16-5201.97-1676.38-5195.85-1676.44-5195.08-1676.69-5194.02-1677.19-5193.37-1680.68-5192.68-1684.09-5191.43-1687.68-5191.44-1696.05-5207.66-1692-5226.52-1691.31-5243.96-1690.32-5243.97-1689.19-5243.07-1688.3-5243.76-1686.19-5243.17-1686.3-5246.2-1686.05-5247.58-1685.86-5249.84-1686.88-5252.31-1689.36-5252.75-1690.16-5270.26-1686.94-5288.62-1690.39-5305.79-1690.56-5288.74-1693.06-5270.41-1692.08-5253.16-1700.72-5254.41-1709.53-5254.25-1717.94-5251.85-1720.23-5264.8-1715.46-5280.16-1713.97-5293.53-1713.88-5299.52-1715.98-5305.29-1715.86-5311.28-1715.56-5327.2-1699.13-5334.61-1685.43-5336.32-1687.61-5331.77-1688.7-5326.74-1688.61-5321.69-1688.29-5319.92-1689.33-5316.15-1686.74-5315.86-1686.19-5315.86-1685.69-5316.16-1685.43-5316.64-1684.01-5319.53-1682.02-5322.12-1679.65-5324.29-1679.14-5323.48-1679.18-5322.21-1679.05-5321.23-1678.02-5311.42-1676.23-5301.96-1674.89-5292.22-1672.59-5277.98-1673.05-5264.62-1675.05-5250.48ZM-1672.83-5210.88C-1673.25-5222.19-1673.33-5236.49-1671.72-5247.4-1670.77-5254.62-1669.65-5263.71-1669.59-5271.28-1669.51-5282.73-1671.43-5294.52-1673.19-5306.14-1673.84-5310.35-1674.52-5314.71-1675.09-5318.99-1675.41-5321.46-1675.29-5324.27-1676.69-5326.39-1676.74-5326.96-1676.77-5327.54-1676.78-5328.12-1668.05-5312.55-1645.61-5298.51-1637.81-5323.04-1638.11-5311.01-1636.35-5300.7-1635.41-5288.59-1633.85-5268-1633.61-5246.89-1630.76-5226.53-1643.15-5217.43-1661-5220.94-1672.83-5210.88ZM-1635.21-5022.8C-1635.12-5023.02-1634.6-5023.99-1634.34-5025.09-1633.61-5028.13-1633.1-5029.62-1632.52-5032.66-1628.11-5032.34-1623.83-5032.37-1619.46-5032.27-1620.46-5028.9-1621.13-5025.35-1620.68-5021.84-1622.58-5022.32-1624.66-5022.56-1627.04-5022.56L-1627.04-5022.56C-1630.11-5022.56-1632.89-5022.2-1635.66-5021.87-1635.5-5022.17-1635.3-5022.58-1635.21-5022.8ZM-1600.47-4965.73C-1611.02-4964.23-1621.85-4965.31-1632.84-4966.49-1636.45-4966.22-1636.86-4969.58-1636.56-4972.33-1636.44-4972.21-1636.31-4972.1-1636.17-4972.01-1636.2-4968.59-1631.62-4970.42-1629.35-4970-1619.1-4970-1609.1-4969.67-1598.89-4969.55-1598.42-4967.68-1597.65-4965.64-1600.47-4965.73ZM-1618.08-5017.62C-1617.28-5016.56-1617.53-5015.12-1617.66-5013.9-1618-5010.85-1618.28-5007.84-1618.7-5004.79-1624.27-5007.04-1632.47-5008.31-1636.2-5002.53-1630.97-5006.1-1624.43-5005.4-1618.92-5002.96-1619.23-5001.3-1617.16-5000.46-1616.71-5002.31-1615.55-5002.19-1615.44-5003.69-1616.43-5004.06-1616.13-5007.3-1615.61-5010.44-1615.22-5013.65-1608.1-5011.24-1614.1-5001.61-1612.6-4996.23-1612.07-4990.39-1609.66-4984.69-1605.54-4980.48-1603.65-4978.39-1601.21-4975.94-1600.86-4973.03-1611.58-4973.46-1622.02-4973.55-1633.86-4973.56-1634.01-4973.92-1634.33-4974.18-1634.7-4974.27-1635.74-4978-1635.06-4982-1636.54-4985.64-1640.34-4993.66-1643.25-5000.88-1640.25-5009.82-1639.93-5010.06-1639.6-5010.27-1639.25-5010.47-1639.25-5010.47-1639.25-5010.47-1639.25-5010.47L-1639.25-5010.47C-1639.25-5010.47-1639.25-5010.47-1639.25-5010.47-1638.45-5008.1-1637.67-5005.6-1635.94-5003.75-1635.42-5007.11-1640.71-5017.55-1636.41-5019.11-1630.55-5019.79-1623.11-5021.57-1618.08-5017.62ZM-1622.57-5194.03C-1625.06-5209.3-1626.97-5221.73-1628.61-5235.5-1631.39-5256.1-1630.97-5271.37-1632.41-5290.1-1633.19-5299.2-1636.27-5310.46-1634.05-5319.94-1632.01-5319.31-1630.42-5317.73-1629.36-5315.93-1622.81-5311.52-1631.12-5330.53-1632.03-5332.12-1626.78-5327.31-1618.18-5327.92-1613.7-5322.08-1601.77-5300.27-1606.62-5273.31-1599.31-5250.04-1602.46-5249.23-1605.58-5248.44-1608.76-5247.6-1612.21-5260.87-1614.96-5274.14-1616.5-5287.6-1615.35-5292.08-1615.02-5296.77-1613.21-5301.06-1612.89-5301.61-1612.47-5302.42-1613.16-5302.64-1613.33-5302.69-1613.49-5302.58-1613.49-5302.58-1614.63-5301.73-1615.02-5299.92-1615.37-5298.33-1615.89-5295.96-1616.59-5293.71-1616.89-5291.31-1617.22-5294.6-1617.78-5297.81-1617.94-5301.13-1617.94-5301.27-1618.17-5301.31-1618.19-5301.17-1620.99-5285.5-1617.91-5270.2-1614.41-5254.67-1609.06-5231.8-1601.09-5208.93-1598.62-5185.62-1606.7-5188-1614.11-5192.88-1622.57-5194.03ZM-1596.18-5195.56C-1598.51-5209.93-1602.7-5224.62-1606.46-5238.79-1603.37-5238.75-1600.35-5239.09-1597.29-5239.25-1596-5224.35-1595.05-5210.13-1596.18-5195.56Z" class="MsftOfcResponsive_Fill_000000"/><g><path d="M-1736.46-4976.35C-1740.49-4976.43-1744.31-4976.96-1748.16-4978.28-1749.04-4978.64-1749.66-4978.81-1749.42-4979.12-1743.3-4978.39-1737.09-4977.67-1730.94-4978.7-1728.9-4978.86-1727-4979.86-1724.97-4979.61-1721.99-4976.79-1734.67-4976.41-1736.46-4976.35Z" class="MsftOfcResponsive_Fill_000000"/><path d="M-1727.45-4986.75C-1733.08-4988.24-1739.26-4988.45-1744.45-4987.11-1739.86-4989.48-1734.54-4990.36-1729.43-4989.51-1728.51-4989.35-1727.17-4989.04-1726.62-4988.32-1726.11-4987.69-1726.64-4986.67-1727.45-4986.75L-1727.45-4986.75Z" class="MsftOfcResponsive_Fill_000000"/><path d="M-1725.71-4991.27C-1730.74-4992.77-1736.05-4993.94-1741.33-4992.73-1741.49-4992.53-1742.13-4992.68-1742.42-4992.55-1742.6-4992.52-1743.39-4992.27-1743.16-4992.66-1739.03-4994.59-1733.09-4994.88-1728.22-4994.17-1726.91-4994.06-1725.1-4993.79-1724.41-4992.6-1723.94-4991.76-1724.98-4991.19-1725.71-4991.27L-1725.71-4991.27Z" class="MsftOfcResponsive_Fill_000000"/><path d="M-1722.56-4995.32C-1723.21-4995.32-1724.02-4995.67-1724.81-4996.01L-1724.81-4996.01C-1730.01-4998.04-1735.73-4998.08-1741.11-4996.85-1741.13-4996.8-1741.86-4996.65-1741.54-4996.99-1736.13-4999.52-1729.76-4999.53-1724.07-4997.98-1723.28-4997.74-1722.33-4997.58-1721.76-4996.92-1721.17-4996.26-1721.67-4995.24-1722.56-4995.32L-1722.56-4995.32Z" class="MsftOfcResponsive_Fill_000000"/><path d="M-1733.15-5004.62C-1738.54-5004.5-1739.91-5012.39-1734.3-5013.41-1733.25-5014.31-1731.52-5014.27-1730.52-5013.32-1729.61-5013.11-1728.96-5012.21-1728.93-5011.29-1727.28-5008.4-1729.85-5004.41-1733.15-5004.62L-1733.15-5004.62Z" class="MsftOfcResponsive_Fill_000000"/></g><g><path d="M-1615.82-4978.82C-1621.46-4978.85-1627.13-4979.71-1632.03-4982.59-1632.41-4983.43-1630.52-4982.62-1629.96-4982.49-1624.42-4980.95-1618.54-4980.38-1612.83-4981.09-1611.95-4981.22-1610.45-4981.4-1609.96-4980.55-1610.45-4978.37-1614.05-4979.1-1615.82-4978.82L-1615.82-4978.82Z" class="MsftOfcResponsive_Fill_000000"/><path d="M-1629.88-4989.33C-1632.94-4990.25-1623.01-4992.51-1622.1-4992.32-1620.5-4992.44-1618.89-4992.38-1617.2-4992.23-1616.16-4992.16-1615.04-4992.02-1614.24-4991.29-1613.59-4990.72-1613.24-4990.07-1614.08-4989.65-1615.44-4989.18-1616.8-4989.74-1618.14-4990.1-1622.03-4991.01-1626.11-4990.71-1629.96-4989.76L-1629.42-4989.59C-1629.22-4989.5-1629.77-4989.3-1629.88-4989.33L-1629.88-4989.33Z" class="MsftOfcResponsive_Fill_000000"/><path d="M-1615.61-4992.77C-1616.98-4992.77-1618.22-4993.72-1619.48-4994.21-1623.65-4995.78-1628.32-4996.15-1632.65-4995-1632.67-4994.84-1632.7-4994.67-1632.73-4994.49-1632.66-4994.54-1632.58-4994.43-1632.64-4994.37-1632.91-4994.15-1633.36-4994.29-1633.41-4994.64-1631.67-4997.67-1623.31-4997.95-1620.07-4997.05-1618.21-4996.52-1615.13-4995.92-1614.46-4993.93-1614.26-4993.22-1614.93-4992.68-1615.61-4992.77L-1615.61-4992.77Z" class="MsftOfcResponsive_Fill_000000"/><path d="M-1636.06-4997.33C-1638.03-4999.38-1626.1-5001.16-1624.64-5000.88-1621.99-5000.6-1618.5-5001.17-1616.45-4999.18-1616.1-4998.69-1616.31-4997.42-1617.14-4997.46-1622.95-4999.61-1629.7-4999.28-1635.66-4997.72-1635.55-4997.5-1635.87-4997.32-1636.06-4997.33Z" class="MsftOfcResponsive_Fill_000000"/><path d="M-1628.45-5008.62C-1634.36-5008.98-1633.92-5017.5-1628-5017.46-1622.17-5017.4-1622.91-5008.49-1628.45-5008.62L-1628.45-5008.62Z" class="MsftOfcResponsive_Fill_000000"/></g></g></g></svg>