<svg viewBox="0 0 168 341" xmlns="http://www.w3.org/2000/svg" xmlns:xlink="http://www.w3.org/1999/xlink" id="9439c88c-4586-4bd0-86bd-76fad9ae07ee" overflow="hidden"><style>
.MsftOfcResponsive_Fill_000000 {
 fill:#000000; 
}
</style>
<g><path d="M160.363 318.751C162.055 315.27 157.382 315.232 157.382 315.232 157.382 315.232 128.226 304.924 127.303 299.846 126.38 294.769 130.149 272.921 130.149 272.921 130.149 272.921 134.072 249.304 139.765 237.38 145.784 224.773 146.689 216.686 145.15 209.301 144.064 204.087 138.024 189.934 138.024 189.934 138.024 189.934 142.438 190.915 143.794 187.915 145.15 184.915 139.124 171.183 139.124 171.183L141.432 167.606C141.432 167.606 131.769 152.833 128.393 143.258 124.588 132.469 118.7 125.834 118.7 125.834L118.995 121.68 118.553 118.824C134.92 101.755 134.583 97.996 134.843 91.062 135.103 84.129 126.381 66.368 126.381 66.368 126.381 66.368 112.457 37.212 107.158 31.846 101.206 25.818 94.763 24.98 94.763 24.98 94.763 24.98 86.378 24.518 85.839 23.865 84.9 22.724 87.397 19.442 87.397 19.442 83.502 3.142 63.76 6.671 63.76 6.671 65.501 16.093 63.068 19.364 63.068 19.364L49.221 21.749C37.537 21.749 27.527 48.52 27.527 48.52 27.527 48.52 6.756 82.522 6.679 91.138 6.635 96.042 30.854 114.64 30.854 114.64L55.657 128.91C55.657 128.91 45.57 154.046 41.387 161.259 37.204 168.471 48.605 167.298 48.605 167.298L42.537 186.328C47.153 194.55 67.491 194.405 67.491 194.405 67.491 194.405 68.222 207.762 65.529 219.301 62.836 230.84 61.913 248.38 62.76 257.611 63.5 265.687 67.895 283.517 67.895 283.517 67.895 283.517 74.472 305.47 74.126 308.903 73.982 310.333 71.119 313.453 70.491 316.057 69.337 320.846 68.068 321.711 68.068 321.711 65.472 327.769 72.049 328.346 72.049 328.346 72.049 328.346 80.184 329.788 85.377 332.731 89.991 335.346 94.493 336.712 102.859 336.654 111.225 336.596 117.283 335.385 119.879 333.365 122.475 331.346 119.648 328.634 119.648 328.634 121.582 325.588 115.554 323.838 113.55 323.351 113.403 323.315 113.407 323.105 113.556 323.075 115.656 322.658 122.745 321.512 130.841 323.094 140.88 325.056 150.573 325.383 154.4 325.21 158.227 325.037 162.969 324.178 163.093 323.845 164.946 318.841 160.363 318.751 160.363 318.751ZM57.813 117.636 26.356 90.056C26.051 89.788 25.97 89.345 26.162 88.988L41.351 60.656C41.554 60.278 42.098 60.286 42.288 60.671 44.229 64.622 51.831 80.05 53.212 82.185 54.799 84.637 58.645 95.099 59.126 99.35 59.607 103.6 58.858 117.172 58.858 117.172 58.849 117.709 58.216 117.99 57.813 117.636ZM120.048 85.264C120.261 85.673 120.398 86.548 120.249 86.984L116.632 96.899C116.417 97.529 115.499 97.438 115.413 96.778L112.099 74C112.036 73.569 112.571 73.319 112.862 73.643 115.363 76.427 118.95 83.155 120.048 85.264ZM112.639 247.919C110.764 255.458 110.331 287.585 110.331 287.585 110.331 287.585 109.919 292.929 107.735 298.98 103.84 309.769 106.148 316.722 106.148 316.722L105.302 318.616C104.919 319.414 104.394 319.872 103.61 319.462 97.284 316.158 95.104 312.614 92.301 308.769 88.993 304.23 83.685 264.612 83.916 249.149 84.147 233.686 90.82 223.907 92.224 218.378 93.628 212.849 92.839 204.069 92.839 204.069L94.147 197.222 108.744 194.693 113.648 203.78C113.648 203.78 121.272 216.554 120.302 224.916 119.687 230.225 114.514 240.38 112.639 247.919Z" fill="#FFFFFF"/><g><path d="M160.921 318.845C152.515 322.283 136.594 317.161 127.043 317.947 120.807 317.916 114.61 319.764 108.417 318.423 108.211 318.377 106.466 317.78 105.625 318.255 105.164 318.562 105.299 319.677 105.358 319.853 105.417 320.029 105.548 320.171 105.719 320.244 107.488 320.997 109.26 321.626 111.034 322.333 111.737 322.555 112.409 323.011 113.141 323.089 120.902 321.936 127.381 321.722 134.693 323.375 143.418 325.138 152.394 325.511 161.232 324.32 161.818 324.256 162.591 324.357 163.072 323.804 163.967 321.806 162.805 319.083 160.921 318.845Z" fill="#FFFFFF"/><path d="M119.743 329.148C118.94 329.17 118.14 330.255 117.228 329.729 116.981 329.597 116.678 329.638 116.475 329.83 115.948 330.33 114.998 330.297 114.08 330.266 107.713 330.327 101.056 329.929 95.714 329.471 90.373 329.101 85.311 328.839 80.437 326.37 77.367 325.147 73.933 325.107 71.121 323.367 70.566 323.015 68.992 323.312 68.865 323.071 68.597 322.51 67.676 322.689 67.645 323.316 67.065 327.45 72.608 328.626 75.672 328.94 78.6 329.5 81.392 330.718 84.093 331.897 89.989 334.656 96.221 336.338 102.947 336.279 107.01 336.259 117.626 335.183 120.716 332.365 121.114 331.705 120.74 329.746 119.743 329.148Z" fill="#FFFFFF"/></g><g><path d="M164.111 321.109C163.734 319.591 162.754 318.35 161.168 318.035 161.519 316.577 160.701 315.065 159.105 315.029 159.123 314.674 158.837 313.827 158.785 313.643 158.134 311.37 155.352 311.332 153.444 310.832 148.1 309.498 131.584 303.393 128.827 299.088 129.87 281.537 132.581 264.005 137.93 247.201 145.931 221.767 153.092 217.337 139.422 190.991 144.238 191.528 145.811 188.321 144.813 184.01 144.158 179.5 142.781 175.078 140.622 171.059 141.418 170.348 142.171 169.514 142.493 168.549 143.181 164.423 133.22 151.741 131.226 146.621 127.59 138.694 126.32 131.02 119.589 124.715 119.77 124.543 119.813 124.342 119.764 124.155 120.834 122.88 120.263 121.106 120.139 119.601 125.16 114.125 130.564 108.749 134.075 102.127 141.39 87.06 127.644 67.589 121.505 53.801 119.523 50 117.469 46.237 115.332 42.521 112.11 37.144 109.37 30.981 104.076 27.308 98.913 23.976 92.601 23.33 86.598 23.145 86.316 21.728 88.905 19.294 87.523 19.113 85.965 19.125 85.23 21.429 85.125 22.66 84.671 23.784 86.681 28.97 87.8 26.55 89.448 28.672 90.504 32.416 87.669 34.029 79.712 36.392 65.993 25.513 59.225 21.428 60.302 21.108 61.333 20.661 62.412 20.349 62.38 20.847 62.914 21.4 63.404 21.067 65.057 19.341 64.962 16.494 65.299 14.246 65.486 11.731 65.185 9.35 64.557 6.916 64.404 6.322 63.371 6.424 63.455 7.065 63.877 10.855 63.785 14.789 62.704 18.47 58.305 19.196 53.902 20.533 49.482 20.981 48.069 21.095 46.761 21.14 45.425 21.688 35.86 26.308 31.654 36.954 27.148 45.912 24.059 53.99-0.272 89.644 7.259 94.636 19.909 109.625 36.603 121.325 54.329 129.571 50.385 138.217 46.622 146.946 42.485 155.503 41.346 158.431 38.835 161.048 38.89 164.307 39.085 166.159 39.872 167.127 41.061 167.778 41.444 167.988 44.956 168.297 46.922 168.929 45.368 172.532 44.574 176.378 43.418 180.114 43.008 182.396 41.119 184.442 41.625 186.812 46.841 194.935 58.224 194.813 66.871 195.306 65.619 212.177 61.895 228.756 60.803 245.632 60.24 254.448 61.525 263.221 63.719 271.745 66.699 284.048 69.453 296.437 72.554 308.695 72.552 308.706 72.607 308.834 72.538 309.014 72.458 309.223 72.253 309.486 72.258 309.476 69.741 313.152 67.855 316.423 67.909 321.059 64.848 323.667 67.437 328.033 70.742 328.942 72.945 329.767 75.367 329.848 77.617 330.535 82.251 331.965 86.438 334.517 91.056 335.99 100.548 338.821 111.058 338.102 120.238 334.476 122.715 333.567 122.813 330.497 121.543 328.538 121.324 328.155 120.943 327.992 120.555 327.992 120.939 325.38 117.903 324.531 115.931 323.668 115.864 323.639 115.885 323.536 115.957 323.526 127.943 321.857 139.458 326.491 151.414 326.158 154.575 326.14 157.734 325.934 160.87 325.538 164.084 325.497 164.913 324.196 164.111 321.109ZM154.111 315.083C154.431 315.623 156.123 315.871 156.633 315.965 157.17 316.462 158.077 316.545 158.541 316.124 160.296 315.994 160.369 317.405 159.689 318.644 156.76 319.434 153.706 319.519 150.697 319.214 142.971 318.422 135.266 317.082 127.474 317.162 135.324 312.51 144.841 312.234 153.453 314.529 153.743 314.606 153.957 314.824 154.111 315.083ZM141.464 202.579C149.052 218.551 140.537 229.541 135.877 244.525 131.144 259.165 128.109 274.324 126.44 289.611 126.111 292.08 126.078 294.6 125.699 297.056 125.425 298.341 125.281 299.518 125.817 300.756 129.466 306.275 136.803 308.073 142.475 310.895 136.774 310.923 127.858 312.985 123.927 317.282 118.816 317.562 113.972 318.527 108.808 317.969 105.073 308.128 108.655 302.211 111.459 292.998 113.683 276.335 110.561 258.996 115.86 242.684 117.341 236.616 121.351 231.383 122.078 225.129 122.551 216.133 115.207 203.783 110.905 195.843 116.518 194.884 122.17 194.16 127.84 193.643 130.312 193.418 132.888 193.342 135.141 192.183 135.889 191.798 136.557 191.238 137.38 191.046 138.127 195.098 140.027 198.757 141.464 202.579ZM105.033 316.597C104.277 317.006 104.136 318.155 104.291 318.922 100.129 316.792 96.525 313.455 93.651 309.801 93.976 307.582 92.719 305.298 92.325 303.108 90.897 297.446 89.774 291.71 88.878 285.941 87.072 270.585 84.366 254.786 86.488 239.366 87.94 232.563 91.362 226.414 93.256 219.75 95.625 212.943 93.121 205.688 94.828 198.848 99.454 198.331 103.991 197.029 108.585 196.253 112.162 205.003 117.443 213.381 118.888 222.833 119.224 227.015 117.105 230.749 115.452 234.439 109.478 247.998 109.419 263.126 109.246 277.684 109.212 281.875 109.392 286.152 108.843 290.316 108.219 295.049 105.839 299.243 104.754 303.849 103.771 308.019 103.869 312.469 105.033 316.597ZM116.056 92.501C115.151 86.843 114.248 81.174 113.27 75.52 114.532 77.831 115.873 80.101 117.193 82.379 117.936 83.662 118.572 85.196 119.737 86.145 118.646 89.138 117.533 92.136 116.475 95.143 116.336 94.262 116.197 93.381 116.056 92.501ZM42.054 62.585C46.141 72.766 51.972 82.173 55.84 92.432 58.271 99.693 58.222 107.46 57.901 115.026 47.278 106.872 37.083 98.195 26.808 89.621 26.974 89.448 27.153 89.287 27.296 89.087 32.418 80.378 36.869 71.268 42.054 62.585ZM105.242 31.876C110.322 38.104 113.674 45.621 117.66 52.565 123.267 63.618 129.355 74.679 132.636 86.691 136.511 98.762 127.207 107.527 119.544 115.401 118.763 109.926 117.94 104.457 117.083 98.993 117.573 97.126 118.217 95.311 118.92 93.503 119.75 91.201 120.926 88.886 121.047 86.395 121.371 85.628 122.324 84.987 122.339 84.129 121.916 83.235 120.845 84.536 120.618 85.064 120.251 83.784 119.375 82.627 118.709 81.492 116.684 78.185 114.922 74.614 112.569 71.554 110.894 62.237 108.866 52.996 106.806 43.76 106.719 43.373 106.456 43.191 106.168 43.164 104.02 36.99 100.932 30.768 95.742 26.619 99.339 27.532 102.715 29.093 105.242 31.876ZM38.02 117.48C27.384 110.662 17.234 102.862 8.71 93.5 8.688 93.375 8.641 93.246 8.56 93.115 7.193 85.136 17.637 69.503 21.499 61.681 28.198 50.882 32.073 38.07 40.434 28.454 42.627 26.351 46.016 22.174 49.272 24.559 56.673 30.046 58.701 40.503 58.578 49.239 58.44 52.516 57.968 56.62 54.992 58.619 51.508 60.983 48.193 59.416 45.493 56.788 46.592 54.992 47.674 53.186 48.764 51.383 49.34 50.582 49.591 49.642 49.585 48.662 49.67 47.8 48.574 47.282 47.896 47.693 46.39 48.427 45.655 49.934 44.803 51.295 43.091 54.144 20.673 91.191 25.883 90.348 33.217 99.037 42.112 106.251 50.873 113.442 53.487 115.539 56.112 117.622 58.765 119.67 59.561 120.247 60.818 119.661 61.04 118.757 65.543 118.752 68.765 114.908 72.37 112.738 74.547 111.237 76.748 109.767 78.903 108.235 79.785 107.608 80.76 106.362 81.915 106.365 85.442 106.395 89.374 107.394 91.807 110.077 91.383 110.351 91.077 110.686 90.569 110.797 90.567 110.791 90.56 110.794 90.56 110.799 89.803 110.979 89.059 110.891 88.297 110.831 87.665 108 85.171 108.649 83.08 109.355 81.293 110.005 78.265 109.981 76.976 111.291 76.516 112.706 78.632 112.409 79.444 112.151 81.526 111.721 83.569 111.126 85.605 110.519 86.353 110.145 86.796 110.363 87.072 111.128 88.469 113.6 88.943 116.529 90.502 118.908 90.353 118.908 90.213 118.95 90.088 119.019 85.675 111.432 87.348 111.528 78.281 113.598 77.706 113.782 77.845 114.561 78.419 114.614 79.1 114.676 79.662 114.686 80.342 114.609 87.088 113.581 84.771 112.841 89.016 120.238 89.076 120.347 89.478 120.892 89.438 120.983 88.843 121.313 88 121.113 87.451 120.756 86.702 120.245 86.456 119.312 85.918 118.622 85.291 117.817 84.484 117.581 83.489 117.638 82.444 117.697 80.958 117.535 80.067 118.17 79.343 118.413 79.136 119.401 79.599 120.041 80.301 121.011 81.952 121.109 82.989 121.516 84.315 121.921 85.194 123.016 86.352 123.697 86.612 123.829 87.897 124.256 87.782 124.721 87.664 125.195 86.303 124.763 86.011 124.689 83.011 123.59 81.084 122.258 77.742 123.347 71.554 124.344 68.902 130.572 62.242 130.763 54.092 126.484 45.732 122.551 38.02 117.48ZM85.545 120.822C84.631 120.076 83.469 119.704 82.333 119.443 84.236 119.01 84.621 119.101 85.545 120.822ZM72.132 316.408C73.024 313.413 76.736 310.735 75.55 307.2 72.683 296.364 70.317 285.391 67.634 274.506 65.445 266.029 63.743 257.368 64.165 248.569 64.302 230.757 70.54 213.204 68.438 195.372 72.558 195.55 76.694 195.858 80.715 196.82 84.847 197.888 89.038 199.365 93.359 198.969 92.158 201.111 91.955 203.734 91.919 206.152 93.167 216.945 87.361 226.291 84.239 236.206 82.048 243.825 82.71 251.875 83.209 259.677 84.156 274.312 85.789 288.964 89.314 303.223 89.931 304.85 90.564 310.975 92.618 310.54 96.17 315.176 100.798 319.228 106.328 321.26 106.321 321.467 106.317 321.705 106.348 321.919 99.986 320.899 93.35 321.349 87.239 323.428 85.762 324.166 82.013 324.753 82.162 326.798 78.739 325.059 74.682 324.991 71.327 323.176 71.559 320.925 71.305 318.607 72.132 316.408ZM110.629 326.43C111.697 327.397 113.039 328.374 113.358 329.854 112.099 329.867 110.841 329.86 109.582 329.837 109.596 329.373 109.216 328.974 108.932 328.609 107.614 326.91 105.866 325.58 103.956 324.611 103.576 324.42 103.258 324.954 103.622 325.183 105.502 326.354 107.093 327.962 108.309 329.808 106.998 329.775 105.688 329.723 104.378 329.661 104.123 328.521 103.484 327.467 102.77 326.553 101.866 325.432 100.647 324.45 99.244 324.064 98.77 323.934 98.512 324.586 98.916 324.843 100.71 325.922 102.37 327.469 102.849 329.584 101.877 329.531 100.905 329.472 99.933 329.409 99.238 327.135 96.986 325.645 95.049 324.456 94.494 324.171 94.014 324.976 94.557 325.297 96.202 326.137 97.315 327.62 98.036 329.281 93.458 328.785 88.7 329.034 84.282 327.602 91.056 324.473 98.545 322.809 106.014 323.433 106.016 323.566 106.086 323.703 106.241 323.766 107.795 324.397 109.328 325.372 110.629 326.43ZM118.163 333.038C108.303 336.384 97.269 336.696 87.553 332.692 83.632 331.138 79.875 329.096 75.694 328.3 72.815 327.871 67.847 327.268 68.204 323.375 68.657 324.229 69.886 324.526 70.692 323.919 73.608 325.724 77.027 325.757 80.112 326.975 81.672 327.562 83.177 328.293 84.77 328.791 88.272 329.786 91.967 329.722 95.565 330.117 101.333 330.589 107.101 330.951 112.891 330.913 114.152 330.828 115.848 331.238 116.834 330.301 117.695 330.763 118.82 330.348 119.522 329.783 120.526 331.733 120.484 332.587 118.163 333.038ZM118.14 325.431C119.007 325.868 119.532 327.243 119.025 328.141 118.586 329.033 117.542 328.99 116.749 329.275 116.63 329.244 116.499 329.272 116.395 329.391 115.916 329.929 115.091 329.813 114.444 329.838 114.523 327.031 109.528 324.197 107.247 323.39 107.604 323.284 107.791 322.883 107.638 322.553 107.959 322.157 107.877 322.242 108.093 321.926 109.346 322.382 110.599 322.83 111.85 323.288 111.847 323.975 112.688 323.826 113.178 323.77 113.795 323.992 114.412 324.212 115.029 324.43 116.064 324.749 117.082 325.226 118.14 325.431ZM161.026 323.681C153.219 324.711 145.254 324.57 137.492 323.241 133.629 322.575 129.835 321.683 125.901 321.529 121.553 321.359 117.269 321.887 112.97 322.447 112.377 322.207 111.783 321.968 111.188 321.731 109.437 321.033 107.634 320.393 105.887 319.648 106.036 319.387 107.502 319.686 108.19 319.059 114.415 320.432 120.707 318.574 126.981 318.598 136.857 317.805 152.581 323.028 160.697 319.481 162.36 319.84 162.733 321.482 162.591 322.975 162.691 323.793 161.535 323.586 161.026 323.681Z" class="MsftOfcResponsive_Fill_000000"/><g><path d="M55.731 77.52C57.175 77.52 57.178 75.275 55.731 75.275 54.286 75.276 54.284 77.52 55.731 77.52Z" fill="#FFFFFF"/><path d="M72.87 74.932C71.195 75.693 72.689 77.743 74.078 76.999 75.421 76.197 74.231 74.159 72.87 74.932L72.87 74.932Z" fill="#FFFFFF"/><path d="M91.65 75.843C93.164 75.843 93.167 73.49 91.65 73.49 90.136 73.49 90.134 75.843 91.65 75.843Z" fill="#FFFFFF"/><path d="M106.364 73.544C107.704 73.544 107.706 71.462 106.364 71.462 105.024 71.462 105.022 73.544 106.364 73.544Z" fill="#FFFFFF"/><path d="M62.222 68.824C63.614 68.824 63.616 66.66 62.222 66.66 60.83 66.661 60.828 68.824 62.222 68.824Z" fill="#FFFFFF"/><path d="M81.042 64.891C79.263 65.721 80.849 67.944 82.352 67.133 83.808 66.263 82.518 64.052 81.042 64.891L81.042 64.891Z" fill="#FFFFFF"/><path d="M97.276 65.471C98.829 65.456 98.833 63.107 97.276 63.091 95.723 63.105 95.719 65.454 97.276 65.471Z" fill="#FFFFFF"/><path d="M66.117 88.421C67.688 88.406 67.692 86.031 66.117 86.014 64.546 86.029 64.542 88.404 66.117 88.421Z" fill="#FFFFFF"/><path d="M87.735 86.352C87.72 84.682 85.197 84.68 85.179 86.352 85.195 88.021 87.717 88.023 87.735 86.352L87.735 86.352Z" fill="#FFFFFF"/><path d="M101.89 83.136C101.533 82.735 100.809 82.735 100.453 83.136 99.777 83.636 99.753 84.835 100.592 85.21 100.78 85.303 100.972 85.339 101.157 85.332 101.351 85.344 101.553 85.308 101.751 85.21 102.59 84.835 102.566 83.635 101.89 83.136Z" fill="#FFFFFF"/><path d="M78.725 95.383C77.65 94.066 75.785 95.894 76.778 97.096 77.875 98.531 79.992 96.67 78.725 95.383L78.725 95.383Z" fill="#FFFFFF"/><path d="M62.702 100.105C63.488 99.166 62.733 98.246 61.656 98.607 60.6 98.625 59.883 99.841 60.696 100.677 61.292 101.309 62.44 101.017 62.668 100.184 62.68 100.157 62.691 100.131 62.702 100.105Z" fill="#FFFFFF"/><path d="M97.276 98.036C98.947 98.036 98.949 95.44 97.276 95.44 95.606 95.44 95.603 98.036 97.276 98.036Z" fill="#FFFFFF"/><path d="M108.096 97.468C109.614 97.454 109.618 95.158 108.096 95.142 106.577 95.157 106.574 97.452 108.096 97.468Z" fill="#FFFFFF"/><path d="M70.708 56.756C70.346 56.366 69.655 56.349 69.304 56.765 68.4 57.365 68.737 59.039 70.012 59.026 71.296 59.039 71.623 57.345 70.708 56.756Z" fill="#FFFFFF"/><path d="M89.487 59.074C91.14 59.074 91.143 56.505 89.487 56.505 87.833 56.504 87.831 59.074 89.487 59.074Z" fill="#FFFFFF"/><path d="M101.505 55.626C103.236 55.61 103.238 52.995 101.505 52.976 99.775 52.993 99.772 55.608 101.505 55.626Z" fill="#FFFFFF"/><path d="M78.667 49.566C80.363 49.55 80.365 46.988 78.667 46.97 76.972 46.986 76.969 49.548 78.667 49.566Z" fill="#FFFFFF"/><path d="M93.466 44.839C90.988 45.513 93.023 48.483 94.742 47.031 95.689 46.135 94.716 44.449 93.466 44.839L93.466 44.839Z" fill="#FFFFFF"/><path d="M64.386 43.508C66.057 43.508 66.059 40.912 64.386 40.912 62.715 40.911 62.713 43.508 64.386 43.508Z" fill="#FFFFFF"/><path d="M86.457 41.783C88.136 41.783 88.139 39.173 86.457 39.173 84.778 39.173 84.775 41.783 86.457 41.783Z" fill="#FFFFFF"/><path d="M92.935 34.852C92.583 36.568 94.961 37.325 95.519 35.622 96.137 33.485 93.237 32.604 92.935 34.852L92.935 34.852Z" fill="#FFFFFF"/><path d="M60.924 33.081C62.542 33.081 62.545 30.566 60.924 30.566 59.306 30.565 59.303 33.081 60.924 33.081Z" fill="#FFFFFF"/><path d="M74.34 38.652C75.889 38.652 75.891 36.245 74.34 36.245 72.791 36.245 72.788 38.652 74.34 38.652Z" fill="#FFFFFF"/><path d="M56.163 27.191C57.46 27.179 57.464 25.217 56.163 25.203 54.866 25.215 54.863 27.177 56.163 27.191Z" fill="#FFFFFF"/><path d="M92.262 28.773C92.255 28.561 92.192 28.358 92.069 28.187 92.065 28.173 92.06 28.156 92.052 28.132 91.797 27.31 90.638 27.309 90.383 28.132 90.36 28.175 90.339 28.218 90.32 28.26 90.126 28.59 90.126 29.016 90.309 29.391 90.511 29.728 90.8 29.885 91.094 29.909 91.457 29.957 91.852 29.81 92.126 29.391 92.147 29.347 92.165 29.303 92.182 29.258 92.246 29.111 92.277 28.947 92.262 28.773Z" fill="#FFFFFF"/><path d="M96.746 107.274C96.54 107.185 96.294 107.183 96.086 107.269 94.888 107.578 94.961 109.474 96.252 109.598 97.687 109.832 98.137 107.659 96.746 107.274Z" fill="#FFFFFF"/><path d="M107.663 107.99C106.389 108.966 108.147 110.762 109.27 109.816 110.619 108.784 108.871 106.803 107.663 107.99L107.663 107.99Z" fill="#FFFFFF"/><path d="M102.037 119.769C103.856 119.752 103.859 117.003 102.037 116.983 100.217 117 100.215 119.75 102.037 119.769Z" fill="#FFFFFF"/><path d="M70.68 133.607C70.037 133.755 69.666 134.437 69.812 135.024 70.035 136.503 72.772 136.495 72.745 134.821 72.759 133.762 71.596 133.32 70.724 133.593 70.71 133.597 70.68 133.607 70.68 133.607Z" fill="#FFFFFF"/><path d="M91.214 135.757C91.249 134.672 89.895 134.601 89.16 135.281 89.055 135.379 89.009 135.435 88.977 135.468 88.145 136.323 88.618 137.949 89.919 137.932 90.836 137.955 91.476 137.012 91.25 136.183 91.22 136.071 91.21 135.879 91.214 135.757Z" fill="#FFFFFF"/><path d="M108.528 135.809C110.383 135.792 110.385 132.989 108.528 132.969 106.674 132.986 106.671 135.789 108.528 135.809Z" fill="#FFFFFF"/><path d="M100.151 143.532C100.178 143.969 100.436 144.39 100.838 144.614 102.629 145.566 103.829 142.732 101.892 142.124 101.292 141.942 100.647 142.251 100.343 142.766 100.225 142.965 100.136 143.289 100.151 143.532Z" fill="#FFFFFF"/><path d="M79.495 144.163C79.402 143.645 78.994 143.181 78.374 143.198 77.979 143.191 77.617 143.373 77.368 143.659 76.42 144.394 76.815 146.184 78.235 146.181 79.39 146.181 79.866 145.001 79.495 144.163Z" fill="#FFFFFF"/><path d="M58.445 141.707C58.099 141.501 57.666 141.456 57.301 141.635 56.778 141.775 56.492 142.247 56.517 142.696 56.339 143.575 56.949 144.64 58.085 144.451 59.625 144.289 59.658 142.185 58.445 141.707Z" fill="#FFFFFF"/><path d="M115.725 144.678C115.841 145.204 116.309 145.65 117.097 145.732 118.311 145.771 118.988 144.152 118.095 143.322 117.296 142.448 115.668 143.096 115.684 144.267 115.685 144.285 115.688 144.508 115.725 144.678Z" fill="#FFFFFF"/><path d="M67.968 153.122C67.913 152.372 67.215 151.847 66.504 151.823 65.842 151.729 65.161 152.102 64.974 152.776 64.721 154.096 65.663 154.817 66.556 154.805 67.312 154.795 68.033 154.261 67.968 153.122Z" fill="#FFFFFF"/><path d="M94.005 152.715C94.813 152.009 94.436 150.513 93.384 150.279 92.354 150.009 91.577 150.511 91.501 151.299 91.471 151.612 91.518 151.811 91.577 152.075 91.813 153.126 93.267 153.503 94.005 152.715L94.005 152.715Z" fill="#FFFFFF"/><path d="M110.404 153.102C112.257 153.085 112.26 150.285 110.404 150.265 108.55 150.282 108.548 153.082 110.404 153.102Z" fill="#FFFFFF"/><path d="M124.108 152.977C125.753 152.977 125.755 150.421 124.108 150.421 122.463 150.422 122.461 152.977 124.108 152.977Z" fill="#FFFFFF"/><path d="M50.538 156.893C52.234 156.877 52.236 154.315 50.538 154.297 48.842 154.312 48.839 156.874 50.538 156.893Z" fill="#FFFFFF"/><path d="M57.895 165.588C59.644 165.572 59.646 162.929 57.895 162.911 56.146 162.927 56.143 165.57 57.895 165.588Z" fill="#FFFFFF"/><path d="M79.966 162.654C81.811 162.654 81.814 159.787 79.966 159.787 78.121 159.787 78.118 162.654 79.966 162.654Z" fill="#FFFFFF"/><path d="M102.47 163.993C104.367 163.993 104.37 161.045 102.47 161.045 100.573 161.045 100.57 163.993 102.47 163.993Z" fill="#FFFFFF"/><path d="M118.482 162.66C120.335 162.66 120.338 159.78 118.482 159.78 116.629 159.78 116.626 162.66 118.482 162.66Z" fill="#FFFFFF"/><path d="M131.465 162.41C132.996 162.41 132.999 160.03 131.465 160.03 129.934 160.03 129.931 162.41 131.465 162.41Z" fill="#FFFFFF"/><path d="M90.544 169.43C91.211 170.556 92.635 170.072 92.918 168.925 93.187 168.184 92.59 167.049 91.712 167.508 91.591 167.571 91.557 167.672 91.5 167.686 90.898 167.832 90.332 168.306 90.43 169.008 90.45 169.158 90.479 169.322 90.544 169.43Z" fill="#FFFFFF"/><path d="M115.56 170.938C116.586 170.435 116.318 168.681 115.02 168.686 113.733 168.677 113.451 170.431 114.45 170.928 114.658 171.031 115.098 171.165 115.56 170.938Z" fill="#FFFFFF"/><path d="M128.118 168.437C127.415 166.712 125.457 168.253 126.156 169.584 126.915 170.859 128.858 169.724 128.118 168.437L128.118 168.437Z" fill="#FFFFFF"/><path d="M70.012 166.677C71.486 166.663 71.49 164.434 70.012 164.419 68.538 164.433 68.534 166.661 70.012 166.677Z" fill="#FFFFFF"/><path d="M51.803 177.907C51.989 177.247 51.188 176.487 50.315 176.718 48.957 177.14 48.971 179.307 50.537 179.336 51.221 179.357 51.758 178.754 51.776 178.121 51.779 178.027 51.792 177.945 51.803 177.907Z" fill="#FFFFFF"/><path d="M53.566 186.744C53.348 185.839 52.344 185.394 51.602 185.85 51.495 185.916 51.338 186.015 51.17 186.229 50.682 186.849 50.755 187.879 51.532 188.308 52.557 188.923 53.919 187.902 53.566 186.744L53.566 186.744Z" fill="#FFFFFF"/><path d="M62.222 180.749C63.962 180.749 63.965 178.044 62.222 178.044 60.482 178.044 60.479 180.749 62.222 180.749Z" fill="#FFFFFF"/><path d="M66.983 188.856C68.575 188.856 68.578 186.381 66.983 186.381 65.39 186.382 65.388 188.856 66.983 188.856Z" fill="#FFFFFF"/><path d="M74.713 179.738C75.116 178.317 73.108 177.472 72.365 178.748 71.459 180.436 74.161 181.561 74.713 179.738L74.713 179.738Z" fill="#FFFFFF"/><path d="M80.909 188.279C80.893 188.001 80.788 187.752 80.626 187.55 80.487 187.358 80.3 187.203 80.06 187.112 79.724 186.951 79.4 186.949 79.117 187.051 78.917 187.111 78.727 187.223 78.564 187.396 77.738 188.278 78.141 190.259 79.533 190.23 80.542 190.256 81.041 189.189 80.909 188.279Z" fill="#FFFFFF"/><path d="M86.457 180.811C88.151 180.768 88.143 178.283 86.457 178.232 84.763 178.276 84.771 180.76 86.457 180.811Z" fill="#FFFFFF"/><path d="M98.575 182.385C100.193 182.385 100.196 179.87 98.575 179.87 96.956 179.87 96.954 182.385 98.575 182.385Z" fill="#FFFFFF"/><path d="M104.345 188.167C104.324 188.271 104.25 188.367 104.2 188.622 104.051 189.389 104.615 190.272 105.499 190.243 106.372 190.262 106.937 189.402 106.804 188.643 106.758 188.38 106.666 188.135 106.599 187.994 106.164 187.075 104.673 187.018 104.345 188.167L104.345 188.167Z" fill="#FFFFFF"/><path d="M112.158 181.85C113.188 181.363 113.006 179.521 111.729 179.426 110.269 179.192 109.754 181.252 110.952 181.841 111.255 181.991 111.779 182.029 112.158 181.85Z" fill="#FFFFFF"/><path d="M117.184 188.038C118.837 188.038 118.84 185.469 117.184 185.469 115.53 185.469 115.528 188.038 117.184 188.038Z" fill="#FFFFFF"/><path d="M124.973 181.844C126.452 181.844 126.455 179.545 124.973 179.545 123.494 179.545 123.492 181.844 124.973 181.844Z" fill="#FFFFFF"/><path d="M128.51 185.455C128.525 187.054 130.941 187.056 130.958 185.455 130.943 183.856 128.527 183.854 128.51 185.455L128.51 185.455Z" fill="#FFFFFF"/><path d="M134.927 180.647C136.537 180.647 136.539 178.145 134.927 178.145 133.317 178.146 133.315 180.647 134.927 180.647Z" fill="#FFFFFF"/><path d="M90.813 189.254C90.762 189.942 91.279 190.661 92.083 190.634 92.952 190.658 93.451 189.824 93.337 189.092 93.296 188.832 93.251 188.735 93.213 188.634 92.723 187.339 90.905 187.673 90.846 188.842 90.84 188.977 90.825 189.088 90.813 189.254Z" fill="#FFFFFF"/></g><g><path d="M40.311 168.196C43.318 168.138 46.296 169.397 49.057 170.445 52.079 171.592 55.077 172.96 58.243 173.669 62.028 174.516 66.101 174.213 69.934 173.923 74.251 173.596 78.569 173.094 82.906 173.22 87.215 173.345 91.328 174.231 95.477 175.334 99.367 176.368 103.381 177.398 107.438 177.103 111.017 176.843 114.53 175.933 118.082 175.455 120.99 175.064 123.927 174.949 126.845 174.662 130.136 174.338 133.709 174.148 136.752 172.797 139.854 171.42 142.441 170.487 143.975 167.454 144.615 166.188 142.757 165.077 142.06 166.335 140.659 168.862 138.703 169.369 136.09 170.634 133.629 171.825 130.565 172.003 127.869 172.311 124.941 172.646 121.994 172.769 119.066 173.101 115.655 173.488 112.308 174.27 108.909 174.727 105.055 175.245 101.351 174.555 97.617 173.605 95.553 173.08 93.506 172.486 91.423 172.036 89.391 171.597 87.315 171.327 85.245 171.149 76.823 170.425 68.439 172.678 60.025 171.784 56.64 171.424 53.357 169.876 50.197 168.708 47.112 167.568 43.659 166.282 40.312 166.665 39.36 166.777 39.303 168.216 40.311 168.196L40.311 168.196Z" fill="#FFFFFF"/><path d="M75.296 128.834C77.83 129.767 80.629 130.034 83.311 130.138 86.395 130.258 89.486 130.116 92.558 129.84 98.813 129.278 105.022 128.139 111.14 126.739 112.638 126.396 114.132 126.035 115.621 125.655 116.322 125.476 117.022 125.293 117.72 125.106 118.465 124.906 119.132 124.782 119.691 124.211 120.16 123.732 119.96 122.868 119.291 122.697 118.139 122.402 116.815 123.016 115.685 123.31 114.409 123.642 113.13 123.961 111.847 124.265 108.958 124.952 106.052 125.57 103.131 126.108 97.06 127.226 90.869 128.063 84.686 128.037 81.674 128.024 78.704 127.738 75.738 127.225 74.682 127.041 74.28 128.46 75.296 128.834L75.296 128.834Z" fill="#FFFFFF"/></g></g></g></svg>