<svg viewBox="0 0 208 410" xmlns="http://www.w3.org/2000/svg" xmlns:xlink="http://www.w3.org/1999/xlink" id="fd936194-e33e-45aa-afe1-66d94f8ed2fb" overflow="hidden"><style>
.MsftOfcResponsive_Fill_000000 {
 fill:#000000; 
}
</style>
<g><path d="M202.794 383.243C201.767 376.789 182.404 374.002 182.404 374.002L162.161 361.974C162.161 361.974 157.32 356.987 154.24 348.772 151.16 340.557 147.6 319.636 147.6 319.636L150.719 317.674 134.54 197.106 126.882 142.299C136.892 134.026 144.634 118.497 147.817 109.744 149.419 105.338 149.013 103.934 147.579 99.47L137.223 67.131 130.995 48.165C127.315 38.404 117.695 30.338 107.487 28.189 106.715 28.027 106.272 27.965 106.272 27.965L100.258 27.067 100.258 19.164C96.638 10.947 76.884 7.342 74.897 6.998 74.811 6.983 74.732 7.047 74.727 7.135L74.285 15.084 72.243 25.032C38.21 30.752 34.505 42.57 27.074 51.555 21.145 58.724 14.413 73.824 10.879 83.371 9.951 85.878 5.916 98.844 7.007 101.286 14.252 117.508 50.166 138.498 50.166 138.498 43.657 156.693 33.848 217.441 33.848 217.441L27.955 268.705 25.038 307.113C24.934 308.316 25.433 309.402 26.639 309.463 34.508 309.857 46.62 313.77 46.62 313.77L48.383 320.46 52.12 334.177 59.506 359.482C60.835 364.407 60.474 369.512 58.944 374.355 58.606 375.423 58.376 376.523 58.284 377.639L58.284 377.639C58.757 381.042 60.307 384.204 62.706 386.664L68.276 391.348 75.971 399.161C81.088 402.883 89.998 404.723 96.325 404.715 106.885 404.703 109.854 397.405 107.561 395.529 96.371 386.367 86.891 377.977 81.851 373.436 79.324 371.159 77.545 368.174 76.742 364.869L75.224 358.615C74.606 356.069 74.244 353.468 74.144 350.85L73.182 327.419C102.822 327.608 111.797 323.932 111.797 323.932 116.638 326.572 125.227 325.449 125.227 325.449L136.529 354.024C138.107 358.642 138.499 365.361 138.208 370.232L137.528 373.784C134.656 384.18 147.539 386.558 147.539 386.558L172.965 386.478C174.325 386.474 175.681 386.617 177.008 386.914 206.382 393.491 202.794 383.243 202.794 383.243ZM53.666 123.43 40.199 112.336 26.769 98.461C26.394 98.098 26.355 96.916 26.706 96.529L46.21 74.447C46.209 74.447 59.492 99.869 53.666 123.43ZM125.02 94.239 130.037 107.91 124.081 123.048C120.121 111.166 125.02 94.239 125.02 94.239Z" fill="#FFFFFF"/><path d="M150.404 316.518C139.371 250.867 133.662 185.517 122.465 119.468 122.084 118.256 120.429 119.734 119.677 119.647 117.977 120.078 116.285 120.362 114.853 120.582 101.178 122.653 69.495 123.556 56.772 116.19 56.656 116.123 55.301 115.324 55.242 116 54.968 118.087 54.65 120.399 54.1 122.495 54.025 122.734 54.11 122.993 54.312 123.142 56.415 124.698 58.435 126.107 60.563 127.523 62.3 128.688 64.096 129.892 65.772 131.185 66.064 131.423 66.546 131.293 66.675 130.938 67.925 130.314 69.445 130.05 70.783 129.529 71.978 129.067 73.158 128.667 74.449 128.839 76.807 129.261 78.825 130.571 81.322 130.811 83.762 131.11 87.464 132.147 86.865 134.974 85.612 136.96 82.551 136.963 80.379 136.813 79.959 136.823 79.379 136.507 79.019 136.867 78.93 145.301 68.423 150.553 60.89 150.452 60.682 150.449 59.655 149.203 59.477 148.437 58.398 146.443 57.203 144.436 56.105 142.696 55.993 142.514 55.788 142.433 55.582 142.411 54.351 142.005 53.253 141.079 52.153 140.344 49.837 138.449 50.302 140.567 49.732 142.327 48.447 147.486 47.051 152.492 45.814 157.682 38.276 188.497 32.783 220.465 29.478 252.68 27.574 271.241 27.217 289.987 25.509 308.378 25.441 308.749 25.803 309.116 26.177 309.043 27.447 308.85 28.816 309.004 30.14 309.153 33.762 309.511 38.312 310.427 42.056 311.468 43.232 311.793 44.47 312.162 45.541 312.779 45.732 312.889 48.353 315.269 48.353 315.269 48.355 315.427 48.36 315.583 48.37 315.736 48.674 320.635 52.9 322.899 57.25 323.946 64.146 325.867 73.901 326.88 82.148 326.852 91.45 326.846 101.283 325.743 110.44 323.865 110.78 323.795 113.066 323.872 113.267 323.985 119.489 327.494 137.737 322.725 145.067 319.845 146.308 319.304 150.474 317.922 150.404 316.518ZM48.355 315.287C48.355 315.3 48.355 315.313 48.356 315.325 48.355 315.309 48.355 315.295 48.355 315.287Z" fill="#FFFFFF"/><path d="M122.505 115.729C122.524 115.089 122.771 113.621 121.693 113.96 102.825 119.817 80.394 116.668 59.671 112.399 58.624 112.135 57.53 111.794 56.418 111.385 56.055 111.216 55.6 111.493 55.593 111.895 55.532 113.213 55.436 113.404 55.261 114.847 55.177 115.476 55.454 115.681 56.156 116.094 56.162 116.098 56.775 116.59 56.782 116.593 72.378 123.64 99.107 122.544 115.983 120.121 118.388 119.723 119.753 119.446 121.832 118.931 122.183 118.84 122.394 116.386 122.505 115.729Z" fill="#FFFFFF"/><g><path d="M203.846 382.12C200.93 375.904 192.899 375.186 186.984 373.608 178.118 371.573 170.748 366.001 162.997 361.538 153.486 350.067 151.675 334.787 148.508 320.743 152.962 318.281 152.427 317.786 151.921 313.066 143.288 256.353 137.02 199.302 128.117 142.628 138.017 132.615 148.344 118.778 149.823 104.42 151.593 103.768 147.712 96.032 147.445 94.255 144.169 84.053 141.245 73.741 137.947 63.545 135.163 55.592 132.977 47.134 128.229 40.082 121.792 32.386 111.115 26.377 100.997 26.056 100.721 24.702 100.715 23.292 100.943 21.929 101.092 21.045 101.501 20.011 101.28 19.126 100.429 17.827 99.601 20.027 99.54 20.855 94.971 21.662 90.267 20.898 85.779 19.915 81.837 19.113 78.254 17.248 75.233 14.635 75.533 12.024 75.885 9.376 75.538 6.756 75.385 5.723 73.832 6.168 73.973 7.187 74.247 12.868 73.12 19.094 71.047 24.412 47.09 27.681 35.817 34.692 22.963 55.249 14.959 68.49 7.94 83.005 5.664 98.429 5.714 99.409 5.177 101.067 6.398 101.42 14.166 118.654 34.267 128.349 49.023 138.989 38.93 171.04 33.96 204.51 29.676 237.765 27.404 261.356 23.398 285.391 24.56 309.009 23.928 310.491 28.753 310.666 29.722 310.914 34.632 311.752 39.712 312.473 44.32 314.425 45.48 315.056 45.973 315.964 46.356 317.132 49.204 335.139 58.113 351.797 59.564 370.093 56.405 374.229 55.859 380.678 59.316 384.798 62.458 388.22 65.937 391.341 69.177 394.673 77.018 404.114 99.243 412.102 108.449 401.252 113.16 395.647 103.963 390.345 100.198 387.217 92.473 382.19 86.239 375.397 79.603 369.097 74.122 356.337 75.251 342.162 74.287 328.64 86.888 329.207 100.065 329.266 112.177 325.407 115.987 327.278 120.472 326.984 124.59 326.776 129.95 339.649 134.493 352.959 137.596 366.492 136.976 372.665 133.602 381.173 140.555 384.95 142.645 386.08 145.01 387.807 147.484 387.377 150.701 388.437 154.389 387.877 157.709 387.723 162.48 387.502 167.239 387.438 172.01 387.706 181.382 387.636 190.614 391.653 199.931 389.94 203.232 389.223 204.958 385.17 203.846 382.12ZM148.062 104.515C145.261 118.14 137.307 130.145 127.679 139.965 126.756 134.371 125.781 128.786 124.751 123.213 127.542 118.806 128.502 113.573 130.465 108.787 131.938 108.558 131.242 106.79 130.859 105.908 129.773 102.648 128.65 99.401 127.618 96.123 133.603 97.123 140.949 95.614 142.651 88.911 143.971 93.264 145.324 97.607 146.8 101.908 147.195 102.764 147.31 103.898 148.062 104.515ZM46.669 76.393C51.466 88.961 55.828 102.369 53.84 115.982 53.592 117.796 53.268 119.588 52.869 121.378 43.622 114.331 35.217 106.244 27.232 97.812 32.578 89.729 40.423 83.717 46.669 76.393ZM125.228 96.434C126.342 100.322 127.901 104.071 129.247 107.871 127.297 112.131 126.58 116.853 124.341 120.995 124.053 119.768 123.977 118.439 123.55 117.26 123.664 110.294 124.024 103.307 125.228 96.434ZM129.259 107.848C129.259 107.839 129.26 107.828 129.261 107.819 129.263 107.824 129.265 107.83 129.267 107.835 129.265 107.839 129.262 107.843 129.259 107.848ZM44.238 133.211C30.671 124.119 16.227 115.158 7.528 100.892 9.131 93.404 11.15 85.994 14.053 78.893 15.863 82.274 26.125 91.393 30.006 90.792 29.272 91.926 23.203 98.164 25.99 98.695 34.539 109.072 44.449 118.305 55.43 126.066 56.908 126.864 66.341 134.629 66.68 131.466 71.409 131.15 72.677 128.248 77.749 130.953 80.19 132.152 85.13 131.299 85.941 134.508 84.597 136.452 80.886 135.721 78.799 135.72 77.675 135.441 76.192 136.235 77.847 136.948 77.239 145.112 68.292 149.11 61.103 149.891 61.926 148.257 57.523 143.42 56.404 142.033 56.017 140.747 54.439 140.193 53.438 139.417 50.371 137.35 47.305 135.28 44.238 133.211ZM74.557 363.336C75.847 370.831 80.633 374.09 85.741 379.052 88.923 382.072 92.25 384.946 95.856 387.451 90.214 388.616 84.688 390.866 80.206 394.528 80.154 394.526 80.076 394.531 80.066 394.54 72.947 391.999 68.044 384.55 66.113 377.474 65.446 374.829 64.539 372.047 62.367 370.244 61.472 354.028 54.488 338.917 50.524 323.306 57.197 327.222 65.3 327.634 72.824 328.527 71.407 340.039 72.048 352.001 74.557 363.336ZM120.23 324.552C117.78 324.565 115.379 324.496 113.227 323.552 104.927 286.786 98.15 249.64 95.497 211.988 95.4 210.759 93.497 210.73 93.557 211.988 95.595 249.524 101.343 286.98 110.908 323.334 99.057 325.252 87.099 326.957 75.058 326.055 67.763 325.174 48.801 325.007 48.89 315.342 46.41 295.815 45.631 276.146 45.913 256.487 44.145 253.612 44.023 265.458 43.985 266.34 43.864 281.664 44.371 297.009 45.776 312.272 42.89 310.784 39.584 310.269 36.443 309.545 33.025 308.953 29.512 308.158 26.031 308.463 31.095 251.962 35.582 195.067 50.762 140.156 52.337 141.105 53.753 142.527 55.552 143.012 57.115 145.247 58.169 147.863 59.798 150.017 59.513 150.039 59.227 150.057 58.941 150.073 58.389 150.102 58.415 150.848 58.941 150.912 66.915 151.907 79.422 146.459 79.38 137.276 88.153 138.918 91.284 131.695 81.349 130.231 77.535 129.746 74.398 126.94 70.511 128.983 69.118 129.635 67.169 129.65 66.07 130.721 62.35 127.896 58.325 125.494 54.6 122.671 55.469 119.163 55.914 115.53 56.12 111.923 74.651 117.068 103.52 120.579 121.883 114.492 121.873 115.41 121.817 116.339 121.879 117.252 121.615 117.51 121.508 117.947 121.617 118.367 104.14 122.233 72.71 123.226 56.416 115.732 56.028 115.488 55.547 116.08 55.916 116.379 68.184 124.394 107.638 123.969 121.827 119.571 132.942 184.996 138.767 251.303 149.784 316.694 142.561 321.468 128.889 324.249 120.23 324.552ZM132.769 340.256C130.88 335.643 128.866 331.083 126.752 326.569 133.675 325.729 140.628 324.279 147.037 321.469 147.962 336.23 151.977 351.033 160.343 363.359 167.575 367.6 174.843 372.682 182.919 375.481 185.652 379.433 174.043 381.141 171.661 380.629 167.695 380.412 163.765 379.547 159.841 378.969 156.223 378.436 152.475 377.804 149.335 375.81 145.618 373.373 142.809 369.831 139.586 366.819 140.008 366.564 140.159 365.747 140.162 365.305 140.161 365.309 140.16 365.314 140.158 365.318 139.219 356.654 135.914 348.342 132.769 340.256Z" class="MsftOfcResponsive_Fill_000000"/><g id="buttons_1_"><path d="M104.494 128.966C106.307 130.426 108.931 127.765 106.954 126.19 105.094 124.682 102.51 127.368 104.494 128.966Z" class="MsftOfcResponsive_Fill_000000"/><path d="M105.892 141.932C108.374 141.932 108.378 138.075 105.892 138.075 103.41 138.074 103.406 141.932 105.892 141.932Z" class="MsftOfcResponsive_Fill_000000"/><path d="M107.946 169.172C105.464 169.172 105.46 173.029 107.946 173.029 110.428 173.03 110.432 169.172 107.946 169.172Z" class="MsftOfcResponsive_Fill_000000"/><path d="M107.189 154.652C109.596 153.12 107.116 149.455 104.912 151.46 103.375 152.91 105.277 155.814 107.189 154.652Z" class="MsftOfcResponsive_Fill_000000"/></g><path d="M101.83 166.417C100.912 152.064 100.709 137.635 99.315 123.326 97.545 121.29 98.888 133.065 98.771 133.957 99.299 146.387 99.885 158.814 100.45 171.242 100.565 172.142 100.48 179.502 102.078 176.945 102.414 173.441 101.936 169.924 101.83 166.417Z" class="MsftOfcResponsive_Fill_000000"/><g><path d="M46.38 78.138C46.901 77.526 47.265 76.792 47.68 76.106 48.101 75.408 48.533 74.719 48.949 74.019 49.829 72.541 50.739 71.082 51.679 69.642 52.594 68.241 53.512 66.841 54.43 65.441 55.355 64.03 56.434 62.614 57.147 61.082 57.353 60.64 56.848 60.221 56.467 60.557 55.23 61.648 54.227 63.115 53.267 64.448 52.26 65.846 51.31 67.274 50.419 68.748 49.553 70.181 48.717 71.631 47.91 73.097 47.494 73.853 47.108 74.618 46.728 75.392 46.356 76.15 45.906 76.916 45.691 77.736 45.591 78.113 46.102 78.465 46.38 78.138L46.38 78.138Z" fill="#FFFFFF"/><path d="M124.056 60.206C124.856 61.409 125.465 62.858 126.01 64.194 126.537 65.486 126.959 66.819 127.286 68.175 127.956 70.951 128.276 73.843 128.008 76.696 127.778 79.144 127.071 81.51 126.268 83.824 125.56 85.863 124.749 87.886 124.341 90.013 124.102 91.263 123.978 92.54 124.032 93.813 124.091 95.218 124.244 96.705 125.016 97.912 125.316 98.381 126.078 98.205 126.079 97.624 126.083 96.336 125.72 95.098 125.663 93.813 125.613 92.684 125.697 91.555 125.908 90.445 126.317 88.284 127.071 86.213 127.738 84.124 129.365 79.028 129.781 73.726 128.548 68.486 128.199 67.001 127.688 65.554 127.086 64.153 126.769 63.415 126.42 62.693 126.031 61.991 125.617 61.242 125.107 60.578 124.661 59.853 124.424 59.467 123.806 59.831 124.056 60.206L124.056 60.206Z" fill="#FFFFFF"/></g></g></g></svg>