<svg viewBox="0 0 137 404" xmlns="http://www.w3.org/2000/svg" xmlns:xlink="http://www.w3.org/1999/xlink" id="e913b692-78ef-4c14-b627-414708f87aff" overflow="hidden"><style>
.MsftOfcResponsive_Fill_000000 {
 fill:#000000; 
}
</style>
<g><path d="M132.277 261.972C133.205 259.833 128.888 218.085 126.251 207.536 124.139 199.088 120.279 183.886 118.553 177.098 118.099 175.31 114.468 166.162 113.658 164.504L101.438 137.435C101.438 137.435 104.001 127.77 107.956 118.979 111.912 110.188 112.283 100.029 112.283 100.029L107.389 67.309 102.99 44.048C97.716 28.225 77.629 26.239 77.629 26.239L76.896 20.672C73.82 14.664 51.257 6.899 51.257 6.899L51.707 13.877C51.83 15.789 51.672 17.709 51.233 19.573 50.801 21.41 50.301 23.199 50.301 23.199 46.473 23.697 40.57 25.537 36.091 27.07 29.823 29.215 24.266 33.065 20.12 38.232 12.227 48.07 11.91 60.704 11.91 60.704L10.381 89.53 10.135 102.319C10.135 102.319 5.985 119.572 6.423 139.171 6.849 158.253 12.853 175.903 12.853 175.903L10.741 190.661C10.092 193.74 9.323 194.178 10.567 197.068L14.083 205.976 14.923 225.784C16.242 228.421 34.121 229.356 34.121 229.356L35.676 241.774C36.107 244.678 36.463 247.998 36.235 250.925 35.348 262.316 32.493 285.158 32.809 292.791 33.11 300.074 46.613 338.932 46.613 338.932L52.214 356.841C50.351 357.107 48.898 358.829 48.426 360.651L44.529 377.65C44.346 378.446 44.416 379.282 44.743 380.031 45.682 382.182 47.265 387.844 53.161 394.123 59.218 400.574 77.511 399.25 82.964 398.694 83.854 398.603 84.544 397.875 84.586 396.981L84.243 387.773C84.243 385.17 81.341 381.668 77.98 379.032 74.185 376.055 69.923 373.674 70.01 373.699 77.346 375.67 83.04 375.768 86.658 375.012 88.082 374.715 90.917 373.812 90.773 372.364 89.163 356.191 79.894 356.923 79.894 356.923L77.355 351.181C76.45 347.776 76.82 342.363 78.013 339.049 80.253 332.826 77.569 329.98 77.569 329.98L102.108 298.271C102.11 298.271 131.349 264.111 132.277 261.972ZM25.472 142.713 29.135 91.288 34.409 113.704 25.472 142.713ZM75.285 301.236C69.132 316.248 65.029 316.326 65.029 316.326L66.787 266.952 72.354 225.05 84.807 219.483 100.337 260.652C86.42 266.953 77.617 295.546 75.285 301.236Z" fill="#FFFFFF"/><path d="M124.933 206.502C121.086 187.127 114.887 167.931 106.508 149.448 99.373 137.528 96.443 125.059 95.359 112.905 88.422 115.208 77.564 117.512 64.751 117.219 52.123 117.369 41.194 114.997 34.027 112.805 33.864 112.916 33.768 113.101 33.771 113.298 33.812 115.967 32.479 118.599 31.866 121.239 28.52 133.472 23.965 147.211 23.728 160.389 23.454 164.717 23.171 169.192 22.399 173.495 22.495 174.353 23.046 175.162 23.333 175.974 25.597 180.345 25.297 183.333 25.271 187.985 25.354 191.957 27.719 199.088 24.486 202.032 19.635 203.168 20.613 193.462 19.474 190.389 17.741 187.251 14.802 204.379 26.037 207.122 27.157 207.777 27.332 209.647 25.794 210.021 22.25 210.003 18.982 208.071 15.711 206.798 15.306 206.618 14.825 207.018 14.921 207.449 15.907 212.88 16.824 222.193 15.307 225.594 15.144 225.933 15.389 226.383 15.772 226.415 21.719 227.054 28.138 228.814 33.733 228.256 46.206 229.893 59.791 227.692 71.705 224.438 87.576 219.584 108.659 206.269 124.326 207.203 124.691 207.233 125.018 206.863 124.933 206.502Z" fill="#FFFFFF"/><g><path d="M65.958 333.194C66.043 333.248 66.09 333.329 66.102 333.442 66.197 334.637 67.684 337.729 68.529 336.104 69.242 332.524 72.641 327.192 76.86 329.316 77.164 329.473 77.534 329.33 77.67 329.019 78.331 327.789 78.956 326.627 79.728 325.525 86.553 316.54 80.993 324.1 71.487 311.508 70.391 309.983 68.583 316.147 65.952 316.675 65.717 316.757 65.559 316.978 65.558 317.227 65.778 322.412 65.12 328.114 65.958 333.194Z" fill="#FFFFFF"/><path d="M64.325 351.396C61.854 328.88 68.923 342.189 47.693 339.706 47.558 339.857 47.511 340.066 47.567 340.26 48.175 342.353 48.904 344.471 49.61 346.519 50.991 350.103 51.902 354.009 52.945 357.573 53.855 358.283 54.685 359.15 55.481 360.224 57.402 361.923 55.56 354.963 60.155 351.939 62.13 350.483 64.233 353.182 64.325 351.396Z" fill="#FFFFFF"/></g><g><path d="M88.699 366.12C87.679 361.618 84.162 358.283 80.064 357.623 79.339 357.506 79.334 356.307 79.021 355.911 75.151 350.722 74.742 342.496 78.607 336.465 78.966 335.88 78.495 335.228 78.496 334.501 77.774 326.046 70.899 329.337 69.126 335.165 68.213 338.165 66.892 336.542 66.239 336.716 65.299 336.805 66.088 341.288 65.962 342.179 66.218 346.126 66.163 350.207 65.772 354.15 66.835 356.737 67.204 359.425 67.593 362.271 67.88 363.275 67.967 367.655 68.961 367.807 75.02 368.381 84.164 371.67 88.699 366.12Z" fill="#FFFFFF"/><path d="M80.693 381.861C79.11 380.087 77.194 378.89 74.804 377.639 73.796 377.48 71.09 375.965 70.731 375.288 65.08 369.223 68.582 358.321 62.056 352.943 58.703 353.389 56.986 359.156 56.847 362.117 56.507 362.365 56.573 362.931 56.18 363.141 55.115 363.275 54.765 361.618 54.215 360.832 53.62 359.725 52.705 358.94 51.97 357.99 51.753 357.691 51.264 357.686 51.043 357.985 47.536 362.098 48.137 367.99 46.302 372.744 46.133 372.995 46.182 373.332 46.416 373.524 54.268 380.969 49.253 388.007 64.328 392.082 69.034 393.246 73.67 393.114 78.328 392.952 86.549 393.418 84.557 385.884 80.693 381.861Z" fill="#FFFFFF"/></g><g><path d="M101.281 97.451C99.862 98.086 98.674 99.157 97.939 100.534 97.658 101.06 98.376 101.692 98.802 101.2 100.815 98.771 104.031 98.545 106.944 98.801 107.412 98.769 107.777 98.152 107.362 97.792 105.707 96.361 103.173 96.605 101.281 97.451Z" class="MsftOfcResponsive_Fill_000000"/><path d="M133.311 259.328C130.485 220.268 125.04 178.761 105.331 144.606 103.989 141.958 102.732 139.266 101.637 136.511 103.153 137.02 103.457 134.133 103.919 133.17 105.125 129.485 106.437 125.835 107.654 122.154 114.231 103.271 112.787 98.367 109.944 79.3 106.961 65.194 107.776 46.993 98.695 35.377 93.341 29.861 85.623 25.774 77.844 25.572 77.636 23.962 77.374 22.366 77.506 20.735 77.545 19.593 75.868 19.637 75.759 20.735 75.664 21.689 75.706 22.641 75.826 23.591 77.622 31.504 74.645 39.72 74.546 47.774 65.25 42.193 56.841 34.767 49.883 26.459 51.777 24.138 51.983 20.866 52.369 18.002 52.892 17.115 52.21 2.37 50.255 6.849 50.977 12.244 50.707 17.986 49.059 23.19 12.683 25.432 8.599 54.747 9.216 84.829 9.134 88.515 9.011 92.202 8.991 95.887 8.974 98.913 8.712 101.936 8.691 104.958 8.689 105.206 8.818 105.387 8.995 105.49 3.634 128.772 4.101 153.878 12.023 176.475 10.572 182.142 10.398 188.052 9.275 193.773 9.285 196.256 10.616 198.647 11.287 201.018 11.89 202.723 12.274 204.587 13.456 206.021 13.307 211.045 14.051 216.281 13.758 221.384 13.715 222.889 13.292 224.968 14.421 226.165 14.029 228.607 30.822 230.14 33.248 230.337 33.387 233.922 33.842 237.493 34.162 241.067 36.483 258.117 30.867 274.887 31.816 291.898 32.477 300.356 35.397 308.392 37.928 316.425 42.24 329.7 46.183 343.056 50.521 356.315 46.338 359.242 45.994 364.927 44.898 369.5 44.435 371.689 44.053 373.808 43.64 376.023 43.495 376.864 42.733 379.41 43.784 380.027 49.456 393.694 54.204 399.641 69.778 400.443 72.983 400.587 84.073 401.168 85.25 397.724 85.916 395.949 85.888 390.907 84.934 389.33 84.666 382.594 78.574 377.734 72.869 375.099 76.73 376.613 89.649 377.354 91.43 372.769 91.632 366.043 88.475 357.476 80.982 356.388 78.324 350.928 76.338 346.631 78.459 340.461 79.102 338.773 79.407 337.036 79.851 335.303 79.925 335.089 79.845 334.902 79.702 334.78 79.532 332.964 79.31 331.023 78.093 329.605 93.994 309.397 111.261 290.284 127.451 270.301 129.455 267.848 131.259 265.244 132.783 262.465 133.44 261.641 133.275 260.346 133.311 259.328ZM111.52 99.736C110.578 112.244 104.058 123.508 101.266 135.56 97.859 126.705 96.585 117.13 96.546 107.678 96.861 99.33 98.781 91.106 98.963 82.75 99.297 81.623 99.221 80.395 99.594 79.264 100.294 76.491 101.989 74.107 102.884 71.407 104.213 70.823 105.08 69.945 106.256 69.078 107.906 79.308 109.196 89.635 111.52 99.736ZM33.57 112.766C31.793 114.616 31.564 117.521 30.684 119.872 29.145 124.995 27.673 130.141 26.304 135.312 27.374 121.957 28.373 108.596 29.37 95.235 30.412 101.119 31.102 107.284 33.57 112.766ZM14.039 204.292C12.857 201.741 12.141 198.999 11.16 196.366 10.947 195.751 10.73 195.088 10.414 194.496 11.335 193.363 11.325 191.683 11.611 190.294 11.858 188.616 12.04 186.931 12.209 185.243 12.538 181.946 12.877 178.663 13.502 175.407 13.58 175.001 13.284 174.751 12.981 174.749 11.143 165.606 8.773 156.528 7.946 147.2 6.068 132.371 8.31 117.362 10.378 102.826 12.053 90.171 11.412 77.362 12.293 64.65 15.832 68.334 24.853 71.486 29.921 71.106 27.27 105.178 23.659 139.203 21.813 173.312 21.713 173.436 21.676 173.607 21.754 173.812 22.639 176.123 23.767 178.344 24.406 180.744 24.811 182.265 24.628 183.831 24.572 185.382 24.423 189.813 25.738 194.196 25.231 198.629 25.116 199.626 24.902 201.902 23.416 201.628 20.709 201.41 20.9 192.401 19.635 189.823 20.093 188.269 17.577 188.278 17.617 190.763 16.933 195.08 16.612 199.985 19.384 203.672 22.057 207.487 26.944 207.077 25.888 209.056 25.876 209.078 25.796 209.145 25.778 209.145 22.762 209.191 20.026 207.591 17.294 206.496 16.05 205.935 14.706 205.563 14.039 204.292ZM34.226 227.988C34.038 227.553 33.398 227.541 33.216 227.929 28.479 227.635 23.754 227.081 19.058 226.308 17.977 226.13 16.898 225.963 15.813 225.831 17.548 221.944 16.263 211.715 15.469 207.342 18.819 208.65 22.133 210.609 25.801 210.606 27.811 210.377 28.004 207.431 26.233 206.577 18.511 203.97 17.75 198.127 18.987 190.906 19.956 194.217 19.361 200.16 22.134 202.32 25.238 204.082 26.569 200.685 26.618 198.103 26.939 194.694 26.051 191.331 25.828 187.944 25.71 186.251 25.877 184.581 25.867 182.889 25.847 179.597 24.11 176.598 22.947 173.597 24.77 163.429 23.855 152.799 26.62 142.851 28.473 135.676 30.337 128.503 32.404 121.386 33.035 118.691 34.368 116.081 34.328 113.288 48.506 119.07 80.962 119.51 95.016 113.399 95.477 126.235 99.571 138.6 105.944 149.688 114.198 167.894 120.434 187.003 124.328 206.615 108.233 205.737 87.083 219.16 71.506 223.873 59.452 227.394 46.742 228.688 34.226 227.988ZM84.355 221.713C85.838 226.869 88.088 231.785 89.87 236.843 92.952 244.584 95.446 252.64 99.255 260.055 92.189 264.001 87.648 271.194 83.425 277.87 77.549 287.857 75.126 299.479 69.209 309.458 68.259 311.111 67.162 312.67 66.135 314.275 66.401 284.83 69.114 255.464 72.672 226.255 76.659 224.995 80.5 223.332 84.355 221.713ZM37.486 306.72C31.218 290.397 35.891 273.282 37.246 256.561 37.591 247.838 37.221 238.917 34.998 230.444 47.028 231.107 59.146 229.842 70.801 226.796 64.502 262.776 62.407 299.398 62.973 335.894 58.561 339.156 52.812 339.363 47.576 338.488 44.171 327.914 40.746 317.341 37.486 306.72ZM48.101 340.097C53.056 340.952 58.49 341.001 63.024 338.538 63.186 342.853 63.018 347.218 63.716 351.49 59.009 348.794 55.805 355.96 55.923 359.873 55.154 358.838 54.293 357.905 53.276 357.11 52.207 351.379 49.743 345.751 48.101 340.097ZM74.502 378.158C76.596 379.253 78.619 380.448 80.231 382.255 82.406 384.581 85.746 390.446 81.261 392.083 80.028 392.393 78.655 392.338 77.391 392.392 73.066 392.553 68.681 392.566 64.455 391.517 49.064 387.267 54.307 379.261 46.76 373.07 47.681 371.701 47.567 369.862 47.994 368.298 48.541 364.777 49.229 361.215 51.476 358.345 52.187 359.275 53.11 360.063 53.676 361.12 54.249 362.071 54.569 363.28 55.663 363.72 56.367 363.989 57.014 363.289 57.108 362.657 57.277 362.541 57.4 362.359 57.404 362.127 57.486 359.308 59.058 354.656 61.768 353.469 63.397 354.268 63.707 356.513 64.804 357.843 66.636 363.647 65.954 370.779 70.175 375.548 70.603 376.41 73.504 378.015 74.502 378.158ZM78.14 336.076C77.808 336.448 77.554 336.837 77.359 337.292 74.422 343.282 74.463 350.791 78.52 356.26 76.905 356.044 76.275 358.006 77.811 358.121 82.8 357.699 87.027 361.529 88.097 366.25 82.239 370.692 75.506 367.885 68.99 367.224 67.964 362.795 68.03 358.177 66.283 353.929 67.108 348.412 66.419 342.833 66.354 337.284 66.888 338.285 69.829 338.949 68.836 337.072 70.181 334.511 71.13 330.86 74.297 330.041 77.82 329.417 77.605 333.755 78.14 336.076ZM79.22 325.187C78.414 326.334 77.759 327.561 77.097 328.792 72.498 326.45 68.726 332.004 67.925 335.987 67.274 335.263 66.766 334.357 66.655 333.375 66.619 333.062 66.456 332.836 66.244 332.701 66.14 327.544 66.097 322.386 66.116 317.228 68.429 316.426 69.626 313.754 70.981 311.848 73.794 315.791 77.862 319.004 82.303 320.901 81.261 322.319 80.232 323.747 79.22 325.187ZM128.787 264.355C113.915 282.695 97.753 300.016 83.696 319.011 79.601 316.322 74.752 314.041 72.367 309.502 79.475 296.877 81.973 281.814 91.281 270.414 93.484 267.726 95.96 265.24 98.78 263.2 100.059 262.207 101.872 261.173 101.552 259.317 100.182 254.169 97.797 249.339 95.883 244.375 92.507 236.628 89.677 228.621 86.085 220.978 96.799 216.802 113.564 208.306 124.825 209.138 127.837 224.567 129.421 240.216 130.281 255.897 130.436 257.95 130.363 260.084 131.043 262.04 130.286 262.806 129.531 263.575 128.787 264.355Z" class="MsftOfcResponsive_Fill_000000"/><g><path d="M18.172 55.277C16.016 55.277 16.012 58.629 18.172 58.629 20.329 58.628 20.333 55.277 18.172 55.277Z" fill="#FFFFFF"/><path d="M28.347 53.553C27.523 51.228 23.935 52.716 25.161 54.916 26.105 56.805 29.236 55.575 28.347 53.553Z" fill="#FFFFFF"/><path d="M22.142 42.365C20.625 40.82 18.246 43.212 19.786 44.722 21.302 46.267 23.682 43.875 22.142 42.365Z" fill="#FFFFFF"/><path d="M31.989 40.555C35.943 39.979 32.054 34.747 30.368 38.317 30.362 38.329 30.294 38.542 30.283 38.612 30.131 39.58 30.981 40.592 31.989 40.555Z" fill="#FFFFFF"/><path d="M35.944 28.076C34.548 26.634 32.3 28.871 33.753 30.267 35.145 31.716 37.419 29.452 35.944 28.076Z" fill="#FFFFFF"/><path d="M48.156 36.621C46.607 35.041 44.176 37.485 45.749 39.028 47.298 40.607 49.729 38.163 48.156 36.621Z" fill="#FFFFFF"/><path d="M42.723 50.066C44.163 47.707 39.6 46.36 39.562 49.21 39.562 50.97 41.805 51.413 42.723 50.066Z" fill="#FFFFFF"/><path d="M56.429 47.272C54.228 47.272 54.224 50.692 56.429 50.692 58.629 50.692 58.633 47.272 56.429 47.272Z" fill="#FFFFFF"/><path d="M81.022 50.237C83.223 50.237 83.226 46.817 81.022 46.817 78.821 46.817 78.818 50.237 81.022 50.237Z" fill="#FFFFFF"/><path d="M83.483 36.3C81.943 34.732 79.53 37.158 81.092 38.692 82.631 40.259 85.045 37.833 83.483 36.3Z" fill="#FFFFFF"/><path d="M87.1 31.747C88.658 33.33 91.098 30.879 89.518 29.328 87.96 27.744 85.52 30.196 87.1 31.747Z" fill="#FFFFFF"/><path d="M93.121 41.281C94.684 42.901 97.297 40.531 95.667 38.893 94.152 37.329 91.512 39.677 93.121 41.281Z" fill="#FFFFFF"/><path d="M91.538 51.382C93.533 50.642 92.195 47.466 90.27 48.376 88.275 49.116 89.613 52.291 91.538 51.382Z" fill="#FFFFFF"/><path d="M101.972 47.292C99.986 46.915 99.841 50.405 101.831 50.231 103.786 50.188 103.948 47.493 101.972 47.292Z" fill="#FFFFFF"/><path d="M52.019 61.744C51.207 59.021 47.202 61.336 49.16 63.398 50.321 64.638 52.52 63.368 52.019 61.744Z" fill="#FFFFFF"/><path d="M71.23 60.48C69.029 60.48 69.026 63.9 71.23 63.9 73.431 63.9 73.435 60.48 71.23 60.48Z" fill="#FFFFFF"/><path d="M88.835 60.298C87.279 58.712 84.836 61.166 86.417 62.716 87.973 64.302 90.415 61.848 88.835 60.298Z" fill="#FFFFFF"/><path d="M101.999 58.519C100.498 56.991 98.146 59.356 99.668 60.85 101.168 62.379 103.521 60.014 101.999 58.519Z" fill="#FFFFFF"/><path d="M33.31 61.78C31.491 60.686 29.822 63.55 31.659 64.604 33.478 65.698 35.148 62.833 33.31 61.78Z" fill="#FFFFFF"/><path d="M43.748 74.899C42.455 73.398 39.937 75.143 40.978 76.87 42.216 79.034 45.508 76.74 43.748 74.899Z" fill="#FFFFFF"/><path d="M63.866 76.164C65.568 73.811 61.035 72.277 60.901 75.17 60.879 76.668 63.003 77.417 63.866 76.164Z" fill="#FFFFFF"/><path d="M83.129 74.235C83.075 73.336 82.181 72.716 81.319 72.64 81.207 72.63 80.752 72.68 80.697 72.698 75.716 74.323 82.848 79.895 83.129 74.235Z" fill="#FFFFFF"/><path d="M97.53 73.387C97.14 72.761 96.38 72.408 95.661 72.588 95.627 72.597 95.489 72.629 95.444 72.642 94.008 73.069 93.969 75.299 95.394 75.813 96.824 76.514 98.379 74.719 97.53 73.387Z" fill="#FFFFFF"/><path d="M33.704 88.103C32.179 86.548 29.786 88.954 31.334 90.473 32.859 92.027 35.252 89.622 33.704 88.103Z" fill="#FFFFFF"/><path d="M54.117 92.875C56.159 92.119 54.788 88.867 52.82 89.799 50.778 90.556 52.149 93.808 54.117 92.875Z" fill="#FFFFFF"/><path d="M74.646 89.04C72.569 89.04 72.565 92.268 74.646 92.268 76.723 92.268 76.726 89.04 74.646 89.04Z" fill="#FFFFFF"/><path d="M93.139 91.132C93.323 90.951 93.465 90.721 93.54 90.473 93.568 90.38 93.601 90.292 93.615 90.245 93.937 89.12 92.767 87.966 91.643 88.32 91.609 88.331 91.481 88.377 91.441 88.391 90.24 88.788 90.117 89.865 90.533 90.675 90.989 91.565 92.096 92.134 93.139 91.132Z" fill="#FFFFFF"/><path d="M43.696 102.135C42.349 100.747 39.944 102.515 40.974 104.199 42.224 106.347 45.423 103.899 43.696 102.135Z" fill="#FFFFFF"/><path d="M64.941 100.799C62.757 100.799 62.754 104.193 64.941 104.193 67.124 104.192 67.128 100.799 64.941 100.799Z" fill="#FFFFFF"/><path d="M88.157 100.143C86.594 98.551 84.143 101.015 85.729 102.571 87.292 104.163 89.743 101.699 88.157 100.143Z" fill="#FFFFFF"/><path d="M56.536 112.892C55.788 110.785 52.185 111.907 53.144 114.087 53.942 116.069 56.972 114.829 56.536 112.892Z" fill="#FFFFFF"/><path d="M77.545 112.07C75.988 110.484 73.547 112.938 75.127 114.489 76.683 116.074 79.124 113.62 77.545 112.07Z" fill="#FFFFFF"/><path d="M95.002 109.731C94.628 109.169 93.81 109.065 93.255 109.398 93.263 109.401 93.271 109.404 93.279 109.408 90.54 111.875 96.62 113.073 95.002 109.731Z" fill="#FFFFFF"/></g><g><path d="M32.28 53.779C31.712 56.784 31.167 59.786 30.673 62.805 30.401 64.47 30.128 66.134 29.863 67.8 29.752 68.501 29.641 69.202 29.535 69.904 29.45 70.462 29.206 71.163 29.624 71.634 29.748 71.774 30.004 71.805 30.16 71.703 30.664 71.374 30.625 70.685 30.698 70.148 30.794 69.438 30.894 68.729 30.995 68.02 31.239 66.309 31.491 64.599 31.743 62.889 32.185 59.884 32.618 56.885 32.847 53.855 32.871 53.534 32.34 53.458 32.28 53.779L32.28 53.779Z" fill="#FFFFFF"/><path d="M99.439 50.208C101.688 57.404 102.639 64.852 100.866 72.267 100.573 73.492 100.226 74.706 99.841 75.906 99.643 76.523 99.418 77.129 99.214 77.744 99.018 78.334 98.861 78.9 99.226 79.455 99.348 79.641 99.571 79.748 99.792 79.685 100.859 79.384 101.084 77.963 101.372 77.036 101.726 75.896 102.039 74.745 102.298 73.579 102.748 71.552 103.065 69.489 103.204 67.416 103.457 63.636 103.069 59.861 102.061 56.21 101.479 54.101 100.757 52.093 99.916 50.076 99.798 49.792 99.341 49.895 99.439 50.208L99.439 50.208Z" fill="#FFFFFF"/></g></g></g></svg>