<svg viewBox="0 0 247 413" xmlns="http://www.w3.org/2000/svg" xmlns:xlink="http://www.w3.org/1999/xlink" id="2db42b8f-7cec-4a72-8ea1-3546b48ffe98" overflow="hidden"><style>
.MsftOfcResponsive_Fill_000000 {
 fill:#000000; 
}
</style>
<g><path d="M242.452 61.633C241.134 60.168 238.678 61.2 238.678 61.2 239.029 58.798 236.1 59.032 236.1 59.032 227.635 59.53 223.944 56.542 223.944 56.542 223.944 56.542 225.204 56.015 225.907 54.843 226.61 53.671 220.459 52.056 217.543 51.651 216.285 51.476 215.083 51.02 214.034 50.304 207.893 46.114 205.198 48.34 205.198 48.34L175.984 69.438 160.968 82.611C160.968 82.611 148.664 54.159 143.781 44.15 139.948 36.294 135.004 31.915 126.112 28.862 115.292 25.148 111.948 26.103 111.948 26.103 108.391 25.874 105.556 21.505 105.022 20.66 101.507 15.095 77.357 5.577 77.357 5.577 77.931 15.376 76.094 18.497 74.266 20.806 70.944 25.004 66.797 24.028 66.797 24.028 61.964 23.442 49.222 30.619 49.222 30.619 33.405 40.578 23.628 56.546 18.355 64.747 13.852 71.751 8.362 88.751 6.855 93.565 6.582 94.436 6.578 95.367 6.833 96.244 14.416 122.347 45.68 130.321 50.196 131.192 54.879 132.096 61.997 132.423 61.997 132.423 63.169 135.499 58.155 148.368 58.155 148.368L61.224 149.617C61.224 149.617 56.983 161.402 55.665 166.821 54.347 172.24 50.393 198.602 50.393 198.602L47.317 222.328 44.388 245.322 40.727 261.871 67.235 271.391C65.36 280.032 64.33 294.812 65.243 306.277 65.659 311.499 68.047 322.33 69.884 327.236L80.396 355.855C81.984 360.179 83.322 364.553 83.199 369.157L83.209 369.389C79.841 372.318 80.124 378.45 80.124 378.45L86.275 391.045 86.683 399.895 90.961 400.125 90.522 391.484 93.353 392.567C96.136 396.668 101.951 406.971 110.586 408.18 118.344 409.266 132.058 402.61 131.969 401.736 131.715 399.266 124.412 394.462 124.412 394.462L128.161 383.136C128.161 383.136 130.147 386.355 131.403 390.361 132.197 392.896 132.167 396.055 132.848 397.928 134.605 402.761 141.342 404.811 149.983 404.519 158.624 404.227 158.185 396.317 155.695 393.095 153.205 389.873 147.347 389.141 147.347 389.141L144.619 372.773C143.904 368.486 143.937 364.107 144.715 359.831L155.695 299.51 160.499 275.052 166.679 271.537 167.018 263.567C171.851 263.128 175.931 259.798 175.931 259.798L174.249 235.5C173.898 232.086 169.152 197.868 164.754 179.157L158.331 154.226 157.687 151.658C158.518 151.49 159.675 150.675 159.45 149.857L148.08 108.678C155.549 114.829 161.261 113.423 161.261 113.423 176.785 108.004 206.115 59.371 206.115 59.371 210.509 62.3 223.471 65.423 223.471 65.423 235.775 67.477 243.77 63.097 242.452 61.633ZM66.944 103.994 62.21 119.279C61.997 119.967 61.251 120.336 60.575 120.088L55.867 118.364C52.571 116.792 42.896 109.031 40.417 106.131L30.715 98.169C39.31 94.267 53.916 76.708 53.916 76.708 58.978 81.559 67.237 98.136 67.237 98.136 65.48 100.479 66.944 103.994 66.944 103.994ZM125.249 301.185C126.286 312.976 127.705 341.417 123.12 365.217 123.12 365.217 119.517 367.291 121.209 376.954 122.901 386.616 121.791 392.785 121.791 392.785 121.791 392.785 107.508 375.59 105.106 367.128 105.106 367.128 100.84 331.061 99.811 314.071 98.782 297.08 99.32 278.477 99.32 278.477 99.32 278.477 118.857 281.494 126.991 280.621 126.991 280.62 124.212 289.394 125.249 301.185Z" fill="#FFFFFF"/><path d="M175.809 256.514C173.19 223.419 166.767 183.26 158.04 152.559 157.726 151.684 155.248 152.124 154.408 151.973 151.832 152.014 149.17 152.056 146.652 151.679 144.877 151.334 144.496 145.569 143.165 145.999 142.785 146.079 143.18 146.134 141.598 146.662 136.357 148.409 130.81 148.059 125.293 147.697 123.711 147.888 125.588 150.641 124.883 151.349 104.952 159.525 79.856 154.572 61.204 149.894 53.311 170.528 50.421 193.95 47.847 215.535 46.093 230.808 44.617 246.831 41.051 261.991 65.445 272.521 97.475 280.432 125.313 280.851 139.734 280.625 154.676 278.755 166.649 271.76 166.831 268.987 167.074 265.739 167.238 263.573 167.254 263.356 169.933 262.694 171.172 262.384 172.883 261.955 174.618 261.386 175.941 260.078 176.353 259.907 175.76 256.838 175.809 256.514Z" fill="#FFFFFF"/><path d="M143.292 145.632C139.198 132.453 139.729 119.235 139.237 105.629 139.168 95.344 135.281 86.036 134.225 75.949 133.813 67.934 133.572 59.336 130.194 51.798 130.082 51.547 129.81 51.409 129.542 51.464 119.789 52.178 109.29 53.566 99.615 51.603 99.065 51.467 98.789 52.552 99.229 52.95 109.901 63.133 111.335 77.971 112.723 92.321 113.821 111.447 119.061 130.221 124.887 147.785 130.637 148.397 136.529 147.843 141.99 146.897 143.204 146.686 143.538 146.379 143.292 145.632Z" fill="#FFFFFF"/><g><path d="M122.695 365.916C120.389 366.73 120.669 374.093 121.523 377.398 122.625 382.086 123.325 387.194 123.039 392.507 123.018 392.764 123.195 392.969 123.392 393.112 123.747 393.429 124.359 393.163 124.358 392.682 124.2 391.26 126.299 382.292 127.874 382.219 128.623 382.037 129.254 382.812 129.013 383.461 128.955 383.619 128.969 383.795 129.049 383.943 130.985 387.495 132.541 392.038 133.219 396.563 133.383 397.856 133.544 399.251 134.567 400.238 138.69 403.336 159.778 407.843 156.514 396.449 155.351 392.47 151.712 390.466 148.471 388.88 145.559 389.156 141.81 390.687 137.983 391.135 136.529 391.602 135.29 391.143 134.664 389.905 132.178 383.478 129.538 376.158 127.577 369.587 126.503 365.987 123.359 365.681 122.695 365.916Z" fill="#FFFFFF"/><path d="M125.858 396.233C124.475 395.272 122.653 394.006 121.569 392.81 121.379 392.601 121.067 392.557 120.827 392.706 115.978 395.71 107.946 398.277 102.521 397.171 99.311 394.542 97.321 391.224 94.558 388.124 90.453 382.812 85.619 377.164 83.602 370.759 83.483 370.331 82.871 370.203 82.595 370.558 78.641 375.269 81.137 380.26 83.446 384.389 86.241 388.937 87.34 394.469 86.766 399.152 86.558 400.231 90.302 400.389 90.789 400.089 91.505 398.48 89.188 390.872 90.633 390.169 90.883 390.048 91.095 390.626 91.426 390.732 97.515 393.255 98.502 401.254 103.849 404.834 112.328 409.516 121.626 406.911 131.135 402.551 132.773 401.138 127.043 397.002 125.858 396.233Z" fill="#FFFFFF"/></g><g><path d="M123.816 151.616C124.096 151.53 124.269 151.251 124.222 150.962 122.464 140.226 119.106 130.304 116.525 119.831 112.974 105.275 113.185 90.526 110.432 75.855 109.577 69.692 106.918 63.738 103.324 58.358 93.904 44.258 76.895 33.003 65.675 23.599 47.196 28.734 30.247 44.373 19.246 64.268 22.61 76.678 38.779 80.576 50.038 80.397 50.347 80.4 50.69 80.455 50.898 80.191 51.687 79.241 53.251 76.221 54.505 77.593 58.543 82.009 61.564 87.331 64.588 92.559 65.854 94.736 67.188 98.146 66.612 99.522 66.149 100.643 66.132 102.233 67.093 102.869 67.396 102.975 67.663 102.77 67.848 102.551 70.435 99.943 76.468 93.862 80.245 95.515 81.5 96.802 79.107 97.835 78.103 98.515 77.641 98.88 74.195 100.901 74.775 101.758 74.923 101.998 75.221 102.099 75.484 101.998 77.647 101.165 80.2 100.386 82.727 100.921 83.523 101.151 85.287 101.947 85.181 102.969 84.913 103.738 86.581 103.937 86.472 104.41 86.214 106.964 73.25 110.875 74.383 112.4 74.505 112.623 74.757 112.742 75.007 112.695 78.447 112.142 81.734 112.082 83.684 113.794 82.227 116.344 72.94 118.762 71.081 120.516 66.83 123.229 65.219 127.933 62.354 131.745 62.406 136.254 61.341 140.882 59.762 144.753 59.614 145.664 58.116 147.76 59.012 148.288 62.37 149.93 66.208 151.153 70.42 151.923 89.083 155.812 106.737 156.785 123.816 151.616Z" fill="#FFFFFF"/><path d="M133.873 62.627C134.736 67.622 134.824 72.614 135.38 77.634 136.919 87.467 140.35 96.8 140.297 106.9 140.784 121.662 140.247 137.035 146.201 150.969 146.619 151.371 147.285 151.352 147.771 151.338 148.787 151.349 149.801 151.401 150.802 151.42 153.101 151.481 155.479 151.543 157.773 151.812 158.159 151.871 158.516 151.473 158.411 151.094 152.458 126.105 141.714 101.704 144.801 75.388 144.993 73.468 145.348 67.343 145.035 63.984 144.832 61.807 148.867 63.03 151.2 63.801 151.659 63.971 152.128 63.443 151.914 63.006 148.55 55.384 144.884 47.823 141.018 40.535 136.535 31.183 124.772 28.585 115.459 26.283 115.217 26.229 114.967 26.334 114.835 26.544 122.166 37.56 131.852 48.703 133.873 62.627Z" fill="#FFFFFF"/></g><path d="M241.974 60.302C241.313 60.245 239.947 60.18 239.542 60.28 239.497 60.278 239.456 60.281 239.416 60.287 238.618 58.095 236.065 58.343 234.174 58.426 231.134 58.397 227.954 57.697 225.189 56.366 228.108 55.76 226.364 53.443 224.512 52.844 221.904 51.882 219.148 50.789 216.34 50.656 212.493 48.81 207.2 44.672 203.254 48.305 189.387 59.626 173.478 68.563 161.054 81.584 158.711 75.809 156.412 70.062 153.561 64.51 150.995 56.243 146.494 48.235 142.635 40.381 140.912 36.897 138.56 33.647 135.071 31.767 129.597 28.59 123.484 26.484 117.319 25.127 115.87 24.913 110.743 23.376 110.196 25.019 108.135 23.915 106.803 21.986 105.382 20.21 105.08 19.879 104.607 20.235 104.682 20.618 105.758 24.543 110.497 28.074 114.606 27.792 120.174 35.008 125.559 42.47 129.091 50.921 118.896 51.091 108.481 53.18 98.399 50.807 89.682 41.32 79.934 32.764 69.419 25.32 75.638 23.756 77.904 17.071 77.997 11.286 78.151 9.396 78.263 7.407 77.712 5.567 77.615 5.242 77.092 5.291 77.105 5.649 77.16 7.078 76.98 8.54 76.83 9.959 76.265 14.588 75.535 19.981 71.026 22.446 70.283 22.924 69.532 23.284 68.68 23.513 67.784 23.834 67.09 23.08 66.244 23.402 65.848 23.082 65.142 22.975 65.05 23.6 37.56 29.418 16.05 60.473 7.994 85.926 7.61 87.448 4.082 98.02 6.637 97.184 11.359 117.393 41.646 135.299 61.677 132.797 61.327 136.762 60.066 140.556 58.685 144.258 57.355 148.267 55.951 148.488 60.594 150.221 60.272 150.41 60.187 150.853 60.337 151.177 51.705 171.174 50.146 193.41 47.184 214.774 45.34 230.513 43.311 246.238 40.194 261.783 40.05 262.497 40.789 262.911 41.291 262.691 49.398 266.273 57.864 269.062 66.302 271.737 59.365 303.186 65.202 320.659 76.547 349.446 77.701 352.786 78.758 356.162 79.611 359.593 80.544 362.833 80.672 366.368 81.982 369.465 73.813 378.194 82.491 383.383 84.351 391.972 84.933 394.425 85.076 396.947 85.063 399.462 85.06 400.126 85.572 400.7 86.21 400.811 87.499 402.253 90.971 402.993 91.542 400.592 91.68 400.487 91.769 400.317 91.75 400.075 91.533 397.434 91.395 394.787 91.215 392.144 95.731 396.132 97.322 402.424 102.139 406.08 111.088 411.796 123.626 408.829 132.072 403.505 133.449 403.311 133.203 401.817 132.692 400.857 136.619 405.621 153.687 407.845 157.661 402.435 161.401 396.073 155.336 389.372 149.295 387.612 148.759 387.417 148.328 387.594 148.059 387.928 148.03 387.932 147.955 387.946 147.871 387.961 146.416 381.748 145.209 375.464 145.184 369.058 148.247 337.528 156.964 306.624 161.791 275.281 163.324 274.509 164.823 273.637 166.231 272.616 168.107 273.063 167.753 270.167 167.9 268.996 167.993 267.508 168.067 266.019 168.145 264.53 170.957 263.661 173.889 262.926 176.026 260.806 176.458 260.788 176.919 260.475 176.939 259.975 177.224 252.912 176.527 245.79 175.814 238.766 172.79 209.547 167.321 180.519 158.508 152.475 159.769 152.601 161.577 152.202 161.154 150.37 157.486 136.959 152.639 123.899 149.415 110.365 150.824 111.626 158.895 115.699 160.166 114.037 164.337 113.888 168.357 109.405 171.553 106.926 185.953 93.635 195.624 76.247 206.569 60.22 215.978 65.677 227.773 67.948 238.432 65.46 239.991 65.026 241.749 64.374 242.838 63.11 243.693 62.116 243.418 60.519 241.974 60.302ZM221.697 53.036C222.636 53.412 225.039 53.938 225.355 54.906 225.184 55.207 224.214 55.2 223.95 55.378 222.381 54.268 220.724 53.283 219.091 52.271 219.966 52.501 220.836 52.755 221.697 53.036ZM57.841 131.389C36.832 130.027 13.666 116.406 7.45 95.454 10.22 85.252 13.539 75.137 18.763 65.89 22.644 76.433 38.586 81.88 49.051 81.23 43.733 87.431 37.141 92.312 31.035 97.634 26.869 94.924 22.148 92.878 17.129 92.656 16.34 92.619 16.371 93.785 17.129 93.864 35.455 95.62 43.716 116.342 60.704 120.739 62.81 123.517 66.926 109.066 67.06 107.585 67.339 106.101 67.367 104.483 68.502 103.35 71.282 100.266 74.288 96.811 78.428 95.655 80.023 95.269 80.687 96.162 79.041 97.044 76.809 98.443 74.741 100.147 73.188 102.292 71.357 103.41 69.814 104.934 69.015 106.912 68.827 107.378 69.523 107.738 69.841 107.393 71.136 105.991 72.295 104.577 73.932 103.541 76.561 102.053 82.172 99.878 84.422 102.785 78.936 103.608 72.655 105.028 69.157 109.701 68.867 110.113 69.506 110.588 69.847 110.234 73.807 106.454 80.099 104.452 85.48 104.362 82.534 107.643 77.817 108.273 74.172 110.536 72.556 111.284 71.458 112.664 70.005 113.585 69.505 113.878 69.685 114.789 70.317 114.736 74.059 114.504 77.795 112.476 81.566 113.828 68.919 120.226 68.471 117.953 61.353 131.683 60.205 131.417 59.014 131.446 57.841 131.389ZM54.488 77.849C57.138 82.056 60.334 85.968 62.652 90.408 63.452 92.138 66.574 96.988 66.295 98.545 65.444 100.11 65.119 102.1 66.18 103.645 65.443 105.064 65.382 106.862 65.021 108.394 64.168 112.282 62.566 115.931 60.735 119.443 48.864 116.041 42.007 104.58 31.893 98.2 40.767 93.232 48.122 85.7 54.488 77.849ZM60.352 144.718C61.865 140.607 63.217 136.278 62.861 131.862 65.703 128.098 67.344 123.34 71.489 120.74 73.061 119.068 86.737 115.27 83.934 112.806 81.17 111.304 77.957 111.308 74.936 111.884 76.396 110.342 91.581 105.207 85.784 102.892 86.162 101.542 83.913 100.36 82.896 100.115 80.316 99.566 77.759 100.274 75.312 101.217 76.215 100.397 77.158 99.619 78.173 98.94 79.552 98.131 82.537 96.584 80.619 94.79 76.389 92.79 70.097 99.259 67.302 102.075 67.121 101.137 67.369 100.248 67.764 99.405 68.73 97.145 64.832 91.918 63.8 89.585 61.154 85.316 58.65 80.656 54.968 77.209 55.878 75.917 56.916 74.699 57.657 73.263 58.965 72.161 59.829 70.606 60.49 69.036 61.056 68.826 68.718 57.58 65.999 58.863 64.415 60.71 63.101 62.807 61.84 64.921 62.983 60.134 63.128 55.131 62.3 50.308 62.189 49.742 61.495 45.098 60.718 46.586 61.844 54.56 61.86 63.277 57.966 70.547 55.582 73.624 52.987 76.573 50.488 79.583 45.776 79.509 40.999 79.478 36.487 77.908 29.96 75.536 21.165 71.513 19.863 63.937 30.069 46.124 45.678 30.68 65.471 24.197 76.351 32.603 87.074 41.253 96.338 51.473 103.117 58.05 108.027 66.3 109.271 75.765 112.01 90.344 111.804 105.356 115.349 119.801 117.907 130.2 121.958 140.219 123.683 150.822 106.455 156.12 87.996 154.792 70.574 151.113 66.681 150.4 62.873 149.266 59.31 147.526 59.641 146.573 60.008 145.661 60.352 144.718ZM80.709 351.182C66.743 312.973 64.879 313.498 67.866 272.215 78.032 275.295 88.395 277.754 98.886 279.44 97.038 308.502 100.18 338.185 104.359 366.856 106.788 375.74 113.578 385.664 120.062 392.187 115.062 394.927 109.366 396.707 103.639 396.723 102.711 396.604 102.176 395.955 101.597 395.289 94.629 387.7 88.509 379.361 83.651 370.328 83.773 370.191 83.839 370.045 83.861 369.901 85.584 365.629 81.994 355.748 80.709 351.182ZM125.736 281.751 125.736 281.751C124.307 284.792 124.146 288.266 123.847 291.566 123.268 300.402 123.76 309.253 124.402 318.07 125.653 333.695 123.523 349.253 121.9 364.756 116.749 369.788 120.293 377.491 120.86 383.61 121.07 385.7 121.14 387.764 121.072 389.874 114.42 383.28 110.796 374.468 105.774 366.748 102.984 337.961 98.8 308.781 100.033 279.62 108.532 280.927 117.12 281.732 125.725 281.751 125.59 282.009 125.684 281.86 125.736 281.751ZM128.712 402.662C121.08 405.915 111.443 408.597 103.793 404.093 98.519 400.45 97.546 392.512 91.294 389.954 91.287 389.602 91.091 389.159 90.678 389.178 88.768 389.323 89.467 392.399 89.625 393.584 89.882 395.522 90.112 397.461 90.33 399.404 89.447 399.332 88.636 399.553 87.823 399.273 88.306 395.019 87.349 390.616 85.675 386.71 83.269 381.647 78.515 376.368 83.082 370.926 85.133 377.44 89.635 382.932 93.754 388.262 96.567 391.418 99.008 395.107 102.3 397.752 108.019 398.993 116.281 396.273 121.175 393.241 123.992 396.347 128.708 397.904 130.576 401.765 129.933 402.008 129.343 402.377 128.712 402.662ZM127.95 395.747C127.276 395.251 126.613 394.748 125.96 394.236 126.615 391.186 127.217 388.115 128.489 385.242 129.689 388.714 130.746 392.216 131.358 395.838 131.597 397.199 131.681 398.639 132.187 399.897 131.154 398.22 129.544 396.92 127.95 395.747ZM148.058 387.93C148.055 387.934 148.052 387.937 148.05 387.941 148.01 387.944 147.97 387.948 147.928 387.957 148 387.942 148.039 387.934 148.058 387.93ZM158.121 281.459C153.593 302.149 149.84 323.006 145.774 343.79 144.466 351.846 143.1 359.958 142.81 368.126 142.803 368.589 143.053 369.009 143.419 369.261 143.898 375.642 144.5 382.134 146.655 388.2 144.085 388.716 141.513 389.22 138.947 389.754 137.738 389.918 136.265 390.69 135.674 389.243 133.391 384.102 131.813 378.633 129.723 373.402 128.913 371.55 128.487 369.451 127.314 367.788 125.779 367.105 127.039 370.174 127.227 370.761 129.505 377.147 131.624 383.62 134.13 389.912 134.923 391.51 136.517 391.988 138.162 391.461 141.48 390.995 144.768 390.357 148.046 389.667 151.146 391.181 154.889 392.67 155.952 396.384 156.414 397.85 156.486 399.63 155.555 400.941 151.741 404.681 138.979 402.416 134.905 399.527 133.696 398.215 133.96 396.185 133.504 394.553 132.711 390.693 131.453 386.883 129.561 383.429 129.977 382.289 128.861 381.109 127.717 381.42 125.503 381.971 123.831 390.24 123.77 392.432 123.721 392.389 123.671 392.348 123.622 392.305 123.898 387.201 123.553 382.065 122.379 377.068 121.606 373.601 121.395 369.898 122.987 366.622 123.761 366.844 124.686 366.555 124.871 365.604 125.629 361.715 125.896 357.704 126.316 353.764 127.47 343.091 128.268 332.354 127.802 321.615 127.247 312.359 126.525 303.096 126.782 293.813 126.807 289.686 127.202 284.574 128.054 281.737 138.595 281.502 149.381 280.378 159.241 276.447 158.8 278.084 158.497 279.813 158.121 281.459ZM166.48 193.548C170.976 215.281 173.018 237.378 175.177 259.426 173.35 261.231 170.529 261.408 168.252 262.388 168.792 251.95 168.879 241.491 168.465 231.047 168.073 226.836 168.687 222.267 167.311 218.234 167.257 218.116 167.096 218.168 167.06 218.267 166.363 220.142 166.643 222.407 166.653 224.374 166.711 229.542 166.852 234.709 166.843 239.877 166.967 250.433 166.146 260.974 165.71 271.501 128.511 289.7 78.685 275.092 41.821 261.682 50.368 225.351 48.693 186.963 61.229 151.505 61.576 151.364 61.704 150.961 61.612 150.627 78.427 156.249 109.225 159.407 125.382 151.837 126.186 150.896 125.345 149.414 125.303 148.303 129.522 148.699 133.7 148.624 137.888 148.066 139.408 147.784 141.072 147.823 142.428 147.014 142.896 146.775 142.641 146.104 142.175 146.08 141.806 146.061 141.53 145.99 141.155 146.046 135.853 147.122 130.435 147.369 125.044 146.967 120.351 129.131 114.245 111.681 113.518 93.052 112.119 78.645 110.837 62.874 99.747 52.292 106.727 53.931 114.014 53.164 121.111 52.765 123.919 52.477 126.82 52.682 129.587 52.113 132.923 59.555 133.341 67.734 133.754 75.759 134.784 85.769 138.71 95.247 138.765 105.406 139.303 120.412 138.788 135.792 144.278 150.052 144.624 151.018 145.02 151.952 146.067 152.31 149.655 152.857 153.418 152.563 157.054 152.596 160.81 166.085 163.807 179.807 166.48 193.548ZM157.801 150.995C154.575 150.617 151.281 150.644 148.029 150.514 147.63 150.5 146.878 150.611 146.567 150.312 140.882 136.508 141.28 121.338 140.843 106.669 140.918 96.602 137.46 87.129 135.919 77.308 135.371 72.31 135.271 67.253 134.411 62.292 132.057 48.697 123.688 37.199 115.293 26.62 122.969 28.324 131.081 30.642 137.194 35.785 138.587 37.157 139.559 38.853 140.459 40.571 144.355 47.916 147.981 55.402 151.338 63.007 149.554 62.439 147.793 62.232 145.962 62.351 144.027 55.669 142.218 48.95 139.636 42.493 139.2 41.463 137.797 42.26 137.954 43.202 139.163 50.423 141.896 57.28 143.533 64.4 144.343 67.925 144.145 71.429 143.788 75 140.645 101.24 151.831 125.986 157.801 150.995ZM241.427 62.494C240.573 63.208 239.424 63.658 238.289 63.979 233.052 64.836 227.485 64.309 222.417 62.663 220.297 63.358 227.292 64.964 227.873 64.971 220.414 64.759 213.519 62.017 206.826 59.267 206.135 57.484 204.247 60.733 203.738 61.381 201.734 64.274 199.784 67.203 197.846 70.139 188.066 85.077 178.118 100.44 163.669 111.32 162.481 112.201 161.092 112.978 159.57 112.907 159.361 112.897 159.211 113.01 159.127 113.164 155.511 112.212 151.959 110.893 148.989 108.542 146.642 98.226 145.304 87.57 146.368 76.999 146.849 72.518 147.334 67.979 146.237 63.544 148.345 63.599 150.511 63.887 152.304 65.074 155.12 70.917 157.717 76.823 159.916 82.923 159.192 83.757 154.384 90.117 156.827 88.964 169.069 72.673 187.98 63.171 203.476 50.358 205.444 48.23 207.291 48.279 209.823 49.381 214.448 51.256 218.795 54.137 223.041 56.782 226.488 59.125 231.107 59.954 235.259 59.836 236.25 59.747 237.838 59.661 238.132 60.878 238.104 60.916 238.085 60.944 238.071 60.968 233.716 63.557 228.617 61.787 223.995 60.999 220.902 62.073 231.374 63.902 232.111 63.732 234.192 63.895 238.21 63.204 239.438 61.432 239.471 61.439 239.505 61.446 239.542 61.447 239.275 61.434 239.662 61.489 239.724 61.499 240.4 61.692 242.948 61.306 241.427 62.494Z" class="MsftOfcResponsive_Fill_000000"/></g></svg>