<svg viewBox="0 0 227 398" xmlns="http://www.w3.org/2000/svg" xmlns:xlink="http://www.w3.org/1999/xlink" id="0aafa279-6986-469e-abee-69dffd0eeae9" overflow="hidden"><style>
.MsftOfcResponsive_Fill_000000 {
 fill:#000000; 
}
</style>
<g><path d="M112.982 61.363C112.982 61.363 114.658 48.204 104.331 45.733 94.004 43.262 85.788 43.214 87.425 50.899 88.346 55.222 88.783 59.857 87.128 63.536 86.418 65.113 83.22 68.619 79.608 70.328 71.353 74.236 62.566 74.614 60.558 96.313 58.35 120.167 57.482 130.484 57.482 130.484 57.482 130.484 49.324 131.573 44.419 129.576 39.514 127.579 34.728 125.629 33.628 125.629 32.528 125.629 19.575 117.928 16.912 117.981 14.249 118.033 9.956 119.422 7.982 120.268 7.223 120.593 7.88 123.036 7.88 123.036 7.88 123.036 6.326 124.763 6.119 125.709 5.912 126.655 6.503 127.986 6.503 127.986 6.503 127.986 5.671 128.705 5.498 129.612 5.325 130.52 6.042 132.163 6.042 132.163 6.042 132.163 5.032 133.528 5.439 134.875 5.847 136.222 9.017 138.098 10.419 135.937 10.419 135.937 14.033 136.929 15.177 135.643 15.177 135.643 21.958 141.478 26.926 138.56 26.926 138.56 58.703 160.638 73.333 144.466 73.898 143.841 74.972 145.15 74.788 145.972 72.741 155.128 65.779 185.477 63.031 196.464 60.233 207.651 55.338 262.286 55.338 262.286 55.338 262.286 64.146 272.373 92.169 264.571 92.685 264.427 93.09 265.021 92.765 265.447 89.536 269.682 80.099 282.31 76.364 290.032 69.346 304.54 66.325 325.627 61.698 330.64 57.071 335.652 50.659 336.317 49.792 342.073 49.792 342.073 41.434 343.571 44.272 352.166 46.218 358.059 49.388 360.762 49.388 360.762L51.605 359.657C51.605 359.657 52.472 362.496 51.763 364.625 51.053 366.754 52.078 369.987 52.078 369.987 52.078 369.987 57.943 382.684 64.379 387.019 70.104 390.875 81.619 394.008 84.764 388.332 87.909 382.656 86.852 380.868 86.852 380.868 86.852 380.868 79.396 368.477 80.169 355.732 81.017 341.758 83.216 327.759 92.529 314.713 92.529 314.713 93.126 318.552 93.475 321.573 94.19 327.764 89.411 344.356 89.375 347.042 89.339 349.727 87.577 355.911 88.113 358.475 88.649 361.04 97.851 362.312 97.851 362.312L100.974 361.08C101.875 360.724 103.008 360.664 103.094 361.629L103.252 365.65 106.643 369.119C106.643 369.119 122.819 376.447 132.96 368.678 132.96 368.678 133.751 360.381 131.007 359.106 127.616 357.529 109.875 350.354 107.268 338.173 105.818 331.398 114.764 318.341 117.477 303.26 119.334 292.932 120.521 274.185 120.521 274.185 120.521 274.185 123.813 269.73 124.7 267.246 125.853 264.019 124.779 258.651 124.779 258.651L148.787 259.954C150.004 260.02 151.042 259.083 151.099 257.865 151.376 251.91 151.801 235.073 148.648 221.833 146.939 214.654 143.56 202.571 141.496 189.421 138.853 172.583 137.564 154.044 136.139 142.34 134.479 128.707 135.723 118.216 134.952 107.969 134.352 100.002 132.665 93.697 130.458 89.047L129.038 86.995 138.245 84.585C138.245 84.585 170.736 72.566 173.227 70.358 175.718 68.15 202.217 36.178 202.217 36.178 202.217 36.178 203.71 38.463 208.588 35.93 208.893 35.772 209.377 36.178 209.176 36.457 208.125 37.911 208.953 39.077 210.452 38.936 212.606 38.733 214.096 36.522 214.096 36.522 214.096 36.522 218.337 33.456 217.864 29.553 217.8 29.027 217.073 28.509 217.194 27.818 217.628 25.334 217.659 22.837 216.755 21.665 215.956 20.63 213.192 20.327 210.857 20.416 210.378 20.434 210.306 19.98 210.681 19.681 213.532 17.401 221.42 10.917 221.807 8.658 221.979 7.652 221.591 5.848 221.452 5.425 221.331 5.058 220.881 4.926 220.58 5.169 217.519 7.653 203.007 19.26 201.187 21.195 199.146 23.364 197.822 25.864 194.241 29.798 190.66 33.732 167.648 50.458 166.826 53.121 166.004 55.784 140.233 67.28 133.925 67.95 128.383 68.539 121.743 63.968 116.46 69.369 116.46 69.369 111.963 68.382 111.177 65.742 110.839 64.609 111.506 63.139 112.982 61.363Z" fill="#FFFFFF"/><g><path d="M132.924 364.289C132.756 364.004 130.499 363.714 130.073 364.139 129.587 364.79 130.437 364.96 129.515 365.828 128.611 366.646 126.858 366.989 126.11 366.685 125.857 366.582 125.566 366.644 125.378 366.843 124.292 367.984 122.604 368.288 120.973 368.583 118.219 369.317 115.451 368.605 113.103 367.142 112.605 366.642 111.273 365.423 111.198 365.369 108.985 363.782 106.602 362.52 104.297 361.299 103.842 361.038 103.233 361.461 103.327 361.982 103.539 363.223 103.153 365.193 103.4 365.437 106.457 368.455 110.639 370.486 115.495 371.31 120.704 372.309 126.126 371.355 131.055 369.806 131.555 369.733 132.729 366.827 132.889 365.709 132.906 365.188 133.199 364.731 132.924 364.289Z" fill="#FFFFFF"/><path d="M99.586 358.946C92.529 357.211 89.303 352.404 89.02 352.48 88.15 352.795 88.469 357.144 88.312 358.129 88.262 358.446 88.445 358.754 88.747 358.861 90.359 359.271 98.432 363.122 99.058 360.966 99.185 360.408 99.984 359.108 99.586 358.946Z" fill="#FFFFFF"/><path d="M84.658 383.83C82.887 384.409 82.319 382.798 81.562 383.619 81.001 384.318 80.112 384.74 79.298 384.692 77.922 384.706 77.843 383.311 76.877 383.695 73.888 384.883 73.654 382.778 73.122 382.956 72.214 383.259 71.064 382.835 69.728 381.668 69.512 381.479 69.199 381.45 68.952 381.596 67.71 382.329 65.958 380.899 65.226 379.792 65.054 379.531 64.819 379.438 64.513 379.504 63.846 379.648 63.308 379.812 62.879 379.994 56.732 372.914 53.397 362.776 53.616 362.77 54.51 362.511 55.754 361.964 56.705 361.643 57.2 361.462 56.036 358.218 55.629 357.476 55.227 356.41 54.502 355.387 53.695 354.057 52.839 352.975 51.205 356.27 51.211 356.58 50.307 354.355 49.142 351.784 48.268 349.53 49.042 350.061 49.566 348.872 49.988 348.441 50.286 348.08 50.075 347.481 49.617 347.387 49.372 347.168 49.019 345.835 49.015 343.575 49.014 343.263 48.797 342.993 48.492 342.926 47.749 342.795 46.11 345.799 45.898 346.152 43.634 349.684 45.919 353.478 47.425 355.979 47.953 356.894 48.534 357.827 49.199 358.83 49.381 359.106 52.157 359.655 52.276 362.139 51.357 366.264 52.688 370.32 54.797 373.922 59.554 383.81 68.557 391.37 79.479 390.297 82.954 390.199 84.125 388.625 84.495 387.321 84.554 387.114 85.055 385.784 85.249 385.179 85.468 384.491 85.563 383.689 84.658 383.83Z" fill="#FFFFFF"/></g><g><path d="M110.301 346.536C110.786 346.493 111.061 345.88 110.764 345.49 109.653 343.924 108.684 342.248 107.884 340.508 107.414 339.687 106.419 340.459 105.687 340.494 100.575 340.974 96.702 348.488 91.451 344.961 91.26 344.831 91.015 344.81 90.804 344.905 90.593 345 90.447 345.198 90.417 345.427 90.079 348.068 89.968 349.991 91.447 352.507 91.663 352.94 91.976 353.44 91.919 353.849 91.727 356.229 95.807 357.66 97.141 357.999 97.568 358.126 98.027 357.747 97.978 357.302 97.486 351.304 104.819 347.195 110.301 346.536Z" fill="#FFFFFF"/><path d="M124.049 356.296C119.963 354.201 116.955 352.168 114.584 349.898 108.971 349.826 104.134 355.09 103.364 360.133 103.316 360.419 103.458 360.704 103.716 360.836 106.696 362.365 109.781 363.933 112.437 365.989 112.775 366.263 113.325 366.108 113.467 365.697 114.877 361.949 118.784 358.896 123.916 357.531 124.49 357.399 124.586 356.548 124.049 356.296Z" fill="#FFFFFF"/><path d="M80.205 364.635C80.162 364.375 79.97 364.166 79.715 364.1 71.472 360.903 61.773 359.111 54.189 362.443 53.849 362.58 53.685 362.968 53.822 363.308 56.119 369 58.715 374.965 62.943 379.842 63.174 380.108 63.57 380.147 63.848 379.936 68.652 376.29 77.036 375.203 82.933 377.462 83.462 377.685 84.035 377.085 83.777 376.567 82.114 372.892 80.912 368.878 80.205 364.635Z" fill="#FFFFFF"/><path d="M62.697 350.472C67.612 350.708 73.06 352.376 77.039 353.594 77.858 353.74 79.248 354.704 79.482 353.459 79.531 351.85 79.645 350.2 79.823 348.556 79.833 347.839 78.927 347.587 78.53 347.019 73.142 340.789 60.048 344.407 58.987 335.663 58.949 335.177 58.337 334.897 57.945 335.191 57.154 335.749 56.42 336.149 55.563 336.579 55.002 336.967 53.976 337.117 53.789 337.861 53.402 341.583 52.458 346.846 48.737 349.568 48.486 349.752 48.396 350.084 48.519 350.369 49.27 352.102 49.982 353.866 50.679 355.586 52.503 357.938 51.508 349.685 62.697 350.472Z" fill="#FFFFFF"/></g><path d="M124.291 142.864C124.009 141.176 122.137 140.351 120.541 140.556 120.417 140.572 119.823 140.928 119.259 140.966 117.63 140.461 112.885 138.525 112.93 141.215 113.298 142.714 115.352 142.433 116.354 141.8 117.209 141.413 117.519 141.307 118.826 141.083 120.755 141.717 121.353 142.965 123.14 143.633 123.691 144.05 124.48 143.745 124.291 142.864Z" fill="#FFFFFF"/><path d="M149.597 232.495C148.883 224.292 146.395 216.585 144.382 208.753 139.44 187.942 136.659 163.76 135.273 142.498 135.204 141.219 135.18 139.975 135.084 138.688 134.67 137.467 134.471 136.141 134.374 134.806 134.278 134.279 134.444 133.588 133.914 133.286 122.864 139.183 89.598 136.197 77.834 131.511 77.44 131.349 76.953 131.645 76.931 132.077 76.878 132.716 76.82 133.361 76.759 133.996 76.739 134.206 76.819 134.414 76.977 134.555 78.424 135.886 76.997 138.819 76.246 140.646 75.737 142.98 75.304 145.383 74.841 147.695 73.383 155.181 71.875 162.921 69.781 170.365 61.223 200.175 57.261 231.935 55.469 262.198 58.734 265.443 63.864 265.789 68.006 266.219 77.828 267.629 87.533 265.872 96.747 263.026 112.24 257.633 128.431 257.287 144.524 258.454 146.14 258.56 147.753 258.666 149.362 258.765 149.725 258.794 150.068 258.484 150.068 258.117 150.278 249.692 150.535 241.035 149.597 232.495ZM117.741 140.396C118.082 140.352 118.751 140.814 119.122 140.979 118.406 141.035 117.662 141.272 116.929 141.45 116.27 141.67 115.626 142.044 114.973 142.173 112.412 142.428 112.39 139.834 114.981 139.918 115.611 139.918 116.399 140.051 117.352 140.381 117.477 140.425 117.613 140.43 117.741 140.396ZM119.676 140.973C120.801 140.442 122.148 140.524 123.105 141.181 123.852 141.685 124.917 143.189 123.961 143.693 122.722 143.875 120.469 141.718 119.251 141.021 119.393 141.052 119.543 141.036 119.676 140.973Z" fill="#FFFFFF"/><path d="M58.13 233.102C58.13 233.102 73.37 227.513 92.036 224.98 112.379 222.22 121.605 224.743 132.013 226.794 140.525 228.471 149.675 228.134 149.675 228.134 149.675 228.134 150.858 234.048 150.858 235.94 150.858 237.832 150.858 243.825 150.858 243.825 150.858 243.825 142.263 244.062 133.984 243.115 125.705 242.168 113.405 239.577 102.523 239.409 87.226 239.172 71.141 244.14 65.7 246.269 60.259 248.398 56.238 249.66 56.238 249.66L58.13 233.102Z" fill="#FFFFFF"/><g><path d="M221.433 4.565C221.375 4.488 221.309 4.433 221.238 4.397L221.236 4.397C220.528 3.423 216.642 7.062 215.92 7.639 214.164 9.098 212.431 10.584 210.669 12.037 207.266 14.842 203.598 17.303 200.601 20.563 198.957 22.35 197.304 24.122 195.864 26.079 195.182 27.005 194.517 27.945 193.747 28.801 192.953 29.684 192.034 30.395 191.114 31.14 187.066 34.421 183.389 38.148 179.221 41.285 175.12 44.373 170.695 47.16 167.534 51.26 166.62 51.891 165.866 52.722 165.043 53.464 164.546 53.896 163.754 54.23 163.124 54.573 154.992 58.917 146.735 63.268 137.865 65.899 135.128 66.654 132.034 67.357 129.305 66.589 125.378 65.483 120.606 65.773 116.917 67.621 116.516 67.822 116.438 68.249 116.564 68.61 115.428 67.936 114.373 67.13 113.18 66.568 112.79 66.251 112.411 65.901 111.988 65.631 111.91 64.247 112.275 62.921 113.499 61.891 114.161 61.335 113.311 60.3 112.591 60.716 110.489 61.913 109.994 64.621 110.586 66.816 110.905 68.111 111.529 69.35 112.128 70.524 112.501 71.251 113.519 70.613 113.204 69.894 113.075 69.601 112.947 69.297 112.824 68.985 117.581 73.081 120.727 79.24 121.093 85.543 121.08 86.706 119.882 86.72 118.974 86.853 116.557 87.205 114.104 87.492 111.668 87.159 99.85 85.478 93.372 74.383 87.721 65.07 87.998 64.607 88.094 64.044 88.216 63.509 88.414 63.107 88.563 62.681 88.707 62.245 88.774 62.039 88.677 61.892 88.531 61.824 89.259 57.289 88.805 52.593 87.362 48.24 87.105 47.467 85.9 47.785 86.132 48.579 87.52 53.298 87.642 58.359 86.558 63.153 84.469 65.632 81.839 67.637 79.039 69.252 75.308 71.461 70.963 72.487 67.55 75.238 58.23 82.976 59.561 100.201 58.07 111.427 57.647 116.341 57.233 121.255 56.784 126.167 56.67 127.415 56.459 128.669 56.534 129.915 52.563 130.435 48.524 129.812 44.746 128.54 42.587 127.869 40.612 126.828 38.52 125.994 36.693 125.299 34.88 124.914 32.884 124.841 31.917 123.984 30.618 123.41 29.497 122.774 28.323 122.115 27.14 121.473 25.962 120.822 20.957 117.925 17.606 115.551 11.748 118.083 10.688 118.48 9.649 118.894 8.577 119.257 7.742 119.511 6.626 120.283 7.056 121.291 7.065 121.622 7.093 121.952 7.137 122.279 6.004 123.809 4.782 125.824 5.63 127.754 4.332 128.724 4.378 130.88 5.083 132.296 3.915 133.155 4.549 135.45 5.362 136.35 6.684 137.865 9.653 138.786 11.001 136.842 12.355 137.398 14.317 137.886 15.417 136.681 18.07 139.576 22.577 140.393 26.294 139.598 29.848 142.631 34.322 144.615 38.426 146.847 45.88 150.81 54.484 151.833 62.82 151.408 66.74 151.332 70.731 150.012 73.219 146.85 70.155 164.232 64.719 181.126 61.467 198.474 59.369 209.783 58.129 221.235 56.857 232.66 56.58 232.959 56.566 233.416 56.742 233.749 55.771 242.999 55.13 252.283 54.105 261.528 53.874 261.933 53.817 262.451 54.065 262.962 57.166 268.281 64.386 268.297 69.822 268.957 76.218 269.718 82.715 269.303 88.909 267.502 77.179 280.306 71.45 296.996 66.679 313.372 64.752 319.363 63.635 325.982 59.48 330.93 55.724 335.574 50.203 334.828 48.609 341.449 48.205 341.51 47.842 341.681 47.528 341.929 46.582 341.898 45.872 342.829 45.288 343.48 44.716 344.12 44.192 344.806 43.764 345.551 41.449 349.27 42.844 353.039 44.872 356.506 45.815 358.252 46.859 359.94 47.988 361.571 48.658 362.557 49.767 362.539 50.62 361.812 50.763 361.834 50.91 361.85 51.056 361.858 49.959 366.062 50.411 369.527 52.431 373.354 57.624 384.692 65.856 393.261 79.188 392.427 84.905 392.14 86.013 389.825 87.328 384.711 87.448 384.341 87.368 384.007 87.179 383.749 87.458 383.137 87.636 382.621 87.772 381.925 88.21 381.566 88.424 380.954 88.048 380.297 76.516 361.107 81.812 337.09 91.66 318.34 91.975 325.017 91.349 331.771 89.416 338.185 88.241 341.535 87.588 345.113 87.621 348.67 87.636 349.72 87.869 350.719 88.23 351.682 87.846 351.943 87.645 352.412 87.925 352.825 87.624 354.599 87.278 356.338 87.545 358.174 87.45 358.291 87.413 358.448 87.477 358.629 87.841 360.057 88.826 360.576 90.115 361.073 92.835 362.121 95.678 363.501 98.675 363.184 99.79 363.506 101.293 362.977 102.167 362.149 102.16 362.868 102.186 363.592 102.121 364.31 102.105 364.518 102.146 364.693 102.229 364.833 101.284 366.911 104.306 368.835 105.81 369.701 112.759 373.716 121.401 374.566 129.044 372.177 130.021 371.846 131.045 371.482 131.862 370.851 132.223 370.994 132.644 370.983 133.06 370.724 135.414 369.24 134.497 366.082 133.681 363.985 134.346 361.768 133.197 359.326 131.45 357.906 130.578 357.199 129.544 356.818 128.533 356.352 124.92 354.627 121.238 352.969 117.968 350.633 113.96 347.653 110.613 343.755 108.36 339.293 108.957 337.185 109.392 335.049 109.88 332.915 110.439 330.86 111.193 328.866 111.987 326.893 119.291 310.246 121.546 291.901 122.04 273.867 124.768 270.23 127.065 265.442 125.735 260.846 132.389 260.884 139.03 261.328 145.666 261.764 147.578 261.862 149.464 262.135 151.37 261.823 152.365 261.639 152.935 260.325 152.502 259.447 152.945 249.099 152.781 238.64 151.33 228.368 151.365 228.159 151.334 227.939 151.238 227.756 149.031 214.291 145.139 201.163 143.101 187.665 140.38 171.538 139.274 155.199 137.23 138.984 137.353 137.815 137.128 136.651 137.004 135.489 136.548 131.371 136.623 127.215 136.67 123.079 137.164 110.965 136.42 98.537 131.181 87.404 142.466 85.499 153.203 80.981 163.566 76.245 166.971 74.615 170.337 72.908 173.684 71.16 173.997 70.996 174.139 70.75 174.159 70.496 178.325 66.157 182.008 61.393 185.978 56.877 191.572 50.414 197.257 44.019 202.519 37.279 204.26 38.617 206.608 37.582 208.369 36.801 207.555 38.218 209.066 39.617 210.458 39.598 212.393 39.597 214.247 37.759 215.338 36.317 215.471 36.141 215.512 35.97 215.492 35.814 217.992 33.85 219.029 30.715 217.739 27.748 218.141 25.845 218.215 23.689 217.544 21.845 216.829 20.144 213.377 19.967 211.748 19.905 214.093 17.926 216.343 15.908 218.609 13.848 219.956 12.613 221.666 11.261 222.205 9.444 222.655 7.922 222.4 5.857 221.433 4.565ZM9.892 120.812C12.047 120.365 14.041 119.176 16.261 119.072 18.467 119.066 20.523 120.047 22.484 120.961 19.275 119.915 17.661 120.416 15.197 122.691 13.951 123.079 11.974 123.643 11.825 125.179 11.759 126.076 12.218 127.101 12.91 127.873 12.788 128.119 12.675 128.409 12.552 128.664 12.505 128.822 12.53 129.062 12.41 129.198 12.199 129.44 11.829 129.341 11.587 129.198 10.818 128.747 10.457 127.485 10.14 126.717 9.405 124.938 8.914 123.048 8.129 121.296 8.688 121.048 9.281 120.956 9.892 120.812ZM7.096 125.565C7.226 125.222 7.429 124.867 7.633 124.505 8.469 126.916 9.351 131.855 12.843 131.056 13.263 131.573 13.56 132.042 13.808 132.657 13.718 132.666 13.626 132.687 13.534 132.718 11.451 132.744 9.917 130.941 8.694 129.476 7.821 128.427 6.542 127.033 7.096 125.565ZM8.963 136.007C7.777 136.193 6.012 134.967 6.223 133.664 7.157 134.479 8.142 135.265 9.201 135.917 9.126 135.958 9.048 135.989 8.963 136.007ZM13.657 135.565C11.553 135.757 8.826 133.422 7.288 132.117 6.391 131.326 6.521 130.381 6.568 129.374 8.379 131.829 10.707 134.315 13.935 134.584 14.249 135.031 14.251 135.474 13.657 135.565ZM71.605 143.931C69.453 147.004 66.604 148.178 62.943 148.387 52.261 149.414 43.107 146.724 34.063 141.175 32.241 140.189 30.421 139.296 28.519 138.519 28.83 138.204 28.839 137.522 28.316 137.415 27.318 137.249 26.28 137.879 25.296 138.049 24.205 138.238 23.049 138.223 21.958 138.03 20.87 137.838 19.786 137.513 18.779 137.056 17.83 136.624 16.929 136.04 15.949 135.681 16.099 135.042 15.972 134.342 15.618 133.775 16.241 132.42 15.445 130.505 14.163 129.817 14.278 129.538 14.355 129.213 14.346 128.914 15.414 129.339 16.474 128.893 17.485 128.528 18.209 128.272 18.953 128.121 19.714 128.083 20.311 129.772 23.114 136.295 25.387 135.333 25.732 135.198 25.941 134.897 25.851 134.515 25.682 133.801 25.141 133.505 24.634 133.044 23.123 131.662 21.898 129.972 21.025 128.125 21.639 128.196 22.24 128.338 22.826 128.545 23.649 128.838 24.392 129.536 25.24 129.689 25.818 129.794 26.235 129.26 25.979 128.727 24.68 126.561 20.061 126.08 17.805 126.715 16.26 127.176 14.913 128.223 13.871 126.323 13.713 126.06 13.317 125.483 13.456 125.161 13.573 124.889 14.176 124.688 14.408 124.549 14.886 124.264 15.351 123.996 15.79 123.684 15.896 123.69 16.009 123.666 16.117 123.61 17.249 123.011 18.546 122.22 19.884 122.377 21.198 122.531 22.717 123.771 24.001 123.096 24.478 122.844 24.49 122.178 24.162 121.805 26.643 123.045 29.067 124.36 31.591 125.514 31.46 126.907 33.931 126.874 34.873 127.133 38.333 127.831 41.299 129.825 44.671 130.802 48.01 131.732 51.458 132.029 54.914 132.05 56.048 132.031 57.383 132.054 58.465 131.691 59.359 131.391 59.309 130.238 58.549 129.929 58.805 128.869 58.82 127.742 58.922 126.659 59.316 122.416 59.685 118.171 60.054 113.927 60.542 108.318 61.022 102.709 61.574 97.105 62.035 92.429 62.628 87.542 64.574 83.215 67.911 75.626 72.852 75.322 79.283 71.816 84.168 81.915 83.694 94.649 77.493 104.08 77.377 102.986 77.422 101.785 76.949 100.77 76.807 100.474 76.341 100.564 76.264 100.86 76.226 101.009 76.197 101.16 76.178 101.314 75.984 101.277 75.763 101.41 75.734 101.66 75.486 103.01 75.583 104.362 75.632 105.724 76.129 117.034 75.792 128.413 74.344 139.645 73.61 141.178 72.634 142.577 71.605 143.931ZM148.921 232.559C149.297 236.035 149.481 239.524 149.554 243.018 109.109 241.207 100.832 232.241 57.933 247.843 58.319 243.102 58.693 238.36 59.149 233.625 77.019 227.766 95.95 224.078 114.811 224.951 126.089 225.929 137.099 229.285 148.488 229.114 148.652 230.262 148.797 231.411 148.921 232.559ZM57.075 336.525C57.498 336.284 57.91 336.021 58.312 335.741 59.134 343.118 67.961 342.526 73.296 344.486 74.482 344.927 75.619 345.554 76.646 346.29 77.171 346.666 77.665 347.082 78.123 347.536 78.466 347.876 78.737 348.257 79.149 348.485 78.969 350.129 78.852 351.78 78.803 353.438 71.355 351.171 55.306 345.615 51.28 355.335 50.573 353.586 49.866 351.844 49.119 350.109 52.767 347.516 54.032 342.172 54.437 337.931 55.292 337.422 56.219 337.014 57.075 336.525ZM54.044 362.125C53.23 360.137 52.423 358.144 51.613 356.154 51.753 356.155 51.897 356.095 51.99 355.951 52.367 355.376 52.806 354.841 53.294 354.354 53.959 355.439 54.557 356.55 55.003 357.743 55.217 358.309 55.408 358.884 55.602 359.457 55.8 360.025 55.881 360.704 56.442 361.027 55.631 361.351 54.833 361.718 54.044 362.125ZM56.182 357.246C55.576 356.097 54.885 354.985 54.123 353.934 54.067 353.857 54 353.804 53.929 353.773 58.945 349.625 66.308 351.639 72.087 352.837 74.363 353.34 76.509 354.16 78.775 354.738 78.75 357.352 78.892 359.975 79.219 362.572 72.292 360.076 64.445 358.308 57.261 360.718 57.592 359.649 56.671 358.183 56.182 357.246ZM48.336 343.581C48.307 344.362 48.472 347.974 49.448 348.036 49.195 348.364 48.929 348.685 48.653 349 48.141 347.652 47.452 346.303 47.447 344.835 47.749 344.427 48.129 344.032 48.336 343.581ZM51.047 342.826C51.377 341.48 51.895 340.134 52.874 339.124 52.465 341.661 51.888 344.277 50.523 346.481 50.593 345.253 50.759 344.008 51.047 342.826ZM47.988 355.647C46.324 352.842 44.476 349.661 46.443 346.513 47.775 350.455 49.489 354.218 51.007 358.085 50.569 358.121 50.116 358.287 49.739 358.465 49.125 357.543 48.541 356.605 47.988 355.647ZM83.307 388.169C82.442 389.393 80.803 389.525 79.425 389.633 72.675 390.211 65.915 387.433 61.39 382.427 58.899 379.813 57.077 376.775 55.371 373.608 53.331 370.048 52.156 367.274 53.029 363.092 55.906 370.376 59.285 377.854 65.201 383.188 69.241 386.378 79.007 389.562 83.841 387.141 83.7 387.501 83.533 387.85 83.307 388.169ZM84.766 380.028C85.147 380.653 85.487 381.341 85.966 381.9 84.932 383.094 84.141 383.499 82.551 383.194 83.209 381.614 83.009 379.408 81.921 378.271 83.014 378.615 83.828 379.434 84.766 380.028ZM80.863 383.035C80.513 383.551 79.824 383.986 79.194 384.049 78.749 384.093 78.372 383.792 77.955 383.645 79.305 382.556 79.947 379.432 79.821 377.718 80.416 377.826 81.006 377.961 81.583 378.151 80.856 378.299 81.896 381.867 80.863 383.035ZM78.165 379.324C78.008 380.149 77.841 380.981 77.538 381.766 76.97 383.244 75.255 383.883 73.919 383.171 75.768 382.193 76.285 379.228 75.442 377.433 76.462 377.399 77.49 377.426 78.507 377.532 78.339 378.114 78.273 378.756 78.165 379.324ZM73.67 381.463C72.672 382.94 71.117 382.204 69.906 381.429 70.647 380.443 71.038 379.161 71.191 377.937 72.36 377.691 73.545 377.531 74.738 377.464 74.248 378.74 74.449 380.308 73.67 381.463ZM68.778 380.668C68.055 381.663 66.537 380.556 65.693 379.75 66.986 379.227 68.284 378.688 69.637 378.319 69.432 379.142 69.272 379.988 68.778 380.668ZM64.74 380.127C65.663 381.522 67.76 382.841 69.353 381.903 70.477 382.886 71.902 383.794 73.323 383.411 74.377 384.498 75.912 384.795 77.223 384.138 78.453 386.007 80.772 385.574 82.066 384.039 82.811 384.63 83.898 384.726 84.819 384.472 84.748 384.623 84.682 384.775 84.618 384.927 81.269 387.734 76.188 386.476 72.385 385.203 69.118 384.156 66.547 382.944 64.248 380.311 64.414 380.251 64.576 380.19 64.74 380.127ZM83.157 376.843C77.424 374.554 68.324 375.584 63.43 379.407 59.329 374.676 56.747 368.808 54.425 363.061 60.505 360.592 67.541 360.927 73.73 362.832 74.796 363.147 75.847 363.505 76.898 363.861 77.738 364.145 78.634 364.594 79.534 364.744 80.229 368.911 81.414 372.99 83.157 376.843ZM94.463 360.233C92.615 359.599 90.793 358.885 88.956 358.236 89.212 356.627 89.021 355.088 89.074 353.492 89.451 354.094 89.803 354.785 90.471 355.095 90.465 355.092 90.422 355.03 90.419 355.017 90.698 355.352 91.197 355.548 91.659 355.466 93.618 358.169 96.177 358.203 98.961 359.433 98.601 359.871 98.523 360.255 98.377 360.894 97.039 361.039 95.718 360.66 94.463 360.233ZM128.748 369.738C120.853 372.394 109.854 371.064 103.853 364.961 104.344 364.509 104.091 362.543 103.971 361.883 106.307 363.121 108.64 364.366 110.794 365.909 111.171 366.551 111.851 367.065 112.525 367.497 112.599 367.697 112.812 367.806 113.016 367.803 115.377 369.39 117.956 369.888 120.736 369.299 122.525 368.971 124.53 368.687 125.845 367.302 126.711 367.744 128.213 367.258 128.948 366.947 129.999 366.502 130.867 365.646 130.56 364.577 130.96 364.637 131.378 364.551 131.774 364.459 131.953 364.576 132.157 364.648 132.365 364.676 132.281 365.457 132.105 366.205 131.948 366.976 131.825 367.582 131.735 367.996 131.292 368.434 131.072 368.651 130.948 368.9 130.9 369.154 130.175 369.306 129.471 369.503 128.748 369.738ZM122.583 359.082C124.345 360.528 126.191 361.873 127.855 363.442 128.244 363.788 128.721 364.14 129.035 364.561 129.096 364.642 129.309 364.91 129.242 365.024 129.156 365.17 128.671 365.255 128.522 365.312 127.873 365.556 127.207 365.787 126.508 365.816 126.492 363.58 124.489 361.84 122.524 361.119 121.751 360.814 121.037 360.575 120.457 360.013 121.143 359.655 121.853 359.343 122.583 359.082ZM119.209 360.735C120.273 362.899 123.577 362.174 124.744 364.821 125.33 366.088 124.179 366.635 123.128 366.947 121.148 367.534 118.808 368.099 116.765 367.581 115.72 367.315 114.758 366.82 113.864 366.225 115.022 363.925 117.068 362.121 119.209 360.735ZM130.328 360.528C130.752 361.195 130.878 362.012 131.026 362.803 130.905 362.833 130.777 362.86 130.661 362.903 130.34 361.988 129.752 361.064 129.212 360.362 128.558 359.507 127.721 358.855 126.734 358.452 126.357 358.297 126.15 358.884 126.466 359.085 127.699 359.878 128.472 361.196 128.876 362.581 127.181 361.159 125.381 359.798 123.394 358.814 124.366 358.524 125.348 358.312 126.355 358.181 126.984 358.481 127.614 358.776 128.244 359.068 129.064 359.449 129.841 359.76 130.328 360.528ZM123.729 356.888C119.25 358.083 114.535 360.932 112.831 365.463 112.67 365.345 112.504 365.232 112.336 365.132 109.82 363.128 106.839 361.747 104.005 360.243 104.978 354.896 108.883 351.478 114.109 350.38 116.928 353.074 120.268 355.116 123.729 356.888ZM110.466 349.663C106.223 351.369 103.288 355.207 103.061 359.771 101.512 359.024 99.972 358.252 98.346 357.683 99.095 353.179 103.536 350.469 107.37 348.786 108.605 348.221 109.962 347.822 111.099 347.069 111.597 347.705 112.121 348.321 112.671 348.917 111.889 349.087 111.122 349.385 110.466 349.663ZM110.207 345.874C104.62 346.489 96.687 350.955 97.299 357.356 95.478 356.863 93.676 356.089 92.583 354.507 92.583 354.507 92.58 354.507 92.583 354.505 92.639 354.278 92.589 354.16 92.565 353.927 92.646 353.276 92.293 352.744 92.018 352.19 90.586 349.66 90.749 348.267 91.064 345.512 93.276 347.154 96.118 346.646 98.288 345.272 99.818 344.338 101.131 343.085 102.706 342.221 103.515 341.777 104.362 341.451 105.258 341.238 105.95 341.074 106.646 341.059 107.267 340.787 108.087 342.573 109.071 344.277 110.207 345.874ZM118.888 279.989C117.567 295.323 115.329 310.808 109.03 324.976 108.108 327.188 107.206 329.417 106.543 331.722 105.813 334.024 105.388 336.495 106.043 338.867 103.246 339.099 100.97 340.605 98.85 342.281 96.773 343.98 93.484 346.002 91.384 343.255 91.606 341.9 92.073 340.62 92.477 339.313 93.917 334.576 94.73 329.646 94.931 324.7 95.005 322.873 94.931 321.032 94.792 319.209 94.649 317.529 94.48 315.817 93.81 314.256 97.267 307.931 101.029 301.784 104.867 295.687 108.925 289.012 113.714 282.842 119.198 277.283 119.079 278.185 118.97 279.086 118.888 279.989ZM123.715 266.132C123.06 268.332 121.867 270.336 120.439 272.118 120.154 272.253 119.961 272.511 119.856 272.819 118.722 274.147 117.471 275.386 116.262 276.635 108.061 284.771 102.092 294.809 96.228 304.677 88.423 317.761 81.278 331.768 79.318 347.055 76.35 344.062 72.408 342.655 68.378 341.826 64.576 341.219 59.05 339.345 59.877 334.515 65.12 329.912 66.801 322.836 68.751 316.432 72.45 304.34 76.63 292.206 83.161 281.306 86.572 275.435 90.958 270.227 95.766 265.47 104.949 262.315 114.584 260.699 124.315 260.848 124.353 262.626 124.227 264.414 123.715 266.132ZM146.458 257.91C131.921 256.985 117.057 255.78 102.758 259.273 90.051 262.663 81.826 266.625 68.102 264.922 64.01 264.498 59.766 264.594 56.705 261.535 57.114 257.613 57.453 253.685 57.777 249.755 74.164 243.929 91.417 239.167 108.969 240.714 122.524 241.868 135.922 244.975 149.581 244.777 149.663 249.222 149.464 253.658 149.388 258.102 148.417 257.997 147.434 257.974 146.458 257.91ZM139.131 185.057C140.355 193.063 141.845 201.029 143.722 208.907 145.218 215.063 147.285 221.067 148.22 227.356 137.573 227.474 127.254 224.531 116.738 223.354 97.325 221.995 77.773 225.828 59.335 231.712 60.296 221.895 61.454 212.071 63.104 202.351 66.527 181.889 73.662 162.225 76.51 141.654 77.349 139.616 79.396 135.913 77.407 134.061 77.469 133.419 77.527 132.778 77.578 132.136 84.83 134.943 92.748 135.655 100.408 136.583 110.417 137.299 124.577 138.616 133.599 133.883 133.779 135.503 133.821 137.204 134.406 138.738 135.166 154.244 136.848 169.703 139.131 185.057ZM211.076 37.95C210.607 38.175 209.521 38.389 209.351 37.625 209.292 36.937 210.523 35.797 210.924 35.246 211.299 36.019 212.028 36.486 212.812 36.58 212.296 37.11 211.762 37.621 211.076 37.95ZM217.194 30.834C216.964 32.428 215.907 34.219 214.607 35.178 214.334 35.165 214.089 35.327 213.894 35.514 213.893 35.514 213.893 35.514 213.893 35.516 213.149 35.782 211.746 35.583 211.865 34.574 214.439 34.192 216.168 31.847 217.15 29.601 217.215 30.006 217.238 30.417 217.194 30.834ZM220.577 9.605C219.654 11.06 218.056 12.18 216.769 13.304 215.388 14.506 213.991 15.687 212.606 16.882 211.379 17.939 209.908 18.91 209.16 20.383 208.99 20.717 209.272 21.165 209.669 21.045 209.784 21.01 209.898 20.97 210.011 20.925 211.531 20.942 213.047 20.963 214.528 21.397 215.196 21.574 216.116 21.707 216.45 22.367 217.115 23.912 217.08 25.711 216.758 27.333 216.695 27.416 216.665 27.527 216.683 27.658 216.392 28.814 215.892 29.917 215.205 30.896 214.517 31.875 213.496 33.001 212.284 33.301 211.302 33.543 211.347 32.804 211.552 32.1 211.76 31.389 212.043 30.691 212.355 30.021 212.822 29.014 213.724 27.969 213.857 26.851 214.025 25.071 211.966 24.836 212.38 25.584 213.252 26.514 211.993 27.905 211.549 28.78 210.891 30.234 209.458 32.624 210.581 34.101 210.143 34.519 209.732 34.961 209.345 35.427 208.068 34.315 204.877 37.196 203.167 36.069 203.111 35.736 202.833 35.438 202.502 35.306 202.237 35.093 201.812 35.191 201.609 35.445 198.144 39.462 194.499 43.323 190.955 47.271 185.644 53.274 180.208 59.194 175.346 65.571 174.431 66.847 173.616 68.167 172.816 69.517 160.534 75.206 147.98 80.381 134.971 84.168 133.448 84.68 131.957 85.252 130.453 85.814 128.23 81.376 125.953 76.872 122.773 73.045 121.306 71.415 119.392 70.276 117.519 69.176 120.835 68.022 124.681 67.492 128.118 68.319 129.577 68.669 130.918 68.956 132.435 68.885 142.385 67.903 151.567 62.964 160.327 58.468 162.147 57.508 164.125 56.624 165.819 55.453 166.58 54.927 167.25 54.224 167.828 53.457 171.273 49.797 175.069 46.561 179.245 43.71 183.411 40.731 187.084 37.153 190.987 33.852 192.881 32.249 194.819 30.852 196.361 28.884 197.056 28 197.708 27.082 198.416 26.207 200.826 23.523 203.113 20.637 205.969 18.407 209.616 15.667 213.17 12.791 216.593 9.774 217.989 8.526 219.733 7.25 220.815 5.651 221.088 6.962 221.29 8.414 220.577 9.605Z" class="MsftOfcResponsive_Fill_000000"/><path d="M205.001 25.328C204.225 24.537 203.966 23.591 203.761 22.538 203.757 22.541 203.751 22.544 203.746 22.547 202.674 21.043 201.953 24.979 205.026 26.864 206.087 27.617 209.84 28.602 209.449 30.189 209.096 31.747 207.371 32.542 205.889 32.559 203.887 32.608 202.159 31.443 200.747 30.14 200.543 29.952 200.144 30.133 200.249 30.43 201.365 33.579 205.817 34.367 208.496 32.837 209.788 32.098 211.305 30.346 210.374 28.779 209.194 26.93 206.552 26.708 205.001 25.328Z" class="MsftOfcResponsive_Fill_000000"/><path d="M123.47 140.633C122.273 139.81 120.672 139.764 119.381 140.37 118.967 140.155 117.996 139.569 117.557 139.752 111.356 137.561 110.912 143.228 115.055 142.833 115.785 142.698 116.434 142.318 117.131 142.08 117.724 141.877 118.383 141.843 118.969 141.631 120.196 142.354 123.849 145.834 124.859 143.683 125.356 142.61 124.298 141.204 123.47 140.633ZM116.551 140.979C115.822 141.261 114.852 141.919 114.054 141.582 113.687 141.427 113.367 141.054 113.711 140.719 114.488 140.156 115.96 140.74 116.881 140.855 116.767 140.896 116.656 140.938 116.551 140.979ZM123.452 143.044C122.394 142.671 121.538 141.888 120.613 141.215 121.849 141.062 123.429 141.652 123.628 143.017 123.69 143.189 123.631 143.198 123.452 143.044Z" class="MsftOfcResponsive_Fill_000000"/></g></g></svg>