<svg viewBox="0 0 137 404" xmlns="http://www.w3.org/2000/svg" xmlns:xlink="http://www.w3.org/1999/xlink" id="4356cdc4-3413-4578-bcfe-5955de95fc65" overflow="hidden"><style>
.MsftOfcResponsive_Fill_000000 {
 fill:#000000; 
}
</style>
<g><path d="M132.345 261.972C133.273 259.833 128.956 218.085 126.319 207.536 124.207 199.088 120.347 183.886 118.621 177.098 118.167 175.31 114.536 166.162 113.726 164.504L101.506 137.435C101.506 137.435 104.069 127.77 108.024 118.979 111.979 110.188 112.351 100.029 112.351 100.029L106.471 62.515 102.838 44.289C97.212 27.47 77.111 26.063 77.111 26.063L76.965 20.671C73.888 14.664 51.326 6.899 51.326 6.899L51.776 13.877C51.899 15.789 51.741 17.709 51.302 19.573 50.87 21.41 50.154 23.483 50.154 23.483 46.326 23.981 40.627 24.763 36.148 26.296 29.88 28.441 24.335 33.065 20.189 38.232 12.296 48.07 11.476 62.044 11.476 62.044L10.45 89.53 10.01 102.599C10.01 102.599 6.054 119.573 6.492 139.171 6.918 158.253 12.922 175.903 12.922 175.903L10.81 190.661C10.161 193.74 9.587 194.441 10.831 197.331L14.406 206.004 14.992 225.783C16.311 228.42 34.19 229.355 34.19 229.355L35.745 241.773C36.176 244.677 36.532 247.997 36.304 250.924 35.417 262.315 32.562 285.157 32.878 292.79 33.179 300.073 46.682 338.931 46.682 338.931L52.283 356.84C50.42 357.106 48.967 358.828 48.495 360.65L44.598 377.649C44.415 378.445 44.485 379.281 44.812 380.03 45.751 382.181 47.334 387.843 53.23 394.122 59.287 400.573 77.58 399.249 83.033 398.693 83.923 398.602 84.613 397.874 84.655 396.98L84.312 387.772C84.312 385.169 81.41 381.667 78.049 379.031 74.254 376.054 69.992 373.673 70.079 373.698 77.415 375.669 83.109 375.767 86.727 375.011 88.151 374.714 90.986 373.811 90.842 372.363 89.232 356.19 79.963 356.922 79.963 356.922L77.424 351.18C76.519 347.775 76.889 342.362 78.082 339.048 80.322 332.825 77.638 329.979 77.638 329.979L102.177 298.27C102.178 298.271 131.417 264.111 132.345 261.972ZM25.236 139.147 29.063 92.976C29.088 92.672 29.521 92.64 29.591 92.937L34.478 113.705 25.91 139.286C25.779 139.673 25.203 139.554 25.236 139.147ZM75.353 301.236C69.2 316.248 65.097 316.326 65.097 316.326L66.855 266.952 72.129 225.021 84.875 219.483 100.405 260.652C86.488 266.953 77.686 295.546 75.353 301.236Z" fill="#FFFFFF"/><path d="M106.471 66.756C104.188 46.45 101.164 29.873 77.99 26.113 77.631 26.066 77.302 26.392 77.344 26.751 78.035 34.224 75.391 41.43 75.504 48.903 75.488 49.057 75.409 49.107 75.25 49.109 68.413 46.882 52.664 31.869 48.567 26.276 47.867 25.383 50.472 23.72 48.578 23.45 26.663 27.022 12.141 41.168 11.996 63.303 16.333 67.54 23.634 69.757 29.322 69.864 29.575 69.869 30.631 70.72 30.616 70.895 30.055 77.451 29.391 84.036 29.321 90.544 29.606 90.904 31.999 100.948 33.219 105.844 33.697 107.783 34.192 109.787 34.508 111.781 34.545 112.017 34.722 112.206 34.954 112.26 49.434 115.67 66.397 115.978 81.898 114.019 86.376 113.523 90.478 112.007 94.931 111.486 95.233 111.451 95.458 111.192 95.45 110.888 95.147 101.263 97.896 92.022 98.324 82.475 97.516 80.454 98.568 77.769 99.441 75.912 100.431 74.364 101.153 72.774 101.657 71.158 101.709 70.992 103.157 69.742 103.449 69.693 104.047 69.594 104.919 68.611 105.242 68.287 105.548 67.828 106.493 67.44 106.471 66.756Z" fill="#FFFFFF"/><g><path d="M65.899 333.194C65.984 333.248 66.031 333.329 66.043 333.442 66.138 334.637 67.625 337.729 68.47 336.104 69.183 332.524 72.582 327.192 76.801 329.316 77.105 329.473 77.475 329.33 77.611 329.019 78.272 327.789 78.897 326.627 79.669 325.525 86.494 316.54 80.934 324.1 71.428 311.508 70.332 309.983 68.524 316.147 65.893 316.675 65.658 316.757 65.5 316.978 65.499 317.227 65.72 322.412 65.062 328.114 65.899 333.194Z" fill="#FFFFFF"/><path d="M64.267 351.396C61.796 328.88 68.865 342.189 47.635 339.706 47.5 339.857 47.453 340.066 47.509 340.26 48.117 342.353 48.846 344.471 49.552 346.519 50.933 350.103 51.844 354.009 52.887 357.573 53.797 358.283 54.627 359.15 55.423 360.224 57.344 361.923 55.502 354.963 60.097 351.939 62.071 350.483 64.174 353.182 64.267 351.396Z" fill="#FFFFFF"/></g><g><path d="M89.435 370.099C88.353 361.316 88.756 375.078 69.347 367.717 69.147 367.651 68.927 367.697 68.771 367.838 68.614 367.979 68.546 368.193 68.59 368.398 69.325 371.806 69.525 373.829 73.953 374.521 77.833 375.434 81.887 375.555 85.757 374.782 90.744 373.437 90.062 374.212 89.435 370.099Z" fill="#FFFFFF"/><path d="M84.139 392.418C84.128 391.927 83.487 391.672 83.145 392.026 82.051 393.092 80.314 393.187 78.633 393.279 70.133 394.499 53.476 392.873 50.325 380.152 50.193 379.01 46.745 371.435 45.46 373.851 45.202 375.715 45.277 377.108 44.77 379.045 44.717 379.246 44.776 379.46 44.922 379.607 46.542 381.229 47.558 383.263 48.634 385.417 52.643 395.691 63.573 398.828 74.136 398.575 77.314 398.476 80.325 398.647 83.371 397.772 84.838 396.515 84.077 394.1 84.139 392.418Z" fill="#FFFFFF"/></g><g><path d="M101.281 97.451C99.862 98.086 98.674 99.157 97.939 100.534 97.658 101.06 98.376 101.692 98.802 101.2 100.815 98.771 104.031 98.545 106.944 98.801 107.412 98.769 107.777 98.152 107.362 97.792 105.707 96.361 103.173 96.605 101.281 97.451Z" class="MsftOfcResponsive_Fill_000000"/><path d="M133.311 259.328C132.07 242.175 130.323 224.549 127.085 207.282L127.085 207.282C127.085 207.282 127.084 207.279 127.083 207.276 122.948 185.226 116.382 163.76 105.33 144.606 103.988 141.958 102.731 139.266 101.636 136.511 103.152 137.02 103.456 134.133 103.918 133.17 105.124 129.485 106.436 125.835 107.653 122.154 114.23 103.271 112.786 98.367 109.943 79.3 106.96 65.194 107.775 46.993 98.695 35.377 93.341 29.861 85.623 25.774 77.844 25.572 77.636 23.962 77.374 22.366 77.506 20.735 77.545 19.593 75.868 19.637 75.759 20.735 75.664 21.689 75.706 22.641 75.826 23.591 77.622 31.504 74.645 39.72 74.546 47.774 65.25 42.193 56.841 34.767 49.883 26.459 51.777 24.138 51.983 20.866 52.369 18.002 52.892 17.115 52.21 2.37 50.255 6.849 50.977 12.244 50.707 17.986 49.059 23.19 12.683 25.432 8.599 54.747 9.216 84.829 9.134 88.515 9.012 92.202 8.991 95.887 8.974 98.913 8.712 101.936 8.691 104.958 8.689 105.206 8.818 105.387 8.995 105.49 3.634 128.772 4.101 153.878 12.023 176.475 10.572 182.142 10.398 188.052 9.275 193.773 9.285 196.256 10.616 198.647 11.287 201.018 11.89 202.723 12.274 204.587 13.456 206.021 13.307 211.045 14.051 216.281 13.758 221.384 13.715 222.889 13.292 224.968 14.421 226.165 14.029 228.607 30.822 230.14 33.248 230.337 33.387 233.922 33.842 237.493 34.162 241.067 36.483 258.117 30.867 274.887 31.816 291.898 32.477 300.356 35.397 308.392 37.928 316.425 42.24 329.7 46.183 343.056 50.521 356.315 46.338 359.242 45.994 364.927 44.898 369.5 44.435 371.689 44.053 373.808 43.64 376.023 43.495 376.864 42.733 379.41 43.784 380.027 49.456 393.694 54.204 399.641 69.778 400.443 72.983 400.587 84.073 401.168 85.25 397.724 85.916 395.949 85.888 390.907 84.934 389.33 84.666 382.594 78.574 377.734 72.869 375.099 76.73 376.613 89.649 377.354 91.43 372.769 91.632 366.043 88.475 357.476 80.982 356.388 78.324 350.928 76.338 346.631 78.459 340.461 79.102 338.773 79.408 337.036 79.851 335.303 79.925 335.089 79.845 334.902 79.702 334.78 79.532 332.964 79.31 331.023 78.093 329.605 93.994 309.397 111.261 290.284 127.451 270.301 129.455 267.848 131.259 265.244 132.783 262.465 133.44 261.641 133.275 260.346 133.311 259.328ZM30.684 119.872C29.145 124.995 27.673 130.141 26.304 135.312 27.374 121.957 28.373 108.596 29.37 95.235 30.413 101.119 31.102 107.285 33.57 112.766 31.793 114.616 31.564 117.521 30.684 119.872ZM84.355 221.713C85.838 226.869 88.088 231.785 89.87 236.843 92.952 244.584 95.446 252.64 99.255 260.055 92.189 264.001 87.648 271.194 83.425 277.87 77.549 287.857 75.126 299.479 69.209 309.458 68.259 311.111 67.162 312.67 66.135 314.275 66.401 284.83 69.114 255.464 72.672 226.255 76.659 224.995 80.5 223.332 84.355 221.713ZM111.52 99.736C110.578 112.244 104.058 123.508 101.265 135.56 97.858 126.705 96.584 117.13 96.545 107.678 96.86 99.33 98.78 91.106 98.962 82.75 99.296 81.623 99.22 80.395 99.593 79.264 100.293 76.491 101.988 74.107 102.883 71.407 104.212 70.823 105.079 69.945 106.255 69.078 107.906 79.308 109.196 89.635 111.52 99.736ZM15.162 49.162C19.575 34.102 34.252 26.652 48.713 24.026 48.519 24.509 48.159 24.9 47.983 25.388 47.678 25.7 47.955 26.945 48.751 27.017 52.817 33.475 68.028 46.933 75.111 49.672 75.612 49.798 76.119 49.429 76.12 48.903 76.012 41.457 78.672 34.14 77.957 26.694 82.645 27.208 87.084 29.216 91.099 31.613 103.764 38.467 103.819 54.329 105.922 66.852 104.918 67.74 104.422 68.406 103.47 69.128 104.186 65.095 103.394 60.774 102.497 56.856 101.934 54.401 101.212 51.978 100.319 49.623 100.048 48.908 98.899 49.199 99.154 49.944 101.892 58.414 104.096 67.619 98.958 75.625 97.999 77.659 96.917 80.453 97.81 82.691 97.187 92.129 94.635 101.416 94.895 110.903 90.473 111.413 86.296 112.945 81.865 113.436 66.508 115.337 50.14 115.188 35.119 111.688 34.578 108.283 33.557 104.977 32.865 101.601 32.085 98.05 31.44 94.47 30.922 90.872 30.837 90.284 30.279 90.055 29.758 90.12 30.612 78.959 31.461 67.798 32.265 56.633 32.316 55.925 31.227 55.935 31.166 56.633 30.799 60.849 30.438 65.065 30.079 69.281 30.074 69.324 30.008 69.34 29.911 69.36 29.792 69.385 29.603 69.372 29.597 69.372 23.84 69.037 16.583 67.058 12.443 62.89 12.874 58.232 13.66 53.618 15.162 49.162ZM14.039 204.292C12.857 201.741 12.141 198.999 11.16 196.366 10.947 195.751 10.73 195.088 10.414 194.496 11.335 193.363 11.325 191.683 11.611 190.294 11.858 188.616 12.04 186.931 12.209 185.243 12.538 181.946 12.877 178.663 13.502 175.407 13.58 175.001 13.284 174.751 12.981 174.749 11.143 165.606 8.773 156.528 7.946 147.2 6.068 132.371 8.31 117.362 10.378 102.826 12.053 90.171 11.412 77.362 12.293 64.65 15.832 68.334 24.853 71.486 29.921 71.106 27.27 105.178 23.659 139.203 21.813 173.312 21.713 173.436 21.676 173.607 21.754 173.812 22.639 176.123 23.767 178.344 24.406 180.744 24.811 182.265 24.628 183.831 24.572 185.382 24.423 189.813 25.738 194.196 25.231 198.629 25.116 199.626 24.902 201.902 23.416 201.628 20.709 201.41 20.9 192.401 19.635 189.823 20.093 188.269 17.577 188.278 17.617 190.763 16.933 195.08 16.612 199.985 19.384 203.672 21.965 207.357 26.613 207.1 25.975 208.862 25.945 208.944 25.831 209.144 25.831 209.144 25.831 209.144 25.581 209.147 25.456 209.144 22.566 209.078 19.928 207.552 17.293 206.496 16.05 205.935 14.706 205.563 14.039 204.292ZM37.486 306.72C31.218 290.397 35.891 273.282 37.246 256.561 37.591 247.838 37.221 238.917 34.998 230.444 47.028 231.107 59.146 229.842 70.801 226.796 64.502 262.776 62.407 299.398 62.973 335.894 58.561 339.156 52.812 339.363 47.576 338.488 44.171 327.914 40.746 317.341 37.486 306.72ZM48.102 340.097C53.057 340.952 58.491 341.001 63.025 338.538 63.187 342.853 63.019 347.218 63.717 351.49 59.01 348.794 55.806 355.96 55.924 359.873 55.155 358.838 54.294 357.905 53.277 357.11 52.207 351.379 49.743 345.751 48.102 340.097ZM83.204 397.22C82.074 397.626 80.902 397.667 79.711 397.808 69.962 398.39 57.391 398.126 51.398 389.135 49.233 385.931 48.133 381.96 45.368 379.192 45.891 377.189 45.815 375.768 46.071 373.931 49.589 376.602 49.511 381.65 51.935 385.105 57.469 393.435 68.462 394.774 77.67 393.929 79.64 393.765 82.08 393.909 83.583 392.446 83.652 393.91 83.836 395.39 83.487 396.836 83.366 396.943 83.271 397.076 83.204 397.22ZM85.659 374.21C81.847 374.974 77.875 374.84 74.098 373.946 70.081 373.273 69.981 371.901 69.191 368.273 74.902 370.166 83.781 372.601 88.425 367.5 88.837 369.33 88.951 371.204 89.381 373.024 88.232 373.656 86.929 373.929 85.659 374.21ZM79.22 325.187C78.414 326.334 77.759 327.561 77.097 328.792 72.498 326.45 68.726 332.004 67.925 335.987 67.274 335.263 66.766 334.357 66.655 333.375 66.619 333.062 66.456 332.836 66.244 332.701 66.14 327.544 66.097 322.386 66.116 317.228 68.429 316.426 69.626 313.754 70.981 311.848 73.794 315.791 77.862 319.004 82.303 320.901 81.261 322.319 80.232 323.747 79.22 325.187ZM128.787 264.355C113.915 282.695 97.753 300.016 83.696 319.011 79.601 316.322 74.752 314.041 72.367 309.502 79.475 296.877 81.973 281.814 91.281 270.414 93.484 267.726 95.96 265.24 98.78 263.2 100.059 262.207 101.872 261.173 101.552 259.317 100.182 254.169 97.797 249.339 95.883 244.375 92.507 236.628 89.677 228.621 86.085 220.978 96.8 216.802 113.564 208.306 124.825 209.138 127.837 224.567 129.421 240.216 130.281 255.897 130.436 257.95 130.363 260.084 131.043 262.04 130.286 262.806 129.531 263.575 128.787 264.355Z" class="MsftOfcResponsive_Fill_000000"/></g></g></svg>