<svg viewBox="0 0 177 395" xmlns="http://www.w3.org/2000/svg" xmlns:xlink="http://www.w3.org/1999/xlink" id="7081baa1-15ad-4e14-a123-d017480fe8ec" overflow="hidden"><style>
.MsftOfcResponsive_Fill_000000 {
 fill:#000000; 
}
</style>
<g><path d="M172.877 384.548 170.894 382.075 169.335 376.509C155.182 373.339 146.375 360.727 146.375 360.727L147.08 357.345 145.671 349.806C145.443 347.835 148.932 336.265 149.279 334.311L148.348 321.905C148.309 320.705 148.875 316.777 149.058 315.59 149.058 315.59 151.307 302.46 152.69 292.094 154.073 281.728 152.505 247.082 152.505 247.082 152.505 247.082 153.28 219.534 152.223 211.361 151.166 203.188 149.687 195.015 149.687 195.015 153.28 198.185 154.478 189.942 154.478 189.942 167.724 185.433 162.862 166.692 162.862 166.692 166.651 143.319 161.541 131.324 161.541 131.324 161.541 131.324 152.576 86.374 149.123 76.898 145.67 67.422 139.612 56.422 139.612 56.422 139.612 56.422 134.09 45.035 128.41 37.901 122.73 30.767 111.254 29.306 111.254 29.306L107.626 22.296 108.295 20.993C108.956 7.915 74.485 6.488 74.485 6.488L73.314 14C68.822 14.661 67.88 21.68 67.88 21.68L50.046 27.889C32.802 33.957 26.743 53.121 26.743 53.121L13.146 91.66C13.146 91.66 9.279 103.717 8.434 117.059 7.58 130.551 13.85 147.971 13.85 147.971L24.277 167.892C21.811 172.753 25.263 175.572 25.263 175.572 23.924 201.993 30.124 199.386 30.124 199.386 34.087 206.52 35.901 202.134 35.901 202.134 36.267 203.599 37.321 205.288 38.649 206.361 39.237 206.836 40.692 206.854 40.692 206.854L46.963 239.475 49.429 246.098 52.159 315.611 52.811 328.39 52.106 342.974 61.547 369.254 59.856 372.424 58.306 379.047C54.361 389.967 67.113 389.827 67.113 389.827 75.568 391.236 82.041 390.153 84.304 387.995 86.567 385.837 84.093 368.056 84.093 368.056L89.941 360.79C89.941 360.79 97.554 349.529 93.675 347.271 88.955 344.523 88.955 338.323 88.955 338.323 88.955 338.323 87.837 321.493 87.969 311.057 88.101 300.621 89.237 282.17 92.126 267.234 95.015 252.298 100.378 236.216 100.378 236.216 103.416 237.009 104.737 250.395 104.737 250.395L107.767 326.275 110.127 369.323 111.554 371.04C111.554 371.04 110.418 373.788 111.078 375.664 111.739 377.54 120.338 380.327 120.338 380.327 121.372 380.72 125.249 381.16 126.058 380.406L129.189 377.619C131.71 378.141 134.068 379.701 136.11 381.269L139.22 384.362C140.719 385.853 142.647 386.842 144.734 387.182 158.365 389.398 168.279 387.476 172.037 386.503 172.89 386.283 173.304 385.318 172.877 384.548ZM148.173 183.181C148.913 182.758 149.688 181.103 149.688 181.103 150.04 181.42 149.512 189.135 148.843 189.205 148.174 189.275 146.729 184.344 146.729 184.344 146.729 184.344 147.433 183.604 148.173 183.181Z" fill="#FFFFFF"/><g><path d="M172.804 385.131C172.421 384.51 170.682 382.322 170.577 380.366 170.524 378.517 168.744 376.927 168.407 376.805 159.44 373.319 153.285 369.324 149.035 364.232 148.383 363.456 148.165 362.355 147.697 361.66 147.462 361.287 145.428 361.373 145.108 361.554 143.301 362.489 120.263 369.222 113.18 370.867 112.851 370.935 111.95 372.054 111.867 372.104 111.38 372.471 111.153 375.072 111.359 375.708 114.713 378.391 119.207 379.349 123.184 380.465 123.838 380.518 124.97 381.28 125.422 380.606 126.061 379.522 127.317 378.734 128.225 377.802 128.495 377.673 131.091 378.047 131.399 378.137 133.812 378.909 135.753 380.764 137.495 382.66 142.912 388.134 150.119 387.985 156.2 388.044 161.164 387.95 168.287 388.491 172.647 385.923 172.899 385.742 172.968 385.396 172.804 385.131Z" fill="#FFFFFF"/><path d="M84.271 386.525C84.198 386.482 84.29 383.765 84.311 383.611 84.539 381.286 84.398 378.966 84.371 376.652 84.372 376.54 83.083 371.634 82.607 368.84 82.554 368.527 82.263 368.312 81.949 368.35 80.519 368.526 79.105 368.745 77.738 368.958 75.716 369.28 73.567 369.562 71.53 369.887 68.92 370.289 66.221 370.705 63.563 370.949 63.244 370.978 60.775 370.873 60.606 371.387 59.855 373.391 58.953 376.053 58.632 378.888 58.523 379.485 58.187 382.424 58.174 382.637 57.659 387.906 62.39 388.669 65.831 389.224 68.503 389.716 71.394 390.135 74.319 390.135 75.646 390.376 86.446 388.987 84.271 386.525Z" fill="#FFFFFF"/></g><path d="M42.313 165.851C42.16 165.33 42.009 164.513 41.291 164.809 39.114 165.831 36.632 166.557 33.482 167.093 32.985 167.161 32.81 167.856 33.218 168.15 35.523 169.868 34.724 172.081 35.75 172.057 36.557 171.799 37.253 171.254 38.116 170.929 40.026 170.046 43.6 168.48 42.313 165.851Z" fill="#FFFFFF"/><path d="M34.301 169.614C33.706 168.611 32.727 167.585 31.56 167.358 29.423 167.596 27.235 167.647 25.054 167.509 24.319 167.351 23.34 170.184 23.406 170.88 23.278 179.167 37.955 179.399 34.301 169.614Z" fill="#FFFFFF"/><path d="M144.104 174.286C143.663 168.848 142.906 162.699 142.842 157.194 142.84 156.977 142.445 156.581 142.254 156.478 119.469 171.363 65.206 165.908 44.075 149.397 43.864 149.522 43.321 150.044 43.358 150.286 43.747 152.834 46.043 163.983 44.253 163.528 42.36 163.641 42.966 168.156 45.238 170.111 59.472 182.358 79.604 184.825 97.392 184.801 113.536 184.988 133.176 182.365 144.104 174.286Z" fill="#FFFFFF"/><path d="M111.59 32.891C111.302 29.408 109.82 26.18 108.262 23.21 108.049 22.772 107.361 22.8 107.187 23.257 106.821 24.048 107.128 25.039 106.865 25.763 106.733 25.891 105.149 26.113 104.931 26.546 104.123 26.808 99.108 32.616 96.757 33.952 96.774 33.758 96.695 33.568 96.545 33.443 96.217 33.171 93.427 29.455 90.522 27.071 87.74 24.788 84.854 23.842 83.898 23.3 79.046 20.749 72.863 18.369 73.137 14.918 73.161 14.652 73.163 14.286 72.912 14.191 72.365 13.984 71.958 14.37 71.681 14.723 70.005 16.882 68.454 19.41 67.933 22.149 67.939 22.9 68.491 23.401 68.895 23.767 73.442 28.349 79.02 32.32 85.216 34.746 85.829 34.86 86.847 31.475 87.51 32.092 90.249 34.271 93.006 37.283 95.951 40.809 96.228 41.162 99.117 44.751 100.083 46.007 100.215 46.179 100.433 46.265 100.644 46.232 101.328 46.337 104.913 34.602 106.399 31.544 106.782 32.687 106.954 34.05 107.32 35.218 107.397 35.466 107.628 35.635 107.887 35.635 108.911 35.627 111.578 33.542 111.59 32.891Z" fill="#FFFFFF"/><path d="M162.295 136.595C160.618 128.289 157.832 120.225 157.3 111.7 155.211 106.955 154.263 101.719 153.488 96.597 151.603 81.231 144.753 65.349 138.027 53.597 131.947 42.775 126.542 29.627 112.269 29.61 110.126 29.607 112.145 32.946 111.944 33.244 111.849 33.327 108.079 35.905 107.669 35.752 107.203 35.578 106.888 34.791 106.782 33.536 106.759 33.262 106.551 33.04 106.279 32.998 106.007 32.957 105.743 33.107 105.639 33.362 103.028 39.529 102.403 42.933 100.674 46.972 97.334 43.04 95.314 38.446 87.504 32.161 86.548 32.347 86.216 34.528 85.449 35.008 77.063 31.491 71.247 27.363 67.674 22.391 67.517 22.172 66.751 22.004 66.499 22.101 53.915 26.883 38.95 28.761 32.799 42.201 26.158 54.036 21.365 67.683 17.099 80.301 6.48 107.711 4.594 132.728 15.299 150.701 17.856 156.275 21.57 161.819 24.127 167.393 24.243 167.651 24.522 167.769 24.796 167.74 26.256 167.74 31.921 167.335 32.027 167.312 33.689 167.251 44.324 164.26 43.875 163.06 42.972 158.32 42.143 153.424 41.389 148.386 41.365 148.229 43.197 147.69 43.333 147.808 50.95 154.377 61.212 159.056 72.503 161.817 91.854 165.758 126.275 168.661 143.205 155.952 143.331 155.858 144.33 163.252 144.473 166.098 144.463 166.703 145.984 167.185 146.179 166.594 146.468 165.752 146.723 164.858 146.921 164.108 148.095 163.827 152.815 164.542 154.37 164.723 157.158 164.959 158.918 165.378 161.118 166.841 161.458 167.086 161.98 166.864 162.038 166.448 163.87 155.657 163.956 145.614 162.295 136.595Z" fill="#FFFFFF"/><g><path d="M100.494 37.794C99.476 36.795 97.777 38.213 98.52 39.417 99.384 40.943 101.684 38.954 100.494 37.794Z" class="MsftOfcResponsive_Fill_000000"/><path d="M86.824 88.854C96.348 89.605 105.957 89.554 115.434 90.771 117.908 91.12 120.288 91.864 122.602 92.789 122.796 92.862 122.889 92.576 122.736 92.472 114.556 87.783 104.518 89.057 95.445 88.281 92.571 88.15 89.698 88.019 86.825 87.888 86.201 87.859 86.207 88.817 86.824 88.854Z" class="MsftOfcResponsive_Fill_000000"/><path d="M174.078 385.195C173.312 384.252 173.015 382.661 171.931 382.089 171.977 380.369 171.178 378.804 170.229 377.491 171.198 376.068 168.5 375.64 167.598 375.245 166.696 374.889 165.809 374.491 164.93 374.083 158.187 370.97 151.975 366.566 147.633 360.455 149.265 356.196 145.658 351.817 147.081 347.16 148.221 341.891 150.643 336.831 150.185 331.318 150.033 328.484 149.557 325.681 149.561 322.836 149.791 313.862 152.626 305.22 153.358 296.284 155.167 278.452 153.744 260.525 153.517 242.655 153.549 227.164 154.788 211.541 150.86 196.363 153.855 197.461 154.058 192.849 154.832 190.968 155.071 190.937 155.259 190.714 155.457 190.584 162.723 188.833 164.439 179.126 164.351 172.687 164.305 171.592 164.202 170.497 164.045 169.412 164.034 168.544 163.53 167.568 163.847 166.725 165.683 157.114 165.746 147.084 164.342 137.414 162.688 128.752 160.217 120.25 158.178 111.674 158.418 111.411 158.548 111.037 158.415 110.7 155.95 104.425 155.154 97.684 153.844 91.114 151.293 78.185 145.773 66.079 139.514 54.558 132.848 42.421 127.493 29.594 111.717 28.518 110.971 26.174 109.791 23.952 108.259 22.088 110.088 17.485 106.187 21.38 106.546 25.318 104.445 25.415 103.173 27.075 101.905 28.536 100.426 30.108 98.853 31.584 97.337 33.117 94.623 29.895 91.661 26.748 87.914 24.711 83.001 21.914 77.228 20.161 73.519 15.665 74.314 12.897 74.545 9.989 75.085 7.161 75.221 6.335 73.96 5.978 73.819 6.812 73.438 9.158 72.998 11.507 72.642 13.854 70.409 13.888 67.901 18.951 67.325 20.952 57.666 23.798 47.327 25.999 39.117 32.137 26.689 44.079 22.3 62.629 16.322 78.336 2.327 117.546 3.272 132.277 22.897 168.843 21.907 171.213 22.711 174.001 24.428 175.768 24.494 176.795 24.513 177.83 24.466 178.858 24.406 182.844 24.664 186.833 24.773 190.819 24.685 194.789 25.299 199.435 29.943 200.274 30.405 202.685 33.689 205.658 35.826 203.393 36.705 205.271 38.013 207.287 40.173 207.715 40.998 213.681 42.897 219.506 43.765 225.493 45.282 232.469 44.896 240.07 48.381 246.477 48.742 271.176 50.564 295.851 51.46 320.539 51.717 326.888 51.845 333.264 51.223 339.597 51.022 341.602 50.906 343.491 51.448 345.461 54.268 353.685 57.429 361.812 60.49 369.953 58.694 372.867 57.717 376.276 57.472 379.682 56.705 380.076 57.161 381.266 57.092 381.975 57.102 383.793 57.108 385.76 58.302 387.248 59.775 389.103 62.313 389.572 64.499 390.041 70.785 391.554 77.71 392.461 83.739 389.54 84.394 389.23 85.143 388.903 85.475 388.218 85.857 387.077 85.891 385.61 85.742 384.445 86.276 379.453 86.06 374.341 85.121 369.409 88.473 365.847 90.708 361.069 93.27 356.864 94.839 354.005 97.423 349.484 94.613 346.536 92.468 344.865 91.513 345.37 90.94 342.203 90.318 339.98 89.932 337.699 89.704 335.404 87.611 302.478 91.142 269.201 100.914 237.653 102.815 241.482 103.366 245.849 103.596 250.106 104.599 280.564 105.677 311.027 107.303 341.462 107.615 347.526 107.943 353.588 108.287 359.65 108.779 362.621 107.638 370.116 110.608 371.406 109.339 376.828 109.833 376.805 114.644 379.173 118.197 380.62 122.157 382.283 126.044 381.441 127.379 380.74 128.559 379.745 129.497 378.598 135.929 380.782 137.244 386.591 144.375 388.069 148.2 389.008 174.751 390.569 174.078 385.195ZM146.892 362.434C147.404 363.194 147.993 363.915 148.579 364.616 153.668 370.713 160.896 374.524 168.192 377.36 167.03 379.29 166.264 379.766 163.959 379.56 161.437 379.445 158.884 379.222 156.4 378.764 147.889 377.776 142.789 370.37 136.416 365.515 139.48 364.499 142.766 364.092 145.677 362.588 146.069 362.731 146.723 362.986 146.892 362.434ZM63.616 371.541C67.229 371.209 70.822 370.576 74.412 370.05 76.975 369.708 79.441 369.256 82.021 368.94 82.712 372.984 82.504 375.957 80.638 379.686 80.503 379.881 80.52 379.88 80.267 379.929 77.405 380.394 74.478 380.458 71.592 380.202 61.092 378.537 64.091 379.663 63.616 371.541ZM43.929 164.217C43.995 164.182 44.06 164.145 44.125 164.108 46.762 164.693 45.573 160.12 45.311 158.711 44.823 155.878 44.38 153.039 43.945 150.197 65.452 167.176 118.989 172.328 142.247 157.2 142.311 162.714 142.786 168.244 143.234 173.76 132.193 180.208 119.172 182.852 106.534 183.536 87.394 184.112 66.773 183.595 50.334 172.566 48.904 171.636 47.453 170.796 46.075 169.795 45.564 168.91 45.197 167.763 44.268 167.231 44.451 166.191 43.844 165.259 43.929 164.217ZM148.822 187.479C148.72 187.529 148.62 187.579 148.522 187.631 148.166 186.529 147.791 185.434 147.406 184.338 148.199 184.042 148.771 183.382 149.145 182.65 149.012 184.259 148.869 185.87 148.822 187.479ZM162.189 180.467C161.994 181.17 161.769 181.861 161.509 182.538 160.665 181.345 159.672 183.508 159.227 184.139 158.144 185.863 156.87 187.494 155.423 188.913 156.055 186.472 157.102 184.116 157.383 181.595 157.568 179.773 157.436 177.884 157.267 176.07 157.215 175.516 156.521 175.429 156.318 175.942 155.764 177.346 155.942 178.737 155.941 180.215 155.712 184.698 153.608 188.834 152.441 193.124 152.337 193.697 151.726 195.855 151.274 194.217 149.134 187.441 152.235 180.148 149.958 173.375 149.77 172.776 148.911 173.025 149.027 173.632 149.341 175.282 149.419 176.94 149.384 178.603 148.383 180.014 148.62 182.336 146.972 183.242 146.664 182.796 146.118 182.676 145.656 182.8 144.713 180.549 145.903 178.125 145.463 175.789 145.873 175.557 146.266 175.029 146.205 174.529 145.982 172.764 145.849 170.997 145.76 169.224 146.115 167.628 146.59 166.05 147.024 164.486 153.206 165.676 156.891 164.574 162.528 168.447 163.448 172.396 163.257 176.566 162.189 180.467ZM107.358 26.103C107.774 25.373 107.396 24.297 107.736 23.486 109.293 26.454 110.719 29.566 110.998 32.939 110.001 33.546 109.103 35.026 107.888 35.038 107.525 33.872 107.348 32.473 106.953 31.322 106.572 30.439 106.152 27.041 105.471 26.791 106.06 26.474 106.896 26.671 107.358 26.103ZM96.981 34.506C99.097 33.409 100.779 31.338 102.533 29.69 103.352 28.855 104.087 27.923 104.955 27.139 105.122 28.644 105.539 30.145 105.814 31.642 103.174 35.898 102.267 40.979 100.555 45.642 99.712 44.547 98.864 43.456 98.002 42.378 97.305 39.812 96.874 37.173 96.981 34.506ZM93.633 31.113C94.462 32.052 95.195 33.095 96.167 33.9 95.923 36.068 96.01 38.281 96.408 40.427 93.857 37.373 91.133 34.481 87.992 31.981 88.794 30.592 89.682 29.246 90.4 27.811 91.634 28.745 92.655 29.922 93.633 31.113ZM69.258 19.821C70.034 17.869 71.344 16.197 72.566 14.521 72.55 14.697 72.537 14.874 72.527 15.05 72.8 19.943 85.743 24.133 89.526 27.159 87.982 29.417 86.682 31.837 85.217 34.148 79.419 31.697 74.074 28.144 69.648 23.663 69.245 23.221 68.534 22.8 68.529 22.142 68.838 21.407 68.862 20.565 69.258 19.821ZM17.025 150.55C5.053 129.519 9.295 105.066 17.332 83.458 21.953 69.826 26.432 56.01 33.507 43.408 39.568 30.165 54.862 27.44 67.192 22.736 71.498 28.728 78.564 32.773 85.31 35.592 86.268 35.822 86.949 33.407 87.535 32.754 105.78 49.259 97.367 55.293 106.189 33.585 106.582 38.229 109.543 36.232 111.971 33.861 113.25 33.65 112.222 31.103 112.172 30.196 125.959 32.459 131 42.912 137.208 53.957 143.433 65.186 149.036 76.92 151.627 89.574 153.246 96.949 153.536 104.815 156.705 111.736 157.224 120.233 160.028 128.395 161.71 136.703 163.503 146.437 163.102 156.623 161.453 166.346 159.862 165.269 158.053 164.577 156.151 164.305 155.221 164.31 145.559 162.788 146.524 164.278 146.214 164.973 145.909 165.668 145.627 166.371 145.486 163.54 144.822 160.87 145.277 158.039 145.976 135.608 142.012 113.377 137.761 91.44 143.09 84.305 140.841 76.226 139.183 68.246 138.896 66.964 136.974 67.513 137.225 68.786 138.025 74.357 139.956 80.363 138.063 85.874 137.612 87.024 137.036 88.113 136.395 89.17 135.588 89.36 135.653 90.132 135.666 90.827 139.279 111.959 142.544 133.54 142.28 155.104 131.082 162.247 117.682 164.398 104.6 163.834 83.335 163.986 60.654 160.97 43.513 147.359 41.782 136.204 40.366 125.001 38.626 113.849 40.751 109.281 42.042 104.358 43.71 99.61 45.815 93.208 48.053 86.84 49.672 80.294 49.816 79.125 51.218 75.285 49.123 75.711 48.09 76.269 47.662 77.827 47.209 78.836 43.756 87.395 41.225 96.305 38.421 105.094 38.111 106.881 34.762 114.291 37.049 114.857 38.294 131.013 40.266 147.285 43.292 163.17 39.589 164.603 35.66 166.093 31.602 166.609 30.885 166.42 29.532 166.033 29.275 166.888 27.745 167.017 26.201 167.154 24.668 167.145 22.129 161.609 19.564 156.086 17.025 150.55ZM41.798 167.779C40.313 169.661 37.742 170.248 35.751 171.462 35.567 169.979 34.764 168.59 33.582 167.679 36.309 167.215 39.031 166.526 41.544 165.347 41.711 166.173 42.295 166.997 41.798 167.779ZM24.001 170.866C24.031 169.833 24.558 168.989 25.017 168.102 27.227 168.242 29.435 168.193 31.626 167.949 32.507 168.337 33.261 169.012 33.751 169.841 37.186 178.173 24.188 178.771 24.001 170.866ZM36.402 201.695C36.321 199.776 36.064 197.719 35.333 195.935 35.077 195.415 34.349 195.713 34.317 196.21 34.337 197.703 34.639 199.215 34.749 200.708 35.037 201.99 34.754 203.186 33.214 202.345 32.101 201.726 31.62 200.475 31.307 199.31 30.932 197.91 30.759 196.473 30.271 195.105 30.058 194.507 29.074 194.554 29.103 195.263 29.142 196.199 29.299 197.093 29.463 198.013 26.163 196.564 26.947 192.2 26.586 189.241 26.364 185.095 26.1 180.95 25.66 176.823 29.311 179.64 35.624 177.563 35.792 172.649 37.188 172.422 38.504 171.513 39.859 171.04 40.883 170.598 42.04 170.287 42.911 169.563 44.315 171.746 45.658 173.99 46.552 176.437 47.738 178.929 47.22 181.983 48.892 184.236 48.467 184.892 48.759 185.806 48.657 186.556 48.525 188.489 48.165 190.433 48.604 192.353 48.898 193.692 49.304 194.937 49.336 196.323 49.41 199.737 48.846 203.125 48.095 206.434 47.932 208.949 46.823 208.211 46.466 206.304 45.679 202.582 43.902 199.163 42.674 195.591 42.5 194.95 41.585 195.228 41.695 195.861 42.109 198.735 43.113 201.607 42.165 204.492 40.741 208.85 37.242 203.805 36.402 201.695ZM59.22 378.976C59.504 376.437 60.267 373.985 61.162 371.596 61.282 371.927 61.474 372.262 61.759 372.447 60.929 381.004 61.814 380.548 69.878 382.021 72.366 382.284 80.887 383.041 82.245 380.857 82.851 379.505 83.332 378.074 83.777 376.659 83.803 378.94 83.945 381.279 83.72 383.552 83.527 385.294 81.886 385.823 80.384 386.162 78.56 386.573 76.66 386.526 74.804 386.428 71.069 386.186 67.286 385.727 63.695 384.66 61.89 383.783 58.798 381.188 59.22 378.976ZM82.603 388.054C77.332 390.222 71.412 389.647 65.937 388.639 62.319 388.055 58.311 387.326 58.765 382.694 60.728 385.242 63.531 386.967 66.716 387.476 72.282 388.308 78.76 389.865 83.969 387.037 83.973 387.646 83.071 387.851 82.603 388.054ZM127.826 377.362C126.88 378.332 125.612 379.116 124.911 380.306 120.74 379.191 116.473 378.264 112.727 375.984 112.49 375.85 112.021 375.687 111.884 375.429 111.799 374.533 112.15 373.531 112.176 372.613 117.179 375.039 122.759 376.119 128.199 377.095 128.071 377.177 127.946 377.264 127.826 377.362ZM125.666 374.87C121.466 374.039 117.396 372.714 113.314 371.446 120.594 369.756 127.827 367.9 135.027 365.9 144.395 375.524 149.013 380.998 163.341 381.172 165.521 381.446 168.004 381.136 169.234 379.07 169.662 380.183 169.376 381.417 169.713 382.548 159.576 384.849 147.055 387.185 138.463 379.793 135.408 375.753 130.202 375.781 125.666 374.87ZM168.867 386.72C163.825 387.704 158.638 387.436 153.528 387.434 148.012 387.364 141.881 386.452 137.928 382.254 136.145 380.312 134.138 378.389 131.581 377.572 135.788 377.899 136.534 380.205 139.252 382.675 148.887 388.557 161.103 386.471 171.415 383.66 171.63 384.278 171.955 384.883 172.299 385.443 171.303 386.165 170.065 386.471 168.867 386.72Z" class="MsftOfcResponsive_Fill_000000"/><g><path d="M84.117 348.828C79.568 345.686 74.603 343.147 69.438 341.186 67.943 340.622 66.142 340.186 65.028 341.641 64.6 342.2 65.306 342.962 65.909 342.787 67.315 342.379 68.691 343.099 69.965 343.637 71.96 344.481 73.917 345.421 75.82 346.457 71.486 345.456 67.069 344.822 62.634 344.494 60.255 344.322 57.738 344.121 55.38 344.567 54.552 344.724 54.6 346.005 55.38 346.194 55.945 346.331 56.349 346.642 56.705 347.094 57.152 347.66 58.026 347.121 57.998 346.513 62.335 346.71 66.645 347.066 70.911 347.877 69.529 354.451 71.616 361.199 70.597 367.815 70.544 368.173 71.08 368.337 71.152 367.968 72.445 361.402 71.259 354.692 71.981 348.077 75.78 348.81 79.53 349.773 83.208 350.987 84.545 351.426 85.161 349.552 84.117 348.828Z" fill="#FFFFFF"/><path d="M69.938 340.726C70.153 341.246 71.011 341.027 70.798 340.489 64.33 323.48 68.77 305.026 70.039 287.479 72.352 258.768 72.793 229.84 70.846 201.099 70.689 199.921 70.534 198.743 70.393 197.563 70.331 197.044 69.548 197.01 69.557 197.563 70.769 226.442 71.33 255.386 68.923 284.23 68.107 302.952 62.704 322.666 69.938 340.726Z" fill="#FFFFFF"/><path d="M146.042 361.953C144.822 360.767 143.412 359.81 142.205 358.61 139.237 355.49 135.352 349.53 138.498 345.423 139.643 345.169 140.771 344.853 141.906 344.56 142.493 344.411 143.038 344.316 143.497 343.897 144.122 343.316 143.493 342.448 142.794 342.397 143.699 339.896 142.737 336.696 141.983 334.278 140.348 329.415 140.201 324.254 140.529 319.175 143.815 275.968 142.584 232.212 134.678 189.547 134.419 188.234 134.163 186.92 133.9 185.607 133.798 185.096 133.054 185.322 133.13 185.819 138.067 217.574 141.032 249.684 140.598 281.842 140.984 297.621 138.213 313.389 139.106 329.119 139.287 333.028 142.938 339.433 140.573 342.605 131.922 343.858 121.552 348.551 120.158 358.167 120.11 358.578 120.635 358.976 121.018 358.822 121.416 358.766 122.951 357.419 121.832 357.464 124.283 351.372 130.284 347.56 136.455 345.946 133.901 351.611 139.916 361.136 145.574 362.761 146.03 362.872 146.398 362.298 146.042 361.953Z" fill="#FFFFFF"/><path d="M108.394 194.155C108.573 195.522 108.709 196.893 108.878 198.261 108.99 199.026 109.125 203.811 110.558 202.008 110.927 200.748 110.634 199.297 110.511 198.004 110.11 193.814 109.273 189.693 108.226 185.621 108.078 185.018 107.217 185.284 107.312 185.873 107.758 188.62 108.032 191.395 108.394 194.155Z" fill="#FFFFFF"/><path d="M122.203 221.814C122.772 221.662 122.58 220.933 122.075 220.865 117.344 220.345 112.593 221.527 107.98 222.459 109.883 218.87 112.096 215.471 114.065 211.924 118.014 203.884 118.742 194.427 116.969 185.712 116.721 184.522 114.706 184.778 114.834 186.001 116.361 197.071 114.409 208.054 107.788 217.207 102.301 226.407 97.248 236.484 96.387 247.279 96.089 250.188 95.913 252.707 96.387 255.593 96.531 256.467 98.305 256.264 98.36 255.382 98.642 250.873 98.818 249.092 99.276 245.518 100.18 238.263 103.42 231.046 106.831 224.612 111.864 223.207 117.131 222.986 122.203 221.814Z" fill="#FFFFFF"/></g></g></g></svg>