<svg viewBox="0 0 199 398" xmlns="http://www.w3.org/2000/svg" xmlns:xlink="http://www.w3.org/1999/xlink" id="8ca74009-4ce8-4476-a077-cc2a6246488d" overflow="hidden"><style>
.MsftOfcResponsive_Fill_000000 {
 fill:#000000; 
}
</style>
<g><path d="M66.952 6.542C66.952 6.542 97.433 10.76 102.256 17.711 102.256 17.711 103.116 16.737 105.036 16.463 106.228 16.293 107.234 13.569 108.951 13.569 108.951 13.569 118.263 18.25 127.618 27.686 135.316 35.451 149.179 47.286 154.285 57.002 164.498 76.435 169.037 102.819 165.491 121.684 161.945 140.549 161.377 152.181 151.164 155.302 151.164 155.302 156.652 165.014 151.958 171.473 150.224 173.859 146.607 175.186 141.518 176.296 141.518 176.296 146.039 194.789 149.386 213.763 152.073 228.996 153.231 244.402 153.547 250.908 154.256 265.518 152.488 318.087 152.488 318.087 152.488 318.087 155.892 325.274 155.278 329.492 154.656 333.761 159.392 346.088 159.392 346.088 159.392 346.088 165.633 357.247 173.293 361.36 180.953 365.474 194.703 371.043 192.584 380.557 191.966 383.331 181.841 387.233 169.321 383.11 156.407 378.857 155.543 377.001 154.834 372.178 154.834 372.178 153.564 370.922 153.018 371.951 151.051 375.658 147.647 375.204 141.443 373.842 132.077 371.786 134.568 365.52 134.568 365.52L133.008 344.243C133.008 344.243 127.816 341.463 127.675 335.789 127.533 330.115 124.356 319.987 124.356 319.987 124.356 319.987 121.235 300.979 121.803 289.348 122.37 277.717 119.127 265.962 119.127 265.962 119.127 265.962 103.429 225.677 100.971 225.715 98.512 225.753 90.077 242.964 88.328 274.879 86.586 306.661 86.824 330.266 86.824 330.266 86.824 330.266 88.532 330.343 88.791 333.216 88.959 335.081 87.581 338.512 86.748 342.899 86.748 342.899 91.211 347.438 90.455 363.959L89.093 367.486C89.093 367.486 98.247 379.269 95.977 384.659 95.977 384.659 98.273 389.65 94.039 392.145 92.1 393.288 86.371 394.361 80.846 393.737 80.846 393.737 60.401 392.98 64.656 380.498L64.278 374.446 69.422 350.843 59.814 323.107C59.814 323.107 55.133 291.333 56.41 278.141 57.687 264.949 58.074 249.318 58.074 249.318L54.594 227.53C54.594 227.53 39.161 191.974 42.367 176.295 42.367 176.295 37.951 175.709 36.135 172.758 34.319 169.808 35.227 139.622 35.227 139.622 35.227 139.622 7.189 128.068 6.905 115.301 6.621 102.534 8.475 78.354 14.574 63.744 20.673 49.134 35.076 35.677 35.076 35.677 35.076 35.677 35.134 34.08 36.362 32.424 41.146 25.97 54.734 10.551 66.925 8.745L66.952 6.542Z" fill="#FFFFFF"/><path d="M99.67 96.905C98.83 95.274 98.61 94.578 98.228 94.409 97.677 94.165 82.813 96.422 81.206 96.415 80.642 96.415 80.268 96.383 79.795 97.009 79.266 97.832 77.103 100.33 77.035 100.505 76.884 100.955 77.253 101.95 77.771 101.939 77.881 101.94 96.835 101.268 99.206 101.803 99.512 101.872 99.823 101.708 99.939 101.417 100.871 99.081 100.444 98.181 99.67 96.905Z" fill="#FFFFFF"/><path d="M99.859 102.409C99.703 102.273 99.492 102.221 99.291 102.269 98.288 102.508 97.249 102.477 96.149 102.443 90.36 102.221 84.69 102.482 78.917 102.388 78.601 102.388 78.332 102.619 78.286 102.933 78.266 103.448 77.258 109.082 78.76 108.804 80.729 108.615 90.056 111.533 90.827 115.442 90.811 115.671 90.919 115.891 91.11 116.018 92.484 116.946 93.895 119.52 91.777 120.333 90.77 120.719 91.807 121.305 91.417 121.925 91.205 122.392 90.596 122.784 89.864 122.923 89.69 122.956 89.537 123.058 89.442 123.208 89.347 123.359 89.319 123.542 89.366 123.714 89.418 124.349 89.265 124.868 88.899 125.299 87.674 126.742 84.362 126.991 82.17 127.155 81.464 127.283 80.359 127 80.352 127.952 80.612 130.912 81.243 133.827 81.211 136.803 81.207 137.145 81.472 137.429 81.813 137.448 86.616 137.721 91.329 136.915 96.125 137.091 96.433 137.104 96.709 136.889 96.774 136.586 98.337 129.214 98.798 121.619 99.243 114.275 99.468 110.558 99.701 106.715 100.074 102.953 100.095 102.747 100.015 102.545 99.859 102.409Z" fill="#FFFFFF"/><g><path d="M164.101 87.556C160.798 67.928 152.186 49.961 137.661 36.945 137.423 36.732 135.691 36.681 135.448 36.888 132.712 39.214 123.65 40.446 119.618 40.236 119.057 40.189 118.639 41.15 119.051 41.541 120.441 42.956 121.744 44.786 122.932 45.781 123.399 46.162 123.483 46.828 123.306 46.988 123.161 47.104 111.942 61.628 111.958 61.91 112.795 76.297 113.467 91.712 117.115 105.914 122.568 124.465 128.872 148.984 129.227 174.13 129.231 174.413 129.421 174.66 129.695 174.736 132.857 175.614 135.11 176.135 137.658 176.135 139.43 176.168 141.604 175.812 143.985 175.292 150.472 174.532 152.468 170.205 153.548 164.55 153.623 164.278 153.665 162.456 153.491 162.053 152.729 160.399 152.166 154.582 152.463 154.501 156.324 153.449 158.728 149.624 159.959 145.939 165.215 127.414 167.276 106.158 164.101 87.556Z" fill="#FFFFFF"/><path d="M77.476 63.37C69.865 59.171 63.1 53.279 57.13 48.076 56.96 47.882 56.917 47.681 56.988 47.41 57.291 46.246 59.178 44.81 60.133 44.502 60.516 44.462 60.855 44.172 60.799 43.763 60.784 43.393 60.464 43.092 60.088 43.136 59.74 43.174 58.163 42.659 57.773 42.59 50.233 40.876 43.22 37.7 36.632 35.218 36.354 35.109 36.038 35.208 35.871 35.455 34.933 36.843 33.706 37.976 32.408 39.176 20.041 50.273 12.916 65.842 9.771 82.336 7.474 94.38 7.015 106.893 7.161 118.592 7.158 118.803 7.895 119.72 8.069 119.84 10.169 121.302 10.901 124.063 12.722 125.854 18.81 132.216 26.876 137.253 35.191 139.812 35.415 141.524 35.247 141.767 35.248 141.911 35.135 150.144 34.924 163.423 36.723 173.117 37.653 175.406 41.164 175.611 43.078 176.181 54.884 178.997 66.567 176.262 78.492 175.739 78.823 175.725 79.088 175.459 79.102 175.128 79.334 169.636 79.983 164.064 80.611 158.676 81.259 153.343 81.771 148.132 82.031 142.635 82.158 141.255 82.135 139.772 82.506 138.491 82.597 138.175 82.433 137.842 82.127 137.721 81.838 137.599 81.169 137.055 81.124 136.926 80.246 134.038 80.139 130.909 79.896 127.9 79.868 127.555 79.601 126.893 79.258 126.912 78.313 126.961 73.896 127.695 72.071 128.198 69.663 128.862 64.884 128.879 63.215 128.46 57.487 126.979 58.021 117.732 60.774 114.523 61.414 113.891 64.581 111.933 68.168 112.03 68.951 111.733 74.856 109.282 77.191 108.968 77.589 108.924 77.856 108.474 77.701 108.104 76.935 106.136 76.911 100.377 76.837 100.208 77.271 99.762 77.802 99.587 78.092 98.95 78.541 97.724 79.863 95.366 82.997 95.434 83.335 95.441 83.579 95.101 83.56 94.764 82.851 84.443 82.045 73.114 77.476 63.37Z" fill="#FFFFFF"/></g><g><path d="M141.5 180.845C141.306 180.029 141.108 179.166 140.876 178.129 140.805 177.811 140.506 177.597 140.182 177.634 136.648 178.069 131.139 177.377 128.72 175.061 128.201 174.943 128.126 174.383 128.146 173.089 128.116 172.378 128.35 171.197 127.38 171.212 123.982 171.607 120.486 171.709 117.104 171.807 115.458 171.855 113.756 171.904 112.082 171.987 111.603 171.997 111.301 172.588 111.583 172.98 114.517 177.361 116.725 182.076 119.988 186.275 120.373 186.697 120.938 186.819 121.662 186.827 128.084 186.205 136.035 183.605 141.107 181.587 141.407 181.473 141.574 181.155 141.5 180.845Z" fill="#FFFFFF"/><path d="M103.768 172.178C96.374 172.149 88.978 172.616 81.583 171.807 81.239 171.77 80.929 172.011 80.881 172.352 80.707 173.524 81.066 175.815 80.326 176.616 68.687 179.224 57.077 179.554 46.882 178.011 45.448 177.784 44.172 177.545 42.979 177.28 42.59 177.183 42.177 177.52 42.203 177.923 42.203 177.923 42.185 182.58 42.575 182.922 42.966 183.264 43.965 183.075 46.578 183.967 61.846 188.616 77.719 185.692 93.197 188.525 93.417 188.525 93.625 188.411 93.742 188.218 96.645 183.447 100.088 178.537 104.268 173.207 104.592 172.817 104.289 172.162 103.768 172.178Z" fill="#FFFFFF"/><path d="M79.573 38.873C78.286 35.923 80.087 31.646 78.481 28.604 78.355 28.364 77.352 26.824 77.064 26.675 72.58 24.362 69.167 19.165 67.427 15.26 67.316 14.978 66.688 11.341 66.848 9.852 66.873 9.631 66.198 9.103 65.99 9.182 65.871 9.227 65.31 9.555 65.259 9.75 65.058 10.515 63.674 13.839 63.457 14.832 62.856 16.818 62.965 21.706 62.979 21.758 64.694 27.948 68.427 33.624 73.775 38.171 74.599 38.533 74.861 38.039 74.869 37.28 75.387 37.511 78.853 39.751 78.981 39.751 79.417 39.764 79.751 39.276 79.573 38.873Z" fill="#FFFFFF"/><path d="M104.979 16.197C104.04 15.884 103.041 16.44 102.256 17.029 100.864 18.073 101.395 22.691 101.405 22.901 101.416 23.14 101.307 26.636 101.462 27.27 102.086 29.823 101.276 31.495 101.689 31.743 102.17 32.032 104.083 30.38 104.271 30.277 104.626 30.961 106.817 35.962 107.136 36.66 107.548 37.562 107.573 38.84 108.061 38.84 108.983 39.081 108.876 30.819 108.989 30.797 109.176 28.177 106.497 20.062 106.057 19.128 105.851 18.691 105.546 16.387 104.979 16.197Z" fill="#FFFFFF"/></g><g><path d="M66.961 113.14C67.335 112.661 66.796 111.936 66.228 112.164 64.539 112.781 62.877 113.396 61.422 114.442 58.98 116.818 58.903 120.936 59.643 123.994 60.119 125.983 61.951 128.097 64.462 128.708 65.165 128.572 65.872 128.475 66.563 128.42 66.793 128.402 66.995 128.261 67.092 128.051 67.189 127.842 67.165 127.596 67.03 127.409 64.062 123.306 64.033 117.172 66.961 113.14Z" fill="#FFFFFF"/><path d="M72.744 52.368C70.358 47.256 67.94 42.057 66.049 36.701 64.115 31.227 62.731 25.589 62.491 19.713 62.007 17.39 63.132 13.566 64.435 11.147 64.567 10.903 64.525 10.602 64.333 10.402 64.141 10.202 63.841 10.149 63.592 10.271 53.469 15.231 44.308 22.916 37.232 32.463 36.86 33.151 35.914 33.799 36.156 34.452 36.225 34.622 36.365 34.754 36.538 34.815 40.127 36.058 59.055 41.523 60.542 43.025 60.757 43.243 60.673 44.815 60.565 44.896 60.005 45.547 59.411 46.245 58.863 46.995 58.669 47.261 58.708 47.631 58.954 47.849 63.388 51.784 75.471 60.809 75.607 60.809 76.046 60.818 76.388 60.323 76.192 59.914 75.085 57.393 73.895 54.838 72.744 52.368Z" fill="#FFFFFF"/><path d="M130.682 31.016C128.039 28.035 124.298 24.601 123.334 23.583 121.245 21.378 109.822 13.831 108.639 13.271 107.059 12.522 106.147 13.699 105.646 14.576 104.952 15.817 105.057 16.557 105.533 17.115 105.696 17.441 107.034 21.328 107.59 23.385 107.971 24.795 108.873 31.245 109.349 35.158 109.951 40.055 111.811 59.374 112.356 59.556 113.278 59.863 115.841 55.471 117.349 53.769 119.824 50.763 122.861 47.448 123.023 46.677 123.124 46.196 122.985 45.886 120.243 42.875 119.598 42.167 118.715 40.706 118.2 40.18 122.743 39.816 128.659 39.638 132.725 38.166 135.115 37.352 135.59 37.289 135.631 36.708 135.657 36.34 135.811 36.803 130.682 31.016Z" fill="#FFFFFF"/></g><path d="M193.883 378.57C193.889 369.458 184.136 365.837 177.331 362.261 172.357 359.469 167.745 355.873 164.207 351.381 165.484 352.03 166.762 352.679 168.037 353.332 168.694 353.668 169.411 352.987 169.05 352.319 167.237 348.776 164.432 344.835 160.053 344.725 158.756 342.034 157.862 339.076 157.521 336.104 157.284 334.021 157.681 331.336 156.534 329.453 157.52 327.395 157.117 325.046 156.088 323.086 155.127 321.043 154.38 319.046 154.073 316.79 153.601 301.79 156.237 286.754 155.62 271.692 155.467 240.053 151.485 208.399 143.557 177.763 148.933 176.991 152.937 174.889 154.516 169.372 155.043 167.484 155.751 165.37 155.604 163.427 155.863 162.772 155.892 162.223 155.688 161.487 155.182 159.846 154.54 158.245 153.903 156.65 161.51 153.938 162.798 144.489 164.418 137.593 170.988 105.007 168.456 66.798 144.54 41.583 140.541 37.191 136.3 32.963 131.626 29.29 131.387 29.095 131.133 29.004 130.888 28.99 124.89 21.978 117.363 16.155 108.783 12.675 107.896 12.308 107.327 13.75 108.137 14.206 117.818 19.746 126.973 26.99 133.067 36.423 128.201 37.828 123.137 38.8 118.088 38.989 117.984 38.993 117.62 39.077 117.534 39.129 117.057 39.008 116.488 39.534 116.828 40.029 117.842 41.508 119.002 42.827 120.274 44.09 120.98 44.938 121.605 45.87 121.997 46.866 118.374 50.035 115.606 53.998 112.739 57.835 112.078 49.772 111.781 41.564 109.709 33.713 109.93 27.765 107.921 22.069 105.814 16.598 105.583 15.985 104.616 16.224 104.814 16.874 106.749 23.072 109.007 29.524 107.85 36.098 107.077 34.151 106.376 32.08 105.285 30.282 104.484 28.987 103.069 29.763 102.165 30.594 102.209 30.036 102.24 29.478 102.256 28.919 102.617 27.924 102.205 26.782 102.219 25.737 102.126 23.921 102.234 22.092 102.588 20.307 103.625 16.67 101.454 16.128 100.647 19.772 100.116 22.717 99.782 26.149 101.125 28.922 100.806 35.759 97.711 41.964 94.727 47.978 90.266 45.861 85.878 43.574 81.702 40.934 81.752 40.298 81.131 39.783 80.89 39.221 80.616 38.71 80.396 38.226 80.26 37.657 79.584 34.17 81.2 29.81 78.143 27.141 78.068 26.843 77.828 26.649 77.564 26.605 77.457 25.751 74.953 24.215 74.268 23.426 71.425 20.828 69.266 17.584 67.63 14.114 67.884 11.593 67.707 9.063 67.585 6.541 67.558 5.864 66.611 5.884 66.548 6.541 66.5 7.043 66.446 7.546 66.392 8.049 59.635 8.904 53.847 12.945 48.638 17.083 44.531 20.571 34.127 29.226 34.398 34.759 10.79 51.97 3.875 86.306 5.391 113.993 5.597 115.425 5.421 120.73 7.233 120.578 13.288 129.753 23.65 137.695 34.09 141.161 33.093 148.754 33.321 156.5 33.744 164.134 34.165 167.778 33.582 172.075 35.977 175.121 37.289 176.579 39.319 176.979 41.128 177.493 39.582 199.2 51.952 218.566 55.326 239.519 57.381 251.94 56.077 264.572 55.282 277.042 53.421 302.6 57.494 328.605 68.158 351.975 68.061 352.703 67.53 353.537 67.786 354.254 67.004 357.022 66.334 359.824 65.618 362.608 64.242 368.473 61.539 374.726 63.486 380.736 61.641 388.047 67.258 391.366 73.369 393.208 78.62 394.985 84.373 395.564 89.814 394.352 93.226 393.64 97.273 392.081 98.081 388.278 98.395 386.859 98.297 385.331 97.62 384.061 98.718 377.119 92.349 372.419 90.449 366.302 90.546 365.577 90.659 364.885 90.964 364.223 91.544 364.197 92.077 363.806 92.053 363.027 91.976 360.621 91.737 358.213 91.568 355.812 91.342 351.29 90.859 346.536 87.985 342.837 88.199 342.758 88.352 342.553 88.259 342.255 87.108 338.439 91.829 333.793 88.191 330.514 88.056 326.359 87.956 322.199 88.232 318.042 90.399 287.792 86.414 255.465 100.89 227.663 107.744 241.988 114.404 256.592 118.629 271.935 120.636 280.439 120.217 289.159 120.24 297.825 120.252 302.284 120.389 306.742 120.987 311.165 121.844 317.884 124.456 324.19 125.557 330.857 126.172 336.175 126.165 343.213 132.437 345.022 132.227 351 132.446 357.003 132.91 362.965 133.027 364.194 133.239 365.417 133.786 366.528 132.764 367.907 133.212 370.039 134.233 371.327 135.837 373.133 138.411 373.557 140.592 374.352 143.084 375.11 145.628 375.606 148.21 375.936 150.242 376.333 152.484 375.419 153.322 373.458 153.646 373.521 153.968 373.588 154.289 373.661 154.01 376.435 156.878 378.672 159.08 379.945 167.961 384.945 179.062 387.095 189.006 384.365 191.375 383.786 195.553 381.491 193.883 378.57ZM66.696 116.081C67.234 114.71 68.187 113.574 68.782 112.241 73.142 111.12 77.766 108.548 82.269 110.46 84.769 111.457 87.411 112.502 89.405 114.359 87.31 113.557 78.392 112.026 76.847 113.567 76.577 113.799 77.496 114.103 77.661 114.181 79.03 114.427 80.448 114.373 81.83 114.546 84.12 114.812 92.169 115.7 92.457 118.408 92.584 119.075 92.457 120.225 91.534 120.095 91.134 119.598 90.545 119.264 89.926 119.489 87.376 118.681 81.388 117.656 78.893 118.406 78.304 118.622 78.445 119.372 79.034 119.451 80.438 119.539 81.848 119.261 83.259 119.36 85.158 119.504 89.661 119.298 90.662 121.112 90.842 121.489 90.772 121.668 90.403 121.885 89.468 122.435 88.026 122.385 86.986 122.444 84.693 122.594 82.396 122.39 80.136 122.036 78.464 122.181 78.73 123.012 80.068 123.536 82.863 124.086 85.754 124.163 88.584 123.787 87.649 125.849 82.621 125.823 80.59 125.98 80.311 125.519 79.523 125.424 79.336 126.011 78.527 126.025 77.718 126.031 76.907 126.043 74.42 126.211 72.113 127.353 69.68 127.839 69.397 127.59 68.987 127.586 68.658 127.748 68.379 127.702 68.081 127.693 67.789 127.702 65.855 124.186 65.144 119.879 66.696 116.081ZM66.513 127.784C65.784 127.842 65.059 127.944 64.341 128.081 62.46 127.295 60.756 125.925 60.264 123.847 59.573 120.989 59.637 117.071 61.867 114.9 63.267 113.945 64.863 113.335 66.445 112.766 63.302 117.093 63.397 123.476 66.513 127.784ZM125.916 185.507C124.661 185.639 121.395 186.702 120.494 185.883 117.28 181.755 115.03 176.972 112.115 172.626 117.226 172.373 122.371 172.438 127.454 171.846 127.692 173.041 127.023 175.33 128.579 175.684 131.031 178.19 136.907 178.641 140.254 178.268 140.456 179.178 140.663 180.086 140.878 180.994 136.027 182.87 131.053 184.568 125.916 185.507ZM86.563 96.836C87.381 96.786 88.41 96.826 89.269 96.585 90.819 97.229 92.596 96.537 94.147 96.155 95.461 95.831 96.804 95.495 98.069 94.998 98.99 97.976 100.654 97.903 99.347 101.181 96.019 100.43 92.515 100.736 89.12 100.658 85.576 100.692 82.039 100.755 78.539 101.29 78.337 101.116 78.037 100.995 77.75 100.998 77.714 100.908 77.675 100.821 77.631 100.738 78.187 100.548 79.142 100.208 79.04 99.485 79.418 98.764 79.816 98.039 80.304 97.396 80.606 96.998 80.707 97.063 81.218 97.055 83.002 97.06 84.784 96.973 86.563 96.836ZM89.984 123.551C91.452 123.271 92.733 122.085 91.844 120.573 94.301 119.71 93.299 116.705 91.464 115.487 91.704 112.034 81.631 107.841 78.688 108.171 78.498 106.485 78.669 104.701 78.917 103.027 84.32 103.13 89.729 102.863 95.136 103.06 96.572 103.069 98.028 103.227 99.439 102.891 99.098 108.246 98.465 113.536 98.263 118.89 98.16 124.793 97.254 130.667 96.149 136.455 91.376 136.273 86.625 137.084 81.849 136.813 81.93 135.137 81.609 133.437 81.448 131.771 81.33 130.465 81.096 129.211 80.989 127.897 83.629 127.612 89.908 127.705 90.013 124.045 90.018 123.913 90.03 123.746 89.984 123.551ZM81.513 172.441C88.886 173.254 96.359 172.789 103.766 172.816 99.981 177.641 96.387 182.646 93.197 187.888 78.277 185.143 62.728 187.796 47.996 183.731 46.385 183.272 44.699 182.615 43.02 182.484 42.927 180.96 42.89 179.429 42.841 177.903 44.148 178.192 45.467 178.432 46.781 178.64 57.68 180.325 68.911 179.618 79.68 177.453 81.999 177.517 81.298 173.962 81.513 172.441ZM163.23 347.396C164.551 348.273 165.553 349.487 166.416 350.801 166.448 350.849 166.417 350.9 166.37 350.877 165.051 350.229 163.736 349.575 162.421 348.918 161.872 348.088 161.359 347.233 160.882 346.356 161.723 346.537 162.512 346.919 163.23 347.396ZM115.062 60.172C117.114 57.399 119.117 54.584 121.246 51.866 122.044 50.649 124.052 48.57 124.099 47.188 124.474 47.257 125.013 47.051 124.974 46.589 124.876 45.754 124.122 45.294 123.514 44.782 122.205 43.687 120.973 42.507 119.777 41.289 123.7 41.493 133.415 40.282 136.361 37.777 166.01 64.388 169.169 108.762 158.895 145.163 157.786 148.468 156.151 152.371 152.466 153.376 150.062 148.394 146.955 143.485 142.328 140.297 143.5 137.854 143.213 134.701 143.399 132.02 143.608 124.757 143.008 117.506 142.391 110.276 143.711 109.425 145.004 108.576 146.39 107.847 148.041 107.002 149.882 106.534 151.508 105.653 151.995 105.389 151.725 104.729 151.246 104.686 147.899 104.586 144.61 106.551 142.262 108.8 140.915 93.242 138.862 77.092 143.842 61.968 143.715 59.352 141.622 59.726 140.74 61.754 134.592 81.187 139.46 101.835 140.304 121.7 140.747 127.628 140.527 133.575 140.609 139.507 140.613 139.507 140.617 139.507 140.621 139.507 140.623 139.589 140.635 139.666 140.654 139.739 139.994 139.897 139.651 140.748 139.984 141.378 139.979 141.379 139.974 141.379 139.969 141.38 140.341 141.882 140.316 142.568 141.095 142.649 145.585 146.711 148.577 152.108 150.676 157.73 151.398 159.457 151.815 161.362 152.593 163.048 152.705 163.367 152.571 163.672 152.511 164.004 151.946 166.932 151.182 170.171 148.955 172.283 147.624 173.502 145.518 173.856 143.675 174.226 138.054 175.484 135.466 175.119 130.034 173.61 129.705 150.286 124.443 127.493 117.895 105.223 114.275 91.147 113.846 76.536 113.008 62.098 113.903 61.777 114.471 60.928 115.062 60.172ZM77.916 28.9C78.898 30.767 78.48 33.257 78.429 35.283 78.397 36.573 78.491 37.904 78.981 39.113 78.085 38.484 77.196 37.845 76.29 37.233 76.47 34.398 77.392 31.673 77.916 28.9ZM65.876 9.912C65.988 9.867 66.1 9.823 66.212 9.779 66.021 11.449 66.012 13.125 66.091 14.802 66.103 15.295 66.474 15.532 66.842 15.519 68.822 19.961 72.428 24.778 76.814 27.04 75.52 30.468 74.505 34.019 74.187 37.684 69.226 33.464 65.34 27.895 63.593 21.586 63.557 19.382 63.421 17.128 64.074 14.991 64.455 13.224 65.421 11.649 65.876 9.912ZM20.252 129.567C18.095 127.821 16.034 125.947 14.078 123.979 12.23 122.156 10.554 120.099 8.413 118.611 8.647 93.961 9.686 69.461 24.829 48.714 26.622 46.233 28.599 43.884 30.734 41.689 32.589 39.709 34.872 38.073 36.399 35.815 42.238 38.097 48.1 40.328 54.079 42.215 55.705 42.736 57.337 43.243 59.021 43.538 59.599 43.642 60.176 43.828 60.748 43.631 61.406 43.404 61.548 42.699 61.131 42.181 60.781 41.746 60.255 41.615 59.752 41.408 52.198 38.681 44.342 36.844 36.749 34.214 36.765 34.183 38.708 31.562 39.116 31.047 45.783 22.615 54.197 15.583 63.874 10.846 62.606 13.2 61.324 17.237 61.867 19.846 62.463 34.369 69.899 47.16 75.608 60.174 70.111 56.023 64.538 51.954 59.379 47.375 59.901 46.662 60.47 45.99 61.05 45.315 61.574 44.705 61.091 43.502 60.186 43.831 58.772 44.288 55.167 46.904 56.683 48.535 63.11 54.136 69.683 59.803 77.168 63.931 81.222 73.719 82.324 84.318 82.923 94.803 81.967 94.915 80.971 94.892 80.028 95.095 78.61 95.678 77.98 97.404 77.489 98.743 76.763 99.272 74.991 99.517 75.928 100.739 75.806 101.299 76.112 101.916 76.366 102.434 76.02 104.442 76.371 106.451 77.106 108.34 73.857 108.777 70.963 110.292 67.942 111.437 67.002 111.391 66.003 111.53 65.069 111.765 59.975 103.906 49.376 102.344 40.732 101.806 42.457 92.317 41.998 82.153 38.518 73.103 38.278 72.577 37.604 72.992 37.667 73.462 39.575 82.754 40.469 92.276 39.467 101.746 37.97 101.421 37.894 102.993 38.927 103.133 47.689 103.567 57.57 105.036 63.398 112.295 62.277 112.711 61.141 113.259 60.307 114.092 57.016 117.867 57.178 127.88 63.085 129.092 63.165 129.274 63.33 129.406 63.572 129.377 64.997 129.221 66.353 129.134 67.796 129.306 67.202 131.274 65.582 132.662 64.035 133.919 50.971 144.017 32.142 139.637 20.252 129.567ZM37.843 172.143C37.164 169.924 37.25 167.539 36.989 165.247 36.391 157.477 36.417 149.679 36.628 141.894 46.879 144.554 58.653 143.076 66.963 136.094 68.841 134.482 71.193 132.074 70.513 129.385 72.496 129.484 74.456 128.216 76.43 127.991 77.363 127.892 78.321 128.004 79.258 127.953 79.506 131.015 79.614 134.163 80.512 137.114 80.27 137.956 81.325 138.093 81.891 138.318 81.497 139.691 81.523 141.174 81.393 142.593 81.207 146.341 80.922 150.083 80.525 153.814 79.744 160.894 78.764 167.983 78.463 175.105 66.619 175.621 54.538 177.383 42.842 174.599 41.12 174.063 38.631 174.05 37.843 172.143Z" class="MsftOfcResponsive_Fill_000000"/></g></svg>