<svg viewBox="0 0 161 405" xmlns="http://www.w3.org/2000/svg" xmlns:xlink="http://www.w3.org/1999/xlink" id="217a26cc-a248-41e9-ac43-4fd11330d4fd" overflow="hidden"><style>
.MsftOfcResponsive_Fill_000000 {
 fill:#000000; 
}
</style>
<g><path d="M152.993 116.239 145.866 78.567C147.121 72.711 147.018 59.412 146.525 51.511 146.323 48.27 143.428 43.891 140.911 41.84L129.609 33.258 124.195 27.804 119.511 21.753 118.307 18.921C111.179 8.741 83.992 6.504 83.992 6.504L82.511 9.358C79.445 11.465 75.659 15.619 75.659 15.619L52.174 21.842 34.683 24.606C12.318 53.474 6.088 106.64 6.088 106.64L15.061 133.592C16.003 136.198 24.771 157.536 26.753 159.473L27.68 160.207 25.292 183.132C25.229 184.108 26.74 186.043 27.702 186.218L38.813 188.238 44.34 255.873 45.795 261.167 41.141 268.381 36.487 292.962C36.487 292.962 26.742 340.379 24.124 346.197 21.506 352.015 23.229 352.644 23.229 352.644L17.869 366.851C12.703 379.276 19.178 378.342 19.178 378.342L18.596 382.269C13.069 395.65 22.665 398.386 28.181 399.743 38.843 402.367 45.737 398.705 45.737 398.705L46.552 391.2C46.557 390.612 46.028 384.277 44.225 380.088 42.506 376.095 42.014 368.685 42.014 368.685L44.252 367.913 47.737 354.789C48.731 351.953 55.765 335.713 57.154 333.049L66.812 314.516C70.461 329.424 72.194 357.506 72.194 357.506L72.126 366.38C69.767 371.743 70.521 375.9 70.521 375.9L68.427 377.82C68.427 377.82 68.078 381.834 69.183 383.405 70.288 384.976 81.634 388.699 82.564 388.408 83.495 388.117 84.6 386.895 84.6 386.895 95.33 401.202 118.018 398.641 125.908 397.309 127.298 397.074 128.266 396.05 127.654 394.781L127.159 393.106C128.032 386.852 115.947 382.435 115.947 382.435 104.456 373.417 98.843 364.647 98.843 364.647L105.284 288.018C120.411 267.073 131.378 206.595 131.378 206.595 140.978 207.904 142.374 203.511 142.374 203.511 145.574 202.347 146.698 197.156 146.698 197.156L150.201 170.776 151.063 164.902C152.372 161.557 155.319 123.076 155.319 123.076L152.993 116.239ZM131.554 202.288 132.543 191.292 134.521 189.547C134.521 189.547 133.416 197.169 133.997 198.623 134.579 200.078 135.801 201.067 135.801 201.067L131.554 202.288Z" fill="#FFFFFF"/><path d="M52.744 154.745C51.48 151.419 48.111 154.321 46.494 155.896 43.997 153.622 42.344 155.249 40.422 155.097 38.003 155.183 37.075 160.785 37.911 162.849 37.076 162.024 36.055 163.355 35.62 164.147 35.493 165.307 36.589 166.436 37.405 167.382 38.077 167.945 38.48 167.083 38.94 166.661 39.303 166.293 39.962 165.758 39.535 165.207 41.131 166.427 43.498 166.366 45.314 165.564 48.051 164.548 48.322 161.065 48.079 158.937 48.388 159.016 48.722 158.844 48.839 158.546 49.076 157.956 50.185 157.365 50.995 156.934 52.175 156.276 53.161 155.863 52.744 154.745Z" fill="#FFFFFF"/><g><path d="M127.616 394.462C127.57 394.36 127.19 393.853 126.685 393.214 127.858 389.371 123.59 387.018 120.863 385.68 112.254 381.06 104.692 373.736 99.216 365.398 99.024 365.102 98.632 365.012 98.33 365.194 96.065 366.558 93.467 367.612 90.609 368.327 90.273 368.411 90.061 368.742 90.124 369.082 90.535 371.302 89.56 373.717 88.751 375.848 87.731 378.016 80.161 373.502 78.899 372.535 77.109 371.366 75.611 369.463 74.1 367.928 73.552 367.838 72.953 367.22 72.594 367.984 71.437 370.616 71.048 372.536 71.174 374.794 71.227 375.035 71.231 375.251 71.211 375.452 70.335 375.989 69.454 376.621 69.281 376.864 68.208 378.262 68.871 380.993 69.121 382.889 70.87 384.831 74.118 385.329 76.536 386.321 78.523 386.949 80.503 387.736 82.575 388.019 83.518 388.096 83.346 386.662 83.819 386.216 83.901 386.12 85.705 387.479 85.414 387.321 86.079 393.368 103.718 397.415 108.619 397.914 114.793 398.417 121.598 397.505 127.232 396.588 128.1 396.356 127.899 395.106 127.616 394.462Z" fill="#FFFFFF"/><path d="M45.44 389.954C45.588 386.799 44.686 383.509 43.845 380.524 42.832 376.864 41.875 373.408 42.336 369.77 42.39 369.401 42.087 369.041 41.714 369.034 37.934 368.896 35.386 364.851 32.801 362.228 32.09 361.695 31.236 362.571 30.454 362.693 27.398 363.712 23.651 365.931 22.396 368.981 22.177 368.381 21.909 367.232 21.715 365.255 21.507 363.134 21.488 361.137 21.548 360.801 21.709 360.035 20.507 359.716 20.281 360.484 19.588 362.51 19.139 364.12 18.952 365.667 18.681 365.719 18.425 365.98 18.142 366.319 16.014 368.873 16.331 375.808 16.67 376.693 16.922 377.457 17.841 377.473 18.381 377.668 18.668 377.821 19.176 377.754 19.757 377.566 19.487 380.393 18.877 383.321 19.098 386.119 18.25 387.093 17.475 388.13 17.44 388.454 17.143 390.535 17.093 392.089 17.763 393.4 21.482 398.223 29.055 400.346 35.338 400.419 38.704 400.419 42.155 399.838 45.5 398.66 46.258 398.3 45.879 397.181 46.02 396.512 45.961 395.989 46.239 391.817 45.44 389.954Z" fill="#FFFFFF"/></g><g><path d="M31.317 360.502C29.616 358.48 27.764 356.405 25.31 355.165 24.446 354.928 23.318 353.28 22.582 354.346 21.138 356.94 20.662 366.043 22.545 368.007 22.802 368.047 23.065 367.928 23.202 367.702 26.838 361.32 34.273 363.24 31.317 360.502Z" fill="#FFFFFF"/><path d="M90.327 368.72C85.604 368.946 80.441 369.803 75.716 368.281 75.107 368.104 74.621 368.915 75.077 369.365 78.809 373.047 83.934 376.645 88.552 376.241 89.383 374.744 89.691 373.03 90.028 371.421 90.052 370.547 90.786 369.507 90.327 368.72Z" fill="#FFFFFF"/></g><path d="M133.332 155.437C133.351 154.715 132.487 154.723 132.041 154.307 131.708 154.04 131.187 154.145 131.017 154.546 130.311 156.146 128.271 156.544 126.299 156.929 113.548 159.945 101.47 159.011 92.426 156.094 87.223 158.7 82.08 154.959 77.339 152.967 75.362 152.102 73.42 150.969 71.599 149.81 71.152 149.507 70.016 148.788 69.737 149.054 66.077 152.542 62.096 155.265 57.921 156.965 57.673 157.066 57.511 157.308 57.513 157.576 57.54 161.988 55.206 166.052 53.508 170.071 50.85 175.195 49.204 182.441 43.507 184.562 42.713 185.114 42.444 188.191 42.343 188.441 42.094 188.899 38.754 188.341 38.813 188.751 38.813 188.751 45.751 261.74 45.562 261.922 43.041 264.354 41.612 268.395 40.599 272.573 35.726 299.241 31.139 323.297 24.277 347.497 21.245 354.863 28.531 352.491 34.264 361.458 34.398 361.638 34.615 361.736 34.837 361.721 34.821 362.545 35.767 362.894 36.206 363.597 37.914 365.512 39.85 367.683 42.542 367.524 48.339 350.936 55.865 334.085 64.141 318.454 64.711 317.486 66.962 314.215 67.011 314.42 70.691 329.694 72.74 347.254 72.149 365.103 72.315 366.884 75.434 367.08 77.033 367.563 84.051 368.971 92.37 368.134 98.39 363.735 99.65 339.291 100.501 314.434 104.426 289.967 104.457 289.078 102.965 288.934 103.673 287.706 118.849 261.167 128.231 230.959 131.157 200.439 131.745 196.671 133.008 191.484 132.774 187.683 132.31 180.121 132.189 166.565 133.332 155.437Z" fill="#FFFFFF"/><g><path d="M131.199 153.735C121.157 147.401 122.787 146.263 124.26 156.336 124.326 156.984 125.046 156.976 125.518 156.8 126.529 156.498 132.676 155.435 131.199 153.735Z" fill="#FFFFFF"/><path d="M120.269 154.265C120.246 152.395 119.795 150.386 120.007 148.559 120.074 148.154 119.704 147.767 119.296 147.817 117.543 147.985 115.75 148.099 113.814 148.166 113.605 148.173 113.411 148.28 113.294 148.454 111.638 150.846 110.047 156.019 113.067 158.442 115.474 158.352 117.867 158.133 120.178 157.796 120.601 157.745 120.868 157.251 120.676 156.87 120.332 156.134 120.302 155.227 120.269 154.265Z" fill="#FFFFFF"/><path d="M109.859 148.218C108.316 148.263 106.736 147.593 105.328 148.909 101.451 151.417 97.718 153.555 93.918 155.445 93.365 155.699 93.485 156.587 94.093 156.675 95.938 156.776 109.433 160.008 109.218 157.61 107.029 151.127 112.192 148.583 109.859 148.218Z" fill="#FFFFFF"/></g><g><path d="M123.675 156.558C123.311 154.088 123.006 151.442 122.744 148.468 122.753 148.018 122.027 147.74 121.743 147.511 121.255 147.21 120.911 147.65 120.355 147.694 119.989 147.752 119.736 148.146 119.837 148.503 120.208 149.932 120.336 151.473 120.46 152.964 120.476 154.155 120.878 155.563 120.718 156.721 120.527 157.172 120.956 157.698 121.435 157.602 122.08 157.364 123.72 157.633 123.675 156.558Z" fill="#FFFFFF"/><path d="M112.527 148.207C108.39 148.389 108.789 154.766 109.392 157.786 109.403 158.158 109.668 158.498 110.06 158.493 110.858 158.464 112.61 158.783 112.13 157.497 109.28 153.078 114.813 148.408 112.527 148.207Z" fill="#FFFFFF"/></g><path d="M112.344 48.957C111.791 46.716 111.22 44.398 110.925 42.097 110.911 41.989 110.858 41.656 110.783 41.299 110.885 41.199 110.953 41.068 110.973 40.924 111.249 38.988 111.56 37.826 111.787 36.978 112.689 34.89 111.418 33.359 109.27 30.132 109.129 29.912 108.985 29.664 108.727 29.708 107.383 29.933 105.968 29.939 104.522 29.725 104.308 29.693 104.092 29.77 103.945 29.929 102.947 31.012 101.574 31.613 100.12 32.249 99.544 32.604 98.575 32.39 98.332 33.099 98.294 33.302 98.542 33.878 98.681 34.03 100.039 35.513 100.872 37.258 101.889 39.028 102.517 39.799 102.816 41.259 103.717 41.737 103.943 46.721 103.779 53.368 103.703 57.911 103.644 58.119 103.691 58.342 103.828 58.508 106.196 61.114 108.381 64.211 111.151 66.185 112.005 66.149 114.384 61.238 114.585 60.203 113.715 56.477 113.403 52.612 112.344 48.957Z" fill="#FFFFFF"/><g><path d="M118.884 31.824C118.721 31.806 118.739 31.076 118.882 30.543 119.78 27.21 120.398 21.619 118.713 20.79 118.403 20.8 118.142 21.026 118.089 21.332 117.641 23.896 115.815 26.352 113.081 28.068 112.154 28.923 109.473 29.247 109.227 29.99 109.247 30.834 110.333 31.434 110.924 32.674 111.326 33.297 111.711 33.892 112.088 34.404 112.596 35.094 111.628 37.126 111.591 37.228 110.003 41.602 111.482 44.631 112.408 49.24 112.973 50.85 113.759 58.453 115.147 58.874 118.138 55.632 121.174 35.868 118.884 31.824Z" fill="#FFFFFF"/><path d="M101.553 38.644C99.797 36.247 98.881 33.652 98.391 32.867 98.323 32.759 98.806 32.564 100.329 31.836 101.052 31.349 104.393 30.446 102.699 29.347 93.22 26.941 86.989 17.213 83.901 7.481 80.06 11.862 81.433 18.921 85.358 24.838 81.093 24.149 102.624 61.317 103.431 56.164 103.467 52.968 103.36 50.329 103.588 46.992 104.145 43.058 103.423 41.299 101.553 38.644Z" fill="#FFFFFF"/><path d="M120.53 146.702C119.226 146.187 114.436 141.674 113.654 142.612 112.202 144.108 110.447 145.354 108.75 146.559 108.308 146.965 107.345 147.228 107.546 147.976 107.95 148.823 109.223 148.295 109.967 148.437 111.374 148.23 122.742 148.939 120.53 146.702Z" fill="#FFFFFF"/></g><path d="M132.736 124.451C130.239 95.918 130.733 66.316 120.957 39 120.721 38.385 119.704 38.51 119.695 39.215 119.333 46.615 117.664 57.631 111.272 66.747 111.051 66.582 110.024 65.979 109.765 65.26 101.793 57.075 95.324 47.86 90.094 37.542 89.765 36.888 88.699 37.234 88.879 38.012 95.249 65.566 99.438 89.653 92.806 113.157 91.018 119.493 86.894 125.194 83.09 131.28 79.536 136.968 75.781 142.853 70.413 148.432 69.798 149.027 70.821 150.102 71.447 149.498 73.215 149.582 75.023 150.802 76.717 151.456 80.603 152.844 84.34 155.903 88.637 155.893 95.857 154.75 101.976 149.557 107.958 145.7 109.432 144.674 110.956 143.613 112.458 142.612 112.867 142.351 114.4 142.071 114.475 142.123 120.487 146.264 126.386 150.077 132.811 153.797 133.143 153.799 133.447 153.526 133.464 153.189 134.157 143.584 133.435 133.857 132.736 124.451Z" fill="#FFFFFF"/><g><path d="M133.401 49.079C133.122 45.089 129.383 42.695 127.205 39.75 127.534 38.843 130.785 39.979 130.196 38.196 127.665 33.814 125.139 29.613 122.503 25.538 121.924 24.656 121.326 23.743 120.881 22.814 120.598 22.181 119.567 22.436 119.638 23.142 119.772 25.073 119.611 26.897 119.102 29.238 119.827 31.603 119.705 34.348 119.756 36.964 127.189 53.709 128.313 70.795 130.299 89.38 130.335 90.123 131.52 90.195 131.6 89.416 133.274 76.655 134.652 62.938 133.401 49.079Z" fill="#FFFFFF"/><path d="M82.302 10.629C82.216 7.822 78.203 13.376 77.519 13.968 74.23 18.047 71.414 22.858 68.389 29.567 68.067 30.453 69.338 30.703 69.859 31.127 71.916 32.193 73.662 33.712 75.257 35.181 74.414 36.063 73.461 36.886 72.438 37.772 71.961 38.18 70.963 38.598 71.374 39.724 78.89 59.056 88.123 77.504 93.556 97.707 93.717 98.383 94.803 98.319 94.84 97.594 96.859 74.321 93.033 49.182 83.141 20.735 81.913 16.905 81.622 13.41 82.302 10.629Z" fill="#FFFFFF"/></g><g><path d="M40.054 171.064C37.97 165.121 38.289 171.083 35.372 165.146 34.575 164.04 36.137 163.905 35.589 162.999 33.744 160.781 33.006 158.588 31.487 157.072 30.852 157.023 29.125 158.571 28.883 159.088 27.526 166.86 25.945 174.747 26.266 182.802 26.265 183.521 26.005 184.702 26.84 185.084 30.318 186.175 33.866 186.734 37.399 187.059 42.719 187.306 42.511 189.08 43.134 184.915 43.776 185.005 45.409 183.933 45.09 183.272 43.52 179.162 41.758 175.045 40.054 171.064Z" fill="#FFFFFF"/><path d="M154.758 121.678C150.454 110.693 147.789 98.11 146.611 83.212 146.569 82.46 145.399 82.411 145.31 83.172 143.723 94.419 141.431 105.309 140.136 116.637 140.083 117.034 140.435 117.4 140.833 117.364 139.104 118.363 139.659 124.805 139.296 126.66 139.118 131.175 139.201 135.765 139.282 140.204 139.427 148.231 139.578 156.532 138.176 164.593 138.089 165.024 138.506 165.443 138.939 165.349 142.353 164.72 146.311 164.268 149.788 165.685 150.153 165.843 150.61 165.601 150.677 165.206 153.17 152.5 154.6 135.718 154.758 121.678Z" fill="#FFFFFF"/><path d="M138.604 129.228C137.105 103.63 152.792 69.342 143.152 44.691 138.243 40.309 132.482 37.01 128.027 32.031 127.52 31.471 126.571 32.166 126.991 32.82 128.156 34.748 129.412 36.796 130.605 38.931 130.518 39.175 129.333 39.553 127.937 39.558 127.354 39.549 127.053 40.333 127.51 40.707 133.333 45.761 133.467 48.389 133.792 54.739 134.486 68.422 133.128 82.714 130.698 95.957 131.893 109.665 132.921 123.766 133.752 137.861 134.448 153.109 131.959 167.925 132.612 183.189 132.624 183.885 133.728 184.064 133.898 183.329 138.642 165.502 138.623 147.061 138.604 129.228Z" fill="#FFFFFF"/><path d="M92.682 95.978C88.124 80.022 81.766 65.714 75.745 51.597 73.933 47.497 72.061 43.259 70.806 38.987 71.244 37.654 73.163 36.911 74.264 35.983 75.233 34.864 72.6 34.071 72.013 33.345 70.662 32.348 69.267 31.318 67.768 30.448 67.398 29.525 73.13 19.617 73.984 18.305 74.553 17.653 74.719 16.593 73.661 16.677 70.269 17.489 66.837 18.41 63.519 19.301 54.708 21.58 45.519 24.308 36.294 24.642 36.209 24.645 34.619 25.484 34.586 25.537 19.291 49.953 7.789 80.024 7.165 109.2 12.518 125.42 19.132 143.065 26.89 158.518 27.063 158.909 27.624 159.028 27.932 158.718 35.391 151.688 49.312 146.242 49.247 146.412 49.696 148.729 51.839 150.824 51.993 153.277 52.217 154.061 53.32 156.329 53.578 156.482 54.302 156.782 55.384 157.973 55.993 157.027 56.307 156.361 57.102 155.977 57.944 155.57 67.753 151.198 74.601 142.81 80.188 134.011 86.511 125.074 95.433 113.314 94.552 101.811 94.403 99.871 93.409 97.885 92.682 95.978ZM51.863 74.199C51.865 74.097 51.866 73.994 51.867 73.892 51.886 73.919 51.905 73.946 51.928 73.97 51.907 74.047 51.884 74.123 51.863 74.199Z" fill="#FFFFFF"/></g><g><g><path d="M52.147 147.193C59.521 145.974 66.277 141.993 71.829 137.107 72.255 136.733 71.709 136.064 71.234 136.336 64.934 139.947 59.136 144.65 51.893 146.272 51.285 146.409 51.552 147.291 52.147 147.193Z" class="MsftOfcResponsive_Fill_000000"/><path d="M60.159 178.087C61.182 174.87 49.013 185.652 46.403 184.4 45.885 184.38 45.747 185.244 46.278 185.324 50.958 185.813 56.817 181.11 60.159 178.087Z" class="MsftOfcResponsive_Fill_000000"/><path d="M58.267 184.077C58.916 182.64 53.883 185.179 53.275 185.212 51.687 185.739 50.057 186.113 48.403 186.353 46.3 188.378 53.09 186.534 53.719 186.328 55.36 185.836 56.955 185.208 58.267 184.077Z" class="MsftOfcResponsive_Fill_000000"/><path d="M64.549 271.55C60.13 274.382 56.265 277.971 52.226 281.306 48.934 284.005 45.351 287.833 40.715 287.272 39.609 287.087 39.108 288.718 40.242 288.988 45.162 290.158 49.39 286.793 52.937 283.852 57.188 280.236 61.671 276.851 65.478 272.755 66.065 272.151 65.293 271.046 64.549 271.55Z" class="MsftOfcResponsive_Fill_000000"/><path d="M99.766 289.073C94.616 292.394 90.245 296.843 85.482 300.688 84.487 301.536 85.924 302.953 86.914 302.12 89.274 300.135 91.634 298.149 93.994 296.164 94.627 295.388 103.633 288.832 99.766 289.073Z" class="MsftOfcResponsive_Fill_000000"/><path d="M95.304 297.739C86.201 314.065 83.816 333.179 83.842 351.609 83.871 352.287 84.954 352.515 85.088 351.778 87.275 337.751 87.603 323.313 92.29 309.775 93.577 305.981 95.174 302.304 97.106 298.792 97.752 297.616 95.971 296.571 95.304 297.739Z" class="MsftOfcResponsive_Fill_000000"/></g><g><path d="M42.462 160.503C42.033 161.37 43.427 161.922 43.767 161.039 43.74 159.857 43.924 158.633 43.467 157.46 42.286 156.202 42.305 159.874 42.462 160.503Z" class="MsftOfcResponsive_Fill_000000"/><path d="M42.525 161.708C42.556 160.587 40.712 162.438 41.192 162.817 41.597 163.222 42.456 162.064 42.525 161.708Z" class="MsftOfcResponsive_Fill_000000"/></g><path d="M156.205 131.154C156.167 127.921 155.976 124.691 155.765 121.471 155.694 121.034 155.822 120.311 155.368 120.067 150.8 105.352 147.923 90.142 147.435 74.72 147.21 68.503 147.967 62.323 147.518 56.086 147.345 50.608 147.082 44.252 141.725 41.243 136.996 38.045 132.547 34.469 128.304 30.652 127.078 29.755 126.047 28.271 124.623 27.816 123.872 26.955 121.164 21.601 120.167 22.206 120.035 21.577 119.424 19.307 118.645 19.852 118.461 19.603 118.007 19.71 117.899 20.014 117.176 22.842 115.851 25.562 113.266 27.136 104.089 33.198 93.142 25.047 88.544 16.896 87.553 15.239 86.685 13.492 85.989 11.691 85.272 9.837 84.793 7.91 84.243 6.004 84.142 5.653 83.564 5.706 83.587 6.093 83.597 6.274 83.613 6.455 83.629 6.636 82.961 7.2 82.596 8.112 82.221 8.863 80.36 8.621 76.88 13.259 75.649 14.713 63.217 16.136 51.406 21.098 39.033 23.032 34.093 24.209 34.04 22.353 31.143 27.158 19.377 45.401 12.893 66.477 8.003 87.472 6.569 94.25 4.588 101.041 4.708 108.023 9.763 123.882 15.292 140.253 22.758 155.438 23.738 157.112 24.968 161.651 26.931 161.535 24.919 169.219 23.727 177.389 24.463 185.312 24.977 187.919 34.773 189.035 37.304 189.435 38.635 212.107 41.091 234.71 43.014 257.34 41.354 258.661 43.103 260.793 44.229 261.829 34.993 269.648 35.624 295.05 31.659 307.493 28.915 320.642 25.726 333.697 22.165 346.648 21.574 348.774 20.565 351.25 21.908 353.298 19.83 356.996 18.388 361.047 17.288 365.138 15.537 366.355 15.152 371.612 14.998 373.784 14.637 376.213 14.976 379.212 18.09 379.192 17.154 382.111 16.592 385.14 16.334 388.193 16.195 389.821 15.893 391.801 16.43 393.384 22.11 401.696 37.642 403.886 46.206 399.033 46.857 398.388 46.573 395.966 46.812 394.942 47.084 391.756 47.553 388.464 46.715 385.299 46.193 382.482 45.232 379.783 44.434 377.041 43.646 374.591 43.734 371.966 43.179 369.486 43.85 369.278 44.777 369.037 44.973 368.271 45.953 365.706 46.677 363.054 47.551 360.451 52.544 345.577 59.596 331.521 66.492 317.464 68.423 327.285 69.769 337.229 70.333 347.225 70.655 352.74 70.764 358.275 70.533 363.796 70.484 364.974 70.405 366.208 71.237 367.108 69.402 369.56 68.789 372.871 69.3 375.85 66.977 376.467 67.346 379.43 67.556 381.284 67.653 382.521 67.664 383.884 68.791 384.656 72.329 386.595 76.283 387.825 80.161 388.911 81.638 389.451 83.923 390.065 84.385 387.951 84.874 390.426 87.087 391.968 89.206 393.027 99.588 399.083 111.629 400.549 123.362 398.516 124.48 398.365 125.596 398.196 126.715 398.043 127.73 398.037 128.854 397.815 129.083 396.654 129.94 394.388 128.008 393.092 127.483 391.097 128.2 386.841 119.701 384.095 116.946 381.592 110.564 377.145 104.897 371.721 100.179 365.534 101.884 364.466 100.92 358.729 101.242 356.684 101.87 339.378 103.215 322.108 104.78 304.865 105.633 299.782 104.836 294 106.331 289.27 120.123 263.885 128.995 235.81 132.439 207.132 135.072 207.9 138.787 207.552 141.184 206.154 141.871 205.62 142.686 204.743 142.849 203.853 143.936 203.237 144.866 202.4 145.571 201.315 148.562 195.552 148.153 188.631 149.354 182.357 150.06 177.574 150.571 172.787 151.258 167.999 152.85 167.273 152.843 165.042 153.131 163.542 154.927 152.849 156.252 142.008 156.205 131.154ZM136.4 40.247C138.472 41.86 140.861 43.234 142.678 45.143 151.24 65.329 138.556 100.467 137.951 122.766 137.897 143.077 138.547 163.31 133.266 183.159 132.611 168.03 135.111 152.957 134.406 137.83 133.582 123.841 132.567 109.859 131.35 95.899 133.751 83.407 134.85 70.206 134.595 57.385 134.059 49.035 134.759 46.13 127.939 40.212 128.864 40.21 131.712 39.961 131.197 38.624 130.006 36.561 128.792 34.511 127.549 32.478 130.235 35.347 133.357 37.88 136.4 40.247ZM114.124 143.067C116.151 144.376 118.113 145.937 120.178 147.254 116.204 147.793 112.173 147.795 108.169 147.776 110.224 146.298 112.355 144.89 114.124 143.067ZM105.738 149.423C106.894 148.273 108.423 148.938 109.889 148.871 107.842 150.971 107.703 155.119 108.597 157.816 103.745 157.748 98.969 156.892 94.21 156.031 98.188 154.05 102.013 151.834 105.738 149.423ZM110.063 157.838C109.718 155.545 108.928 150.692 111.37 149.364 111.631 149.291 111.715 149.074 111.67 148.877 111.962 148.873 112.253 148.868 112.544 148.861 110.842 151.457 109.884 154.976 111.566 157.83 111.065 157.838 110.564 157.84 110.063 157.838ZM113.069 157.788C111.29 154.983 112.059 151.457 113.838 148.821 115.682 148.757 117.522 148.645 119.359 148.469 119.163 149.861 119.44 151.309 119.502 152.71 119.718 154.151 119.462 155.828 120.084 157.15 117.76 157.488 115.417 157.697 113.069 157.788ZM121.348 155.303C121.049 152.992 121.058 150.593 120.472 148.338 120.796 148.279 121.114 148.192 121.383 148.056 121.619 148.212 121.856 148.368 122.093 148.524 122.332 151.23 122.633 153.969 123.028 156.653 122.463 156.761 121.897 156.862 121.329 156.955 121.521 156.456 121.392 155.836 121.348 155.303ZM124.912 156.265C124.667 154.016 124.272 151.725 123.661 149.551 126.056 151.125 128.476 152.645 130.827 154.273 129.042 155.399 126.949 155.806 124.912 156.265ZM123.557 147.311C120.676 145.255 117.332 143.669 114.664 141.461 111.37 138.63 110.739 140.633 111.199 135.288 112.151 112.573 112.002 89.812 110.686 67.117 111.022 67.532 111.624 67.479 111.91 67.047 117.418 58.933 119.908 48.944 120.348 39.244 127.184 56.257 127.767 75.024 129.877 93.049 130.942 100.3 130.796 107.674 131.428 114.998 132.166 127.697 133.73 140.412 132.81 153.141 129.618 151.234 126.658 149.319 123.557 147.311ZM85.453 25.508C87.632 28.571 90.231 31.307 92.984 33.853 95.312 36.461 95.82 35.125 98.293 33.825 99.263 36.632 101.16 39.027 102.566 41.63 103.681 42.976 102.627 47.847 102.833 49.959 102.772 52.027 102.775 54.097 102.779 56.165 95.493 46.919 89.751 36.467 85.453 25.508ZM104.402 56.279C104.372 51.731 104.571 47.167 104.191 42.628 106.17 41.843 108.202 41.605 110.276 42.181 110.876 46.866 112.551 51.394 113.144 56.07 113.23 57.493 113.664 58.927 113.944 60.332 113.128 62.124 112.203 63.865 111.153 65.531 108.75 63.166 106.478 60.681 104.334 58.092 104.497 57.516 104.402 56.873 104.402 56.279ZM112.632 36.055C115.037 38.061 118.144 34.794 118.815 32.475 119.368 40.876 118.175 49.555 115.165 57.415 113.934 53.663 113.234 49.76 112.333 45.912 111.135 40.649 111.155 41.309 112.632 36.055ZM133.347 191.653C133.517 191.581 133.652 191.443 133.698 191.239 133.739 191.227 133.78 191.213 133.819 191.196 133.639 192.237 133.517 193.254 133.377 194.309 133.396 193.421 133.39 192.534 133.347 191.653ZM133.043 200.564C133.096 199.648 133.159 198.723 133.217 197.794 133.328 198.876 133.695 199.953 134.478 200.726 133.993 200.877 133.507 201.005 133.01 201.065 133.021 200.898 133.034 200.731 133.043 200.564ZM122.518 26.765C124.976 30.63 127.343 34.553 129.627 38.523 128.756 38.925 127.043 38.352 126.659 39.385 126.464 39.465 126.354 39.718 126.537 39.942 128.622 42.923 132.475 45.301 132.748 49.131 133.959 62.545 132.696 76.022 130.95 89.331 129.9 75.487 127.851 61.711 124.621 48.206 123.602 44.375 122.346 40.459 120.409 36.971 120.43 34.614 120.315 32.258 120.051 29.915 120.024 29.673 119.902 29.494 119.741 29.378 120.2 27.268 120.446 25.342 120.29 23.098 120.902 24.376 121.764 25.579 122.518 26.765ZM113.424 28.626C115.989 27.015 118.197 24.519 118.734 21.445 119.605 25.039 118.744 34.529 114.312 35.382 113.074 35.608 111.009 31.096 109.866 30.137 111.081 29.829 112.274 29.336 113.424 28.626ZM108.837 30.354C112.819 36.542 111.325 33.838 110.326 40.833 108.58 40.15 106.583 40.384 104.877 40.933 104.655 41.013 104.175 41.322 103.931 41.173 102.313 38.64 101.001 35.747 98.947 33.505 100.824 32.579 102.976 31.949 104.428 30.373 105.894 30.589 107.376 30.598 108.837 30.354ZM83.825 8.131C85.847 17.799 92.803 27.148 102.516 29.976 100.287 31.29 97.729 32.068 95.769 33.812 95.453 34.077 95.326 34.226 94.96 33.941 87.816 27.796 79.13 18.122 83.825 8.131ZM78.028 14.378C79.158 12.992 80.434 11.759 81.666 10.474 80.839 13.854 81.462 17.645 82.52 20.943 91.033 45.423 96.445 71.535 94.188 97.537 88.815 77.467 79.487 58.78 71.981 39.475 71.709 38.857 72.591 38.585 72.927 38.208 73.765 37.515 74.565 36.793 75.323 36.02 75.716 35.978 75.715 35.53 75.981 35.325 76.353 34.916 75.889 34.266 75.387 34.539 73.72 32.473 71.211 31.211 68.985 29.835 71.44 24.391 74.271 19.038 78.028 14.378ZM38.378 25.239C50.461 24.082 62.052 20.129 73.812 17.312 73.029 18.656 65.578 30.738 67.4 30.991 69.678 32.305 71.69 33.988 73.849 35.476 72.597 36.505 70.507 37.281 70.126 38.996 72.107 45.83 75.581 52.37 78.197 59.039 83.107 70.495 87.872 82.048 91.435 94.005 92.182 96.523 92.803 99.085 93.744 101.538 93.536 103.157 93.295 104.771 93.013 106.379 91.759 116.762 85.507 125.334 79.644 133.645 74.269 141.915 68.158 150.013 58.969 154.258 57.82 155.077 56.022 155.429 55.399 156.749 54.895 156.487 54.399 156.209 53.91 155.92 54.22 154.884 53.152 154.008 52.64 153.193 52.331 150.835 50.889 148.759 49.855 146.647 50.777 146.277 52.32 145.49 51.545 144.399 50.878 142.037 49.835 139.797 49.055 137.472 45.389 127.664 41.878 117.794 38.043 108.054 39.617 108.559 40.941 102.997 41.742 101.802 44.6 95.187 47.392 88.539 49.95 81.802 50.914 79.255 51.874 76.671 52.586 74.043 52.645 73.826 52.548 73.636 52.396 73.518 53.458 56.405 50.622 36.308 36.042 25.306 36.821 25.296 37.601 25.282 38.378 25.239ZM45.502 182.67C43.537 177.787 41.804 172.674 39.188 168.116 39.672 167.574 40.121 167.017 40.607 166.473 43.007 167.269 46.059 166.48 47.732 164.575 48.693 163.193 48.509 161.162 48.465 159.558 48.921 159.885 49.632 159.902 49.888 159.301 50.698 158.316 52.095 157.871 53.087 157.079 54.242 157.776 55.473 158.873 56.867 158.899 56.075 163.786 53.475 168.145 51.562 172.652 49.951 176.168 48.476 180.083 45.502 182.67ZM37.853 166.903C37.125 166.22 36.63 165.332 36.203 164.443 36.481 163.899 36.831 163.491 37.381 163.225 37.698 164.156 38.234 164.977 39.019 165.605 38.702 166.043 38.165 166.428 37.853 166.903ZM48.693 147.145C49.514 148.89 50.275 150.661 51.07 152.418 49.156 152.414 47.51 154.017 46.169 155.256 44.803 154.193 43.009 153.789 41.286 154.296 37.575 153.928 36.831 159.259 37.096 162.006 36.8 161.895 36.542 162.094 36.315 162.266 35.082 160.431 33.834 158.602 32.403 156.909 37.463 153.061 42.999 149.941 48.693 147.145ZM47.546 156.753C47.411 156.543 47.26 156.34 47.097 156.146 48.499 155.222 51.1 152.211 52.148 155.018 52.669 155.885 48.872 156.713 48.233 158.3 48.08 157.758 47.857 157.236 47.546 156.753ZM40.694 165.129C37.256 163.642 37.782 158.019 40.123 155.678 41.567 156.419 43.621 153.838 46.385 156.7 47.881 158.384 47.612 160.879 47.075 162.901 46.37 165.195 42.707 166.043 40.694 165.129ZM23.383 149.557C17.278 136.274 12.676 122.394 8.028 108.554 10.586 79.701 19.614 50.771 34.804 26.02 49.596 37.291 51.488 57.036 51.207 74.282 47.015 85.27 41.969 96.288 37.642 107.266 35.315 106.249 37.692 110.767 37.842 111.633 38.258 112.84 38.69 114.041 39.118 115.243 42.544 124.913 46.049 134.554 49.538 144.201 41.162 146.894 33.831 152.26 27.483 158.243 26.121 155.319 24.664 152.505 23.383 149.557ZM30.397 185.336C29.276 185.084 28.134 184.825 27.047 184.463 26.753 184.101 26.941 183.222 26.919 182.772 26.599 174.819 28.172 166.96 29.527 159.2 30.128 158.694 30.738 158.2 31.357 157.715 32.461 159.686 33.733 161.561 35.06 163.384 34.317 163.911 34.397 164.764 34.805 165.472 35.477 166.716 36.64 169.29 38.351 168.744 40.435 173.635 42.582 178.535 44.479 183.505 44.117 183.777 43.736 184.034 43.344 184.287 42.05 183.99 42.435 186.206 42.098 186.982 38.19 186.337 34.252 186.298 30.397 185.336ZM22.456 366.521C21.917 362.617 21.5 358.283 23.177 354.618 23.954 355.202 24.855 355.646 25.686 356.128 27.983 357.463 29.652 359.579 31.362 361.562 27.847 362.081 24.489 364.353 22.644 367.36 22.573 367.076 22.506 366.795 22.456 366.521ZM17.307 376.543C16.82 374.47 17.048 372.084 17.249 370.004 17.783 371.905 17.598 374.333 18.924 375.873 18.839 376.279 18.764 376.686 18.695 377.094 18.286 376.868 17.613 376.935 17.307 376.543ZM45.441 395.068C45.371 396.059 45.358 397.051 45.283 398.041 37.645 400.73 28.804 400.434 21.832 396.05 18.138 393.925 17.48 392.812 18.088 388.545 20.035 398.51 38.371 399.188 45.441 395.068ZM44.679 387.109C45.022 388.917 44.609 390.775 44.465 392.576 43.698 393.24 41.152 394.233 40.733 394.363 40.314 394.494 39.276 394.805 38.816 394.875 33.086 395.739 25.002 395.346 21.291 390.746 18.266 386.215 20.491 380.561 20.532 375.557 21.013 374.659 20.565 373.336 20.371 372.393 18.947 367.493 19.346 365.467 20.905 360.686 20.724 361.7 21.13 371.65 22.963 369.928 22.747 367.972 25.632 366.101 27.089 364.961 28.667 363.844 30.586 363.418 32.336 362.687 34.98 365.372 37.574 369.518 41.688 369.687 40.927 375.67 43.901 381.286 44.679 387.109ZM78.239 386.198C75.39 385.226 72.332 384.363 69.771 382.809 69.594 381.34 68.894 378.439 69.801 377.262 69.686 378.731 74.214 380.06 75.387 380.95 78.116 382.421 80.718 384.107 83.312 385.802 82.957 386.239 82.838 386.808 82.654 387.368 81.173 387.189 79.64 386.626 78.239 386.198ZM108.671 397.261C103.274 396.932 89.019 392.7 86.467 387.865 95.595 394.431 106.608 398.25 117.905 396.413 120.907 395.844 124.246 396.063 127.025 394.741 127.202 395.114 127.245 395.541 127.129 395.941 121.045 396.917 114.838 397.744 108.671 397.261ZM108.178 377.159C110.971 379.784 113.96 382.212 117.187 384.284 120.402 386.814 126.104 387.601 126.322 392.525 126.139 392.705 126.029 392.957 126.026 393.22 107.725 397.137 97.389 393.181 82.68 382.541 79.148 380.348 75.578 377.948 71.55 376.792 72.008 375.997 71.793 374.942 71.813 374.059 71.763 372.026 72.378 370.085 73.193 368.247 73.541 368.369 73.897 368.474 74.247 368.569 75.436 370.302 76.824 371.791 78.507 373.055 80.166 374.301 82.045 375.258 83.957 376.05 85.544 376.54 88.374 378.201 89.354 376.103 90.2 373.874 91.216 371.368 90.767 368.959 93.529 368.268 96.224 367.223 98.666 365.752 101.381 369.923 104.555 373.747 108.178 377.159ZM88.086 375.75C88.077 375.775 88.06 375.816 88.043 375.828 83.324 375.127 78.819 372.366 75.553 368.914 80.216 370.116 85.148 370.188 89.855 369.173 89.285 371.36 89.097 373.697 88.086 375.75ZM129.461 209.159C125.741 236.602 116.843 263.322 103.106 287.383 102.532 288.406 103.009 289.379 103.782 289.865 99.858 314.264 99.007 339.058 97.738 363.703 91.514 367.049 84.209 368.485 77.245 366.944 76.173 366.584 73.079 366.301 72.806 365.127 73.366 348.169 72.03 330.922 67.983 314.423 87.235 279.038 93.332 238.872 99.978 199.662 102.953 199.773 106.107 200.225 109.003 199.396 110.263 197.886 106.926 198.198 106.138 198.207 103.372 198.257 100.604 198.169 97.854 197.864 96.537 197.93 96.928 199.719 98.644 199.543 92.29 223.619 89.627 248.608 82.608 272.53 72.541 305.313 51.653 333.766 42.506 366.873 39.514 367.05 37.398 363.762 35.481 361.848 45.589 339.272 53.053 315.281 56.467 290.752 56.544 290.197 55.739 289.933 55.599 290.513 49.925 314.393 43.267 338.023 34.792 361.07 26.647 350.073 22.376 354.752 24.903 347.698 31.89 323.059 36.643 297.89 41.236 272.728 42.104 269.153 43.627 265.807 46.307 263.223 48.207 264.036 49.546 261.472 47.831 260.34 47.306 259.935 46.802 259.412 46.358 258.86 44.977 235.838 42.28 212.651 39.685 189.67 41.092 189.861 44.901 189.445 43.166 187.426 43.403 186.676 43.584 185.907 43.699 185.129 49.718 182.87 51.408 175.533 54.102 170.352 55.833 166.259 58.202 162.133 58.168 157.573 72.442 151.758 79.743 137.582 87.964 125.471 102.706 102.15 96.549 63.254 89.51 37.839 93.052 44.848 97.281 51.507 102.176 57.65 104.412 60.455 106.791 63.149 109.296 65.717 109.169 67.047 109.295 68.407 109.377 69.737 110.817 91.467 109.79 113.257 109.223 135.001 109.042 138.509 108.449 140.231 112.093 142.068 105.057 146.758 98.199 152.293 90.14 155.102 85.368 155.985 81.24 152.362 76.933 150.841 75.297 150.097 73.624 149.271 71.883 148.821 70.783 148.536 70.241 149.986 71.134 150.597 73.944 152.389 77.146 153.506 80.138 154.959 84.009 157.024 88.471 158.801 92.716 156.684 102.708 160.418 114.18 159.922 124.573 157.992 126.899 157.307 130.501 157.333 131.613 154.814 131.925 155.023 132.296 155.281 132.675 155.399 131.981 166.553 131.23 177.746 132.114 188.91 130.528 195.439 130.642 202.483 129.461 209.159ZM140.609 205.036C138.298 206.465 135.186 206.49 132.54 206.28 132.596 205.785 132.649 205.29 132.7 204.795 135.371 205.776 138.314 205.431 140.984 204.652 140.864 204.789 140.741 204.919 140.609 205.036ZM149.343 171.988C148.548 178.344 147.76 184.699 146.848 191.04 146.281 195.745 145.727 202.34 140.048 203.445 137.729 203.934 135.055 204.457 132.841 203.315 132.868 203.006 132.893 202.697 132.917 202.388 134.596 202.144 136.109 201.275 137.773 201.031 137.707 201.814 138.766 202.055 139.071 201.293 139.519 200.174 139.856 199.028 140.166 197.864 140.742 195.714 140.4 193.483 141.306 191.394 141.711 190.118 142.367 188.835 142.581 187.516 141.969 185.478 140.438 189.784 140.251 190.417 139.177 193.326 139.073 196.682 137.095 199.191 136.214 200.434 135.496 200.514 134.821 199.071 134.133 197.391 134.557 195.49 134.701 193.74 134.974 190.652 135.288 187.677 136.136 184.701 137.166 181.517 136.473 176.61 139.557 174.565 139.929 174.378 139.656 173.859 139.289 173.93 138.164 174.147 137.413 174.754 136.883 175.555 137.477 172.405 138.088 169.256 138.599 166.092 142.393 165.731 146.339 165.249 149.977 166.709 149.73 168.467 149.58 170.23 149.343 171.988ZM153.295 139.091C152.703 147.818 151.733 156.492 150.035 165.079 146.465 163.625 142.524 164.022 138.82 164.705 141.009 152.119 139.45 139.363 139.95 126.686 140.083 123.966 140.303 121.255 140.586 118.551 141.63 117.013 144.036 116.993 145.718 116.537 147.508 114.738 141.238 115.881 140.788 116.71 142.065 105.5 144.386 94.431 145.96 83.263 146.998 96.391 149.332 109.62 154.149 121.917 154.155 127.61 153.621 133.39 153.295 139.091Z" class="MsftOfcResponsive_Fill_000000"/><g><path d="M116.649 113.824C115.897 112.459 113.878 113.699 114.636 115.001 115.385 116.307 117.419 115.125 116.649 113.824Z" class="MsftOfcResponsive_Fill_000000"/><path d="M115.761 92.623C117.136 92.7 117.138 90.677 115.761 90.754 114.559 90.693 114.557 92.683 115.761 92.623Z" class="MsftOfcResponsive_Fill_000000"/><path d="M114.586 69.493C114.598 68.123 112.454 68.124 112.472 69.493 112.46 70.862 114.604 70.862 114.586 69.493Z" class="MsftOfcResponsive_Fill_000000"/></g></g></g></svg>